<svg width="208" height="61" viewBox="0 0 208 61" fill="none" xmlns="http://www.w3.org/2000/svg">
<path d="M192.573 43.6985V35.2578C192.897 35.4326 193.293 35.5899 193.76 35.7297C194.264 35.8695 194.803 35.9394 195.378 35.9394C196.062 35.9394 196.637 35.817 197.104 35.5724C197.608 35.2928 197.86 34.8559 197.86 34.2617C197.86 33.8773 197.716 33.5103 197.428 33.1608C197.14 32.8112 196.673 32.3394 196.026 31.7452C194.803 30.6268 193.832 29.5258 193.113 28.4423C192.43 27.3239 192.088 25.8909 192.088 24.1434C192.088 21.3473 192.951 19.2851 194.677 17.957C196.403 16.5939 198.759 15.9124 201.743 15.9124C204.009 15.9124 205.825 15.9823 207.191 16.1221V24.72C206.22 24.0909 205.16 23.7764 204.009 23.7764C203.433 23.7764 202.93 23.9511 202.498 24.3006C202.103 24.6152 201.905 25.0521 201.905 25.6113C201.905 25.9259 202.049 26.2754 202.337 26.6598C202.624 27.0093 203.092 27.4812 203.739 28.0754C205.034 29.3336 206.059 30.5569 206.814 31.7452C207.605 32.9336 208 34.4015 208 36.1491C208 38.8054 207.137 40.8325 205.411 42.2306C203.721 43.6286 201.15 44.3277 197.698 44.3277C197.086 44.3277 196.403 44.2927 195.648 44.2228C194.893 44.1529 193.868 43.9781 192.573 43.6985Z" fill="#4C4C4D"/>
<path d="M161.398 46.6565V20.459H171.347V45.1472C171.347 46.5846 171.577 47.7166 172.035 48.5432C172.529 49.3697 173.341 49.783 174.469 49.783C175.598 49.783 176.392 49.3697 176.851 48.5432C177.345 47.7166 177.592 46.5846 177.592 45.1472V20.459H187.541V46.6565C187.541 51.1845 186.429 54.5804 184.207 56.8444C181.984 59.1084 178.738 60.2404 174.469 60.2404C170.201 60.2404 166.955 59.1084 164.732 56.8444C162.51 54.5804 161.398 51.1845 161.398 46.6565Z" fill="#4C4C4D"/>
<path d="M131.428 17.839V14.4259L140.386 9.09277V17.839H143.681V25.8386H140.386V33.4116C140.386 34.3005 140.523 34.9938 140.798 35.4915C141.107 35.9537 141.845 36.1848 143.012 36.1848C143.492 36.1848 143.921 36.1137 144.299 35.9715H144.35L143.012 45.4644C140.643 45.4644 138.824 45.4288 137.554 45.3577C136.319 45.251 135.22 44.9844 134.259 44.5577C133.333 44.1311 132.629 43.4378 132.148 42.4778C131.668 41.5179 131.428 40.1846 131.428 38.478V25.8386H129.574V17.839H131.428Z" fill="#4C4C4D"/>
<path d="M125.027 23.8687V51.6406H115.818V49.0671C114.866 50.1037 113.842 50.9079 112.749 51.4797C111.655 52.0159 110.438 52.284 109.097 52.284C108.074 52.284 107.086 52.141 106.133 51.855C105.216 51.5691 104.369 51.1045 103.593 50.4611C102.852 49.8177 102.252 48.9778 101.793 47.9412C101.37 46.9047 101.158 45.6895 101.158 44.2955V23.8687H110.367V39.095C110.367 40.2387 110.561 41.168 110.949 41.8829C111.337 42.5977 112.078 42.9552 113.172 42.9552C114.195 42.9552 114.883 42.5977 115.236 41.8829C115.624 41.1323 115.818 40.203 115.818 39.095V23.8687H125.027Z" fill="#4C4C4D"/>
<path d="M67.0605 31.2567C67.0605 29.2995 67.4422 27.4645 68.2055 25.7519C68.9689 24.0044 70.023 22.484 71.3679 21.1908C72.7492 19.8976 74.3304 18.884 76.1115 18.15C77.929 17.4161 79.8373 17.0491 81.8365 17.0491C83.8721 17.0491 85.7804 17.4161 87.5615 18.15C89.379 18.884 90.9602 19.8976 92.3051 21.1908C93.65 22.484 94.7041 24.0044 95.4675 25.7519C96.2308 27.4645 96.6125 29.2995 96.6125 31.2567C96.6125 33.179 96.2308 35.014 95.4675 36.7615C94.7041 38.4741 93.65 39.9945 92.3051 41.3227C90.9602 42.6158 89.379 43.6294 87.5615 44.3634C85.7804 45.0974 83.8721 45.4644 81.8365 45.4644C79.8373 45.4644 77.929 45.0974 76.1115 44.3634C74.3304 43.6294 72.7492 42.6158 71.3679 41.3227C70.023 39.9945 68.9689 38.4741 68.2055 36.7615C67.4422 35.014 67.0605 33.179 67.0605 31.2567ZM76.5477 31.2567C76.5477 32.6897 77.0566 33.8955 78.0744 34.8742C79.0921 35.8528 80.3462 36.3421 81.8365 36.3421C83.3268 36.3421 84.5809 35.8528 85.5986 34.8742C86.6164 33.8955 87.1253 32.6897 87.1253 31.2567C87.1253 29.8237 86.6164 28.6179 85.5986 27.6393C84.5809 26.6606 83.3268 26.1713 81.8365 26.1713C80.3462 26.1713 79.0921 26.6606 78.0744 27.6393C77.0566 28.6179 76.5477 29.8237 76.5477 31.2567Z" fill="#4C4C4D"/>
<path d="M36.3721 24.0738V0H45.6484V12.2481H45.755C46.1104 11.685 46.9456 11.1746 48.2606 10.7171C49.5757 10.2595 50.9085 10.0308 52.259 10.0308C53.6807 10.0308 55.1201 10.2947 56.5773 10.8227C58.0345 11.3506 59.3851 12.1777 60.629 13.304C61.873 14.4302 62.8681 15.8908 63.6145 17.6858C64.3964 19.4808 64.7874 21.5925 64.7874 24.021C64.7874 26.6255 64.3786 28.878 63.5612 30.7786C62.7793 32.6791 61.6953 34.2102 60.3092 35.3716C58.9586 36.4979 57.4125 37.325 55.671 37.8529C53.965 38.3808 52.1524 38.6448 50.2332 38.6448C46.9989 38.6448 44.4044 38.1345 42.4496 37.1138C40.4949 36.0931 39.091 34.8261 38.238 33.3127C37.385 31.7993 36.8519 30.321 36.6386 28.878C36.4609 27.3998 36.3721 25.7984 36.3721 24.0738ZM45.4351 24.3378C45.4351 25.7456 45.9327 26.9599 46.9278 27.9805C47.923 28.966 49.1136 29.4588 50.4998 29.4588C51.8859 29.4588 53.0587 28.966 54.0183 27.9805C55.0135 26.9599 55.5111 25.7456 55.5111 24.3378C55.5111 22.93 55.0135 21.7333 54.0183 20.7478C53.0587 19.7272 51.8859 19.2168 50.4998 19.2168C49.1136 19.2168 47.923 19.7272 46.9278 20.7478C45.9327 21.7333 45.4351 22.93 45.4351 24.3378Z" fill="#4C4C4D"/>
<path d="M0 46.6011L13.3882 7.9563H24.6513L37.5082 46.6011H26.7233L25.3419 42.3072H12.1663L10.7849 46.6011H0ZM22.3668 32.7534L18.8072 22.0187H18.701L15.2477 32.7534H22.3668Z" fill="#4C4C4D"/>
</svg>
