<?xml version="1.0" encoding="UTF-8"?>
<svg id="Layer_1" data-name="Layer 1" xmlns="http://www.w3.org/2000/svg" viewBox="0 0 380 208.53">
  <defs>
    <style>
      .cls-1 {
        fill: #4c4c4d;
      }
    </style>
  </defs>
  <path class="cls-1" d="m5.34,91.98C1.29,91.98.01,93.26.01,95.95c0,24.38.07,38.45.07,44.06,0,2.34.93,3.62,4.05,3.62,2.42,0,3.84-.57,4.27-2.77.57-2.92.49-3.41,1.14-3.41,1.35,0,1.28,6.68,12.44,6.68,9.45,0,15.27-8.03,15.27-19.47,0-12.51-5.69-18.98-14.71-18.98s-10.38,5.12-11.59,5.12c-.57,0-.71-.28-.71-1.56,0-1.21.14-2.34.14-5.96v-7.32c.01-2.48-.56-3.97-5.04-3.97h0Zm53.65,14.07c-11.79,0-18.4,7.74-18.4,18.62,0,12.15,7.04,19.82,18.34,19.82,12.01,0,16.41-6.39,16.41-9.94h0c0-2.42-1.71-3.69-3.55-3.69-5.19,0-3.56,5.76-12.44,5.76-5.4,0-9.1-3.63-9.1-8.46,0-1.14.14-1.85,1.71-1.85s18.34.07,20.32.07c2.78,0,4.12-.85,4.12-5.12,0-9.73-6.33-15.21-17.41-15.21h0Zm.29,7.39c6.04,0,8.53,3.56,8.53,6.19,0,1.13-.43,1.63-1.78,1.63h-13.93c-1.28,0-1.57-.43-1.57-1.49,0-2.49,2.49-6.33,8.74-6.33h0Zm-40.57,1.13c5.11,0,8.31,2.63,8.31,10.31s-3.48,11.65-8.74,11.65c-4.97,0-8.38-4.2-8.38-11.16,0-8.17,3.77-10.8,8.82-10.8Zm-13.38,41.35c-4.05,0-5.33,1.28-5.33,3.98,0,24.38.07,38.45.07,44.06,0,2.34.92,3.63,4.05,3.63,2.42,0,3.84-.57,4.27-2.78.57-2.91.49-3.41,1.13-3.41,1.35,0,1.28,6.68,12.44,6.68,9.45,0,15.28-8.03,15.28-19.47,0-12.51-5.69-18.98-14.71-18.98s-10.38,5.11-11.58,5.11c-.57,0-.71-.29-.71-1.56,0-1.21.14-2.34.14-5.97v-7.32c0-2.48-.56-3.98-5.03-3.98h0Zm329.97,0c-3.7,0-5.05,1.35-5.05,3.84v39.74c0,5.4,2.84,9.02,8.81,9.02,4.33,0,6.39-1.56,6.39-4.55,0-2.13-.92-3.27-2.77-3.27-.78,0-1.14.14-1.64.14-.92,0-1.21-.5-1.21-1.85,0-3.48.29-34.89.29-39.09,0-3.12-1.42-3.98-4.83-3.98h0Zm-221.38,0c-4.05,0-5.33,1.28-5.33,3.98,0,24.38.07,38.45.07,44.06,0,2.34.93,3.63,4.05,3.63,2.42,0,3.84-.57,4.27-2.78.57-2.91.49-3.41,1.14-3.41,1.35,0,1.28,6.68,12.43,6.68,9.45,0,15.28-8.03,15.28-19.47,0-12.51-5.68-18.98-14.71-18.98s-10.38,5.11-11.59,5.11c-.57,0-.71-.29-.71-1.56,0-1.21.14-2.34.14-5.97v-7.32c.01-2.48-.56-3.98-5.04-3.98h0Zm-54.93,14.06c-11.8,0-18.4,7.75-18.4,18.62,0,12.15,7.03,19.83,18.33,19.83,12.01,0,16.42-6.4,16.42-9.95h0c0-2.41-1.7-3.69-3.55-3.69-5.19,0-3.55,5.76-12.43,5.76-5.41,0-9.1-3.62-9.1-8.46,0-1.14.14-1.85,1.71-1.85s18.33.07,20.33.07c2.77,0,4.12-.85,4.12-5.12,0-9.73-6.32-15.21-17.41-15.21h0Zm248.88,0c-11.8,0-18.41,7.75-18.41,18.62,0,12.15,7.04,19.83,18.34,19.83,12.01,0,16.42-6.39,16.42-9.95h0c0-2.42-1.71-3.7-3.56-3.7-5.19,0-3.55,5.76-12.44,5.76-5.4,0-9.1-3.62-9.1-8.46,0-1.14.14-1.85,1.71-1.85s18.33.07,20.33.07c2.77,0,4.12-.85,4.12-5.12,0-9.73-6.32-15.21-17.41-15.21h0Zm-75.61.07c-8.03,0-15.85,3.77-15.85,12.01,0,4.97,2.13,9.45,12.36,11.15,8.18,1.35,10.45,1.92,10.45,4.41,0,1.78-1.35,3.56-6.33,3.56-9.52,0-8.81-6.11-13.36-6.11-2.48,0-3.55,1.21-3.55,3.77,0,3.55,4.19,9.66,15.92,9.66s17.12-5.19,17.12-11.3c0-5.05-2.13-8.38-13.93-10.44-8.03-1.42-9.24-2.7-9.24-5.4,0-2.56,2.27-3.84,6.32-3.84,3.42,0,5.68,1.07,7.32,3.84.57.99,1.71,2.28,3.7,2.28,2.92,0,4.62-1.28,4.62-3.7,0-5.11-4.62-9.88-15.57-9.88h0Zm36.74,0c-8.03,0-15.85,3.77-15.85,12.01,0,4.97,2.13,9.45,12.36,11.15,8.18,1.35,10.45,1.92,10.45,4.41,0,1.78-1.35,3.56-6.33,3.56-9.52,0-8.81-6.11-13.36-6.11-2.49,0-3.55,1.21-3.55,3.77,0,3.55,4.2,9.66,15.92,9.66s17.13-5.19,17.13-11.3c0-5.05-2.14-8.38-13.94-10.44-8.03-1.42-9.23-2.7-9.23-5.4,0-2.56,2.27-3.84,6.32-3.84,3.41,0,5.69,1.07,7.32,3.84.57.99,1.7,2.28,3.7,2.28,2.92,0,4.62-1.28,4.62-3.7,0-5.11-4.62-9.88-15.56-9.88h0Zm94.24,0c-8.04,0-15.85,3.77-15.85,12.01,0,4.97,2.14,9.45,12.37,11.15,8.17,1.35,10.45,1.92,10.45,4.41,0,1.78-1.35,3.55-6.33,3.55-9.53,0-8.81-6.11-13.36-6.11-2.48,0-3.56,1.21-3.56,3.77,0,3.55,4.2,9.66,15.92,9.66s17.13-5.19,17.13-11.3c0-5.05-2.13-8.38-13.93-10.45-8.04-1.42-9.24-2.7-9.24-5.4,0-2.56,2.28-3.84,6.33-3.84,3.41,0,5.68,1.07,7.32,3.84.57.99,1.71,2.28,3.7,2.28,2.92,0,4.62-1.28,4.62-3.7,0-5.11-4.62-9.88-15.56-9.88h0Zm-181.09.56c-4.05,0-5.05,1.21-5.05,3.55,0,12.58.07,7.32.07,18.69,0,10.45,4.05,15.63,12.36,15.63,10.17,0,10.52-7.32,11.73-7.32.65,0,.65,1.35,1,2.92.5,2.2,1.42,3.48,4.55,3.48s4.26-1.42,4.26-3.77h.01c0-2.42.21-25.44.21-29.71,0-2.63-1.63-3.27-5.25-3.27s-5.05.92-5.05,3.13.14,5.33.14,14.14c0,7.82-2.48,11.73-7.53,11.73-4.12,0-6.47-3.13-6.47-9.38,0-3.62.14-15.14.14-16.41,0-2.78-1.49-3.41-5.12-3.41h0Zm-27.79.21c-2.98,0-3.91.78-3.91,3.13s-.29,11.16-.29,29.99c0,2.63,1.35,3.77,5.12,3.77,4.05,0,5.04-1.21,5.04-3.77v-13.22c0-7.18,3.13-10.73,9.1-10.73,3.62,0,4.12-2.34,4.12-4.97,0-3.13-1.28-4.2-4.19-4.2-7.32,0-8.6,6.26-9.81,6.26-.5,0-.71-.36-1.06-2.78-.43-2.7-1.14-3.48-4.12-3.48h0Zm-95.08,6.54c6.04,0,8.53,3.56,8.53,6.19,0,1.14-.43,1.63-1.78,1.63h-13.93c-1.28,0-1.56-.43-1.56-1.49,0-2.49,2.49-6.32,8.74-6.32h0Zm248.88,0c6.04,0,8.52,3.56,8.52,6.19,0,1.14-.42,1.63-1.77,1.63h-13.93c-1.28,0-1.56-.43-1.56-1.49,0-2.49,2.48-6.32,8.74-6.32h0Zm-289.46,1.13c5.12,0,8.32,2.63,8.32,10.31s-3.48,11.65-8.74,11.65c-4.97,0-8.38-4.19-8.38-11.16,0-8.17,3.76-10.8,8.81-10.8Zm108.59,0c5.12,0,8.32,2.63,8.32,10.31s-3.48,11.65-8.74,11.65c-4.97,0-8.38-4.19-8.38-11.16,0-8.17,3.77-10.8,8.81-10.8Zm-31.48,18.76c-3.41,0-5.69,1.56-5.69,5.33,0,3.42,2.13,5.54,5.9,5.54s5.97-1.7,5.97-5.54c0-3.41-1.28-5.33-6.19-5.33h0Z"/>
  <path class="cls-1" d="m143.84,64.07h0c-18.82,0-37.52,14.18-37.52,37.91s21.29,37.3,39.81,37.3c20.37,0,30.2-6.38,47.36-2.92,13.42,2.71,20.67,9.27,24.28,12.72,1.72,1.65,3.91,1.84,5.4.85,1.49-.99,2.5-2.84,1.49-7.29-2.34-10.36-7.87-21.95-14.27-31.84-12.59-19.44-38.12-46.73-66.55-46.73h0Zm174.17,0c-28.44,0-53.97,27.29-66.55,46.73-6.4,9.89-11.93,21.48-14.27,31.84-1.01,4.44,0,6.3,1.49,7.29,1.49,1,3.68.8,5.4-.85,3.6-3.45,10.85-10.01,24.28-12.72,17.17-3.46,26.99,2.92,47.36,2.92,18.51,0,39.81-14.3,39.81-37.31s-18.7-37.91-37.52-37.91h0s0,0,0,0Z"/>
  <path class="cls-1" d="m255.01,0c-10.51,0-19.21,4.41-24.09,10.87-4.88-6.45-13.58-10.87-24.09-10.87-19.03,0-36.49,15.15-36.49,37.14,0,9.64,3.87,16.95,7.38,22.06,3.99,5.83,9.25,10.89,17.52,18.06,11.99,10.41,21.86,20.57,31.28,40.45.75,1.58,2.34,3.37,4.4,3.37s3.65-1.79,4.4-3.37c9.42-19.88,19.29-30.04,31.27-40.45,8.27-7.17,13.53-12.22,17.52-18.06,3.51-5.11,7.38-12.42,7.38-22.06C291.5,15.15,274.04,0,255.01,0Zm20.14,52.48c-13.22,18.06-31.16,23.86-44.23,52.15-13.06-28.29-31.01-34.09-44.23-52.15-3.36-4.6-5.23-9.64-5.23-15.12,0-14.51,11.74-26.5,26.26-26.5,12.6,0,20.45,9.5,23.2,16.28,2.74-6.78,10.6-16.28,23.21-16.28h0c14.51,0,26.26,11.99,26.26,26.5,0,5.49-1.88,10.53-5.23,15.12Z"/>
</svg>