<?xml version="1.0" encoding="UTF-8"?>
<svg id="Layer_1" data-name="Layer 1" xmlns="http://www.w3.org/2000/svg" viewBox="0 0 143.8 72.36">
  <defs>
    <style>
      .cls-1 {
        fill: #4c4c4c;
      }
    </style>
  </defs>
  <path class="cls-1" d="m143.8,32.83v6.4s-.05-.1-.07-.14c-.82,8.94-4.38,16.6-10.8,22.91-6.43,6.32-14.19,9.77-23.16,10.3-19.68,1.17-35.97-13.28-38.14-31.54-1.44,10.18-6.18,18.48-14.48,24.54-8.31,6.06-17.68,8.21-27.82,6.34C12.33,68.51.35,53.78,0,37.14-.34,20.17,11.38,4.63,29.01,1.2c10.1-1.97,19.48.05,27.85,6.05,8.37,5.99,13.13,14.26,14.73,24.3,1.24-8.58,4.98-15.96,11.39-21.91C89.42,3.68,97.09.53,105.85.05c1.54-.08,3.09-.06,4.64.07,1.55.13,3.09.36,4.61.68,1.52.32,2.99.78,4.46,1.26,1.48.48,2.91,1.1,4.3,1.8,1.39.69,2.72,1.48,4,2.34,1.29.87,2.52,1.82,3.69,2.86,1.15,1.03,2.26,2.11,3.27,3.28,1.02,1.18,2.01,2.38,2.85,3.69.83,1.3,1.67,2.6,2.33,4.01.66,1.41,1.35,2.8,1.82,4.29.47,1.47.92,2.95,1.26,4.46.33,1.51.5,3.04.63,4.57.05-.18,0-.36.09-.53Zm-36.21,38.33c18.66.1,34.94-15.04,35.03-34.74.09-19.91-15.93-34.87-34.35-35.2-19.89-.35-35.72,15.67-35.74,34.88-.02,19.72,16.11,35.13,35.06,35.05ZM22.93,27.74c.03.53-.02.95.06,1.38.03.19.14.28.32.35.57.21,1.46-.37,1.33-1.18-.01-.08-.07-.19.04-.24.09-.04.14.05.21.09.36.21.71.17,1.05-.03.34-.2.53-.51.54-.91,0-.38,0-.39.35-.22.34.16.66.12.96-.08.31-.22.51-.5.47-.91q-.03-.39.32-.25c.82.32,1.57-.22,1.5-1.09,0-.07-.06-.17.03-.22.1-.05.17.03.24.07.36.22.73.19,1.07-.03.35-.22.51-.55.48-.97-.02-.3.02-.34.28-.21.34.16.66.19.99-.03.13-.09.25-.07.31.1.19.52.39,1.03.23,1.6-.1.36-.15.75-.3,1.09-.18.43-.09.76.2,1.09.67.77,1.43,1.45,2.18,2.14.14.13.24.08.35-.04.37-.37.74-.73,1.11-1.09.36-.36.73-.71,1.04-1.12.2-.26.28-.54.16-.86-.09-.26-.14-.54-.23-.8-.22-.65-.15-1.27.09-1.9.08-.22.19-.28.4-.17.3.16.6.18.91,0,.27-.16.33-.12.31.2-.03.43.14.77.51.98.37.21.76.21,1.13-.05.06-.04.12-.13.21-.08.08.05.04.15.02.22-.1.44.05.79.39,1.05.33.25.7.26,1.08.1.3-.13.32-.12.32.2,0,.86.78,1.35,1.55.98.23-.11.29-.07.28.17-.05.93.76,1.45,1.6,1.03.07-.04.14-.14.24-.06.07.06.01.15,0,.23-.06.51.15.94.62,1.11.53.2,1,.15,1.04-.58.05-.99.02-1.97-.13-2.95-.63-4.09-2.75-7.18-6.3-9.3-.95-.57-1.7-.45-2.49.33-.53.52-.96,1.12-1.36,1.74-.14.22-.29.43-.49.6-.48.42-1.14.49-1.57.16-.23-.18-.23-.33.02-.44,1.38-.64,1.45-2.64.66-3.53-.75-.85-1.96-.84-2.67.05-.86,1.07-.6,2.83.67,3.49.3.16.3.27.01.46-.53.35-1.31.19-1.77-.38-.17-.22-.32-.46-.47-.69-.39-.58-.79-1.15-1.32-1.61-.68-.6-1.42-.65-2.22-.26-.5.24-.92.59-1.36.92-.87.64-1.65,1.39-2.34,2.22-1.96,2.39-2.86,5.16-2.87,8.14Zm-8.64,16.94h0c0,2.63,0,5.26,0,7.89,0,.37.03.4.39.4,2.76,0,5.53,0,8.29-.01.95,0,1.89-.17,2.78-.53,1.19-.48,2.14-1.22,2.49-2.52.31-1.16.23-2.32-.32-3.4-.46-.9-1.19-1.54-2.17-1.86-.1-.03-.26,0-.27-.14,0-.12.14-.16.23-.21.46-.27.89-.59,1.18-1.04.92-1.41,1.11-2.92.42-4.47-.64-1.44-1.74-2.37-3.36-2.39-3.11-.05-6.23-.01-9.34-.02-.26,0-.36.09-.35.35.02.63.03,1.26.03,1.88,0,2.02,0,4.05,0,6.07Zm16.18-8.3c-.73,0-1.46,0-2.19,0-.08,0-.2-.04-.24.06-.04.08.04.15.09.21,1.76,2.65,3.52,5.3,5.29,7.94.1.15.09.25,0,.39-1.71,2.59-3.41,5.18-5.12,7.77-.04.06-.11.11-.07.18.04.08.13.08.21.07.23-.01.46-.04.69-.04,1.18,0,2.36-.01,3.53,0,.34,0,.52-.11.68-.4.79-1.43,1.61-2.85,2.41-4.27.05-.08.08-.2.19-.21.11-.01.14.1.18.17.79,1.49,1.65,2.94,2.49,4.4.13.23.29.31.55.31,1.33-.01,2.66,0,3.98,0,.15,0,.37.11.45-.04.08-.16-.11-.3-.2-.43-1.62-2.48-3.25-4.95-4.88-7.42-.12-.18-.13-.33,0-.52,1.76-2.57,3.36-5.23,5.14-7.79.06-.09.18-.19.11-.32-.07-.12-.22-.07-.33-.07-1.37,0-2.74,0-4.1,0-.27,0-.42.09-.55.32-.52.92-1.04,1.84-1.58,2.75-.37.64-.75,1.27-1.08,1.93-.1.21-.2.23-.32.02-.03-.05-.06-.11-.09-.16-.89-1.54-1.77-3.07-2.65-4.61-.1-.18-.23-.25-.43-.25-.72,0-1.44,0-2.16,0Zm15.04,8.29h0c0,2.47,0,4.94,0,7.41,0,.89,0,.88.9.88,3.58,0,7.17,0,10.75,0,.39,0,.42-.02.42-.4,0-1.05,0-2.09,0-3.14,0-.37-.02-.38-.4-.38-2.25,0-4.49,0-6.74,0-.42,0-.42,0-.42-.41,0-3.96,0-7.91,0-11.87,0-.37-.03-.39-.39-.39-1.24,0-2.48,0-3.71,0-.4,0-.41.01-.41.43,0,2.62,0,5.24,0,7.86Z"/>
  <path class="cls-1" d="m83.58,30.74c0-1.27,0-2.53,0-3.8,0-.39.02-.42.43-.42.52,0,1.04,0,1.56,0,.36,0,.39.03.39.4,0,1.82,0,3.65,0,5.47,0,.41.01.42.42.42,1,0,2,0,2.99,0,.28,0,.37.09.37.36,0,.36-.11.71-.02,1.07.02.08-.02.21.09.22.1,0,.11-.13.14-.21.67-1.95,1.42-3.87,2.14-5.8.2-.53.4-1.06.57-1.6.08-.24.22-.33.46-.32.4.01.8.02,1.2,0,.27-.01.41.09.51.35.87,2.36,1.76,4.72,2.64,7.08.09.23.18.46.27.7.07.19,0,.29-.2.29-.67,0-1.34,0-2.01,0-.19,0-.25-.13-.3-.28-.11-.36-.23-.72-.34-1.08-.06-.21-.19-.32-.41-.3-.49.05-.98.01-1.47,0-.25,0-.39.09-.45.33-.09.34-.19.67-.29,1.01-.06.23-.19.34-.45.34-2.6,0-5.21,0-7.81,0-.39,0-.43-.04-.43-.43,0-1.26,0-2.51,0-3.77Zm10.1.94c.14,0,.28,0,.42,0,.23,0,.3-.12.25-.32-.16-.67-.33-1.35-.5-2.02-.02-.07-.02-.19-.12-.18-.09,0-.09.12-.11.19-.14.56-.28,1.12-.43,1.67-.19.68-.19.68.49.66Z"/>
  <path class="cls-1" d="m83.58,41.62c0-1.26,0-2.51,0-3.77,0-.42.02-.44.44-.43,1.15.02,2.3-.08,3.44.06,2.06.24,3.42,1.66,3.58,3.67.08.98-.02,1.94-.56,2.79-.77,1.22-1.92,1.81-3.32,1.87-1.09.05-2.17,0-3.26.02-.27,0-.31-.14-.31-.36,0-1.29,0-2.57,0-3.86h0Zm2.37-.02h0c0,.61,0,1.21,0,1.82,0,.26.1.36.36.34.21-.01.42,0,.63-.01.74-.03,1.36-.51,1.58-1.21.16-.5.17-1.02.07-1.53-.16-.81-.71-1.34-1.52-1.48-.27-.05-.54-.03-.8-.04-.24-.01-.32.1-.31.32,0,.6,0,1.19,0,1.79Z"/>
  <path class="cls-1" d="m123.29,41.6c0-1.25,0-2.49,0-3.74,0-.41.03-.45.44-.44,1.13.02,2.25-.06,3.38.05,1.9.17,3.25,1.38,3.57,3.26.26,1.51,0,2.91-1.15,4.02-.75.71-1.67,1.04-2.69,1.07-1.06.03-2.11,0-3.17.01-.27,0-.37-.1-.37-.37,0-1.28,0-2.57,0-3.85Zm2.37.03c0,.61,0,1.21,0,1.82,0,.23.09.32.32.31.24-.01.48,0,.72-.01.45-.01.83-.2,1.13-.53.7-.76.72-2.32.05-3.1-.51-.6-1.2-.64-1.91-.64-.24,0-.32.1-.31.33,0,.61,0,1.21,0,1.82Z"/>
  <path class="cls-1" d="m125.52,30.71c.02-1.24.08-2.49,0-3.73-.02-.42.02-.45.42-.45,1.7,0,3.39,0,5.09,0,.4,0,.42.03.43.42,0,.43,0,.86,0,1.29,0,.27-.09.37-.37.37-.94-.01-1.88,0-2.81-.01-.3,0-.38.11-.38.38.01.85-.01.71.71.71.66,0,1.32.01,1.98,0,.27,0,.35.09.34.35-.02.38,0,.76,0,1.14,0,.38-.03.41-.4.42-.76,0-1.52.01-2.27,0-.3,0-.4.1-.37.39.1.96-.13.84.87.84.82,0,1.64,0,2.45,0,.24,0,.36.07.36.31,0,.5,0,1,0,1.49,0,.24-.12.33-.36.33-1.77,0-3.53,0-5.3,0-.36,0-.4-.05-.4-.43,0-1.26,0-2.53,0-3.79Z"/>
  <path class="cls-1" d="m91.97,41.59c0-1.26,0-2.51,0-3.77,0-.38.03-.41.41-.41,1.72,0,3.43,0,5.15,0,.35,0,.39.06.37.41-.02.43-.03.86-.02,1.28,0,.28-.09.39-.38.38-.93-.01-1.86,0-2.78-.01-.29,0-.39.09-.38.38.02.86-.03.72.72.73.67,0,1.34,0,2.01,0,.24,0,.35.08.34.33-.01.43-.01.86,0,1.28,0,.25-.1.34-.34.33-.79,0-1.58,0-2.36-.02-.24,0-.32.08-.34.29-.02.21,0,.42.01.63,0,.24.11.33.36.32.95-.01,1.9,0,2.84,0,.4,0,.43.03.43.42,0,.44,0,.88,0,1.31,0,.24-.1.34-.35.34-1.79,0-3.57,0-5.36,0-.29,0-.32-.16-.32-.38,0-1.29,0-2.57,0-3.86h0Z"/>
  <path class="cls-1" d="m104.73,45.94c-1.26,0-2.37-.38-3.45-.88-.18-.08-.19-.2-.11-.37.27-.54.57-1.07.8-1.64.08-.2.18-.15.33-.06.75.45,1.55.77,2.45.77.09,0,.18,0,.27,0,.18,0,.31-.08.35-.26.04-.17-.07-.29-.21-.36-.18-.09-.36-.17-.55-.24-.4-.13-.8-.24-1.2-.38-.21-.07-.41-.16-.61-.25-2.07-.91-1.54-3.4-.33-4.26.88-.63,1.87-.75,2.91-.57.75.13,1.43.44,2.1.75.2.09.19.21.1.38-.26.49-.52.99-.77,1.49-.09.18-.16.2-.34.1-.63-.36-1.26-.69-2.02-.67-.08,0-.16,0-.24.01-.17.02-.31.1-.35.28-.04.19.03.33.2.43.27.15.57.24.86.33.57.16,1.13.34,1.66.59.96.46,1.37,1.24,1.33,2.27-.04,1.04-.53,1.79-1.5,2.21-.56.24-1.15.32-1.69.34Z"/>
  <path class="cls-1" d="m121.49,45.82c-.28,0-.56-.02-.84,0-.31.03-.45-.11-.52-.39-.09-.34-.21-.66-.3-1-.04-.17-.14-.23-.3-.23-.56,0-1.12,0-1.68,0-.19,0-.27.1-.32.26-.11.35-.23.7-.33,1.05-.06.21-.18.31-.41.31-.63,0-1.26,0-1.89,0-.22,0-.28-.07-.2-.29.99-2.58,1.99-5.17,2.89-7.78.08-.24.22-.34.46-.33.43,0,.86,0,1.29,0,.21,0,.33.08.4.28.96,2.61,1.92,5.21,2.89,7.82.09.25.02.32-.23.32-.31,0-.62,0-.93,0h0Zm-2.88-5.77c-.14.81-.4,1.56-.59,2.33-.05.19.07.23.22.23.28,0,.56,0,.84,0,.19,0,.28-.07.23-.27-.18-.68-.34-1.37-.52-2.05-.02-.07-.03-.16-.18-.23Z"/>
  <path class="cls-1" d="m103.49,31.71c.07-.02.08-.09.09-.14.44-1.53.88-3.06,1.32-4.59.13-.45.14-.45.6-.45.58,0,1.16,0,1.74,0,.25,0,.28.07.2.3-.96,2.58-1.91,5.16-2.85,7.74-.1.27-.23.39-.52.38-.41-.02-.82-.02-1.23,0-.25.01-.38-.09-.46-.32-.61-1.83-1.37-3.61-2.01-5.44-.28-.8-.55-1.6-.9-2.37-.08-.18-.1-.3.17-.29.63.01,1.26.02,1.89,0,.25,0,.37.08.45.33.44,1.53.91,3.05,1.36,4.58.03.1.04.22.15.28Z"/>
  <path class="cls-1" d="m111.83,37.42c1.06,0,2.11,0,3.17,0,.37,0,.41.04.41.41,0,.42,0,.84,0,1.25,0,.38-.05.41-.41.41-.53,0-1.06,0-1.59,0-.37,0-.39.02-.39.39,0,1.78,0,3.57,0,5.35q0,.6-.58.6c-.44,0-.88,0-1.32,0q-.47,0-.47-.46c0-1.81,0-3.63,0-5.44,0-.43,0-.44-.43-.44-.54,0-1.08,0-1.62,0-.27,0-.35-.1-.35-.35.01-.46,0-.92,0-1.37,0-.25.08-.35.35-.35,1.08.01,2.15,0,3.23,0Z"/>
  <path class="cls-1" d="m118.63,30.67c0-1.26,0-2.51,0-3.77,0-.29.1-.39.38-.38.54.01,1.08.02,1.62,0,.28,0,.38.08.38.37-.01,1.82,0,3.65,0,5.47,0,.44.01.45.46.45,1,0,2,0,2.99-.01.27,0,.36.11.36.35,0,.48,0,.96,0,1.44,0,.26-.12.36-.39.36-1.79,0-3.57,0-5.36,0-.37,0-.42-.04-.42-.41,0-1.29,0-2.57,0-3.86h0Z"/>
  <path class="cls-1" d="m111.79,30.74c0-1.25,0-2.51,0-3.76,0-.44,0-.45.46-.44.49,0,.98,0,1.47,0,.43,0,.44.01.44.43,0,1.8,0,3.61,0,5.41,0,.45,0,.45.45.45.98,0,1.96,0,2.93-.01.27,0,.38.1.38.36,0,.48,0,.96,0,1.43,0,.24-.1.34-.34.34-1.83,0-3.65,0-5.48,0-.29,0-.32-.15-.32-.38,0-1.27,0-2.55,0-3.82h0Z"/>
  <path class="cls-1" d="m108.07,30.75c0-1.29,0-2.57,0-3.86,0-.27.08-.38.36-.37.55.02,1.1.01,1.65,0,.27,0,.36.11.35.35,0,.62.01,1.24.01,1.85,0,1.85,0,3.71,0,5.56,0,.12,0,.24-.01.36-.01.2-.12.3-.33.29-.57,0-1.14-.01-1.71,0-.24,0-.33-.08-.33-.33.01-1.29,0-2.57,0-3.86Z"/>
  <path class="cls-1" d="m20.87,49.17c-.57,0-1.14,0-1.71,0-.24,0-.34-.09-.34-.34,0-.73,0-1.45,0-2.18,0-.23.1-.32.32-.32,1.12,0,2.24-.01,3.35,0,.79.02,1.36.7,1.33,1.51-.03.78-.58,1.31-1.37,1.32-.27,0-.54,0-.81,0-.26,0-.52,0-.78,0,0,0,0,0,0,0Z"/>
  <path class="cls-1" d="m20.6,42.84c-.49,0-.98,0-1.47,0-.22,0-.31-.07-.31-.29,0-.68,0-1.36,0-2.03,0-.22.09-.3.3-.3.97,0,1.94,0,2.9,0,.76.01,1.21.52,1.2,1.34,0,.8-.43,1.25-1.2,1.27-.48,0-.96,0-1.44,0h0Z"/>
</svg>