<?xml version="1.0" encoding="UTF-8"?>
<svg id="Layer_1" data-name="Layer 1" xmlns="http://www.w3.org/2000/svg" viewBox="0 0 500.82 108.15">
  <defs>
    <style>
      .cls-1 {
        fill: #4c4c4c;
      }
    </style>
  </defs>
  <path class="cls-1" d="m98.66,66.12c-7.66,0-15.33.06-22.99-.01-10.17-.1-17.04-7.12-17.19-17.43-.15-10.73,6.57-17.85,17.05-17.93,10.16-.08,20.33.08,30.48-.11,4.34-.08,6.72,1.58,6.76,5.96.05,4.63-2.71,5.73-6.9,5.61-7.82-.22-15.66-.09-23.49-.04-5.83.04-8.48,2.03-8.43,6.19.05,4.04,2.87,6.21,8.51,6.27,9.16.09,18.32.04,27.49.09,4.27.02,6.39-1.61,6.12-6.3-.34-5.98-.11-11.99-.1-17.99.01-6.9.03-6.88-6.68-6.86-11.49.03-22.99.02-34.48.08-2.83.01-5.4-.37-6.55-3.42-1.56-4.14.83-7.96,5.37-7.99,15.83-.11,31.65-.13,47.48.06,5.53.07,8.65,3.31,8.72,8.88.15,12.66.1,25.32,0,37.98-.04,4.8-2.27,6.88-7.18,6.94-8,.09-15.99.02-23.99.04Z"/>
  <path class="cls-1" d="m305.71,66.09c-7.66,0-15.32.07-22.98-.02-10.14-.12-17.03-7.01-17.05-16.91-.03-11.78,5.92-18.3,16.91-18.38,10.16-.08,20.31.05,30.47-.1,4.39-.07,6.45,1.63,6.41,6.15-.04,4.56-2.5,5.47-6.46,5.38-7.99-.19-15.98-.11-23.98-.05-5.51.04-8.06,2.01-8.1,5.99-.04,4.1,2.43,6.44,7.72,6.53,9.49.18,18.98.08,28.47.03,3.95-.02,6.12-1.64,5.95-6.08-.26-6.65-.4-13.34,0-19.97.28-4.59-1.87-5.2-5.57-5.16-11.99.12-23.98.06-35.96.08-3.55,0-6.29-.98-6.5-5.17-.19-3.8,1.46-6.19,5.41-6.2,15.82-.06,31.64-.09,47.45.07,5.42.06,8.76,3.28,8.86,8.78.23,12.82.19,25.64.01,38.46-.06,4.29-2.57,6.63-7.1,6.59-7.99-.07-15.98-.02-23.98-.03Z"/>
  <path class="cls-1" d="m34.49,66.12c-3.5,0-6.99,0-10.49,0-12.12-.02-19.04-4.94-22.23-16.56C-.81,40.2-.9,30.8,3.74,21.88c3.3-6.36,8.8-9.47,15.76-9.64,9.82-.24,19.65,0,29.47-.13,4.21-.06,6.22,1.74,6.12,5.93-.1,4.15-2.17,5.85-6.36,5.75-8.49-.2-16.98-.14-25.48-.1-5.88.03-8.02,1.78-9.56,7.41-1.5,5.47-1.03,10.91.72,16.17,1.56,4.71,4.81,7.31,10.14,7.18,8.15-.2,16.32.02,24.48-.11,4.64-.07,6.16,2.41,6.1,6.57-.06,4.11-2.29,5.42-6.15,5.26-4.82-.19-9.66-.05-14.49-.04Z"/>
  <path class="cls-1" d="m478.99,43.51c0,5.33.01,10.66,0,15.99-.01,4.23-2.06,6.63-6.38,6.54-4.19-.09-5.71-2.68-5.71-6.59.01-10.49-.17-20.99.03-31.48.06-3.29-.84-4.61-4.15-4.26-4.32.45-5.97-1.79-6-5.93-.03-4.34,1.96-6.16,6.17-5.59,3.13.42,4.14-.96,3.99-3.95-.1-1.93-.48-4.02.91-5.78,1.91-2.43,4.51-2.93,7.19-2.07,2.83.91,4.37,3.22,3.89,6.21-.79,4.88,1.46,6.01,5.8,5.63,3.47-.3,6.99-.07,10.49-.04,3.69.03,5.57,2.1,5.6,5.6.03,3.51-1.86,5.68-5.5,5.77-4.33.11-8.66.11-12.99-.05-2.64-.1-3.48.95-3.41,3.51.14,5.49.04,10.99.04,16.49h.02Z"/>
  <path class="cls-1" d="m429.01,43.56c0,4.99-.08,9.99.03,14.98.09,4.2-1.06,7.3-5.88,7.51-4.2.18-6.13-2.23-6.15-7.74-.05-9.82-.16-19.64.04-29.45.07-3.58-.4-5.7-4.72-5.25-4.19.44-5.48-2.23-5.39-5.96.08-3.52,1.37-6.04,5.33-5.43,4.4.68,4.86-1.53,4.81-5.1-.07-5.24,2.84-7.81,7.31-6.91,3.91.79,5.01,3.65,4.6,7.11-.49,4.09,1.22,5.29,5.05,4.91,2.8-.27,5.66.07,8.48-.06,4.18-.19,5.54,2.03,5.6,5.83.07,4.07-1.84,5.78-5.79,5.6-2.16-.1-4.33-.12-6.49-.08-7.43.13-6.76-1.1-6.83,7.05-.04,4.33,0,8.65,0,12.98h.02Z"/>
  <path class="cls-1" d="m247.17,65.85c-7.86,0-7.8.03-4.99-7.05,2.77-6.97,5.31-13.99,4.89-21.72-.46-8.43-4.39-12.98-12.71-13.94-3.78-.44-7.63-.66-11.38.63-1.59.55-3.71,1.85-4.26-1.21-.48-2.64-2.33-6.34,1.12-7.53,10.16-3.51,20.72-4.31,30.57.73,8.56,4.37,10.72,12.62,10.47,21.65-.24,8.73-2.35,17.08-5.13,25.3-1.64,4.85-5.81,2.57-8.57,3.14Z"/>
  <path class="cls-1" d="m201.98,33.14c0-8.64-.05-17.28.02-25.92.04-5.14,2.29-7.23,7.34-7.09,4.74.13,6.62,2.12,6.63,7.27.03,17.28.04,34.55,0,51.83-.01,4.87-2.15,6.86-7.05,6.84-4.81-.02-6.9-2.08-6.92-7.01-.04-8.64-.01-17.28-.03-25.92Z"/>
  <path class="cls-1" d="m139.86,38.89c0-6.82.06-13.63-.02-20.45-.05-4.55,2.6-6.25,6.6-6.28,3.97-.02,6.66,1.52,6.63,6.16-.08,13.63,0,27.26-.06,40.9-.02,4.63-2.34,6.93-6.71,6.68-4.01-.23-6.52-2.12-6.47-6.57.07-6.82.02-13.63.02-20.45Z"/>
  <path class="cls-1" d="m360.18,39.05c0,6.81-.09,13.63.03,20.44.08,4.53-2.5,6.39-6.47,6.43-3.87.04-6.98-1.62-7-6.05-.09-13.96-.05-27.91.04-41.87.03-4.17,2.66-5.87,6.52-5.83,3.88.04,6.9,1.24,6.88,5.94-.03,6.98,0,13.96,0,20.94Z"/>
  <path class="cls-1" d="m378.38,12.19c4.25-.35,8.14.47,11.91,1.86,8.93,3.29,13.49,17.09,8.35,24.94-.9,1.38-1.95,1.66-3.37,1.2-2.05-.67-4.09-1.37-6.14-2.04-1.65-.54-2.18-1.51-2.06-3.37.67-10.24-3.1-13.88-13.69-13.4-1.16.05-2.37.14-3.44.52-3.72,1.32-5.23-.05-6.08-3.81-.95-4.21,1.84-4.37,4.35-4.83,3.41-.63,6.83-1.53,10.17-1.06Z"/>
  <path class="cls-1" d="m193.15,30.14c-.04.56-.05,1.56-.19,2.55-.36,2.6.03,6.2-2.46,7.18-3.1,1.22-6.3-1.12-9.35-2.33-1.47-.58-1.05-1.79-.97-2.96.62-9.82-2.35-12.97-12.53-13.21-1.65-.04-3.36.1-4.94.54-3.43.95-4.96-.07-5.8-3.68-.95-4.09,1.55-4.43,4.19-4.96,6.91-1.4,13.84-1.91,20.69.25,7.67,2.42,11.28,7.67,11.35,16.62Z"/>
  <path class="cls-1" d="m85.35,94.14c-1.12,3.63-2.31,7.23-3.33,10.89-.41,1.45-.97,2.42-2.61,2.46-1.62.04-2.28-.87-2.74-2.3-1.42-4.42-3.02-8.79-4.42-13.22-.29-.9-1.47-2.25.36-2.9,1.71-.61,2.42.61,2.83,1.97,1.15,3.75,2.26,7.52,3.82,12.72,1.55-4.85,2.75-8.33,3.74-11.86.44-1.56.79-2.8,2.75-2.92,2.06-.13,2.49,1.31,2.95,2.73,1.12,3.44,2.17,6.9,3.71,11.82,1.52-4.88,2.6-8.4,3.72-11.9.46-1.43.96-3.23,2.96-2.43,1.88.75.58,2.26.22,3.39-1.18,3.81-2.41,7.61-3.72,11.38-.52,1.49-.64,3.39-2.92,3.5-2.63.13-2.74-2.05-3.3-3.67-1.1-3.21-2.01-6.47-3-9.72l-1.03.07Z"/>
  <path class="cls-1" d="m277.73,106.83c-3.6,1.5-4.6-1.39-5.46-3.14-2.3-4.64-6.3-3.55-9.95-3.41-2.63.1-1.48,2.42-1.74,3.89-.21,1.18.41,3.02-1.69,2.94-1.98-.07-1.57-1.8-1.63-3.04-.06-1.16-.05-2.34.09-3.49.43-3.74-1.95-9.38.95-10.83,4.52-2.26,10.44-1.11,15.7-.49,3.37.4,5.89,5.73,3.53,7.77-4.32,3.74-2.01,6.57.21,9.8Zm-10.52-14.95v-.04c-.82,0-1.65-.07-2.46.01-1.77.19-4.07-.77-4.15,2.6-.07,3.22,1.75,3.41,4.09,3.35,2.14-.05,4.28.07,6.41-.12,1.81-.16,3.81-.53,3.85-2.94.04-2.49-1.92-2.74-3.79-2.85-1.31-.07-2.63-.01-3.94-.01Z"/>
  <path class="cls-1" d="m419.5,108.13c-3.09-.06-5.97-.75-8.7-2.08-.86-.42-2.01-.93-1.43-2.17.52-1.12,1.71-.95,2.61-.54,3.1,1.43,6.33,2.07,9.69,1.61,1.95-.27,4.4-.58,4.28-3.2-.11-2.38-2.54-2.25-4.26-2.53-2.94-.47-5.92-.71-8.87-1.14-2.02-.3-3.42-1.58-3.62-3.58-.2-1.93.84-3.52,2.46-4.62,3.23-2.19,11.54-2.07,14.92.12.71.46,1.55.83,1.19,1.84-.42,1.2-1.45,1.21-2.47.9-2.7-.8-5.37-1.87-8.26-1.58-1.61.17-3.72.3-3.89,2.33-.2,2.38,2.08,2.15,3.63,2.36,2.46.33,4.98.3,7.4.78,2.69.53,5.36,1.65,5.43,4.92.07,3.31-2.18,5.05-5.22,5.74-1.61.37-3.25.55-4.88.81Z"/>
  <path class="cls-1" d="m327.79,97.84c1.63.69,4.75-1.55,5.48,1.08.81,2.91-1.58,5.24-3.99,6.89-3.5,2.41-7.46,2.94-11.43,1.7-4.4-1.37-7.68-4.06-7.91-9.13-.2-4.41,2.89-7.98,7.95-9.56,2.8-.87,5.58-.95,8.3.11,2.06.81,5.68,1.61,4.77,3.9-1.27,3.2-3.54-.25-5.26-.85-2.66-.93-5.12-1.12-7.73,0-2.87,1.24-4.79,3.26-4.62,6.42.18,3.34,2.28,5.44,5.51,6.27,2.68.69,5.29.43,7.74-.89,1-.54,2.39-1.05,2.22-2.4-.21-1.67-1.81-.89-2.83-1.14-1.6-.39-4.52,1.08-4.52-1.3,0-2.14,2.89-1.02,4.53-1.2.49-.06.99.04,1.79.09Z"/>
  <path class="cls-1" d="m115.21,108.01c-6.86.12-11.99-3.97-12.15-9.7-.15-5.4,4.93-9.95,11.29-10.11,6.87-.18,12.59,4.4,12.53,10.04-.06,5.42-5.12,9.66-11.67,9.77Zm-.6-3c5.18.13,8.66-2.64,8.65-6.88-.01-3.97-3.43-6.9-8.17-7.01-4.56-.11-8.86,3.32-8.86,7.06,0,3.81,3.55,6.7,8.38,6.83Z"/>
  <path class="cls-1" d="m373.89,107.47q-9.64-.05-9.77-9.61-.12-8.89,8.85-8.9c2.66,0,5.32,0,7.97.05.8.02,1.76.08,1.87,1.17.12,1.3-.8,1.74-1.86,1.75-3.49.04-6.98-.01-10.46,0-1.3,0-2.85-.24-2.9,1.77-.05,1.88.94,2.65,2.8,2.57,1.82-.09,3.65-.06,5.48-.05,1.04,0,2.11.19,2.18,1.48.09,1.44-1.11,1.4-2.08,1.43-1.33.05-2.66-.04-3.99.02-1.89.08-4.25-.59-4.38,2.56-.14,3.56,2.56,2.82,4.54,2.89,2.65.09,5.31-.16,7.97-.13,1.37.01,3.48-.61,3.45,1.63-.02,1.87-1.97,1.29-3.18,1.34-2.16.09-4.32.03-6.48.03Z"/>
  <path class="cls-1" d="m396.04,107.94c-2.89.15-5.6-.6-8.21-1.73-.9-.39-2.02-.9-1.69-2.09.46-1.63,1.8-1.16,2.85-.7,3.27,1.47,6.66,2.14,10.19,1.39,1.6-.34,3.52-.89,3.65-2.86.16-2.38-2.13-2.27-3.6-2.53-3.09-.57-6.25-.78-9.37-1.2-2.02-.27-3.4-1.45-3.74-3.46-.34-2,.7-3.52,2.26-4.67,3.32-2.45,11.92-2.31,15.29.17.7.52,1.46.96.9,1.93-.47.82-1.36.87-2.2.69-2.58-.57-5.12-1.43-7.73-1.66-1.88-.17-4.62.08-4.68,2.49-.05,2.22,2.58,2.04,4.34,2.32,2.61.41,5.28-.11,7.88.92,2.35.94,4.2,2.06,4.22,4.86.02,2.74-1.75,4.16-4.01,5.14-2.02.88-4.16,1.1-6.34,1.01Z"/>
  <path class="cls-1" d="m131.89,98.42q.01-9.44,9.39-9.46c1.83,0,3.66.05,5.49.03,2.35-.01,4.3.73,5.21,3.04.91,2.3,1.09,4.9-.95,6.45-2.62,1.99-2.19,3.52-.42,5.66.67.8,2.51,2.07.64,3.21-1.29.78-2.46-.41-3.22-1.61-1.98-3.09-3.74-6.07-8.42-5.63-3.18.3-5.13.7-4.69,4.42.12,1.04.41,2.6-1.31,2.71-2.14.14-1.63-1.64-1.68-2.84-.08-1.99-.02-3.99-.03-5.98Zm10.55-6.57c-1.57,0-2.72-.02-3.88,0-1.83.04-3.63-.16-3.65,2.69-.02,2.9,1.72,3.18,3.85,3.24.99.03,2,.12,2.97-.03,2.68-.41,7.05,1.37,7.23-2.84.2-4.67-4.43-2.31-6.52-3.07Z"/>
  <path class="cls-1" d="m338.76,98.28q-.05-9.34,9.34-9.34c1.99,0,3.98,0,5.96.08,2.36.09,4.12,1.17,4.96,3.45.8,2.17.83,4.62-1.02,5.98-2.87,2.13-2.27,3.86-.33,6.06.64.73,2.13,1.77.56,2.81-1.05.7-2.25.01-3.01-1-.69-.93-1.42-1.86-1.93-2.88-2.3-4.57-6.47-3.3-10.05-2.95-2.26.22-1.18,2.68-1.34,4.18-.13,1.16.08,2.54-1.53,2.6-1.68.06-1.58-1.37-1.6-2.51-.04-2.15-.01-4.31-.01-6.46Zm9.95-.54s0-.03,0-.04c1.15,0,2.31.07,3.45-.02,1.9-.14,3.79-.58,3.83-2.95.03-2.47-1.88-2.75-3.8-2.78-2.47-.04-4.94.02-7.41-.08-2.06-.08-2.93.68-2.95,2.84-.02,2.18.99,2.97,2.93,3.02,1.32.03,2.63,0,3.95,0Z"/>
  <path class="cls-1" d="m201.67,94.04c0,3.59.02,7.19-.01,10.78,0,1.18-.07,2.52-1.76,2.32-1.32-.15-1.26-1.36-1.26-2.34-.02-4-.08-8,.05-11.99.04-1.31-.81-3.2,1.38-3.72,1.61-.38,2.82.33,3.94,1.54,3.69,3.99,7.47,7.91,12.29,12.99,0-4.68-.03-8.05.01-11.41.02-1.23-.58-2.99,1.43-3.11,2.29-.13,1.98,1.76,1.99,3.22.03,3.66.06,7.33-.03,10.99-.04,1.39.68,3.24-1.22,3.93-1.74.64-3.18-.22-4.4-1.56-3.69-4.03-7.43-8.01-11.15-12.01-.42.12-.84.23-1.27.35Z"/>
  <path class="cls-1" d="m293.75,108c-6.48-.02-11.64-4.32-11.75-9.79-.1-5.44,5.49-10.07,12.08-10,6.58.07,11.57,4.29,11.65,9.85.08,5.75-5,9.96-11.99,9.94Zm-.04-2.99c5.08.06,8.74-2.75,8.84-6.79.09-3.85-3.89-7.13-8.64-7.11-4.73.01-8.66,3.33-8.56,7.21.11,3.96,3.44,6.63,8.36,6.69Z"/>
  <path class="cls-1" d="m176.5,89.29c-.11.33-.12.71-.32.93-2.07,2.29-6.78,3.1-6.47,6.12.26,2.56,3.73,4.8,5.79,7.18.85.99,1.7,1.97,2.82,3.27-2.23,1.26-3.61.47-4.88-.96-1.43-1.62-2.76-3.35-4.34-4.8-1.11-1.02-1.78-3.47-3.78-2.45-2.1,1.06-4.63,2.09-4.6,5.29.01,1.32.56,3.45-1.8,3.3-2.16-.14-1.63-2.14-1.65-3.53-.06-3.82-.03-7.64,0-11.46.01-1.22-.6-2.96,1.45-3.06,2.37-.12,1.83,1.81,1.93,3.22.03.5-.05,1.01.02,1.49.17,1.08-.7,2.5.63,3.17,1.3.66,2.08-.75,2.96-1.34,2.34-1.57,4.6-3.28,6.77-5.08,1.66-1.38,3.36-2.03,5.47-1.28Z"/>
  <path class="cls-1" d="m233.16,97.94q-.14-8.98,8.61-8.98c2.15,0,4.31-.06,6.45.05,3.53.18,5.63,2.25,5.73,5.62.11,3.49-1.95,5.48-5.59,5.53-1.99.03-3.98.17-5.96.05-3.69-.22-7.26-.48-6.28,5.08.14.78-.04,1.71-1.14,1.85-1.3.16-1.79-.67-1.81-1.76-.06-2.48-.02-4.96-.02-7.45Zm10.65-6.06c-1.78,0-3.11.02-4.44,0-1.88-.03-3.22.35-3.19,2.73.03,2.09.88,3.12,2.92,3.18,1.33.04,2.68.12,4-.04,2.76-.32,7.2,1.16,7.34-2.92.16-4.67-4.56-2.15-6.62-2.95Z"/>
  <path class="cls-1" d="m494.06,66.22c-4.07-.17-6.22-2.09-6.33-5.82-.11-3.82,2.35-5.99,5.8-6.04,3.64-.06,5.73,2.57,5.77,6.14.04,3.47-2.12,5.33-5.24,5.72Z"/>
  <path class="cls-1" d="m189.65,98.02c0-2.33-.04-4.67.02-7,.02-.82.17-1.73,1.26-1.82,1.29-.1,1.76.75,1.76,1.85.02,4.83,0,9.66-.04,14.49,0,.95-.55,1.6-1.51,1.63-1.04.02-1.4-.79-1.42-1.66-.04-2.5-.02-5-.02-7.49h-.07Z"/>
</svg>