<?xml version="1.0" encoding="UTF-8"?>
<svg id="Layer_1" data-name="Layer 1" xmlns="http://www.w3.org/2000/svg" viewBox="0 0 504.57 56.62">
  <defs>
    <style>
      .cls-1 {
        fill: #4c4c4c;
      }
    </style>
  </defs>
  <path class="cls-1" d="m0,34.47c.13-.31.12-.64.15-.96.17-2.41.62-4.76,1.46-7.03.84-2.3,2.06-4.37,3.82-6.09,2.24-2.19,4.93-3.45,8.04-3.83,2.27-.28,4.5-.13,6.69.51,2.43.71,4.35,2.12,5.78,4.2.19.28.38.56.57.85,0,0,.03.01.07.03.08-.16.04-.34.04-.51,0-6.38,0-12.75,0-19.13,0-.18,0-.36,0-.53,0-.21.11-.33.33-.34.13,0,.27,0,.4,0,5.1,0,10.21,0,15.31,0q.7,0,.7.72c0,17.49,0,34.99,0,52.48,0,.81-.01.74-.77.74-5.07,0-10.15,0-15.22,0-.7,0-.77.12-.77-.74,0-1.38,0-2.76,0-4.14,0-.16.02-.33-.04-.52-.18.09-.22.27-.3.41-.44.81-.96,1.56-1.58,2.25-1.37,1.53-3.06,2.56-5.01,3.17-.88.27-1.79.42-2.7.53-.12.01-.24.02-.34.08h-2.23c-.48-.16-.99-.15-1.49-.23-2.92-.49-5.47-1.73-7.58-3.82-1.85-1.83-3.09-4.04-3.93-6.48-.72-2.1-1.11-4.27-1.27-6.48-.02-.32-.02-.65-.15-.96v-4.18Zm17.88,2.07c.01-.69-.06-1.36-.19-2.03-.4-2.08-1.27-3.91-2.91-5.32-1.75-1.51-4.11-1.8-6.14-.72-1.47.78-2.48,2.01-3.17,3.5-.99,2.11-1.22,4.32-.8,6.6.37,1.99,1.2,3.75,2.74,5.12,1.52,1.35,3.28,1.87,5.28,1.29,1.41-.41,2.48-1.31,3.33-2.47,1.3-1.77,1.83-3.8,1.86-5.97Zm3.41-.04c-.02.7.06,1.39.19,2.08.4,2.05,1.26,3.84,2.87,5.24,2,1.73,4.77,1.85,6.89.29,1.34-.99,2.23-2.33,2.79-3.88.68-1.88.83-3.82.45-5.78-.38-1.99-1.2-3.76-2.75-5.12-1.67-1.47-3.57-1.93-5.7-1.13-1.15.43-2.07,1.21-2.81,2.19-1.37,1.81-1.91,3.88-1.95,6.12Z"/>
  <path class="cls-1" d="m398.5,56.62c-.55-.15-1.11-.15-1.67-.24-2.06-.32-4-.97-5.73-2.17-1.87-1.3-3.14-3.05-3.8-5.22-.81-2.67-.79-5.35,0-8.02.69-2.34,2.15-4.1,4.21-5.37,1.58-.97,3.31-1.58,5.11-2,1.97-.46,3.96-.7,5.98-.86,2.31-.18,4.62-.16,6.94-.16.61,0,.61,0,.61-.61,0-.65-.05-1.3-.19-1.94-.3-1.37-1.18-2.11-2.59-2.22-.49-.04-.98-.05-1.46.06-.99.22-1.66.81-2.04,1.75-.13.33-.22.68-.29,1.03-.07.35-.11.38-.48.39-.09,0-.18,0-.27,0-4.69,0-9.38,0-14.07,0-.74,0-.76,0-.69-.75.45-4.6,2.51-8.22,6.47-10.7,2.1-1.32,4.41-2.09,6.83-2.57,1.63-.32,3.28-.47,4.94-.56,1.28-.07,2.55-.03,3.82.04,2.71.15,5.36.58,7.91,1.57,1.81.7,3.45,1.67,4.83,3.02,1.53,1.49,2.56,3.29,3.14,5.35.42,1.48.62,2.99.63,4.52,0,7.96,0,15.92,0,23.89q0,.74-.73.74c-4.88,0-9.76,0-14.64,0q-.69,0-.69-.68c0-.95,0-1.9,0-2.85v-.43c-.38.41-.68.85-1.03,1.24-.9,1-1.96,1.76-3.16,2.34-1.46.71-3,1.1-4.61,1.27-.29.03-.59.03-.87.14h-2.4Zm9.64-15.54c-.66-.05-1.5.02-2.34.09-.59.05-1.18.15-1.71.43-.45.23-.73.59-.83,1.09-.05.25-.09.49-.09.75-.02.81.34,1.39,1.05,1.77.22.12.46.2.71.26.57.14,1.15.13,1.73.1.71-.03,1.37-.24,1.97-.61.79-.49,1.3-1.19,1.47-2.12.09-.49.05-.97.06-1.46,0-.24-.14-.29-.35-.29-.49,0-.98,0-1.65,0Z"/>
  <path class="cls-1" d="m216.08,56.62c-.37-.11-.76-.11-1.14-.14-2.73-.21-5.36-.79-7.89-1.84-2.38-.99-4.51-2.37-6.31-4.23-2.03-2.11-3.39-4.59-4.16-7.4-.46-1.68-.68-3.39-.74-5.13-.08-2.01.05-4,.47-5.96.67-3.1,2.02-5.87,4.11-8.28,2.22-2.55,4.96-4.35,8.09-5.56,2.02-.78,4.11-1.26,6.25-1.49,1.89-.2,3.78-.22,5.68-.03,2.24.22,4.42.69,6.52,1.52,2.64,1.05,4.93,2.6,6.8,4.74,1.73,1.97,2.9,4.26,3.62,6.77.45,1.56.71,3.15.82,4.77.13,1.75.05,3.5.07,5.25,0,.36-.05.4-.42.42-.15,0-.3,0-.45,0-8.03,0-16.05,0-24.08,0-.85,0-.71.05-.59.7.17.91.47,1.78.99,2.55.84,1.23,2.02,1.93,3.49,2.14,1,.15,1.98.09,2.95-.18,1.33-.36,2.22-1.2,2.67-2.51.02-.07.05-.14.07-.21.12-.34.15-.36.51-.38.1,0,.21,0,.31,0,4.64,0,9.29,0,13.93,0,.8,0,.79,0,.66.8-.28,1.72-.78,3.38-1.58,4.93-1.3,2.51-3.21,4.42-5.65,5.82-2.1,1.2-4.37,1.9-6.73,2.35-1.5.28-3.02.43-4.55.53-.15,0-.3,0-.44.07h-3.29Zm1.44-24.4c1.38,0,2.76,0,4.14,0,.12,0,.24,0,.36,0,.19,0,.26-.09.24-.28-.07-1.04-.24-2.06-.76-2.99-.5-.91-1.24-1.53-2.24-1.84-.64-.2-1.28-.21-1.94-.18-.8.04-1.55.26-2.22.7-1.54,1.02-2.08,2.59-2.37,4.3-.03.18.06.28.25.28.12,0,.24,0,.36,0,1.39,0,2.79,0,4.18,0Z"/>
  <path class="cls-1" d="m140.76,56.62c-.37-.11-.76-.11-1.14-.14-2.74-.21-5.39-.79-7.93-1.86-2.26-.94-4.28-2.24-6.02-3.97-2.09-2.09-3.5-4.58-4.34-7.4-.73-2.48-.88-5.01-.8-7.57.08-2.79.68-5.47,1.9-7.99,1.7-3.53,4.31-6.21,7.69-8.16,2.58-1.48,5.36-2.37,8.29-2.81,1.43-.21,2.86-.33,4.3-.31,3.23.05,6.38.56,9.37,1.84,2.08.89,3.96,2.1,5.56,3.69,1.73,1.72,3.01,3.74,3.88,6.01.77,1.99,1.18,4.06,1.35,6.19.15,1.81.05,3.62.08,5.42,0,.39-.05.43-.43.44-.15,0-.3,0-.45,0-8.03,0-16.05,0-24.08,0-.83,0-.69.03-.57.67.15.88.44,1.72.93,2.48.79,1.23,1.92,1.95,3.35,2.21,1.07.19,2.13.14,3.17-.15,1.36-.38,2.26-1.26,2.69-2.6.16-.49.16-.49.68-.49,4.75,0,9.5,0,14.24,0,.59,0,.63.02.54.6-.45,3.05-1.55,5.8-3.66,8.1-1.72,1.88-3.82,3.17-6.19,4.06-1.92.73-3.92,1.16-5.96,1.42-.94.12-1.89.19-2.83.25-.12,0-.24.01-.35.07h-3.29Zm1.41-24.4c1.38,0,2.76,0,4.14,0,.12,0,.24,0,.36,0,.2,0,.31-.08.29-.29-.09-.98-.22-1.95-.68-2.83-.58-1.11-1.47-1.83-2.73-2.09-.52-.1-1.03-.1-1.55-.08-.8.04-1.55.26-2.22.71-1.53,1.03-2.08,2.6-2.36,4.31-.03.16.04.26.21.27.12,0,.24,0,.36,0,1.39,0,2.79,0,4.18,0Z"/>
  <path class="cls-1" d="m445.6,56.62c-.42-.12-.85-.11-1.28-.14-2.17-.16-4.3-.51-6.37-1.18-2.02-.66-3.9-1.6-5.49-3.04-1.94-1.75-3.12-3.93-3.63-6.48-.15-.77-.27-1.55-.27-2.34,0-.39.04-.43.43-.45.13,0,.27,0,.4,0,4.54,0,9.08,0,13.62,0,.87,0,.75-.04.94.72.08.32.17.63.3.93.35.78.92,1.29,1.77,1.49.95.22,1.88.21,2.8-.13.64-.24,1.09-.67,1.15-1.39.05-.57-.11-1.05-.57-1.42-.41-.34-.9-.52-1.4-.67-.94-.28-1.91-.44-2.88-.55-2.16-.26-4.34-.44-6.47-.89-1.75-.37-3.46-.84-5.05-1.68-1.25-.67-2.32-1.53-3.13-2.71-.72-1.06-1.17-2.23-1.41-3.48-.41-2.1-.46-4.21-.01-6.31.68-3.17,2.45-5.58,5.14-7.34,2.12-1.39,4.47-2.17,6.94-2.63,1.4-.26,2.81-.39,4.24-.47,1.32-.08,2.64-.03,3.96.04,2.51.13,4.99.49,7.37,1.33,1.67.59,3.2,1.42,4.53,2.6,1.5,1.33,2.53,2.97,3.19,4.85.43,1.24.68,2.52.81,3.82.04.35,0,.4-.34.41-.12,0-.24,0-.36,0-4.51,0-9.02,0-13.53,0-.01,0-.03,0-.04,0-.69,0-.64.03-.82-.6-.12-.41-.28-.81-.53-1.17-.42-.61-.97-1.04-1.71-1.18-.8-.15-1.59-.13-2.36.16-.94.36-1.3,1.23-1.06,2.13.13.49.48.81.9,1.05.6.34,1.26.51,1.94.63.88.16,1.77.19,2.65.29,1.59.18,3.18.38,4.75.67,1.58.29,3.14.65,4.65,1.19,1.22.43,2.38.99,3.43,1.77,1.62,1.2,2.66,2.79,3.1,4.74.67,2.94.56,5.87-.46,8.72-.95,2.65-2.76,4.6-5.18,5.99-1.89,1.08-3.94,1.71-6.06,2.12-1.52.29-3.05.44-4.59.53-.15,0-.3,0-.44.07h-3.56Z"/>
  <path class="cls-1" d="m483.88,56.62c-.4-.12-.82-.11-1.23-.14-2.26-.16-4.47-.53-6.62-1.27-1.87-.64-3.6-1.53-5.1-2.84-2.09-1.83-3.31-4.15-3.81-6.87-.12-.67-.17-1.35-.23-2.03-.04-.39.04-.47.44-.48.13,0,.27,0,.4,0,4.53,0,9.05,0,13.58,0,.03,0,.06,0,.09,0,.85,0,.74,0,.9.7.09.36.21.71.36,1.05.36.77.96,1.23,1.78,1.41.82.18,1.65.17,2.47-.06.29-.08.55-.2.8-.38.84-.61.83-1.95.02-2.54-.34-.25-.71-.42-1.11-.56-.8-.28-1.63-.44-2.47-.55-1.48-.19-2.97-.35-4.46-.54-2.16-.29-4.31-.68-6.35-1.49-1.24-.49-2.39-1.12-3.37-2.03-1.02-.95-1.77-2.08-2.18-3.41-.9-2.94-.98-5.9-.07-8.84.76-2.47,2.28-4.4,4.38-5.89,2.08-1.48,4.43-2.33,6.91-2.84,1.57-.32,3.16-.48,4.76-.57,1.29-.07,2.58-.03,3.87.04,2.42.12,4.81.46,7.12,1.23,1.83.61,3.52,1.5,4.96,2.81,1.66,1.53,2.72,3.42,3.33,5.58.25.89.41,1.79.52,2.7.08.65.04.69-.61.69-4.57,0-9.14,0-13.71,0-.07,0-.15,0-.22,0-.34-.01-.36-.02-.46-.36-.13-.43-.27-.85-.5-1.23-.54-.92-1.34-1.4-2.41-1.43-.49-.02-.98,0-1.46.12-.96.26-1.47.89-1.45,1.82.01.56.27.99.72,1.31.66.47,1.42.65,2.2.8,1.05.2,2.12.23,3.18.36,2.9.35,5.79.77,8.58,1.7,1.07.36,2.1.82,3.06,1.42,2.17,1.35,3.42,3.31,3.9,5.8.13.66.2,1.32.19,1.99-.02,1.1.06,2.19-.09,3.29-.57,4.08-2.64,7.11-6.29,9.04-1.96,1.04-4.07,1.63-6.24,2-1.38.23-2.76.35-4.15.44-.12,0-.24.01-.35.07h-3.56Z"/>
  <path class="cls-1" d="m342.68,56.62c-.37-.11-.76-.11-1.14-.14-3.11-.26-6.09-.98-8.86-2.44-3.78-1.99-6.44-4.99-7.92-9-.74-1.99-1.11-4.05-1.25-6.17-.07-1.05-.09-2.1-.05-3.16.11-3.07.7-6.03,2.08-8.8,1.69-3.4,4.24-5.97,7.57-7.78,2.32-1.26,4.8-2.02,7.41-2.41,1.48-.22,2.98-.34,4.48-.32,2.68.04,5.33.35,7.89,1.15,2.66.83,5.05,2.13,7.02,4.14,1.56,1.58,2.65,3.45,3.39,5.53.64,1.82.97,3.69,1.07,5.61.02.35-.01.39-.35.4-.09,0-.18,0-.27,0-4.75,0-9.5,0-14.24,0-.67,0-.67,0-.79-.66-.08-.44-.18-.87-.32-1.29-.41-1.25-1.29-1.93-2.58-2.05-.65-.06-1.3-.06-1.95.08-1.1.23-1.93.81-2.47,1.79-.52.96-.71,2-.82,3.07-.13,1.27-.12,2.55-.07,3.82.05,1.35.18,2.69.69,3.97.67,1.68,1.91,2.52,3.78,2.6.43.02.86.01,1.29-.06,1.33-.22,2.24-.96,2.78-2.17.28-.63.44-1.29.54-1.97.08-.5.09-.51.59-.51,4.63,0,9.26,0,13.89,0,.07,0,.15,0,.22,0,.22,0,.33.11.33.33,0,.09,0,.18,0,.27-.1,2.13-.46,4.21-1.26,6.2-1.29,3.23-3.5,5.64-6.56,7.28-2.05,1.1-4.24,1.75-6.52,2.15-1.32.23-2.64.36-3.98.44-.13,0-.27.01-.39.07h-3.21Z"/>
  <path class="cls-1" d="m301.55,56.62c-.36-.11-.73-.11-1.1-.14-1.99-.18-3.93-.59-5.75-1.43-2.43-1.12-4.2-2.9-5.32-5.33-.73-1.58-1.11-3.25-1.3-4.97-.12-1.11-.16-2.22-.16-3.33,0-4.08,0-8.15,0-12.23q0-.68-.69-.68c-.96,0-1.93,0-2.89,0-.49,0-.53-.04-.53-.54,0-3.29,0-6.58,0-9.87,0-.5.03-.53.53-.53.98,0,1.96,0,2.94,0,.12,0,.24,0,.36,0,.18,0,.27-.1.28-.28,0-.13,0-.27,0-.4,0-2,0-4,0-6.01,0-.1,0-.21,0-.31.01-.46.04-.5.52-.5,2.3,0,4.6,0,6.9,0,2.85,0,5.7,0,8.55,0,.07,0,.15,0,.22,0,.53,0,.55.03.55.55,0,2.06,0,4.12,0,6.18,0,.09,0,.18,0,.27,0,.46.04.49.52.49.77,0,1.54,0,2.31,0,1.07,0,2.14,0,3.2,0,.12,0,.24,0,.36,0,.24,0,.35.13.35.36,0,.12,0,.24,0,.36,0,3.17,0,6.35,0,9.52,0,.71,0,.71-.73.71-1.81,0-3.62,0-5.43,0-.59,0-.6,0-.6.6,0,3.71,0,7.41,0,11.12,0,.39.01.77.09,1.15.22,1.03.85,1.68,1.85,1.96.71.2,1.43.22,2.16.15.7-.06,1.38-.19,2.04-.42.37-.13.43-.07.45.33,0,.1,0,.21,0,.31,0,3.65,0,7.29,0,10.94,0,.04,0,.09,0,.13,0,.55,0,.56-.53.69-1.8.47-3.61.84-5.46,1-.32.03-.65.02-.96.14h-2.76Z"/>
  <path class="cls-1" d="m97.11,41.99c0-4.27,0-8.54,0-12.81q0-.66-.66-.66c-2.52,0-5.04,0-7.57,0-.64,0-.64,0-.64.64,0,8.54,0,17.08,0,25.62,0,.89,0,.81-.79.81-5.04,0-10.09,0-15.13,0q-.74,0-.75-.77c0-8.51,0-17.02,0-25.53,0-.81.05-.77-.78-.77-1.04,0-2.08,0-3.12,0-.48,0-.54-.05-.54-.54,0-3.29,0-6.58,0-9.87,0-.48.05-.53.54-.53,1.07,0,2.14,0,3.2,0,.12,0,.24,0,.36,0,.22,0,.33-.11.33-.33,0-.39,0-.77,0-1.16,0-1.43.15-2.84.48-4.23,1.07-4.51,3.81-7.54,8.13-9.18,1.63-.62,3.33-.97,5.06-1.15,1.29-.14,2.57-.2,3.86-.15,1.75.06,3.48.29,5.19.69.43.1.46.13.46.57,0,3.63,0,7.26,0,10.9,0,.06,0,.12,0,.18,0,.22-.12.28-.32.24-.42-.08-.84-.18-1.27-.22-.87-.08-1.75-.13-2.61.04-.28.05-.55.14-.8.26-.85.39-1.35,1.05-1.47,1.98-.05.41-.02.83-.03,1.24,0,.22.11.32.33.32.09,0,.18,0,.27,0,2.55,0,5.1,0,7.66,0,.61,0,.61,0,.61-.62,0-.76-.02-1.51.01-2.27.09-2.02.48-3.97,1.32-5.82,1.03-2.28,2.63-4.07,4.77-5.37,1.95-1.19,4.09-1.87,6.34-2.23,1.47-.24,2.94-.35,4.43-.34,2.1,0,4.17.27,6.22.72.4.09.43.13.45.53,0,.09,0,.18,0,.27,0,3.48,0,6.97,0,10.45,0,.09,0,.18,0,.27-.02.38-.06.42-.43.34-1.06-.24-2.14-.29-3.23-.26-.57.01-1.12.13-1.64.36-.98.44-1.54,1.18-1.56,2.28,0,.4,0,.8,0,1.2,0,.46.04.5.52.5,1.85,0,3.71,0,5.56,0,.15,0,.3,0,.44,0,.22,0,.32.12.33.34,0,.13,0,.27,0,.4,0,3.16,0,6.32,0,9.47q0,.73-.75.73c-1.81,0-3.62,0-5.43,0-.13,0-.27,0-.4,0-.18,0-.27.11-.28.28,0,.18,0,.36,0,.53,0,8.45,0,16.9,0,25.35,0,1.04-.03.89-.9.89-5.01,0-10.03,0-15.04,0q-.72,0-.72-.74c0-4.28,0-8.57,0-12.85Z"/>
  <path class="cls-1" d="m257.61,23.22c.17-.05.2-.2.26-.3,1.28-2.06,2.95-3.7,5.1-4.84,1.52-.81,3.15-1.29,4.86-1.51.79-.1,1.59-.18,2.39-.15,1.56.04,3.1.26,4.57.84,2.25.88,3.99,2.36,5.23,4.43.96,1.6,1.49,3.35,1.78,5.18.18,1.13.25,2.27.25,3.41,0,8.17,0,16.34,0,24.51,0,.91-.03.79-.81.79-5.07,0-10.15,0-15.22,0q-.71,0-.71-.71c0-6.79,0-13.58,0-20.37,0-.73-.02-1.45-.2-2.16-.08-.33-.19-.65-.34-.96-.44-.89-1.17-1.4-2.13-1.57-.65-.12-1.3-.09-1.95.01-1.47.24-2.37,1.14-2.8,2.54-.18.6-.28,1.21-.31,1.84-.02.38-.02.77-.02,1.16,0,6.49,0,12.99,0,19.48,0,.87-.06.75-.76.75-5.09,0-10.18,0-15.27,0q-.72,0-.72-.74c0-12.17,0-24.35,0-36.52q0-.75.77-.75c5.07,0,10.15,0,15.22,0q.75,0,.75.77c0,1.47,0,2.94,0,4.4,0,.16-.03.32.04.48Z"/>
  <path class="cls-1" d="m367.14,28.6c0-8.73,0-17.46,0-26.19,0-.78-.06-.78.78-.78,5.01,0,10.03,0,15.04,0q.77,0,.77.79c0,17.46,0,34.92,0,52.39,0,.83.01.77-.78.77-5.03,0-10.06,0-15.09,0q-.72,0-.73-.74c0-8.75,0-17.49,0-26.24Z"/>
  <path class="cls-1" d="m182.25,24.94c.37-.63.66-1.27,1.02-1.89.87-1.51,1.94-2.84,3.36-3.86,1.48-1.06,3.13-1.67,4.93-1.91.73-.1,1.47-.16,2.22-.15.54,0,.58.05.58.59,0,3.22,0,6.43,0,9.65,0,1.54,0,3.08,0,4.63,0,.09,0,.18,0,.27-.02.41-.07.44-.48.42-2.37-.13-4.71-.07-7,.66-1.17.37-2.25.93-3.12,1.82-.95.96-1.42,2.13-1.5,3.47-.01.27-.01.53-.01.8,0,5.14,0,10.29,0,15.43q0,.73-.74.73c-5.1,0-10.21,0-15.31,0-.69,0-.7,0-.7-.68,0-12.2,0-24.4,0-36.6,0-.06,0-.12,0-.18,0-.51.05-.55.57-.55,5.21,0,10.41,0,15.62,0,.51,0,.55.05.55.57,0,2.18,0,4.36,0,6.54v.26Z"/>
  <path class="cls-1" d="m64.66,36.56c0,6.09,0,12.19,0,18.28q0,.74-.72.74c-5.07,0-10.15,0-15.22,0-.72,0-.72,0-.72-.71,0-12.2,0-24.4,0-36.61,0-.69.01-.7.69-.7,5.1,0,10.21,0,15.31,0,.66,0,.66,0,.66.67,0,6.11,0,12.22,0,18.33Z"/>
  <path class="cls-1" d="m56.22,0c1.96-.03,3.67.39,5.22,1.37,2.1,1.33,3.35,3.23,3.67,5.71.53,4-1.81,7.74-6.06,8.88-2.51.67-4.99.5-7.3-.74-2.75-1.47-4.14-3.82-4.22-6.93-.05-1.84.47-3.52,1.58-4.99,1.29-1.7,3.03-2.66,5.09-3.11.71-.16,1.44-.22,2.03-.19Z"/>
  <path class="cls-1" d="m11.17,32.13c.96.02,1.75.43,2.37,1.15,1.53,1.77,1.52,4.7,0,6.48-1.31,1.53-3.47,1.52-4.76-.05-1.5-1.83-1.46-4.64.03-6.41.61-.72,1.39-1.13,2.36-1.16Z"/>
  <path class="cls-1" d="m24.48,36.43c.03-1,.29-2.03.96-2.91.62-.82,1.42-1.35,2.47-1.38,1.25-.03,2.14.61,2.79,1.61,1.11,1.7,1.04,4.04-.12,5.71-1.33,1.9-3.82,1.91-5.17.02-.6-.83-.93-1.9-.93-3.05Z"/>
</svg>