<?xml version="1.0" encoding="UTF-8"?>
<svg id="Layer_1" data-name="Layer 1" xmlns="http://www.w3.org/2000/svg" viewBox="0 0 931.77 189.15">
  <defs>
    <style>
      .cls-1 {
        fill: #4c4c4c;
      }
    </style>
  </defs>
  <path class="cls-1" d="m141.87.02c46.36,0,92.71,0,139.07,0,.4,0,.8.03,1.2,0,.96-.08,1.44.29,1.35,1.3-.03.32,0,.64,0,.96,0,61.52,0,123.03,0,184.55q0,2.33-2.38,2.33c-92.91,0-185.83,0-278.74,0-.2,0-.4,0-.6,0-1.7-.01-1.76-.07-1.76-1.75C0,125.48,0,63.57,0,1.65,0,.03.02.02,1.84.02c46.68,0,93.35,0,140.03,0Zm53.35,115.84c-.66,2.01-1.27,3.66-1.72,5.36-.31,1.15-.85,1.63-2.09,1.56-1.81-.11-3.62-.03-5.78-.03,1.72,1.25,3.08,2.38,4.58,3.28,1.21.73,1.36,1.5.87,2.75-.62,1.57-1.05,3.21-1.66,5.16,1.77-1.29,3.28-2.33,4.72-3.47.8-.64,1.45-.65,2.2.02.54.47,1.15.87,1.74,1.27.87.58,1.6,1.38,2.85,1.86-.53-1.69-.98-3.17-1.45-4.63-.63-1.93-.63-1.92,1-3.09,1.34-.95,2.66-1.93,3.99-2.89-1.98-.26-3.85-.31-5.72-.24-.98.04-1.44-.35-1.7-1.26-.53-1.8-1.15-3.57-1.82-5.65Zm-97.84,7.14c-.04-.08-.07-.17-.11-.25-1.6,0-3.19.01-4.79,0-2.33-.03-2.01.32-2.78-2.03-.49-1.49-.97-2.97-1.46-4.46-.84,1.77-1.43,3.5-1.93,5.26-.26.93-.73,1.28-1.7,1.25-1.89-.07-3.79-.02-5.69-.02,1.12,1.1,2.31,1.96,3.49,2.83,2.43,1.79,2.16.99,1.31,3.89-.41,1.38-.88,2.74-1.32,4.11,1.32-.68,2.41-1.48,3.51-2.26,2.69-1.91,1.67-1.9,4.49.04,1.06.73,2.08,1.51,3.12,2.26.08-.07.16-.14.24-.21-.56-1.78-1.09-3.57-1.71-5.32-.28-.8-.09-1.23.58-1.69,1.61-1.1,3.16-2.27,4.74-3.41Zm-26.67-31.21c-.03.09-.06.18-.09.27,1.46,1.07,2.89,2.19,4.41,3.18.94.61,1.15,1.22.74,2.28-.65,1.68-1.13,3.42-1.79,5.48,1.57-1.14,2.82-2.06,4.08-2.97,1.98-1.45,1.57-1.42,3.54.01,1.26.92,2.52,1.84,3.92,2.86-.03-.35-.03-.43-.05-.51-.42-1.29-.85-2.58-1.25-3.88-.87-2.84-1.12-2.09,1.21-3.83,1.19-.89,2.4-1.75,3.6-2.62-1.86-.26-3.61-.35-5.35-.24-1.29.09-1.86-.41-2.17-1.62-.44-1.7-1.05-3.35-1.58-5.02-.8,1.82-1.41,3.6-1.92,5.4-.26.93-.75,1.27-1.71,1.23-1.86-.07-3.72-.02-5.58-.02Zm115.31-30.96c-.03.08-.05.15-.08.23,1.52,1.09,3.01,2.24,4.58,3.26.86.57,1.02,1.13.67,2.09-.63,1.73-1.13,3.5-1.78,5.57,1.36-.99,2.42-1.77,3.48-2.54q2.36-1.71,4.68.02c1,.74,2.02,1.46,3.03,2.19.08-.07.16-.15.24-.22-.32-1.06-.63-2.12-.97-3.17-1.03-3.19-1.02-3.17,1.66-5.11.97-.7,2.05-1.27,3.01-2.34-2.11,0-3.99-.04-5.86.02-.93.03-1.36-.34-1.62-1.2-.54-1.83-1.16-3.63-1.85-5.73-.64,1.97-1.28,3.65-1.72,5.37-.32,1.25-.96,1.64-2.21,1.57-1.75-.1-3.51-.03-5.27-.03Zm-81.11-11.41c1.51-1.09,2.7-1.96,3.9-2.83,2.43-1.75,1.65-1.54,3.9.03,1.15.8,2.28,1.64,3.42,2.47.08-.07.16-.14.24-.21-.36-1.17-.73-2.33-1.08-3.5-1.05-3.47-1.44-2.35,1.57-4.62,1.02-.77,2.06-1.52,3.09-2.28-1.99-.22-3.87-.26-5.74-.21-.92.03-1.37-.34-1.63-1.2-.54-1.83-1.16-3.63-1.85-5.77-.41,1.3-.72,2.28-1.04,3.25-1.2,3.7-1.2,3.69-5.06,3.71-1,0-2.02-.18-3.2.19,1.64,1.18,3.11,2.28,4.63,3.3.8.53,1.02,1.06.68,1.99-.64,1.75-1.16,3.55-1.83,5.67Zm67.88-17.61c-.11,0-.21,0-.32,0-.5,1.55-.99,3.1-1.49,4.65-.59,1.82-.59,1.81-2.47,1.8-1.65,0-3.3,0-4.95,0,1.32,1.29,2.66,2.36,4.1,3.26,1.13.7,1.34,1.44.86,2.66-.63,1.6-1.08,3.26-1.61,4.9,1.45-.79,2.66-1.69,3.9-2.57,2.19-1.55,1.37-1.61,3.7.01,1.19.83,2.35,1.71,3.52,2.57.08-.07.17-.14.25-.2-.53-1.7-1.02-3.41-1.62-5.08-.35-.97-.13-1.52.71-2.08,1.54-1.02,3-2.16,4.49-3.25-1.92-.23-3.76-.29-5.58-.21-1.05.04-1.58-.3-1.86-1.35-.46-1.73-1.08-3.41-1.63-5.12Zm-36.82,132.58l.27.15c1.51-1.1,3.04-2.18,4.52-3.31.65-.5,1.16-.5,1.8,0,1.26.98,2.56,1.9,3.86,2.84.23.16.43.51.88.22-.53-1.66-1-3.35-1.6-4.99-.36-.99-.19-1.6.72-2.19,1.52-.99,2.96-2.1,4.43-3.17-1.19-.24-2.29-.24-3.39-.24-3.54,0-3.53,0-4.65-3.4-.34-1.03-.54-2.12-1.26-3.27-.64,2-1.24,3.77-1.76,5.56-.24.84-.69,1.19-1.55,1.12-.52-.04-1.04,0-1.56,0-1.37,0-2.73,0-4.1,0,1.4,1.34,2.82,2.44,4.32,3.41.9.59,1.09,1.21.73,2.2-.61,1.67-1.12,3.38-1.66,5.08Zm61.77-61.94c.06.06.13.13.19.19,1.41-1.03,2.88-2,4.23-3.1.9-.74,1.56-.78,2.49-.02,1.35,1.12,2.84,2.09,4.26,3.12-.33-1.81-.75-3.47-1.38-5.06-.48-1.2-.22-1.88.84-2.55,1.46-.92,2.82-1.99,4.22-3-1.78-.27-3.45-.35-5.11-.24-1.35.09-2.04-.36-2.37-1.7-.42-1.67-1.05-3.28-1.59-4.92-.8,1.77-1.41,3.5-1.89,5.27-.28,1.02-.79,1.42-1.86,1.37-1.81-.08-3.62-.02-5.43-.02,1.45,1.35,2.95,2.46,4.49,3.52.69.47.93.95.62,1.8-.63,1.76-1.15,3.56-1.72,5.35Zm-19.74,53.9c.07-.07.15-.13.22-.2-.54-1.71-1.04-3.43-1.65-5.11-.34-.94-.22-1.51.67-2.08,1.52-.98,2.95-2.1,4.41-3.16-.85-.27-1.6-.24-2.35-.28-1.47-.08-3.2.56-4.33-.29-1.07-.81-1.01-2.61-1.54-3.94-.3-.74-.3-1.6-1-2.39-.57,1.75-1.2,3.32-1.58,4.94-.32,1.36-1,1.81-2.35,1.72-1.64-.11-3.3-.03-4.95-.03-.02.1-.04.21-.06.31,1.38,1,2.73,2.05,4.17,2.97.97.62,1.25,1.26.82,2.37-.62,1.63-1.07,3.32-1.61,5.01.58.09.82-.29,1.13-.5,1.21-.86,2.43-1.69,3.58-2.61.73-.59,1.29-.51,2,.04,1.44,1.12,2.94,2.17,4.42,3.24Zm-67.08-17.38c-.09-.02-.17-.04-.26-.06-.53,1.62-1.07,3.24-1.58,4.87-.54,1.73-.53,1.74-2.39,1.74-1.66,0-3.31,0-4.97,0,1.28,1.22,2.56,2.32,3.99,3.15,1.29.75,1.39,1.57.89,2.84-.6,1.55-1.02,3.16-1.63,5.1,1.77-1.3,3.27-2.34,4.71-3.46.78-.61,1.38-.67,2.19,0,1.41,1.15,2.93,2.17,4.4,3.24-.33-1.84-.81-3.56-1.43-5.23-.38-1.03-.27-1.66.72-2.27,1.5-.94,2.9-2.06,4.34-3.1-1.86-.26-3.64-.31-5.41-.24-1.04.04-1.6-.3-1.89-1.34-.49-1.76-1.11-3.49-1.68-5.23Zm-28.52-67.27c.07.05.15.11.22.16,1.35-.98,2.74-1.9,4.02-2.96,1.02-.84,1.85-1.01,2.89-.03.84.79,1.85,1.4,2.8,2.06.43.3.78.76,1.5.84-.59-1.85-1.08-3.57-1.69-5.26-.35-.97-.13-1.54.71-2.1,1.47-.98,2.88-2.07,4.36-3.15-.2-.14-.26-.21-.32-.21-1.36-.02-2.72-.03-4.08-.04-2.78-.02-2.32.19-3.13-2.24-.49-1.46-.97-2.92-1.45-4.38-.79,1.7-1.4,3.38-1.85,5.11-.31,1.19-.95,1.59-2.14,1.53-1.69-.08-3.39-.02-5.08-.02-.03.1-.05.2-.08.3,1.45,1.04,2.87,2.13,4.35,3.11.84.56,1.06,1.12.69,2.09-.64,1.7-1.14,3.45-1.71,5.18Zm59.38-48.28c-.08,0-.17,0-.25.01-.56,1.73-1.19,3.45-1.67,5.2-.3,1.08-.86,1.48-1.96,1.44-1.74-.07-3.48-.02-5.22-.02,1.35,1.31,2.75,2.42,4.24,3.37.93.59,1.06,1.19.69,2.18-.63,1.68-1.11,3.42-1.66,5.13,1.71-.95,3.22-1.99,4.66-3.11.75-.58,1.32-.63,2.09,0,1.42,1.14,2.93,2.17,4.41,3.24.09-.05.17-.11.26-.16-.48-1.46-.96-2.92-1.43-4.38-.75-2.35-.87-1.87,1.13-3.36,1.19-.89,2.4-1.75,3.61-2.62-1.77-.28-3.44-.35-5.09-.26-1.25.07-1.88-.35-2.2-1.6-.43-1.71-1.07-3.38-1.61-5.06Z"/>
  <path class="cls-1" d="m438.48,125.92c0-7.2,0-14.4,0-21.6,0-1.59.03-1.62,1.6-1.62,10.56,0,21.12,0,31.68,0,1.57,0,1.58.01,1.59,1.63,0,1.64-.06,3.28.02,4.92.05,1.15-.35,1.52-1.5,1.52-7.28-.04-14.56-.02-21.84-.02q-1.86,0-1.86,1.92c0,2.24,0,4.48,0,6.72q0,1.56,1.62,1.56c6.72,0,13.44,0,20.16,0,1.66,0,1.67.01,1.67,1.67,0,1.6-.05,3.2.02,4.8.05,1.18-.32,1.6-1.56,1.59-6.8-.05-13.6,0-20.4-.05-1.24-.01-1.56.39-1.53,1.58.08,3.12.07,6.24,0,9.36-.03,1.19.39,1.48,1.51,1.47,7.64-.04,15.28-.02,22.92-.02,1.66,0,1.68.01,1.68,1.67,0,1.68-.03,3.36.01,5.04.02.94-.28,1.35-1.3,1.35-11.04-.03-22.08-.03-33.12,0-1.2,0-1.38-.53-1.37-1.53.02-7.32.01-14.64.01-21.96Z"/>
  <path class="cls-1" d="m783.87,119.07c0-4.96.02-9.92-.02-14.87,0-1.13.33-1.56,1.51-1.53,2.36.08,4.72.05,7.08,0,.95-.02,1.27.35,1.27,1.27-.02,8.52.05,17.03-.05,25.55-.03,2.55-.08,5.11-.45,7.65-1.03,7.06-4.89,11.23-11.97,12.5-4.75.85-9.56.85-14.26-.45-5.83-1.62-9.63-6.36-10.28-12.39-.51-4.71-.46-9.42-.46-14.13,0-6.16.02-12.32-.02-18.47,0-1.13.31-1.57,1.49-1.53,2.2.08,4.4.02,6.6.02,1.6,0,1.62.02,1.62,1.59,0,9.12,0,18.23.03,27.35,0,1.31.08,2.65.31,3.94.58,3.36,3.1,5.71,6.6,6.2,1.59.22,3.2.22,4.79,0,3.92-.56,6.09-3.22,6.16-7.71.08-5,.02-10,.02-14.99.02,0,.04,0,.06,0Z"/>
  <path class="cls-1" d="m331.23,48.19c-.08,2.6.21,5.41,1.03,8.15,2.56,8.56,12.22,9.24,16.47,5.36,1.84-1.68,2.89-3.79,3.56-6.13q.42-1.46,1.89-1c2.25.71,4.49,1.45,6.75,2.11.91.27,1.07.68.81,1.57-2.66,8.93-9.24,13.74-18.58,13.88-6.45.09-11.94-1.89-16.3-6.7-3.17-3.5-4.77-7.72-5.36-12.35-.71-5.59-.35-11.09,1.74-16.39,3.05-7.72,10.34-12.6,18.65-12.75,4.76-.08,9.23.65,13.22,3.42,3.42,2.37,5.38,5.72,6.57,9.61.18.58.02.9-.59,1.04-2.61.59-5.22,1.2-7.82,1.82-.93.22-1.05-.44-1.26-1.06-1.13-3.31-3.31-5.65-6.75-6.35-5.73-1.17-10.6,1.04-12.8,6.64-.43,1.08-.67,2.22-.88,3.36-.33,1.82-.37,3.66-.35,5.76Z"/>
  <path class="cls-1" d="m673.96,67.36c0,.99-.01,1.97,0,2.96.01.76-.32,1.07-1.08,1.07-2.16-.02-4.32-.03-6.48,0-.77,0-1.11-.31-1.09-1.06,0-.32,0-.64,0-.96,0-14.23,0-28.46,0-42.69q0-1.97,1.98-1.97c2,0,4,.05,6-.02,1.07-.03,1.39.38,1.38,1.4-.03,4.36-.01,8.71-.01,13.07,0,.43,0,.87,0,1.23.34.21.5.07.63-.07,6.88-6.86,19.76-4.09,22.52,7.23,1.28,5.24,1.18,10.48-.77,15.55-1.6,4.17-4.5,7.21-8.86,8.49-4.68,1.37-8.93.38-12.56-2.96-.47-.43-.84-.95-1.26-1.43-.14.06-.27.12-.41.17Zm15.11-12.77c.03-2.26-.08-4.41-.9-6.46-1.19-2.96-3.41-4.46-6.57-4.42-2.83.03-5.24,1.75-6.22,4.6-1.37,4-1.21,8.05.13,12,1.1,3.23,3.9,4.94,7.25,4.76,2.67-.14,4.91-2.29,5.79-5.46.46-1.68.55-3.39.51-5.02Z"/>
  <path class="cls-1" d="m554.92,67.4c-1.59,1.36-3.04,2.64-4.84,3.47-6.46,3-13.82.52-17.31-5.82-1.56-2.83-2.29-5.87-2.39-9.07-.11-3.53.07-7.01,1.32-10.4,3.53-9.6,15.57-11.72,21.91-5.24.16.16.35.3.56.46.34-.44.19-.9.19-1.31.01-4.44.04-8.88-.01-13.32-.02-1.17.38-1.53,1.52-1.49,2.12.07,4.24.05,6.36,0,.96-.02,1.36.28,1.36,1.29-.02,14.72-.02,29.44,0,44.16,0,.93-.34,1.28-1.27,1.26-2.08-.05-4.16-.04-6.24,0-.83.01-1.17-.32-1.15-1.13.02-.95,0-1.91,0-2.86Zm-.53-12.99c-.12-2.16-.2-4.45-1.15-6.57-1.09-2.43-2.87-4.02-5.67-4.12-3.76-.14-6.57,2.02-7.4,5.93-.73,3.43-.67,6.92.3,10.31.88,3.08,3.27,5.02,6.07,5.12,3.25.11,5.68-1.54,6.89-4.68.73-1.89.9-3.87.96-6Z"/>
  <path class="cls-1" d="m630.48,67.28c-1.28,1.44-2.7,2.7-4.45,3.54-6.45,3.08-13.91.61-17.42-5.76-1.56-2.83-2.3-5.87-2.4-9.07-.11-3.57.08-7.09,1.36-10.51,3.56-9.49,15.53-11.6,21.86-5.14.16.17.36.3.56.46.35-.44.2-.89.2-1.31.01-4.44.04-8.88-.01-13.32-.01-1.16.37-1.54,1.51-1.5,2.08.07,4.16.09,6.24,0,1.33-.06,1.49.57,1.49,1.66-.02,13.68-.01,27.36-.02,41.04,0,1-.01,2,0,3,0,.7-.3,1.01-1.01,1.01-2.2-.02-4.4-.02-6.6,0-.71,0-1.03-.31-1.03-1,0-.99,0-1.99,0-2.98l-.28-.12Zm-14.86-13.3c-.05,2.21.09,4.36.82,6.42,1.03,2.92,3.37,4.65,6.28,4.68,3.06.03,5.48-1.68,6.57-4.79,1.37-3.94,1.24-7.95,0-11.88-.94-3-3.26-4.65-6.11-4.7-3.2-.05-5.56,1.55-6.76,4.55-.74,1.86-.86,3.8-.8,5.72Z"/>
  <path class="cls-1" d="m594.97,119.57c1.01-.93,1.77-1.76,2.66-2.41,6.5-4.79,15.62-2.6,19.52,4.66,2.16,4.02,2.58,8.36,2.25,12.81-.22,2.89-.89,5.67-2.29,8.25-2.96,5.47-8.93,8.32-14.72,6.99-2.12-.49-3.9-1.6-5.5-3.04-.38-.34-.75-.7-1.14-1.07-.38.45-.23.91-.23,1.32-.01,4.6-.04,9.19.01,13.79.01,1.16-.38,1.53-1.52,1.5-2.12-.07-4.24-.05-6.35,0-.94.02-1.37-.25-1.37-1.28.02-14.79.02-29.58,0-44.37,0-1,.37-1.33,1.34-1.3,2,.05,4,.06,6,0,1.08-.04,1.42.41,1.36,1.41-.05.83-.01,1.67-.01,2.76Zm.49,12.71c-.08,2.03.15,4.26,1.1,6.33,1.19,2.58,3.05,4.33,6.1,4.49,3.04.16,5.21-1.27,6.25-3.91,1.76-4.46,1.86-9.11-.07-13.54-2.28-5.24-8.99-5.1-11.69-.94-1.47,2.26-1.74,4.76-1.69,7.57Z"/>
  <path class="cls-1" d="m353.56,119.3c1.55-1.54,2.92-2.71,4.59-3.43,4.28-1.83,8.49-1.76,12.53.64,3.02,1.79,4.22,4.74,4.46,8.07.55,7.86.14,15.75.26,23.62.01.87-.33,1.21-1.21,1.19-2.24-.04-4.48-.05-6.72,0-1.01.02-1.3-.38-1.29-1.34.03-5.68.05-11.36,0-17.03-.02-1.91-.05-3.84-.42-5.73-.41-2.09-1.97-3.42-4.1-3.56-4.63-.32-7.4,1.99-7.84,6.6-.56,5.9-.16,11.82-.25,17.74-.05,3.31,0,3.31-3.28,3.31-1.52,0-3.04-.05-4.56.02-1.06.05-1.48-.36-1.36-1.4.02-.2,0-.4,0-.6,0-14.23,0-28.47,0-42.7q0-2,2.05-2c1.92,0,3.84.05,5.76-.02,1.05-.03,1.4.35,1.39,1.39-.04,4.52-.02,9.04-.01,13.55,0,.43,0,.87,0,1.68Z"/>
  <path class="cls-1" d="m719.22,60.5c.63-1.88,1.26-3.76,1.88-5.65,1.79-5.43,3.59-10.85,5.34-16.29.28-.87.73-1.19,1.64-1.17,2.32.05,4.64.05,6.96,0,1-.02,1.28.21.9,1.23-4.14,11.25-8.25,22.51-12.38,33.77-.8,2.17-1.57,4.36-2.58,6.45-1.87,3.88-5.05,5.79-9.2,6.14-2.1.18-4.23.18-6.34-.19-.74-.13-1.16-.45-1.23-1.21-.18-1.79-.36-3.58-.57-5.36-.09-.78.19-.97.95-.85.9.14,1.83.17,2.75.17,3.55.02,6.32-2.45,6.77-5.99.05-.43-.13-.78-.27-1.15-3.93-10.39-7.87-20.78-11.8-31.17-.1-.26-.19-.53-.3-.79-.28-.69-.11-1.05.7-1.05,2.6.01,5.2.03,7.8,0,1.01-.01,1.13.71,1.36,1.38,2.29,6.78,4.56,13.56,6.85,20.34.15.45.32.89.48,1.34l.31.03Z"/>
  <path class="cls-1" d="m690.04,135.09c.06,2.22-.23,5.58.23,8.93.21,1.52.66,2.96,1.28,4.35.32.72.19,1.02-.64,1.01-2.36-.02-4.72-.03-7.08,0-.8.01-1.1-.4-1.35-1.07-.26-.69-.14-1.79-.83-1.99-.68-.2-1.21.76-1.83,1.18-4.16,2.82-8.66,3.4-13.38,1.84-3.85-1.27-6.29-4.8-6.45-8.96-.15-4,1.95-7.44,5.61-9.13,2.86-1.32,5.97-1.75,9.02-2.39,1.76-.37,3.51-.79,5.23-1.32.78-.24,1.05-.69,1.06-1.49.03-2.74-1.14-4.08-3.89-4.29-.84-.06-1.68-.03-2.52-.05-2.19-.04-3.8.89-4.64,2.93-.43,1.05-1.04,1.32-2.13,1.1-1.8-.36-3.63-.56-5.45-.83-1.33-.2-1.38-.3-.94-1.62,1.79-5.37,5.67-8.1,11.17-8.5,3.3-.24,6.64-.35,9.9.49,2.51.65,4.72,1.8,6.16,4.05,1.3,2.04,1.36,4.41,1.44,6.72.09,2.64.02,5.28.02,9.05Zm-9.14,1.06c0-.6-.02-1.2,0-1.8.04-.83-.28-1.05-1.08-.84-2.01.52-4.04.95-6.05,1.48-.84.22-1.69.52-2.47.9-1.67.82-2.39,2.52-1.91,4.32.73,2.69,3.47,4.01,6.56,3.15,3.41-.95,4.92-3.15,4.94-7.22Z"/>
  <path class="cls-1" d="m876.37,114.7c8.36-.4,16.09,5.53,17.33,14.67,1.48,10.92-5.11,19.27-14.32,20.58-7.39,1.05-14.52-1.62-17.93-7.37-4.59-7.72-3.36-19.08,4-24.57,3.21-2.4,6.9-3.46,10.92-3.31Zm8.03,17.59c.06-1.91-.17-3.78-1.02-5.49-1.3-2.62-3.24-4.41-6.35-4.61-3.39-.22-5.85,1.17-7.5,4.11-1.02,1.81-1.25,3.8-1.28,5.79-.04,2.57.28,5.1,1.82,7.31,2.66,3.85,8.17,4.39,11.52,1.14,2.35-2.29,2.79-5.19,2.81-8.25Z"/>
  <path class="cls-1" d="m385.33,36.7c8.38-.4,16.1,5.55,17.33,14.67,1.48,10.92-5.11,19.28-14.32,20.58-7.39,1.05-14.52-1.62-17.93-7.36-4.59-7.73-3.36-19.08,4-24.57,3.21-2.4,6.9-3.46,10.92-3.31Zm8.04,17.66c.06-1.9-.16-3.78-.99-5.49-1.3-2.67-3.27-4.48-6.42-4.67-3.39-.2-5.84,1.21-7.47,4.16-.99,1.78-1.21,3.72-1.25,5.68-.05,2.58.26,5.1,1.78,7.32,2.66,3.92,8.21,4.47,11.59,1.15,2.31-2.26,2.74-5.13,2.78-8.15Z"/>
  <path class="cls-1" d="m562.26,114.7c8.26-.38,16.05,5.46,17.29,14.72,1.46,10.92-5.15,19.2-14.26,20.52-7.38,1.07-14.54-1.59-17.96-7.29-4.61-7.69-3.43-19.07,3.91-24.59,3.24-2.44,6.96-3.51,11.03-3.35Zm7.98,17.58c.06-1.91-.18-3.78-1.02-5.49-1.3-2.62-3.25-4.4-6.35-4.6-3.39-.22-5.85,1.18-7.5,4.12-1.02,1.81-1.25,3.8-1.27,5.79-.04,2.57.29,5.1,1.82,7.31,2.67,3.84,8.18,4.38,11.52,1.12,2.35-2.29,2.78-5.19,2.81-8.25Z"/>
  <path class="cls-1" d="m402.16,134.98c-3.32,0-6.64.02-9.95-.01-.99-.01-1.24.33-1.07,1.29.27,1.52.69,2.94,1.58,4.22,2.29,3.27,7.75,3.47,9.66.89.33-.45.73-.9.87-1.42.35-1.23,1.08-1.33,2.19-1.1,2.03.42,4.1.68,6.15,1.02,1.32.22,1.39.32.88,1.5-2.31,5.3-6.43,8.14-12.11,8.67-2.26.21-4.55.19-6.8-.3-5.28-1.16-8.9-4.27-10.65-9.36-2.02-5.9-2-11.86.8-17.5,2.65-5.35,7.12-8.1,13.2-8.21,4.76-.09,8.92,1.21,12.18,4.82,2.42,2.69,3.45,5.98,4.01,9.47.25,1.58.26,3.18.29,4.78.02.94-.34,1.26-1.26,1.25-3.32-.04-6.64-.01-9.95-.01Zm-4.48-5.64c1.72,0,3.43-.07,5.14.02,1.2.06,1.43-.47,1.31-1.5-.36-3.06-2.54-6.42-6.75-6.17-3.34.2-5.95,2.87-6.13,6.47-.04.9.28,1.21,1.16,1.19,1.75-.04,3.51-.01,5.27-.01Z"/>
  <path class="cls-1" d="m589.88,56.98c-3.16,0-6.32,0-9.47,0-1.78,0-1.77,0-1.48,1.83.22,1.37.69,2.63,1.53,3.73,2.41,3.16,7.28,3.55,9.67.78.42-.49.77-1.04.95-1.65.27-.89.83-1.03,1.66-.89,2.2.39,4.41.79,6.62,1.07,1.1.14,1.23.55.82,1.48-2.32,5.29-6.42,8.18-12.1,8.7-3.39.31-6.79.15-10-1.31-5.31-2.43-7.69-6.9-8.52-12.36-.72-4.71-.39-9.38,1.89-13.67,2.76-5.18,7.11-7.9,13.08-8.02,4.81-.09,9,1.21,12.27,4.88,2.38,2.66,3.4,5.92,3.95,9.37.25,1.54.24,3.1.3,4.66.04,1.14-.41,1.43-1.47,1.42-3.24-.05-6.48-.02-9.71-.02Zm-4.5-5.64c1.76,0,3.51-.04,5.27.01.96.03,1.27-.35,1.19-1.28-.29-3.49-2.84-6.53-6.43-6.39-3.61.14-6.31,2.76-6.47,6.5-.04.92.32,1.19,1.18,1.17,1.75-.04,3.51-.01,5.27-.01Z"/>
  <path class="cls-1" d="m644.06,134.98c-3.16,0-6.32,0-9.47,0-1.71,0-1.7,0-1.43,1.77.21,1.37.7,2.61,1.5,3.75,2.29,3.26,7.75,3.46,9.67.87.26-.35.62-.69.72-1.09.38-1.57,1.34-1.66,2.71-1.36,1.95.43,3.93.71,5.91.96,1.04.13,1.17.53.79,1.41-2.32,5.35-6.45,8.25-12.18,8.76-3.35.3-6.71.14-9.88-1.29-5.36-2.43-7.75-6.94-8.58-12.44-.7-4.63-.38-9.22,1.82-13.45,2.76-5.3,7.15-8.08,13.22-8.18,4.76-.08,8.92,1.22,12.17,4.83,2.42,2.69,3.45,5.98,4,9.47.24,1.55.24,3.1.29,4.66.04,1.08-.39,1.37-1.41,1.36-3.28-.05-6.56-.02-9.83-.02Zm-4.57-5.64c1.76,0,3.51-.05,5.26.02,1.07.04,1.42-.34,1.31-1.39-.32-3.17-2.6-6.49-6.66-6.27-3.43.18-6.07,2.84-6.24,6.49-.04.92.31,1.19,1.17,1.17,1.71-.04,3.43-.01,5.15-.01Z"/>
  <path class="cls-1" d="m500.94,41.97c2.46-2.73,5.04-4.58,8.34-5.09,3.01-.47,5.97-.28,8.78,1.11,3.46,1.72,4.92,4.71,5.17,8.35.54,7.95.13,15.91.25,23.87.01.88-.34,1.2-1.21,1.19-2.24-.04-4.48-.05-6.72,0-1.02.02-1.3-.39-1.29-1.35.03-4.96.04-9.92,0-14.88-.01-2.08-.08-4.16-.24-6.23-.34-4.22-3.02-5.96-7.08-5.04-2.56.58-4.25,2.31-4.82,4.96-.4,1.89-.49,3.8-.49,5.72,0,5.08-.03,10.16.02,15.24.01,1.2-.35,1.63-1.58,1.58-2.16-.09-4.32-.05-6.48-.01-.89.02-1.18-.34-1.18-1.2.02-10.52.02-21.04,0-31.56,0-.85.25-1.24,1.16-1.22,2.08.04,4.16.03,6.24,0,.84-.01,1.14.35,1.12,1.15-.03,1.03,0,2.05,0,3.41Z"/>
  <path class="cls-1" d="m706.86,119.98c2.48-2.77,5.1-4.62,8.45-5.12,2.97-.44,5.9-.25,8.66,1.13,3.5,1.75,4.94,4.78,5.19,8.46.53,7.91.12,15.83.24,23.75.01.87-.32,1.21-1.2,1.2-2.24-.04-4.48-.05-6.72,0-1.01.02-1.31-.37-1.3-1.34.03-5.08.04-10.16,0-15.24-.01-2-.07-4-.25-5.99-.39-4.25-3.18-5.87-7.17-4.9-2.5.61-4.16,2.32-4.71,4.92-.4,1.89-.49,3.8-.49,5.72,0,5.08-.03,10.16.02,15.24.01,1.19-.33,1.64-1.56,1.59-2.16-.09-4.32-.05-6.48-.01-.88.02-1.19-.32-1.19-1.19.02-10.52.02-21.04,0-31.56,0-.84.23-1.25,1.15-1.23,2.08.04,4.16.03,6.24,0,.83-.01,1.15.33,1.13,1.14-.03,1.03,0,2.06,0,3.43Z"/>
  <path class="cls-1" d="m811.75,119.82c.95-.86,1.69-1.63,2.53-2.27,4.59-3.47,9.55-3.82,14.69-1.47,3.47,1.58,4.83,4.68,5.07,8.26.54,7.95.13,15.91.25,23.87.01.89-.36,1.19-1.22,1.18-2.24-.04-4.48-.05-6.72,0-1.03.03-1.29-.41-1.28-1.36.03-5,.04-10,0-15-.01-2.04-.08-4.08-.24-6.11-.35-4.29-3.14-5.99-7.2-5-2.5.61-4.15,2.33-4.7,4.94-.4,1.89-.49,3.8-.49,5.72,0,5.08-.03,10.16.03,15.24.01,1.21-.37,1.62-1.59,1.57-2.12-.09-4.24-.05-6.36-.01-.89.02-1.3-.24-1.3-1.21.02-10.52.02-21.04,0-31.56,0-.86.27-1.23,1.17-1.21,2.04.04,4.08.05,6.12,0,.97-.02,1.27.38,1.23,1.29-.04.98-.01,1.97-.01,3.13Z"/>
  <path class="cls-1" d="m909.19,119.83c.93-.84,1.66-1.56,2.44-2.21,4.02-3.33,10.17-3.95,14.8-1.56,3.39,1.75,4.81,4.72,5.05,8.3.54,7.95.13,15.91.25,23.87.01.89-.37,1.19-1.23,1.17-2.16-.04-4.32-.06-6.48.01-1.13.04-1.53-.32-1.52-1.49.05-4.92.05-9.84.01-14.76-.01-2.08-.08-4.16-.24-6.23-.35-4.29-3.15-5.99-7.2-4.99-2.5.62-4.15,2.33-4.7,4.94-.4,1.89-.49,3.8-.49,5.72,0,5.08-.03,10.16.03,15.24.01,1.22-.39,1.61-1.59,1.56-2.12-.08-4.24-.05-6.36-.01-.9.02-1.29-.25-1.29-1.22.02-10.52.02-21.04,0-31.56,0-.86.29-1.22,1.18-1.21,2.04.04,4.08.05,6.12,0,.97-.02,1.27.4,1.23,1.29-.04.98,0,1.97,0,3.13Z"/>
  <path class="cls-1" d="m474.66,67.24c-1.61,1.86-3.54,3.23-5.83,4.08-2.39.89-4.87,1.04-7.33.61-5.18-.9-8.16-4.37-8.66-9.74-.16-1.76-.21-3.51-.21-5.27,0-5.92,0-11.83,0-17.75,0-1.76,0-1.76,1.7-1.76,1.96,0,3.92,0,5.88,0,1.61,0,1.62,0,1.62,1.58,0,3.48.02,6.96,0,10.44-.02,3.44.05,6.87.22,10.31.23,4.66,3.33,6.17,7.48,5.05,2.99-.81,4.47-3.25,4.7-6.77.4-6.23.13-12.47.21-18.7.02-1.89,0-1.89,1.93-1.89,2,0,4,.03,6-.01.93-.02,1.28.32,1.28,1.25-.02,10.48-.02,20.95,0,31.43,0,.99-.36,1.34-1.34,1.31-2.04-.05-4.08-.04-6.12,0-.88.02-1.24-.33-1.21-1.19.03-.94,0-1.89,0-2.83-.11-.04-.22-.08-.33-.12Z"/>
  <path class="cls-1" d="m503.35,145.1c-.39.49-.74,1.02-1.19,1.45-4.12,3.96-11.14,4.76-15.92,1.85-3.1-1.88-4.23-4.85-4.59-8.26-.43-4.11-.15-8.23-.21-12.34-.05-3.64.03-7.28-.03-10.91-.02-1.16.39-1.54,1.53-1.5,2.08.07,4.16.08,6.24,0,1.18-.05,1.49.41,1.48,1.53-.05,4.72-.04,9.44-.01,14.15.02,2.24.12,4.47.22,6.71.21,4.59,3.26,6.09,7.4,5.02,3-.77,4.53-3.23,4.76-6.72.41-6.27.14-12.55.22-18.82.02-1.84,0-1.85,1.85-1.85,1.8,0,3.6,0,5.4,0q1.94,0,1.94,2c0,8.6,0,17.19,0,25.79,0,1.64-.03,3.28,0,4.92.02.92-.32,1.29-1.26,1.27-2.04-.05-4.08-.06-6.12,0-1.04.03-1.33-.43-1.29-1.36.04-.9,0-1.8,0-2.69-.15-.08-.29-.16-.44-.23Z"/>
  <path class="cls-1" d="m441.44,57.82c0,4.04-.04,8.08.02,12.11.02,1.19-.43,1.51-1.54,1.47-2.04-.07-4.08-.09-6.11,0-1.25.06-1.56-.43-1.56-1.6.04-7.88.02-15.75.02-23.63q0-1.92-1.88-1.92-2.99,0-2.99-2.98c0-.92.03-1.84,0-2.76-.04-.84.34-1.15,1.14-1.11.72.03,1.44,0,2.16,0,1.56,0,1.58,0,1.57-1.63-.01-1.68.12-3.35.37-5.01.44-2.93,2.09-4.93,4.81-5.92,4.06-1.49,8.17-1.07,12.26,0,.62.16.69.59.58,1.12-.29,1.45-.61,2.89-.86,4.35-.14.82-.55,1.07-1.34.89-1.3-.3-2.62-.25-3.94-.18-1.37.07-2.2.76-2.41,2.07-.18,1.1-.2,2.22-.29,3.34-.06.72.27,1,.99.99,1.52-.03,3.04.03,4.56-.01.89-.02,1.21.33,1.18,1.2-.04,1.48-.05,2.96,0,4.44.04.97-.38,1.26-1.28,1.22-1.32-.05-2.64.05-3.96-.03-1.13-.07-1.54.28-1.52,1.47.07,4.04.03,8.07.02,12.11Z"/>
  <path class="cls-1" d="m332.45,109.63c0,1.56.03,3.12-.01,4.68-.02.83.32,1.14,1.14,1.12,1.28-.04,2.56.01,3.84-.01.76-.02,1.09.29,1.07,1.06-.03,1.6-.02,3.2,0,4.8,0,.72-.32,1-1.02.99-1.32-.02-2.64.02-3.96,0-.77-.02-1.07.29-1.07,1.06.03,5.56,0,11.12.06,16.68.02,1.73.84,2.4,2.6,2.38.73-.01,1.45-.1,2.11-.39.96-.42,1.4-.15,1.48.9.13,1.59.31,3.18.49,4.77.09.76-.1,1.27-.92,1.56-2.78.97-5.66,1.21-8.52.73-4.39-.74-6.36-3.33-6.44-8.43-.09-5.8-.04-11.6-.05-17.4,0-1.85,0-1.85-1.8-1.86-2.47-.01-2.27.23-2.28-2.25,0-1.2.02-2.4,0-3.6-.01-.72.31-1.03,1.01-.99.08,0,.16,0,.24,0,2.83-.08,3.04-.1,2.77-2.86-.27-2.77.59-4.48,3.19-5.57,1.75-.73,3.33-1.9,4.98-2.88.74-.44,1.1-.3,1.09.61-.01,1.64,0,3.28,0,4.92h0Z"/>
  <path class="cls-1" d="m529.72,119.51c.89-1.06,1.56-1.84,2.21-2.63,2.67-3.2,8.03-2.47,10.76-.83.42.25.48.59.32,1.02-.76,2.11-1.5,4.22-2.25,6.33-.22.64-.58.78-1.18.43-1.13-.66-2.34-.95-3.67-.93-1.88.02-3.19.86-4.04,2.5-1.15,2.2-1.33,4.61-1.38,7-.1,5.12-.06,10.24-.08,15.36,0,1.6-.04,1.63-1.6,1.63-2.16,0-4.32-.03-6.48.02-.94.02-1.27-.35-1.27-1.26.02-10.48.01-20.96,0-31.43,0-.88.26-1.32,1.24-1.3,2.08.05,4.16.04,6.24,0,.9-.02,1.22.36,1.19,1.21-.03.86,0,1.72,0,2.89Z"/>
  <path class="cls-1" d="m852.07,132.53c0,5.11-.03,10.23.02,15.34,0,1.12-.3,1.58-1.49,1.53-1.99-.08-4-.02-5.99-.02-1.74,0-1.75,0-1.75-1.7,0-6.51,0-13.03,0-19.54,0-3.76.03-7.51-.02-11.27-.01-1.06.29-1.51,1.42-1.47,2.04.07,4.08.02,6.11.02,1.68,0,1.69,0,1.69,1.64,0,5.15,0,10.31,0,15.46Z"/>
  <path class="cls-1" d="m417.38,58.9c-2.52,0-5.04-.04-7.55.02-1.01.02-1.44-.27-1.41-1.35.07-2.16.04-4.32,0-6.47-.01-.87.29-1.21,1.18-1.2,5.16.03,10.31.03,15.47,0,.91,0,1.19.39,1.18,1.23-.02,2.16-.03,4.32,0,6.47.02.97-.33,1.35-1.33,1.33-2.52-.05-5.04-.02-7.55-.02Z"/>
  <path class="cls-1" d="m847.49,110.98c-1.16,0-2.31-.02-3.47,0-.79.02-1.18-.25-1.17-1.1.03-2.03.03-4.07,0-6.1-.01-.85.38-1.1,1.17-1.1,2.31.03,4.63.03,6.94,0,.85-.01,1.12.36,1.11,1.16-.02,1.99-.03,3.99,0,5.98.02.91-.39,1.19-1.23,1.16-1.12-.04-2.23-.01-3.35-.01Z"/>
</svg>