<?xml version="1.0" encoding="utf-8"?>
<!-- Generator: Adobe Illustrator 27.6.1, SVG Export Plug-In . SVG Version: 6.00 Build 0)  -->
<svg version="1.1" id="Layer_1" xmlns="http://www.w3.org/2000/svg" xmlns:xlink="http://www.w3.org/1999/xlink" x="0px" y="0px"
	 viewBox="0 0 350 349" style="enable-background:new 0 0 350 349;" xml:space="preserve">
<style type="text/css">
	.st0{fill:#4C4C4D;}
</style>
<path class="st0" d="M50,0C22.4,0,0,22.4,0,49.9v249.3C0,326.6,22.4,349,50,349h76.7V235.4H85.5v-60.9h41.3v-26.3
	c0-67.9,30.8-99.3,97.7-99.3c12.7,0,34.5,2.5,43.5,5v55.2c-4.7-0.5-12.9-0.8-23.1-0.8c-32.8,0-45.5,12.4-45.5,44.6v21.7h65.3
	l-11.3,60.9h-54.1V349H300c27.6,0,50-22.4,50-49.9V49.9C350,22.4,327.6,0,300,0H50z"/>
</svg>
