<?xml version="1.0" encoding="utf-8"?>
<!-- Generator: Adobe Illustrator 27.6.1, SVG Export Plug-In . SVG Version: 6.00 Build 0)  -->
<svg version="1.1" id="Layer_1" xmlns="http://www.w3.org/2000/svg" xmlns:xlink="http://www.w3.org/1999/xlink" x="0px" y="0px"
	 viewBox="0 0 350 349" style="enable-background:new 0 0 350 349;" xml:space="preserve">
<style type="text/css">
	.st0{fill:#4C4C4D;}
</style>
<path class="st0" d="M175,85c-49.7,0-89.7,40-89.7,89.5S125.4,264,175,264s89.7-39.9,89.7-89.5S224.7,85,175,85z M175,232.7
	c-32.1,0-58.3-26.1-58.3-58.2s26.2-58.2,58.3-58.2s58.3,26.1,58.3,58.2S207.1,232.7,175,232.7z M289.4,81.4
	c0,11.6-9.4,20.9-20.9,20.9c-11.6,0-20.9-9.3-20.9-20.9c0-11.5,9.4-20.9,20.9-20.9C280,60.5,289.4,69.8,289.4,81.4z M348.8,102.5
	c-1.3-28-7.7-52.7-28.3-73.1C300,9,275.2,2.6,247.2,1.2c-28.9-1.6-115.5-1.6-144.4,0C74.9,2.6,50,8.9,29.5,29.3
	C9,49.7,2.6,74.5,1.2,102.5c-1.6,28.8-1.6,115.2,0,144c1.3,28,7.7,52.7,28.3,73.1c20.5,20.4,45.3,26.8,73.3,28.2
	c28.9,1.6,115.5,1.6,144.4,0c28-1.3,52.9-7.7,73.3-28.2c20.5-20.4,26.9-45.2,28.3-73.1C350.4,217.6,350.4,131.4,348.8,102.5z
	 M311.4,277.4c-6.1,15.3-17.9,27-33.3,33.2c-23,9.1-77.7,7-103.1,7c-25.5,0-80.2,2-103.1-7c-15.3-6.1-27.1-17.8-33.3-33.2
	c-9.1-23-7-77.5-7-102.9s-2-80,7-102.9c6.1-15.3,17.9-27,33.3-33.2c23-9.1,77.7-7,103.1-7c25.5,0,80.2-2,103.1,7
	c15.3,6.1,27.1,17.8,33.3,33.2c9.1,23,7,77.5,7,102.9S320.6,254.5,311.4,277.4z"/>
</svg>
