<svg width="94" height="51" viewBox="0 0 94 51" fill="none" xmlns="http://www.w3.org/2000/svg">
<path d="M0.872478 50.4497C0.584476 46.751 0.288003 43.0607 0 39.2981C2.72332 39.3407 5.38311 39.3918 8.03231 39.4344V45.5521H11.4566V40.6971C12.4032 40.6971 13.2439 40.6864 14.0952 40.7077C14.2011 40.7077 14.3408 40.8653 14.4128 40.991C15.3827 42.4517 16.3399 43.9125 17.2865 45.3839C17.4347 45.6139 17.5957 45.731 17.8816 45.7203C19.0632 45.6991 20.2534 45.7203 21.488 45.7203C20.2767 43.8912 19.0526 42.062 17.818 40.2116C18.4576 39.9177 19.0209 39.6026 19.7536 39.6345C21.5621 39.7197 23.3706 39.7091 25.1791 39.741C25.2849 39.741 25.3908 39.7495 25.5729 39.7708C24.6687 41.7788 23.775 43.7528 22.8496 45.8247H23.8619C24.5628 45.8353 25.2659 45.846 25.9668 45.8779C26.2633 45.8886 26.4136 45.8034 26.5301 45.5308C26.9134 44.5939 27.3285 43.6697 27.7224 42.7456C27.8177 42.5135 27.9468 42.4091 28.2115 42.4198C30.1894 42.473 32.1589 42.505 34.1368 42.5348C34.4248 42.5348 34.5518 42.6306 34.6471 42.8925C35.0093 43.8507 35.382 44.8068 35.7758 45.7523C35.8288 45.8673 35.9559 46.0355 36.0511 46.0461C37.1693 46.0674 38.2853 46.0568 39.4564 46.0568C38.6262 44.0381 37.8067 42.0322 36.9872 40.0349H41.9552V46.1931H44.2846C46.0719 46.1824 47.8804 46.2868 49.6572 46.1292C51.1707 45.9898 52.6066 45.3918 53.7749 44.4143C54.9433 43.4367 55.7892 42.1257 56.2007 40.6545C56.2749 40.3905 56.3807 40.3074 56.6582 40.3181C57.6471 40.3394 58.6466 40.3181 59.6568 40.3181V46.455H63.0937V40.4756C64.2627 40.4756 65.3067 40.4756 66.3592 40.4863C66.4545 40.4863 66.5921 40.6865 66.626 40.8227C67.3481 43.6506 69.1037 45.55 71.8693 46.5082C75.6663 47.8221 79.9546 46.3932 81.9219 43.1353C82.3158 42.473 82.5403 41.715 82.8579 41.0122C82.9109 40.8951 83.0697 40.7482 83.1777 40.7588C85.8163 40.8014 88.4443 40.8547 91.0808 40.9079C91.102 40.9079 91.1359 40.9292 91.1994 40.9484C91.1683 41.0609 91.1359 41.1731 91.102 41.2848C90.0707 44.1638 89.0394 47.0448 88.0293 49.9238C87.8895 50.3135 87.7095 50.4497 87.3156 50.4178C87.125 50.3965 86.9344 50.4497 86.7311 50.471H0.872478V50.4497ZM68.3921 38.9616H65.1055V30.1118H61.6664V38.951H58.3586C58.3586 38.836 58.3481 38.721 58.3586 38.6039C58.8034 34.5261 56.1033 30.9849 51.9845 30.2694C51.3516 30.1626 50.7117 30.1029 50.0701 30.0906C48.0498 30.0693 46.0381 30.0906 43.9755 30.0906V38.9829H43.4863C42.0293 38.9829 40.5702 38.9723 39.1133 38.9829C38.7745 38.9829 38.6347 38.8679 38.5076 38.5741C37.3366 35.8186 36.1464 33.076 34.9754 30.3227C34.8589 30.0501 34.7212 29.9436 34.4227 29.9543C33.6137 29.9756 32.7942 29.9649 31.9873 29.9543C31.7311 29.9543 31.5935 30.0288 31.4876 30.2801C30.3059 33.044 29.1031 35.7973 27.9235 38.5634C27.7965 38.8573 27.6694 38.9829 27.3158 38.9829C25.4332 38.9616 23.5612 38.9829 21.5833 38.9829C21.7315 38.8254 21.8162 38.7104 21.9115 38.6145C23.6692 36.7556 23.6692 32.5926 20.9014 30.9849C19.9843 30.4359 18.9403 30.1378 17.8731 30.1204C15.3192 30.0778 12.7653 30.0991 10.2241 30.0991C10.1712 30.0991 10.1182 30.1204 10.0335 30.131V38.9595H1.1266V29.5731C22.0703 28.9002 42.9865 28.238 63.9112 27.5672V27.514H10.5206C10.097 27.514 9.92762 27.399 9.79844 26.9987C8.72267 23.6662 7.62783 20.3464 6.54359 17.0139C6.51182 16.9074 6.48006 16.8031 6.44618 16.6668C6.59441 16.6562 6.713 16.6349 6.82947 16.6349C8.19113 16.6349 9.55279 16.6455 10.9039 16.6242C11.2872 16.6242 11.3719 16.7413 11.3613 17.097C11.3401 18.5897 11.3613 20.093 11.3613 21.5857V22.0691H14.8088V17.657C14.8088 17.1843 15.3933 16.6902 15.8613 16.6157C17.0112 16.4368 17.7672 16.8287 18.394 17.8359C19.2665 19.2327 20.3296 20.5168 21.3185 21.8391C21.4138 21.9669 21.5938 22.0819 21.7442 22.0819C23.0106 22.1032 24.2642 22.0925 25.628 22.0925C24.2724 20.2757 22.9142 18.4607 21.5536 16.6477H27.8727V22.0606H31.3076V16.6477C31.477 16.637 31.5956 16.6157 31.7226 16.6157H34.5413C34.7869 16.6157 34.9034 16.6902 34.9881 16.9309C36.1591 20.1463 38.5309 21.9456 41.9128 22.2927C45.2016 22.6291 47.9567 21.5261 49.8922 18.7707C50.2861 18.2149 50.5296 17.5526 50.8176 16.9223C50.9129 16.7222 50.987 16.6157 51.2327 16.6157H61.1158C61.5182 16.6157 61.946 16.9522 62.0836 17.3525C62.1801 17.6234 62.1845 17.9188 62.0959 18.1925C62.0074 18.4661 61.831 18.7024 61.5944 18.8644C61.0205 19.254 60.3704 19.3073 59.7012 19.286C58.1257 19.254 56.7746 18.6259 55.54 17.6996C55.4341 17.6144 55.3177 17.5292 55.18 17.4249L53.1365 19.8311C53.3821 20.0228 53.6045 20.2208 53.8607 20.389C56.3596 22.1138 59.0829 22.7654 62.0624 21.9861C64.3813 21.377 65.6159 19.6544 65.5524 17.2886V16.6498C65.6265 16.637 65.7112 16.6157 65.7853 16.6157H68.5721V22.0499H72.0197V17.6676C72.0197 17.1736 72.583 16.6051 73.0828 16.6051C73.6143 16.6051 74.22 16.4688 74.6562 16.6796C75.0713 16.8798 75.3063 17.4462 75.6155 17.8572C76.5727 19.1497 77.5405 20.4529 78.4871 21.7561C78.6459 21.9775 78.8174 22.0819 79.1033 22.0819C80.3167 22.0606 81.5386 22.0819 82.8579 22.0819C81.4857 20.2421 80.1579 18.4768 78.8068 16.6477H85.901C86.4008 20.0015 86.9111 23.3766 87.4024 26.7069H90.9114C91.39 30.7422 91.8686 34.82 92.3578 38.919H84.9459C85.5812 33.4869 81.4221 29.703 76.5303 29.7754C71.8164 29.8499 67.7632 33.6126 68.371 38.9318L68.3921 38.9616ZM36.5636 16.1643C36.4662 16.1749 36.4239 16.1962 36.373 16.1962H32.5824V4.94021H29.1179V16.1643C28.9485 16.1749 28.8299 16.1962 28.7156 16.1962H24.044C23.8746 16.1962 23.6501 16.111 23.5548 15.9854C22.4706 14.5566 21.3948 13.1278 20.3211 11.6861C20.2788 11.635 20.247 11.5712 20.1835 11.4775C22.28 9.31187 24.3849 7.15691 26.5555 4.91891H24.0779C23.5124 4.91891 22.8941 4.78263 22.4155 4.9828C21.9581 5.17018 21.6404 5.71744 21.2677 6.11564L16.2849 11.4136C16.2213 11.4775 16.1896 11.5839 16.1472 11.667L16.0286 11.5925V4.92743H12.5853V16.1749H9.19067C9.58456 10.6044 9.98903 5.60245 10.3829 0C10.5841 0.189517 92.7199 0.189517 93.1773 0C93.0502 0.798525 92.9232 3.31122 92.7961 4.06715C92.1354 7.97673 91.4641 11.897 90.8161 15.8065C90.7632 16.1025 90.6785 16.1962 90.3693 16.1962C87.3368 16.1856 84.317 16.1962 81.2845 16.1749C81.1151 16.1749 80.8694 16.0685 80.7741 15.9343C79.6454 14.4629 78.5506 12.9808 77.4113 11.4668C79.5184 9.30122 81.6148 7.13562 83.7727 4.92956C83.5822 4.91891 83.4657 4.89762 83.3492 4.89762C82.2311 4.89762 81.1045 4.88697 79.9864 4.89762C79.7958 4.89762 79.5501 5.00409 79.4231 5.13824C77.4748 7.18886 75.5393 9.24798 73.6037 11.3092C73.519 11.3944 73.4343 11.4881 73.2861 11.6457V4.92956H69.8385V16.1643H66.859C66.8166 15.6809 66.806 15.2273 66.7213 14.778C66.6269 14.2165 66.3944 13.6876 66.0449 13.2394C65.6954 12.7913 65.24 12.4381 64.7201 12.2121C63.71 11.75 62.6363 11.4242 61.5838 11.0558C60.8808 10.8152 60.1565 10.647 59.4662 10.383C58.6572 10.0785 58.3502 9.57378 58.4455 8.91367C58.5302 8.30253 59.0511 7.84897 59.8389 7.73611C60.7961 7.58705 61.7109 7.75741 62.5834 8.14496C63.2526 8.44946 63.8921 8.8072 64.5825 9.15429C65.1458 8.34512 65.7324 7.5253 66.3486 6.63095C65.9547 6.37968 65.582 6.08583 65.1796 5.87502C62.8714 4.64422 60.4445 4.22473 57.9351 5.17231C55.2224 6.19017 54.1254 9.48009 55.648 11.782C56.1266 12.506 56.8064 13 57.6048 13.2853C58.7631 13.6942 59.9554 13.9987 61.1158 14.3884C61.6791 14.5779 62.2424 14.7972 62.774 15.0612C63.1996 15.2721 63.4241 15.649 63.3479 16.1962H57.7975C57.2977 16.1962 56.8191 16.1962 56.4252 15.6916C56.1287 16.3325 55.5951 16.1856 55.1059 16.1856H51.6922C51.7558 15.9961 51.8087 15.8385 51.8722 15.6809C54.0428 10.4042 50.2988 4.78263 44.5324 4.64422C41.3517 4.57182 38.766 5.71744 37.0337 8.39835C35.5429 10.7088 35.4158 13.2002 36.4048 15.7554C36.4577 15.8811 36.5001 16.0067 36.5657 16.1536L36.5636 16.1643Z" fill="#4C4C4D"/>
<path d="M44.2635 16.2336H41.2768C41.1045 16.2326 40.9384 16.1688 40.809 16.0538C38.5864 13.6355 39.2659 9.15623 42.7437 8.00484C45.5928 7.06319 48.6028 8.99786 48.9436 11.9769C49.1023 13.4022 48.8166 14.712 47.9212 15.8741C47.7201 16.1394 47.5063 16.2657 47.1571 16.255C46.1897 16.2229 45.2203 16.255 44.2529 16.255L44.2635 16.2336ZM72.2064 39.1244C71.6772 37.2025 72.4604 35.0153 74.0776 33.8961C75.6842 32.7875 77.9068 32.8067 79.5218 33.9474C81.0861 35.0581 81.8926 37.2967 81.3719 39.1137H72.2064V39.1244ZM54.8556 39.1244H47.5508V33.2925H48.3149C49.2505 33.3139 50.1988 33.2497 51.1217 33.3888C53.3443 33.7056 54.8344 35.4391 54.9085 37.667C54.9297 38.1421 54.8768 38.63 54.8556 39.1244ZM13.5879 37.7076V33.3674C13.5879 33.3674 13.6408 33.3139 13.662 33.3139C15.0548 33.3246 16.4561 33.2497 17.851 33.3888C19.1274 33.5173 19.756 34.3605 19.7349 35.5761C19.7137 36.7167 19.0004 37.592 17.7769 37.6884C16.4053 37.7954 15.0124 37.7098 13.5985 37.7098L13.5879 37.7076ZM70.4644 40.6888C73.4193 40.7402 76.3446 40.783 79.2699 40.8365C79.1832 42.2832 77.132 43.899 75.2905 43.9953C72.9833 44.1002 70.7713 42.6106 70.4644 40.6888ZM45.5928 43.319C45.5822 43.1607 45.5716 43.075 45.5716 42.9809V40.34H52.7685C52.4828 41.2388 52.0065 41.8809 51.3461 42.3988C50.6621 42.9467 49.8258 43.2647 48.9542 43.3083C47.8471 43.3597 46.7401 43.319 45.5928 43.319ZM38.9251 16.7194H47.1888C47.0491 17.798 45.1991 19.1378 43.6793 19.2662C41.5308 19.4459 39.4141 18.3138 38.9251 16.7194ZM31.2372 39.1137C31.9082 37.4765 32.5665 35.8821 33.2692 34.1914C33.9614 35.8714 34.6197 37.4765 35.3013 39.1137H31.2372ZM19.7328 16.2122H16.0645C16.1915 15.9169 16.2444 15.6322 16.4031 15.4632C16.926 14.9453 17.4996 14.4702 18.0754 13.9629C18.5516 14.6178 19.1168 15.3883 19.7222 16.2122H19.7328ZM76.95 16.2229H73.4193C73.3241 15.8955 73.377 15.6536 73.631 15.4311C74.175 14.956 74.7063 14.468 75.2693 13.9522C75.7583 14.6285 76.3235 15.3883 76.9394 16.2229H76.95Z" fill="#4C4C4D"/>
</svg>
