<svg width="145" height="43" viewBox="0 0 145 43" fill="none" xmlns="http://www.w3.org/2000/svg">
<path d="M81.415 17.2935C81.4229 18.3745 81.3083 19.4608 81.5088 20.5366C81.5661 20.844 81.6417 21.1462 81.7198 21.4483C81.7849 21.7062 81.936 21.9198 82.2069 21.9641C82.5065 22.011 82.5638 21.7218 82.6732 21.5369C83.2203 20.5991 83.6318 19.5962 84.059 18.6038C84.5748 17.4003 85.0697 16.1838 85.536 14.9595C85.9867 13.7743 86.3904 12.5708 86.8124 11.3751C87.0599 10.677 87.4376 10.0805 87.9872 9.56211C88.5629 9.01769 89.1751 9.03331 89.8341 9.26515C90.1702 9.38237 90.4463 9.59858 90.6964 9.86428C91.4231 10.6353 91.9285 11.534 92.2827 12.5265C92.4364 12.9537 92.4338 13.3835 92.314 13.8159C92.0248 14.8579 91.7539 15.9077 91.4335 16.9418C91.0584 18.1557 90.7458 19.3852 90.389 20.6043C90.1259 21.5004 89.9305 22.4278 89.4929 23.2613C89.1256 23.9621 88.7348 24.6524 88.3155 25.3218C87.6746 26.3456 87.1224 27.4214 86.4477 28.4243C86.1065 28.9296 85.648 29.3204 85.101 29.5001C83.7777 29.9325 82.6029 30.6176 81.4671 31.3965C81.0894 31.657 80.6622 31.8315 80.2272 31.98C79.2191 32.3264 78.4507 32.9516 77.9375 33.8972C77.5285 34.6474 76.9841 35.283 76.1323 35.5305C75.5358 35.7024 74.921 35.8222 74.3062 35.9108C73.7905 35.9837 73.3216 35.7727 72.897 35.494C71.6883 34.7047 70.5447 33.8425 69.6669 32.6729C69.4559 32.3916 69.1954 32.1363 68.9167 31.9227C68.1951 31.3678 67.7757 30.6202 67.4293 29.8049C67.1766 29.211 66.9083 28.6223 66.5983 28.057C66.2232 27.3667 65.6084 27.2469 64.9676 27.6897C64.7097 27.8668 64.5769 28.1117 64.5352 28.4165C64.444 29.0755 64.3451 29.7346 64.2539 30.3936C64.2148 30.6827 64.1549 30.9667 64.0611 31.2454C63.8527 31.8654 63.475 32.2639 62.7899 32.3837C62.1361 32.4958 61.4744 32.5817 60.8258 32.7432C60.1876 32.8995 59.5937 32.5947 59.0362 32.3186C58.4606 32.0321 57.9266 31.67 57.2545 31.6075C56.9836 31.5814 56.7778 31.3652 56.5746 31.1829C55.642 30.3441 54.8267 29.4011 54.0374 28.4321C53.7457 28.0726 53.4148 27.7678 53.0476 27.4891C52.6672 27.2 52.2765 27.1687 51.8832 27.3953C51.1564 27.8147 50.4062 27.9059 49.596 27.7053C49.0178 27.5621 48.4551 27.7418 47.9706 28.0179C47.3194 28.3904 46.7359 28.8749 46.4441 29.6121C46.2826 30.0185 46.095 30.417 45.9778 30.8364C45.66 31.98 44.8395 32.6989 43.9147 33.3319C43.6412 33.5195 43.3338 33.6576 43.0551 33.8373C42.1694 34.4026 41.3489 34.1681 40.557 33.6367C40.2809 33.4518 40.0048 33.2616 39.7521 33.0454C39.2884 32.6442 39.0071 32.1519 39.0722 31.5111C39.0826 31.4069 39.0852 31.3027 39.0722 31.1985C39.0435 30.8781 38.9446 30.7817 38.6294 30.8442C38.2022 30.9328 37.7724 31.0344 37.3634 31.1803C35.7197 31.7716 34.0447 32.2717 32.3854 32.8188C30.9058 33.3059 29.434 33.8191 27.9518 34.301C26.2144 34.8688 24.4508 35.3664 22.7316 35.9863C21.2364 36.523 20.0954 37.4633 19.7281 39.1331C19.4103 40.5814 18.5481 41.5921 17.144 42.1105C16.2532 42.4387 15.6098 42.4283 14.797 41.5244C14.3099 40.9826 13.8124 40.4512 13.3226 39.9119C12.6636 39.1852 11.8925 38.9638 10.9574 39.3258C10.103 39.6567 9.25377 40.0109 8.37331 40.2532C6.9927 40.6335 5.59387 40.9565 4.19242 41.2561C3.31196 41.4436 2.57477 41.1024 2.07463 40.373C1.60314 39.6879 1.16291 38.9768 0.790409 38.237C0.371018 37.406 0.446561 36.5047 0.832088 35.6972C1.09779 35.1397 1.44945 34.611 1.71255 34.0483C2.2179 32.9542 3.13223 32.3811 4.21587 32.0373C6.95103 31.1673 9.694 30.3311 12.4292 29.4636C13.3956 29.1589 14.0833 28.5415 14.4323 27.5621C15.2451 25.2906 16.05 23.0139 16.9851 20.7893C17.7171 19.044 18.4673 17.3039 19.1811 15.5508C19.4468 14.897 19.7047 14.2379 19.8479 13.5398C19.9938 12.8235 20.2647 12.1462 20.5643 11.4793C21.351 9.73404 22.0647 7.95488 22.8879 6.22522C23.1562 5.66256 23.3672 5.07385 23.6537 4.5164C23.8934 4.05012 24.1721 3.60989 24.568 3.26083C25.2245 2.68254 25.8861 2.11206 26.5608 1.55722C26.7327 1.41395 26.9515 1.31756 27.1573 1.22379C28.2175 0.734064 29.1605 1.29673 29.2308 2.47154C29.2595 2.94824 29.2517 3.43015 29.21 3.90685C29.0589 5.61046 28.7255 7.275 28.2306 8.9187C27.6575 10.8307 27.0662 12.7375 26.5608 14.6729C26.019 16.7439 25.3287 18.7783 24.7374 20.8362C24.3466 22.1933 23.8856 23.5323 23.5808 24.9155C23.4323 25.5849 23.5339 26.1971 23.8777 26.7754C24.0966 27.1427 24.331 27.2651 24.7139 27.0854C25.6725 26.6321 26.6702 26.5696 27.6992 26.6425C28.0951 26.6686 28.4806 26.58 28.8688 26.481C29.5538 26.3065 30.2494 26.1684 30.9423 26.0408C31.2106 25.9913 31.4815 25.9913 31.6821 25.7673C31.7758 25.6631 31.8931 25.6605 32.0233 25.7074C32.289 25.8063 32.5573 25.7621 32.823 25.6969C34.0551 25.3974 35.3185 25.2385 36.5454 24.9076C36.8919 24.8139 37.2149 24.6836 37.5327 24.5325C38.6085 24.0272 39.6948 23.5583 40.8175 23.165C41.4948 22.9279 41.9324 22.4721 42.1356 21.7792C42.6383 20.0729 43.4771 18.51 44.2898 16.9392C44.6181 16.3062 45.1625 15.8217 45.7408 15.4075C46.5353 14.8397 47.2594 15.1132 47.6319 16.0067C48.0748 17.0617 47.9732 18.1245 47.8351 19.2003C47.7987 19.4894 47.7622 19.7812 47.6945 20.0625C47.5095 20.8414 47.8013 21.49 48.2285 22.1074C48.4369 22.4069 48.7547 22.4773 49.062 22.3731C49.7523 22.1412 50.4296 21.8677 50.9714 21.3545C51.1434 21.193 51.2866 20.9977 51.2918 20.7632C51.3205 19.1794 52.1254 17.9109 52.9408 16.6475C53.8889 15.1783 54.8606 13.7248 55.7957 12.2478C56.486 11.1537 57.3899 10.44 58.695 10.1873C59.875 9.95806 61.0264 9.58295 62.1543 9.15835C62.1726 9.15054 62.196 9.14793 62.2142 9.13751C63.4099 8.56704 64.5769 8.67905 65.7673 9.20524C67.2105 9.84344 68.6744 10.4374 70.1957 10.8854C71.123 11.1589 71.6596 11.5861 71.644 12.8547C71.6388 13.3132 71.6649 13.7716 71.7664 14.2197C72.1416 15.9129 72.3317 17.6217 72.2848 19.3592C72.2431 21.0368 72.5089 20.6955 71.2429 22.0631C70.5343 22.8263 70.3911 23.5505 71.1204 24.6472C71.3054 24.9233 71.5346 25.1681 71.7482 25.4234C72.5427 26.3534 72.9543 27.5074 73.5638 28.5467C73.8921 29.1016 74.2151 29.6616 74.5433 30.2165C74.5954 30.305 74.6579 30.391 74.7334 30.4639C74.8324 30.5603 74.921 30.7166 75.0955 30.6385C75.2284 30.5785 75.2075 30.4301 75.2336 30.3102C75.3716 29.6095 75.356 28.8984 75.3169 28.1924C75.244 26.7728 74.9991 25.3843 74.5355 24.0376C74.413 23.6807 74.3688 23.3082 74.3609 22.9305C74.3427 21.9511 74.3661 20.9847 74.5459 20.0104C74.7595 18.8486 74.8611 17.6634 74.9601 16.4834C75.1398 14.3473 75.6816 12.3051 76.4944 10.3306C76.51 10.2915 76.5282 10.255 76.5465 10.2185C77.0883 9.12709 77.7057 9.0255 78.5522 9.90075C78.7112 10.0649 78.8674 10.2368 78.9951 10.4243C79.6046 11.3178 80.2038 12.2191 80.8055 13.1204C81.2223 13.7456 81.415 14.4333 81.4046 15.1861C81.3942 15.8947 81.4046 16.6032 81.4046 17.3117L81.415 17.2935ZM67.5022 16.4703C67.4215 15.668 67.1974 14.9126 66.9343 14.1676C66.4081 12.6854 63.9543 11.7242 62.5242 12.8964C62.0918 13.2507 61.6047 13.5398 61.1488 13.8706C60.409 14.4099 59.6432 14.9256 59.216 15.7826C59.0024 16.2098 58.7601 16.6266 58.57 17.0643C58.2834 17.7259 58.1636 18.4006 58.372 19.13C58.6455 20.0886 58.8721 21.0628 59.0883 22.0396C59.3046 23.0243 59.9584 23.5244 60.8857 23.7224C61.5422 23.8631 61.9043 23.4515 61.6933 22.8133C61.5969 22.5189 61.4354 22.248 61.2478 21.9954C60.7373 21.3077 60.3648 20.5392 59.9375 19.7994C59.8021 19.565 59.7239 19.2967 59.7448 19.0205C59.7682 18.6949 59.8594 18.3954 60.2163 18.2834C61.0681 18.0124 61.9277 17.7754 62.8264 17.7285C63.0973 17.7129 63.3578 17.7858 63.6235 17.8535C64.2617 18.0177 64.7019 18.4501 65.1708 18.8669C65.6918 19.3305 66.3222 19.242 66.7286 18.6767C67.2 18.0177 67.4084 17.2648 67.5048 16.4755L67.5022 16.4703Z" fill="#4C4C4D"/>
<path d="M123.442 37.6431C122.655 37.716 121.908 37.4972 121.173 37.281C119.876 36.9007 118.613 36.4084 117.313 36.0359C116.255 35.7311 115.75 35.9942 115.284 36.8616C115.047 37.3019 114.914 37.7864 114.783 38.2657C114.64 38.7945 114.416 39.2842 114.143 39.7505C113.963 40.0552 113.705 40.261 113.34 40.2767C112.231 40.3209 111.189 40.1282 110.306 39.3858C110.006 39.1331 109.811 38.8335 109.704 38.461C109.313 37.0804 108.915 35.7024 108.526 34.3218C108.37 33.7696 108.295 33.7019 107.701 33.6732C106.867 33.6315 106.044 33.5221 105.216 33.431C103.976 33.2929 102.728 33.2121 101.485 33.0819C100.912 33.022 100.482 32.8136 100.175 32.3577C99.292 31.0449 98.8414 29.6434 99.2894 28.0466C99.5317 27.187 99.714 26.3091 99.912 25.4391C100.008 25.0145 100.003 24.5716 100.11 24.1444C100.561 22.3444 101.217 20.6122 101.819 18.8617C102.233 17.6634 102.551 16.4287 103.155 15.2982C103.283 15.0585 103.434 14.8371 103.569 14.6026C104.077 13.7352 104.497 12.8287 104.504 11.7972C104.51 10.9037 104.153 10.5025 103.285 10.3827C101.967 10.1977 101.845 10.2551 101.728 11.5992C101.563 13.4565 100.996 15.2252 100.6 17.0304C100.261 18.5751 99.8885 20.1094 99.5186 21.6463C99.1826 23.0426 98.7997 24.4284 98.4975 25.8298C98.3178 26.6582 98.039 27.4188 97.5597 28.1195C97.3435 28.4321 97.3045 28.8177 97.2758 29.1954C97.1846 30.3415 96.9111 31.4486 96.5204 32.5271C96.3823 32.9074 96.1791 33.2382 95.8718 33.5039C95.0929 34.1786 94.215 34.6891 93.2512 35.0382C92.686 35.244 92.0868 35.1554 91.519 35.0382C90.8912 34.9079 90.2504 34.7933 89.6616 34.5172C88.5546 33.9988 87.8773 33.1887 87.8799 31.9045C87.8799 31.2064 88.0153 30.5291 88.2654 29.8883C89.1615 27.5803 90.0967 25.2854 91.0084 22.9827C91.7065 21.2217 92.3864 19.453 93.0819 17.6921C93.5873 16.4157 94.103 15.1419 94.6266 13.8707C95.1111 12.6932 95.7337 11.5757 96.4084 10.5077C97.5962 8.62959 99.2529 7.32452 101.478 6.84001C101.972 6.73321 102.47 6.74102 102.97 6.77228C103.291 6.79312 103.59 6.89471 103.84 7.09008C104.364 7.50166 104.911 7.4704 105.479 7.22293C106.234 6.89471 106.995 7.07185 107.75 7.2047C108.547 7.34276 109.35 7.4704 110.136 7.65535C110.946 7.84551 111.777 7.91323 112.582 8.14768C113.137 8.30918 113.721 8.40556 114.296 8.46808C115.114 8.55665 115.828 8.89268 116.456 9.37459C116.914 9.72625 117.36 9.76012 117.857 9.58559C118.415 9.39022 118.917 9.09847 119.313 8.64782C119.67 8.24145 120.009 7.82206 120.368 7.4157C121.645 5.97257 122.382 6.02467 123.802 7.01975C124.484 7.49645 124.812 8.22322 125.083 8.97343C125.224 9.36417 125.344 9.76272 125.466 10.1613C125.802 11.2475 126.446 12.055 127.48 12.5812C130.595 14.1676 133.687 15.8009 136.808 17.3769C138.017 17.9864 138.915 18.9346 139.793 19.9036C140.744 20.9534 141.781 21.9198 142.734 22.967C143.253 23.5375 143.771 24.1054 144.268 24.6941C144.698 25.202 144.901 25.7986 144.943 26.4706C144.977 27.0307 145.058 27.5855 144.93 28.1482C144.826 28.6041 144.657 29.0313 144.344 29.3725C143.167 30.6645 141.963 31.9331 140.788 33.2278C140.09 33.9962 139.207 34.4182 138.246 34.7386C136.313 35.3872 134.396 36.0723 132.466 36.7288C131.14 37.182 129.785 37.4686 128.365 37.4243C126.93 37.38 125.495 37.4972 124.065 37.6431C123.859 37.6639 123.648 37.6457 123.44 37.6457L123.442 37.6431ZM124.919 29.7919C125.607 29.7919 126.295 29.7919 126.982 29.7919C128.55 29.7919 130.085 29.5001 131.632 29.3048C132.004 29.2579 132.374 29.1797 132.747 29.1615C133.664 29.1198 134.552 28.8671 135.469 28.8124C135.735 28.7968 136.008 28.7239 136.258 28.6301C136.962 28.3618 137.543 27.932 137.829 27.2078C138.043 26.666 138.238 26.1164 138.392 25.5537C138.566 24.9129 138.543 24.2747 138.16 23.6912C137.48 22.6622 136.618 21.8417 135.479 21.3285C133.205 20.3022 130.939 19.2498 128.652 18.2495C127.605 17.7911 126.594 17.244 125.503 16.8872C124.414 16.5303 123.231 16.9835 122.684 17.989C122.525 18.2782 122.411 18.596 122.306 18.9112C121.512 21.3442 120.73 23.7798 119.931 26.2101C119.691 26.9369 119.715 27.6481 119.967 28.3514C120.321 29.3386 120.983 29.7841 122.046 29.7893C123.005 29.7945 123.963 29.7893 124.919 29.7893V29.7919ZM108.787 28.6067C108.813 29.9951 109.097 30.365 109.985 30.7271C110.407 30.899 110.436 30.912 110.655 30.4848C110.899 30.0029 111.113 29.5054 111.321 29.0078C111.561 28.4321 111.85 27.8773 112.027 27.2729C112.502 25.6553 112.996 24.0429 113.458 22.4226C113.653 21.7375 114.044 21.1358 114.239 20.4507C114.583 19.2472 115.033 18.0854 115.57 16.9549C116.052 15.939 115.956 15.3424 115.159 14.5245C114.169 13.5112 113.161 12.5187 112.16 11.5158C111.939 11.2944 111.733 11.0574 111.491 10.8594C110.897 10.3749 110.261 10.4817 109.837 11.1095C109.657 11.3752 109.553 11.6669 109.527 11.9821C109.485 12.4796 109.436 12.9772 109.423 13.4773C109.347 16.3896 109.172 19.2993 109.063 22.2116C108.985 24.332 108.928 26.455 108.784 28.6041L108.787 28.6067Z" fill="#4C4C4D"/>
<path d="M105.037 2.85706C105.026 4.26632 103.919 5.30828 102.445 5.31349C100.939 5.3161 99.8816 4.17254 99.9077 2.65388C99.9337 1.1847 101.132 0.160974 102.505 0.163579C103.935 0.166184 105.154 1.52074 105.037 2.85706Z" fill="#4C4C4D"/>
<path d="M110.869 5.80592C109.681 5.90491 108.259 4.61027 108.298 3.26092C108.339 1.7657 109.241 0.62996 110.957 0.663824C112.557 0.695083 113.461 1.79436 113.484 3.34167C113.505 4.62329 112.377 5.82676 110.869 5.80592Z" fill="#4C4C4D"/>
<path d="M51.8971 9.72119C51.8971 11.1956 50.8134 12.261 49.3156 12.2584C47.922 12.2584 46.7263 11.0419 46.7524 9.65086C46.7758 8.19732 47.8673 7.1293 49.2948 7.11367C50.6988 7.09804 52.0065 8.31714 51.8997 9.72119H51.8971Z" fill="#4C4C4D"/>
</svg>
