<?xml version="1.0" encoding="UTF-8"?>
<svg id="Layer_1" data-name="Layer 1" xmlns="http://www.w3.org/2000/svg" viewBox="0 0 412.21 138.34">
  <defs>
    <style>
      .cls-1 {
        fill: #4c4c4c;
      }
    </style>
  </defs>
  <path class="cls-1" d="m44.07,98.56c-21.02-.08-40.58-17.06-43.59-39.42-1.88-14.01,1.76-26.56,11.23-37.2,8.19-9.2,18.52-14.23,30.81-15.29,18.4-1.57,36.28,8.38,44.78,25.17,3.43,6.77,5.11,14.01,4.92,21.59-.29,11.53-4.34,21.62-12.11,30.2-.35.39-.68.8-1.04,1.18-.57.6-1.25,1.02-2.01.43-.78-.61-.48-1.34-.02-2.03.99-1.46,2.04-2.9,2.96-4.4,8.66-14.14,6.42-32.81-3.71-45.4-4.68-5.82-10.37-10.15-17.69-12.07-4.63-1.21-9.32-1.59-14.05-.49-1.26.29-2.47.76-3.61,1.38-4.96,2.73-6.3,6.62-5.26,11.68.94,4.53,4.99,7.54,9.92,7.52,6.53-.02,12.63,1.37,17.97,5.31,6.51,4.8,9.9,11.43,10.87,19.3,1.22,9.86-1.77,18.34-9.09,25.11-5.54,5.12-12.19,7.57-21.28,7.43Zm2.02-11.25c8.75.27,17.28-6.88,17.38-17.25.09-9.45-7.84-17.34-17.21-17.38-9.68-.04-17.44,7.68-17.45,17.35,0,9.68,7.59,17.28,17.27,17.28Z"/>
  <path class="cls-1" d="m160.92,27.38c.35,7.94-5.83,15.11-15.57,15.19-8.95.08-15.76-6.63-15.75-15.32,0-8.59,6.83-15.09,15.81-15.08,9.16.02,15.51,6.24,15.51,15.2Zm-15.5,5.18c2.55-.03,4.42-2.21,4.44-5.18.02-2.95-2.01-5.31-4.53-5.29-2.57.03-4.55,2.37-4.49,5.31.07,3.1,1.92,5.18,4.58,5.15Z"/>
  <path class="cls-1" d="m231.81,69.17c6.39.1,11.51,2.53,14.23,8.54,4.07,9-.56,20.81-13.06,21.64-6.38.42-11.76-1.81-14.95-7.63-5.43-9.91.74-22.77,13.79-22.56Zm4.48,15.39c-.01-1.13-.2-1.92-.49-2.68-.66-1.74-2.15-2.81-3.93-2.84-1.85-.04-3.39,1.01-4.12,2.78-.65,1.58-.64,3.17-.04,4.75.65,1.74,2.34,2.97,4.02,2.99,1.69.01,3.4-1.18,4.05-2.93.28-.75.39-1.57.51-2.06Z"/>
  <path class="cls-1" d="m308.99,84.2c0,1.43,0,2.87,0,4.3,0,1.09.43,1.77,1.62,1.65.77-.08,1.02.25,1.01.97-.02,1.96-.03,3.92,0,5.88.01.8-.35,1.24-1.08,1.46-3.32,1-6.62,1.05-9.77-.51-.98-.49-1.71-.45-2.66-.02-3.86,1.73-7.79,1.85-11.66.08-3.36-1.54-4.93-4.33-4.74-7.97.18-3.56,2.01-6.11,5.33-7.5,2.82-1.18,5.78-1.15,8.75-.89.45.04,1,.35,1.27-.25.25-.55-.07-1.02-.44-1.42-.83-.91-1.93-1.17-3.11-1.23-2.58-.12-5.02.48-7.43,1.32-1.42.49-1.54.4-1.55-1.14-.02-2.05.03-4.11-.02-6.16-.02-.97.37-1.49,1.27-1.8,5.11-1.72,10.29-2.16,15.52-.7,5.19,1.44,7.6,4.68,7.69,10.05.02,1.29,0,2.58,0,3.87h0Zm-11.83,5.22c.16-1.16-.12-1.86-1.49-1.78-1.57.1-2.65.78-2.65,1.86,0,1.07,1.03,1.8,2.46,1.85,1.43.05,1.89-.64,1.69-1.94Z"/>
  <path class="cls-1" d="m125.13,73.46c1.25-1.54,2.49-2.72,4.09-3.39,5.49-2.28,14.09-.9,14.39,8.71.19,6.11.03,12.23.05,18.35,0,1.03-.37,1.46-1.44,1.44-2.68-.04-5.36-.07-8.03.01-1.33.04-1.76-.44-1.75-1.73.04-4.97.04-9.94-.01-14.91-.02-2.36-1.42-3.38-3.68-2.84-1.42.34-2.26,1.55-2.27,3.4-.02,4.64,0,9.27,0,13.91q0,2.15-2.12,2.15c-2.49,0-4.97-.03-7.46.01-1.06.02-1.43-.4-1.43-1.44.02-8.6.03-17.2,0-25.81,0-1.14.46-1.52,1.54-1.49,1.72.04,3.45.08,5.16-.01,1.37-.07,2.19.38,2.41,1.79.08.51.29,1,.55,1.84Z"/>
  <path class="cls-1" d="m260.44,73.3c3.18-4.03,7.3-4.91,11.91-3.67,4.12,1.11,6.34,4.34,6.43,9.27.11,6.07.02,12.13.04,18.2,0,1.13-.46,1.5-1.55,1.47-2.68-.05-5.36-.07-8.03,0-1.3.04-1.64-.5-1.63-1.7.04-4.82.02-9.65.01-14.48,0-2.49-.71-3.36-2.67-3.39-2.08-.03-3.28,1.18-3.29,3.46-.03,4.68,0,9.36-.01,14.05,0,2.02-.01,2.03-1.96,2.03-2.53,0-5.07-.03-7.6.01-1.03.02-1.45-.35-1.45-1.41.02-8.65.02-17.29,0-25.94,0-.98.38-1.39,1.35-1.38,1.82.02,3.64.06,5.45-.02,1.33-.06,2.07.4,2.29,1.76.09.54.19,1.13.72,1.72Z"/>
  <path class="cls-1" d="m173.28,83.7c0,1.53-.04,3.06.01,4.59.05,1.24.33,2.34,2.02,2.04.72-.13.76.43.77.92.02,1.91,0,3.82.01,5.73,0,.87-.47,1.31-1.23,1.53-3.28.93-6.53,1-9.63-.57-.87-.44-1.51-.44-2.39-.05-3.96,1.75-7.97,1.9-11.92,0-2.9-1.4-4.33-3.85-4.41-7.02-.08-3.27,1.32-5.82,4.16-7.5,3.01-1.78,6.32-1.63,9.63-1.46.44.02,1,.41,1.29-.19.28-.59-.03-1.13-.45-1.55-.83-.84-1.91-1.04-3.03-1.09-2.58-.11-5.04.46-7.42,1.37-1.15.44-1.59.18-1.57-1.05.03-2.05.03-4.11,0-6.16,0-.89.37-1.43,1.21-1.72,5.48-1.88,11.02-2.4,16.58-.45,4.23,1.48,6.33,4.59,6.36,9.06,0,1.19,0,2.39,0,3.58h.01Zm-11.53,6.12c0-1.7-.18-1.92-1.52-1.93-1.58,0-2.47.63-2.48,1.76,0,1.07.98,1.89,2.28,1.88,1.22-.01,1.92-.52,1.71-1.71Z"/>
  <path class="cls-1" d="m348.97,87.31c-2.34,0-4.68-.01-7.02.01-.45,0-1.1-.24-1.29.29-.21.57.4.91.78,1.24,1.96,1.72,4.36,2.05,6.84,1.99,2.32-.06,4.53-.68,6.65-1.6.89-.39,1.21-.15,1.19.81-.03,2.05-.02,4.11,0,6.16,0,.7-.23,1.21-.91,1.46-7.16,2.62-14.14,2.75-20.64-1.8-3.11-2.18-4.7-5.42-5.14-9.1-.69-5.8.66-11.01,5.56-14.66,4.76-3.54,10.1-3.98,15.47-1.64,5.34,2.33,7.32,6.95,7.63,12.47.05.95-.02,1.91-.03,2.86-.02,1.07-.54,1.52-1.62,1.5-2.48-.04-4.97-.01-7.45,0Zm-5.34-6.34h0c.9,0,1.81.03,2.71,0,1.24-.03,1.42-.34.87-1.46-.61-1.28-2.04-2.03-3.56-1.86-1.44.15-3.37,1.59-3.65,2.67-.16.61.23.64.62.65,1,.02,2,0,3,0Z"/>
  <path class="cls-1" d="m205.64,30.31c-2.44,0-4.88,0-7.31,0-.4,0-.98-.22-1.18.24-.22.52.35.83.67,1.15,1.51,1.47,3.4,2.06,5.45,2.24,2.78.24,5.4-.41,7.96-1.46,1.48-.61,1.61-.51,1.62,1.11.01,1.86-.01,3.72,0,5.59,0,.74-.22,1.31-.96,1.58-7.05,2.6-13.99,2.84-20.41-1.58-5.21-3.59-7.01-11.07-4.7-17.41,3.76-10.31,16.43-12.09,23.24-6.37,2.69,2.26,4.03,5.27,4.51,8.7.22,1.61.36,3.21.11,4.85-.15,1.01-.54,1.39-1.56,1.38-2.48-.05-4.97-.01-7.46-.01Zm-5.46-6.14c.91,0,1.81.02,2.72,0,1.26-.04,1.48-.45.9-1.61-.7-1.38-1.9-1.94-3.74-1.73-1.36.16-3.21,1.6-3.49,2.68-.15.58.17.66.6.66,1,0,2,0,3.01,0Z"/>
  <path class="cls-1" d="m273.85,30.31c-2.49,0-4.97,0-7.46,0-.31,0-.74-.16-.91.22-.16.35.17.62.39.86,1.54,1.68,3.54,2.37,5.75,2.55,2.74.23,5.31-.42,7.83-1.39,1.68-.65,1.7-.62,1.71,1.24,0,1.77-.02,3.53,0,5.3.01.79-.19,1.41-1,1.7-7.22,2.61-14.28,2.8-20.74-1.94-4.03-2.96-5.44-7.36-5.19-12.15.32-6.34,3.28-11.11,9.39-13.51,6.17-2.41,13.22-.57,16.76,4.42,2.4,3.38,3.03,7.25,2.63,11.33-.1.99-.55,1.4-1.58,1.38-2.53-.05-5.07-.02-7.6-.01Zm-5.27-6.15h0c.81,0,1.62.03,2.43,0,.49-.02,1.13.19,1.38-.45.21-.53-.08-1.02-.37-1.46-.96-1.45-2.39-1.65-3.92-1.37-1.46.27-2.46,1.24-3.07,2.55-.29.62.24.72.7.73.95.02,1.91,0,2.86,0Z"/>
  <path class="cls-1" d="m185.43,63.25c1.24,0,2.49.04,3.73-.01,1.15-.05,1.68.36,1.61,1.57-.07,1.14.04,2.3-.03,3.44-.07,1.16.35,1.67,1.56,1.61,1.24-.07,2.49-.02,3.73-.01,1.81.01,1.89.08,1.9,1.83,0,1.82-.07,3.64.03,5.45.08,1.41-.37,2.03-1.86,1.92-1.28-.1-2.58.03-3.87-.03-1.14-.06-1.52.43-1.48,1.52.06,1.67,0,3.35.02,5.02.02,2.68,1.02,3.84,3.66,4.23.56.08,1.15.08,1.72.06,2.1-.09,2.1-.1,2.1,1.95,0,1.96-.02,3.92,0,5.88,0,.78-.24,1.28-1.08,1.41-3.01.47-6,.58-8.96-.29-4.95-1.46-7.93-5.46-8.12-10.93-.08-2.39-.08-4.78-.01-7.17.03-1.21-.32-1.72-1.61-1.7-2.36.04-2.36-.03-2.37-2.39,0-1.72.04-3.44-.01-5.16-.03-1.17.45-1.6,1.61-1.62,2.36-.02,2.36-.07,2.36-2.48,0-.96.02-1.91,0-2.87-.02-.85.38-1.22,1.21-1.22,1.39,0,2.77,0,4.16,0h0Z"/>
  <path class="cls-1" d="m165.97,27.64c0-1.43-.04-2.87.01-4.3.03-.97-.32-1.39-1.33-1.36-2.72.08-2.67.3-2.66-2.77,0-1.58.04-3.15,0-4.73-.04-1.13.45-1.58,1.54-1.48.24.02.48-.03.72,0,1.43.2,1.85-.48,1.75-1.81-.09-1.14.02-2.29-.02-3.44-.04-1.01.45-1.34,1.39-1.33,2.63.02,5.26.02,7.89,0,.97,0,1.39.43,1.38,1.38-.01,1.15.08,2.3-.01,3.44-.11,1.41.5,1.86,1.84,1.77,1.33-.09,2.68.01,4.01-.02.97-.03,1.39.37,1.38,1.35-.03,2.1-.03,4.2,0,6.3.01.98-.41,1.37-1.38,1.34-1.48-.04-2.96.02-4.45-.02-.96-.03-1.41.32-1.39,1.32.04,2.01-.02,4.01.04,6.02.06,2.02,1.14,3.2,3.14,3.44.99.12,2.01.09,3.01.05.89-.03,1.35.25,1.34,1.2-.02,2.29,0,4.59,0,6.88,0,.57-.15,1.06-.8,1.18-5.16.93-10.14.92-14.21-3.07-2.28-2.24-3.1-5.09-3.15-8.2-.02-1.05,0-2.1,0-3.15Z"/>
  <path class="cls-1" d="m314.99,78.29c0-6.26.03-12.51-.02-18.77-.01-1.38.47-1.84,1.83-1.8,2.63.08,5.26.06,7.89,0,1.13-.02,1.51.44,1.51,1.53-.02,12.61-.02,25.22,0,37.83,0,1.1-.41,1.52-1.53,1.5-2.68-.05-5.35-.07-8.03,0-1.26.03-1.66-.44-1.66-1.67.04-6.21.02-12.42.02-18.63Z"/>
  <path class="cls-1" d="m126.48,21.21c0,6.21-.03,12.42.03,18.63.01,1.4-.35,1.99-1.84,1.93-2.58-.1-5.16-.05-7.74-.02-1.03.01-1.46-.37-1.45-1.43.02-12.7.02-25.41,0-38.11,0-1.02.34-1.49,1.4-1.48,2.72.03,5.45.04,8.17,0,1.15-.02,1.46.51,1.45,1.58-.03,6.3-.02,12.61-.01,18.91Z"/>
  <path class="cls-1" d="m228.03,16.41c.55-.11.72-.61,1.03-.95,2.08-2.26,4.69-2.99,7.67-2.7.73.07,1.11.45,1.11,1.22,0,2.68-.01,5.35,0,8.03,0,.91-.47,1.16-1.28,1.08-.62-.06-1.24-.17-1.85-.12-3.6.3-5.43,2.22-5.48,5.87-.06,3.73-.06,7.46,0,11.18.02,1.31-.43,1.78-1.74,1.74-2.63-.07-5.26-.06-7.89,0-1.18.02-1.62-.45-1.61-1.61.02-8.55.02-17.11,0-25.66,0-1.13.46-1.52,1.55-1.48,1.91.05,3.83.09,5.74-.01,1.32-.07,1.93.46,2.13,1.71.09.59.16,1.23.62,1.72Z"/>
  <path class="cls-1" d="m240.05,27.26c0-4.2.03-8.41-.02-12.61-.02-1.25.43-1.69,1.67-1.66,2.68.06,5.36.05,8.03,0,1.1-.02,1.54.38,1.54,1.49-.02,8.55-.02,17.1,0,25.66,0,1.16-.44,1.63-1.61,1.61-2.68-.05-5.36-.05-8.03,0-1.17.02-1.6-.41-1.59-1.59.05-4.3.02-8.6.02-12.9Z"/>
  <path class="cls-1" d="m213.14,84.31c0,4.2-.03,8.41.02,12.61.02,1.24-.4,1.7-1.66,1.66-2.68-.07-5.36-.06-8.03,0-1.09.02-1.56-.35-1.55-1.48.02-8.55.02-17.1,0-25.65,0-1.16.43-1.63,1.61-1.62,2.63.04,5.26.06,7.89,0,1.28-.03,1.78.39,1.75,1.73-.07,4.25-.03,8.5-.03,12.75Z"/>
  <path class="cls-1" d="m121.08,137.84c-1.24,0-2.49.03-3.73,0-1.19-.04-1.87-.69-1.88-1.9-.02-4.11-.02-8.21,0-12.32,0-1.29.73-1.92,2-1.92,2.29-.01,4.59-.04,6.88,0,1.81.04,3.25.77,4,2.51.74,1.72.41,3.31-.9,4.61-.58.58-.48.83.07,1.33,1.49,1.37,1.89,3.06,1.16,4.95-.72,1.89-2.25,2.65-4.16,2.74-1.14.05-2.29,0-3.44,0h0Zm.8-3.23s0,.02,0,.03c.67-.03,1.34-.02,2-.1.69-.09,1.09-.57,1.25-1.22.17-.66-.05-1.22-.58-1.65-.5-.4-4.38-.61-4.9-.26-.11.08-.21.19-.28.31-.79,1.39.06,2.88,1.65,2.9.29,0,.57,0,.86,0Zm-.15-6.6s0-.02,0-.03c.52,0,1.05.03,1.57,0,.95-.06,1.54-.6,1.56-1.53.02-.96-.61-1.46-1.55-1.51-.85-.04-1.72.03-2.57-.04-1.24-.1-1.53.51-1.53,1.62,0,1.11.41,1.59,1.52,1.49.33-.03.67,0,1,0Z"/>
  <path class="cls-1" d="m262.69,129.76c0-3.62,1.91-6.54,5.06-7.76,3.33-1.28,7.38-.49,9.58,1.86,2.35,2.52,2.95,6.45,1.45,9.6-.48,1.01-1.09,1.88-.81,3.19.26,1.21-1.13,2.12-2.18,1.47-.96-.6-1.77-.4-2.71-.18-5.5,1.3-10.4-2.57-10.39-8.17Zm12.99.29c0-3.19-1.67-5.17-4.3-5.35-2.39-.16-4.56,1.71-4.82,4.15-.35,3.22,1.2,5.54,3.98,5.95.51.08,1.13.22,1.49-.21.36-.44-.26-.73-.42-1.09-.36-.79-.29-1.51.37-2.08.73-.63,1.55-.56,2.19.1,1.04,1.05,1.3.43,1.45-.58.05-.38.06-.76.07-.89Z"/>
  <path class="cls-1" d="m162.58,128.26c0,1.79,0,3.58,0,5.37,0,.76.03,1.53-.03,2.29-.09,1.17-.61,2.09-1.92,2.05-1.27-.04-1.82-.91-1.82-2.13,0-1.53,0-3.06,0-4.59,0-2.25.02-4.49,0-6.73-.02-1.37.32-2.48,1.78-2.9,1.32-.38,2.17.31,2.88,1.32,1.68,2.38,3.39,4.74,5.1,7.1.27.37.42.86,1.14,1.13,0-.97,0-1.85,0-2.73,0-1.72-.02-3.44.03-5.16.03-1.07.69-1.73,1.72-1.75,1.1-.02,1.78.62,1.83,1.77.03.67.02,1.34.02,2.01,0,3.3-.02,6.59.01,9.89.01,1.25-.22,2.33-1.57,2.72-1.32.38-2.15-.39-2.86-1.39-1.67-2.39-3.37-4.76-5.06-7.13-.29-.41-.62-.8-.93-1.2-.1.03-.2.05-.3.08Z"/>
  <path class="cls-1" d="m350.18,138.14c-4.88,0-8.48-3.52-8.51-8.33-.02-4.8,3.58-8.39,8.43-8.41,4.98-.02,8.57,3.5,8.56,8.4,0,4.82-3.58,8.34-8.48,8.34Zm4.66-8.35c.02-2.89-2-5.09-4.67-5.09-2.58,0-4.62,2.17-4.67,4.97-.05,2.85,1.98,5.13,4.61,5.17,2.63.04,4.71-2.18,4.73-5.05Z"/>
  <path class="cls-1" d="m399.08,129.81c0-1.96-.03-3.92,0-5.87.03-1.66.62-2.23,2.28-2.25,1.86-.02,3.73-.03,5.59,0,2.44.04,4.26,1.33,4.94,3.43.76,2.35.15,4.56-1.79,6-.63.47-.67.77-.21,1.34.63.78,1.21,1.6,1.76,2.44.72,1.1.61,2.23-.29,2.78-1.12.68-2.02.23-2.71-.73-.92-1.28-1.87-2.55-2.69-3.89-.64-1.04-1.56-1.05-2.49-.84-.93.21-.55,1.08-.61,1.69-.06.66.02,1.34-.04,2-.1,1.17-.61,2.1-1.92,2.05-1.26-.05-1.82-.92-1.83-2.13-.01-2.01,0-4.01,0-6.02Zm6.08-4.89q-2.35,0-2.3,2.4c0,.29.02.57.05.86.04.38.27.62.65.65,1.14.08,2.3.19,3.43-.08.82-.2,1.25-.8,1.29-1.69.07-1.56-.75-2.13-3.12-2.14Z"/>
  <path class="cls-1" d="m283.99,127.72c0-1.34-.04-2.68.01-4.01.06-1.35.89-2.23,1.97-2.22,1.09.01,1.79.87,1.81,2.31.03,2.39,0,4.78.02,7.17.02,2.4,1.32,3.83,3.47,3.87,2.15.04,3.52-1.38,3.56-3.78.04-2.34,0-4.68.02-7.02.01-1.6.61-2.47,1.72-2.54,1.16-.07,2.06.89,2.05,2.43-.02,2.96.25,5.93-.18,8.87-.39,2.71-1.97,4.37-4.6,5.07-1.41.37-2.85.41-4.27.16-3.55-.61-5.43-2.85-5.57-6.57-.05-1.24,0-2.48,0-3.73h0Z"/>
  <path class="cls-1" d="m382.76,129.72c0-1.91-.05-3.82.01-5.73.06-1.74.65-2.28,2.4-2.3,2.44-.02,4.87,0,7.31,0,1.07,0,1.97.33,2,1.54.03,1.21-.87,1.63-1.92,1.67-1.53.05-3.06.09-4.58,0-1.29-.07-1.47.58-1.49,1.66-.02,1.17.48,1.49,1.55,1.44,1.38-.06,2.77-.02,4.16,0,1.09.01,2.09.27,2.11,1.6.02,1.32-.95,1.64-2.05,1.65-1.48.02-2.96.06-4.44,0-1.32-.06-1.3.76-1.3,1.68,0,.91-.04,1.74,1.29,1.68,1.53-.07,3.06-.01,4.59,0,1.13,0,2.09.37,2.09,1.63,0,1.26-.96,1.63-2.09,1.63-2.44,0-4.87.02-7.31,0-1.64-.02-2.24-.58-2.3-2.26-.07-1.95-.02-3.91-.02-5.87Z"/>
  <path class="cls-1" d="m142.47,129.72c0-1.91-.03-3.82,0-5.73.04-1.72.65-2.29,2.38-2.3,2.39-.02,4.78,0,7.17,0,1.11,0,2.05.24,2.18,1.54.1,1.01-.77,1.66-2.2,1.69-1.48.03-2.96.05-4.44,0-1.15-.04-1.33.58-1.32,1.53,0,.91.08,1.61,1.28,1.56,1.48-.06,2.96-.02,4.44,0,1.13,0,2.06.37,2.03,1.67-.02,1.22-.92,1.57-1.98,1.58-1.53.01-3.06.04-4.59,0-1.27-.03-1.18.83-1.17,1.65,0,.8-.15,1.7,1.13,1.68,1.58-.03,3.15,0,4.73,0,1.13,0,2.09.38,2.09,1.64,0,1.26-.95,1.63-2.09,1.62-2.44-.01-4.87.02-7.31-.01-1.68-.02-2.3-.66-2.33-2.39-.04-1.91,0-3.82,0-5.73Z"/>
  <path class="cls-1" d="m363.15,127.92c0-1.48,0-2.96,0-4.44,0-1.14.58-1.87,1.67-1.95,1.1-.09,1.79.58,1.98,1.67.1.56.13,1.14.14,1.71.02,2.15-.01,4.3.02,6.45.03,2.2,1.25,3.46,3.31,3.49,2.16.03,3.49-1.22,3.54-3.44.05-2.29,0-4.58.02-6.88,0-.52,0-1.06.14-1.56.25-.93.92-1.48,1.89-1.44.99.03,1.67.67,1.7,1.63.09,3.24.39,6.51-.12,9.72-.63,4.02-4.32,6.04-8.91,5.14-3.58-.71-5.36-2.85-5.38-6.5,0-1.19,0-2.39,0-3.58h0Z"/>
  <path class="cls-1" d="m218.53,128.08c0-1.63-.02-2.92,0-4.21.03-1.46.81-2.39,1.93-2.36,1.08.03,1.82.92,1.83,2.32.03,2.48-.02,4.97.03,7.45.07,2.9,2.66,4.43,5.22,3.13,1.5-.76,1.78-2.17,1.81-3.64.05-2.29.04-4.59,0-6.88-.02-1.25.32-2.21,1.69-2.39,1.11-.15,2.01.76,2.06,2.26.1,3.05.23,6.11-.21,9.15-.39,2.72-2.27,4.49-5.28,5.08-4.01.78-7.46-.76-8.64-3.86-.79-2.08-.35-4.26-.47-6.05Z"/>
  <path class="cls-1" d="m303.75,129.75c0-1.96-.02-3.92,0-5.88.03-1.59.6-2.16,2.18-2.18,2.49-.03,4.97,0,7.46-.01,1.07,0,1.98.29,2.01,1.52.04,1.3-.89,1.69-2.01,1.71-1.43.02-2.87.06-4.3,0-1.19-.06-1.58.42-1.59,1.59-.01,1.25.53,1.57,1.65,1.51,1.34-.06,2.68-.01,4.02,0,1.13,0,2.1.38,2.09,1.64,0,1.26-.99,1.62-2.11,1.62-1.43,0-2.87.05-4.3,0-1.3-.05-1.32.74-1.32,1.68,0,.93.03,1.73,1.32,1.68,1.48-.06,2.96-.02,4.45,0,1.1,0,2.11.31,2.14,1.59.03,1.28-.94,1.66-2.06,1.66-2.49.01-4.97.03-7.46,0-1.55-.02-2.13-.63-2.15-2.22-.03-1.96,0-3.92,0-5.88Z"/>
  <path class="cls-1" d="m243.99,138.18c-1.87.02-3.6-.46-5.2-1.41-1.01-.6-1.47-1.45-.89-2.52.6-1.1,1.61-1.1,2.6-.51,1.31.79,2.69,1.26,4.22,1.1.94-.1,1.91-.39,2.05-1.46.15-1.1-.84-1.39-1.67-1.63-1.37-.41-2.79-.69-4.14-1.15-2.14-.74-3.18-2.14-3.22-4.09-.04-2.04.95-3.57,3.02-4.42,2.84-1.16,5.62-.86,8.27.63.95.54,1.21,1.38.71,2.31-.51.95-1.37,1.15-2.33.67-1.21-.6-2.45-1.11-3.84-.99-.81.07-1.74.19-1.92,1.17-.19,1.08.74,1.33,1.51,1.57,1.05.32,2.13.54,3.19.84,2.92.83,4.4,2.51,4.28,4.82-.14,2.56-1.91,4.38-4.79,4.9-.61.11-1.23.11-1.85.17Z"/>
  <path class="cls-1" d="m186.96,129.7c0-1.86-.03-3.73,0-5.59.03-1.84.62-2.41,2.42-2.42,1.82-.02,3.63-.03,5.45,0,3.15.06,5.31,2.2,5.32,5.21,0,2.99-2.17,5.14-5.31,5.22-.86.02-1.73.07-2.58,0-1.23-.11-1.63.45-1.53,1.59.06.66.03,1.34,0,2.01-.05,1.38-.79,2.27-1.87,2.27-1.08,0-1.86-.87-1.89-2.27-.05-2.01-.01-4.01-.01-6.02h0Zm6.21-.82c.24,0,.47,0,.71,0,1.52-.04,2.48-.82,2.44-1.98-.04-1.2-.94-1.92-2.49-1.97-.19,0-.38,0-.57,0-2.64-.02-2.66.04-2.53,2.72.04.92.41,1.29,1.3,1.24.38-.02.76,0,1.14,0Z"/>
  <path class="cls-1" d="m251.31,5.69c-.03,3.19-2.58,5.69-5.79,5.66-3.12-.02-5.7-2.57-5.72-5.63C239.8,2.6,242.42,0,245.58,0c3.25,0,5.76,2.5,5.73,5.69Z"/>
  <path class="cls-1" d="m207.58,68.17c-3.34,0-5.72-2.35-5.71-5.63,0-3.17,2.56-5.66,5.78-5.64,3.18.02,5.72,2.6,5.7,5.77-.02,3.07-2.58,5.51-5.77,5.51Z"/>
  <path class="cls-1" d="m204.22,129.63c0-1.91-.03-3.82,0-5.72.03-1.5.78-2.39,1.91-2.41,1.12-.02,1.83.88,1.84,2.42.02,3,.07,6.01-.02,9.01-.04,1.35.45,1.78,1.74,1.68,1.14-.08,2.29-.03,3.43,0,1,.03,1.67.55,1.67,1.58,0,1.01-.65,1.61-1.64,1.63-2.39.05-4.77.06-7.16,0-1.33-.04-1.76-1.02-1.78-2.17-.03-2,0-4.01,0-6.01,0,0,0,0-.01,0Z"/>
  <path class="cls-1" d="m337.17,128.47c0,1.62.05,3.25-.01,4.87-.08,2.04-1.06,3.57-2.99,4.32-2.12.82-4.23.73-6.15-.58-.61-.41-.77-1.08-.46-1.79.36-.82,1.02-1.09,1.87-.96,3.72.55,4.15.17,4.15-3.64,0-2.2,0-4.39,0-6.59,0-1.7.63-2.6,1.78-2.62,1.19-.02,1.8.82,1.81,2.54,0,1.48,0,2.96,0,4.44h0Z"/>
  <path class="cls-1" d="m137.35,129.79c0,1.95.03,3.91,0,5.86-.03,1.43-.74,2.29-1.81,2.33-1.13.04-1.93-.85-1.94-2.34-.03-3.96-.03-7.92,0-11.87,0-1.34.84-2.27,1.89-2.27,1.07,0,1.85.91,1.87,2.28.03,2,0,4.01,0,6.01Z"/>
</svg>