<svg width="982" height="950" viewBox="0 0 982 950" fill="none" xmlns="http://www.w3.org/2000/svg">
<g clip-path="url(#clip0_64_2)">
<path d="M183.46 189.59C183.72 187.23 182.53 185.6 181.84 183.87C180.42 180.3 179.08 176.71 178.06 173C176.08 165.83 176.37 158.6 178.84 151.74C186.44 130.56 200.9 116.47 223.03 111.13C228.89 109.72 235.04 109.38 241.09 108.93C245.26 108.62 249.31 109.64 253.21 111.31C256.93 112.9 258.87 111.48 258.32 107.6C257.48 101.72 259.23 96.52 262.16 91.62C267.28 83.05 274.7 76.73 282.86 71.27C292.53 64.8 302.92 59.74 314.69 58.85C326.07 57.99 337.37 59.15 348.43 62.13C353.04 63.37 353.14 63.48 355.84 59.58C362.8 49.54 371.22 41.26 382.53 36.15C386 34.58 389.17 32.44 391.94 29.64C394.78 26.78 398.59 25.25 402.27 23.69C409.48 20.62 416.74 17.69 423.91 14.54C434.11 10.06 444.83 7.63999 455.8 6.13999C472.11 3.90999 488.48 2.24999 504.9 0.969994C506.17 0.869994 507.46 0.799994 508.73 0.859994C518.8 1.29999 528.84 1.19999 538.91 0.459994C556.09 -0.810006 572.99 0.459993 589.62 5.71999C613.51 13.26 636.57 22.52 657.98 35.63C679.09 48.56 694.53 66.39 704.25 89.16C706.47 94.35 707.59 99.83 708.24 105.41C708.69 109.24 708.7 109.31 712.2 108.73C744.14 103.45 770.83 113.76 793.02 136.5C807.07 150.9 814.56 168.47 815.52 188.61C815.78 194.01 815.04 199.47 813.76 204.76C813.18 207.16 813.78 208.37 816.04 209.67C830.78 218.18 841.37 229.98 844.86 247.18C845.18 248.74 845.61 250.29 846.09 251.81C846.74 253.88 848.04 255.26 850.08 256.28C853.83 258.15 857.65 259.5 861.8 260.25C869.44 261.64 876.4 264.92 883.05 268.82C892.05 274.11 900.24 280.5 907.79 287.69C914.04 293.65 920.16 299.74 926.22 305.9C935.04 314.86 941.45 325.62 948.03 336.2C956.24 349.39 963.02 363.34 969.31 377.54C972.42 384.56 973.08 392.05 973.93 399.5C974.39 403.51 975.2 407.39 976.5 411.18C978.3 416.38 979.25 421.68 978.95 427.19C978.58 433.93 979.53 440.58 980.41 447.24C981.12 452.64 981.65 458.18 980.05 463.44C977.66 471.32 977.14 479.45 975.95 487.5C974.53 497.15 972.72 506.71 969.68 516.03C965.92 527.54 959.35 537.32 951.47 546.2C945.33 553.12 938.74 559.67 930.78 564.67C922.39 569.93 913.38 573.41 903.6 574.88C900.74 575.31 897.86 575.21 895.01 574.6C892.13 573.99 889.29 574.06 886.5 575.04C884.52 575.74 882.53 576 880.38 575.78C877.15 575.45 876.01 576.54 876 579.76C876 581.52 876.2 583.27 875.51 584.96C873.45 589.98 870 593.11 864.34 593.3C863.54 593.33 862.74 593.37 861.94 593.35C859.78 593.29 858.53 594.15 857.62 596.29C855.09 602.19 849.14 605.28 842.87 603.99C840.87 603.58 839.86 603.99 839.16 605.8C838.7 606.97 838.08 608.08 837.35 609.59C841.5 610.63 844.98 612.03 849.22 609.49C855.93 605.47 862.85 605.77 869.47 610.48C872.32 612.51 875.55 613.99 878.62 615.7C894.22 624.39 903.61 637.23 905.24 655.31C906.46 668.84 902.87 681.24 896.37 692.96C891.4 701.92 884.58 709.21 876.53 715.45C872.31 718.72 867.77 721.24 862.55 722.59C859.5 723.38 859.46 723.74 860.62 726.57C862.58 731.38 863.16 736.49 863.64 741.56C865.52 761.52 860.73 779.95 850.42 797.03C844.53 806.79 837.53 815.7 829.5 823.78C823.31 830.01 817.26 836.37 810.29 841.82C802.91 847.59 794.78 851.96 786.45 856C777.06 860.55 767.25 863.94 756.83 865.31C749.67 866.25 742.5 866.28 735.34 865.29C732.02 864.83 728.68 864.39 725.4 863.67C720.6 862.6 715.7 861.82 711.59 859.13C710.27 860.43 710.99 861.56 711.07 862.59C711.35 866.18 710.76 869.64 709.43 872.93C704.16 885.96 696.24 897.03 684.76 905.29C673.11 913.67 659.93 918.33 645.85 920.57C638.08 921.81 630.29 922.28 622.49 920.66C621.86 920.53 621.12 920.59 620.63 920.26C615.85 917.12 611.79 919.13 607.42 921.52C602.01 924.49 595.94 925.52 589.8 925.31C586.82 925.21 584.57 925.45 583.19 928.55C582.27 930.63 580.21 931.82 578.19 932.87C573.2 935.44 568.08 937.65 562.61 939.02C551.29 941.86 540.02 944.9 528.66 947.53C516.64 950.31 504.59 950.68 492.75 946.4C486.67 944.2 480.27 943.67 473.94 942.89C470.57 942.48 467.34 941.67 464.19 940.51C459.18 938.67 454.05 937.61 448.69 937.93C444.42 938.18 440.53 936.96 436.71 935.11C426.31 930.1 415.48 927.5 403.78 928.89C399.34 929.42 394.88 928.16 390.6 926.8C385.87 925.3 381.36 923.29 376.99 920.87C368.74 916.31 360.56 911.65 351.31 909.19C344.9 907.49 339.19 904.29 334.42 899.54C329.68 894.83 323.6 892.1 317.77 889.22C305.95 883.38 297.74 874.07 290.96 863.2C288.68 859.54 286.39 855.89 284.84 851.81C283.69 848.79 282.91 848.49 279.7 849.04C276.23 849.63 272.94 850.9 269.47 851.55C258.67 853.58 248.14 851.74 237.62 849.7C230.18 848.26 223.1 845.77 216.84 841.37C211.88 837.88 206.24 836.16 200.49 834.76C191 832.44 182.38 828.4 175.02 821.97C165.01 813.22 154.03 805.77 143.33 797.94C134.04 791.14 127.75 782.01 123.97 771.13C121.82 764.95 121.04 758.63 122.31 752.23C123.51 746.15 121.88 740.12 122.49 734.08C122.62 732.82 121.67 732.02 120.64 731.5C117.22 729.78 114.84 727.01 112.94 723.81C111.55 721.48 109.86 720.96 107.32 722.01C100.97 724.61 94.7601 723.6 88.7801 720.71C82.4501 717.65 76.1201 714.55 69.9001 711.28C59.7801 705.97 52.7401 697.61 47.2901 687.78C43.8701 681.61 41.3001 675.05 38.9901 668.4C36.1501 660.24 33.2801 652.1 29.7301 644.22C25.0501 633.85 23.4801 623.12 25.8701 611.93C27.4201 604.68 26.9701 597.28 27.5101 589.96C27.9701 583.76 29.5001 578 32.0901 572.46C34.6601 566.95 37.4201 561.51 41.1701 556.7C42.8201 554.59 42.2901 553.49 40.4001 552.06C36.3201 548.98 32.1401 545.98 28.4401 542.48C18.2501 532.86 11.4301 520.99 6.30012 508.07C3.08012 499.95 1.34011 491.56 1.89011 482.76C2.28011 476.5 1.07011 470.33 0.500115 464.13C-0.369885 454.65 -0.409885 445.34 2.93011 436.21C4.47011 432 4.58012 427.42 4.65012 422.95C4.72012 418.21 5.64012 413.64 7.94011 409.57C11.0401 404.08 11.9901 398.18 12.3301 392.08C12.5701 387.88 13.3501 383.78 15.1101 379.99C23.1801 362.7 32.4901 346.21 44.4501 331.2C53.8801 319.37 65.7801 311.06 79.2501 304.77C82.5701 303.22 83.7001 301.36 83.4601 297.84C83.2001 294.16 83.0301 290.46 81.9301 286.95C79.0801 277.91 79.7701 268.93 82.2501 260.01C86.8901 243.29 94.3301 227.86 105.96 214.97C118.4 201.18 133.22 190.74 152.19 187.82C160.79 186.5 169.4 186.94 177.93 188.74C179.63 189.1 181.28 189.8 183.46 189.59ZM370.47 715.29C368.1 715.59 365.73 716.16 363.36 716.14C357.39 716.09 352.36 714.21 349.93 708.13C349.24 706.4 347.82 705.38 346.48 704.25C344.64 702.69 343 700.98 342.02 698.71C340.6 695.41 340.88 692.29 342.39 689.03C344.07 685.4 342.91 682.13 339.83 681.86C335.95 681.53 332.37 680.21 328.64 679.37C326.9 678.98 325.17 678.61 323.49 679.42C314.78 683.59 307.35 689.77 307.39 701.69C307.43 713.96 311.04 725.29 319.12 734.85C322.49 738.83 326.78 741.55 331.64 743.38C334.15 744.32 336.23 743.97 337.95 741.64C340.03 738.82 342.39 736.2 344.51 733.41C348.03 728.78 352.24 725.03 357.3 722.07C361.57 719.57 366.29 717.97 370.44 715.27C374.73 715.12 379.04 714.8 383.03 716.96C383.69 717.32 384.6 717.73 385.18 716.87C385.78 715.98 385.41 715.04 384.87 714.21C384.11 713.05 382.95 712.57 381.63 712.47C377.6 712.16 373.65 712.22 370.47 715.3V715.29ZM125.37 553.75C117.25 555.43 109.71 556.68 102.35 558.63C97.6701 559.87 93.1001 561.09 88.2301 560.77C86.2801 560.64 84.4301 560.97 82.6801 561.93C78.8901 564.02 75.0301 564.01 71.2001 562.03C69.7201 561.26 68.3301 560.95 66.6301 561.55C59.3234 564.11 53.8301 568.847 50.1501 575.76C46.1901 583.22 43.4901 590.91 44.2801 599.61C44.6801 604.05 44.1201 608.52 43.6201 612.99C42.9501 619 42.2601 625.21 44.2301 631.08C48.0901 642.59 52.1101 654.06 56.4401 665.4C59.4101 673.18 63.2101 680.62 68.6001 687.07C76.3401 696.33 86.6601 701.65 97.7601 705.7C99.4201 706.31 100.87 706.03 102.34 705.21C104.18 704.18 106.14 703.67 108.26 703.46C115.76 702.73 121.71 705.09 126 711.52C128.22 714.85 128.42 714.75 132.19 713.35C136.09 711.9 140.01 711.71 143.9 713.24C151.75 716.32 153.82 725.48 148.12 731.73C146.7 733.28 145.03 734.53 143.24 735.58C140.9 736.95 140.02 738.9 140.16 741.57C140.36 745.4 140.7 749.3 139.94 753.06C138.29 761.23 141.02 768.19 145.46 774.72C149.66 780.9 155.47 785.44 161.43 789.79C168.66 795.07 176.39 799.69 182.86 805.94C189.49 812.34 197.37 816.27 206.26 818.43C212.51 819.95 218.5 822.31 223.92 825.77C231.08 830.35 239.02 832.32 247.15 834.33C257.33 836.85 266.78 834.81 276.33 831.87C278.34 831.25 279.44 829.98 280.19 828C281.05 825.72 280.75 823.7 280.01 821.5C275.74 808.8 278.19 797.24 286.14 786.68C287.58 784.77 289.34 783.06 290.62 781.06C292.55 778.05 295.35 776.39 298.52 775.12C301.54 773.9 304.65 773.33 307.9 773.56C309.89 773.71 311.65 773.51 313.02 771.71C315.23 768.79 318.47 767.95 321.94 767.85C324.02 767.79 326.11 767.96 328.17 767.78C330.56 767.57 331.82 766.05 332.08 763.69C332.36 761.19 330.37 761.52 328.96 761C318.13 757.02 308.28 751.68 301.72 741.65C295.39 731.96 291.6 721.4 290.36 709.89C288.6 693.55 292.04 679.37 306.54 669.52C310.19 667.04 310.07 666.82 306.7 664.1C294.97 654.65 289.98 641.93 290.16 627.37C290.37 611.09 295.47 596.23 306.2 583.66C316.48 571.62 328.81 562.95 344.99 560.98C352.61 560.05 360.24 559.45 367.94 559.58C374.5 559.69 380 562.16 383.83 567.15C386.93 571.19 391.42 569.69 395.03 571.32C395.35 571.46 396.22 570.85 396.57 570.38C398.88 567.33 401.69 564.64 403.39 561.14C405.28 557.26 405.15 556.9 401.03 555.39C391.48 551.88 388.5 543.35 393.95 534.61C395.45 532.2 396.3 529.8 396.25 526.97C396.19 523.73 396.92 520.61 398.24 517.66C401.82 509.66 411.59 503.73 419.87 507.75C421.7 508.64 423.21 508.15 424.85 507.33C429.43 505.04 433.68 505.57 437.91 508.56C441.17 510.85 443.73 513.47 445.06 517.27C446.44 521.21 449.46 523.05 453.49 523.23C456.04 523.35 458.6 523.18 461.16 523.16C464.04 523.13 466.92 522.9 469.78 523.41C476.76 524.64 479.66 528 479.95 535.09C480.11 538.98 480.11 539.01 484.07 538.58C491.53 537.75 497.87 538.89 500.53 547.27C501.25 549.53 503.13 550.53 505.52 549.75C510.24 548.21 514.25 550.19 518.39 551.99C524.97 554.86 528.52 559.57 528 566.95C527.86 568.96 528.39 570.53 529.95 572.05C537.69 579.6 535.92 590.85 526.44 596.03C522.89 597.97 519.22 598.34 515.32 598.09C512.01 597.88 511.46 598.61 511.48 601.8C511.5 604.33 513.04 605.89 514.63 607.48C518.86 611.71 520.54 616.89 520.13 622.77C519.44 632.85 512.98 638.78 502.93 638.33C500.6 638.23 499.07 639.12 497.35 640.41C491.87 644.51 485.83 644.21 480.68 639.74C478.74 638.06 477.05 636.14 475.56 634.05C474.54 632.62 473.35 631.3 471.81 630.38C470.54 629.62 469.65 629.99 469.43 631.5C469.32 632.29 469.41 633.1 469.34 633.89C468.64 641.78 465.89 648.88 460.35 654.58C450.51 664.71 438.35 668.99 424.3 667.96C420.8 667.7 420.63 667.79 421.79 671.16C424.84 680.07 421.24 687.74 417.48 695.42C415.15 700.2 410.18 700.74 406.08 702.66C404.95 703.19 403.65 703.47 402.4 703.65C400.51 703.93 399.88 704.69 400.7 706.56C402.98 711.76 403.27 717.39 404.37 722.86C405.84 730.17 403.71 736.12 398.99 741.41C392.74 748.43 383.04 753.77 373.9 748.74C371.08 747.19 370.05 747.85 367.9 750.73C363.6 756.49 359.42 762.35 354.99 768.01C353.14 770.38 352.68 772.51 353.49 775.48C354.63 779.66 355.05 784.13 352.55 788.03C351.02 790.42 350.97 792.47 351.62 795.19C353.46 802.97 352.02 810.03 346.12 815.94C342.44 819.62 338.08 821.03 333.07 820.76C329.94 820.59 327.82 821.3 326.14 824.46C324.03 828.45 320.55 831.33 315.99 832.74C312.89 833.7 309.81 834.3 306.58 834.26C304.78 834.23 302.97 834.4 302.45 836.65C301.44 841.06 300.76 845.33 303.23 849.67C309.46 860.6 317.27 869.9 328.9 875.34C335.9 878.62 342.49 882.43 348.01 887.95C350.55 890.49 353.85 891.95 357.26 892.82C366.67 895.21 375.23 899.45 383.45 904.47C385.77 905.89 388.16 907.19 390.58 908.42C396.29 911.34 402.33 912.52 408.71 911.44C411.26 911.01 413.78 911.11 416.34 911.4C424.53 912.34 432.32 914.56 439.72 918.16C442.78 919.65 445.94 920.7 449.36 920.79C457.73 921.01 465.9 922.15 473.64 925.59C474.78 926.09 476.13 926.12 477.39 926.35C482.88 927.37 488.61 927.11 493.94 928.96C506.2 933.23 518.44 932.43 530.79 929.43C541.98 926.72 552.8 922.65 564.14 920.55C567.21 919.98 569.14 918.12 570.62 915.39C574.46 908.33 579.34 906.06 587.28 907.35C588.7 907.58 590.13 907.98 591.54 907.95C595.94 907.86 599.9 907.02 603.01 903.24C607.75 897.49 615.93 896.63 621.99 901.33C624.9 903.58 627.83 904.34 631.28 904.2C633.84 904.09 636.41 904.27 638.95 904.06C658.64 902.46 674.88 894.4 686.68 878.25C691.3 871.93 694.82 865.31 692.74 856.88C691.81 853.09 692.38 852.83 688.34 851.84C683.18 850.58 678.77 848.09 675.5 843.96C673.79 841.8 672.15 841.47 669.72 842.33C663.27 844.6 657.16 843.32 651.23 840.32C644.93 837.14 638.93 833.46 633.26 829.3C628.18 825.57 623.88 821.03 621.43 815.08C616.86 803.97 616.36 792.65 620.68 781.39C624.17 772.3 630.43 765.73 639.82 762.46C640.52 762.22 641.46 762.25 641.77 760.92C639.58 758.49 636.97 756 636.98 752.15C637 748.79 635.53 746.15 633.47 743.5C629.13 737.94 625.49 731.88 623.39 725.08C622.02 720.65 623.91 715.76 627.59 713.24C631.58 710.51 636.19 710.47 640.12 713.24C643.02 715.28 645.62 717.71 647.48 720.72C651.26 726.83 655.76 732.52 658.73 739.12C659.66 741.2 660.84 742.05 663.17 741.57C669.93 740.19 675.85 741.95 680.8 746.76C682.56 748.47 684.56 749.03 686.92 748.81C688.51 748.66 690.11 748.65 691.71 748.55C698.6 748.11 704.21 750.77 708.79 755.73C713.82 761.18 716.6 767.73 717.83 774.99C718.84 780.95 718.68 786.87 715.96 792.33C714.66 794.95 714.71 796.68 716.37 799.19C720.52 805.47 718.67 813.38 711.94 816.26C707.51 818.16 705.66 820.54 705.48 825.24C705.34 828.85 705.32 830.03 708.92 830.71C715.28 831.91 718.78 835.57 719.83 841.79C720.16 843.73 721.21 844.92 723.09 845.52C730.61 847.9 738.33 849.29 746.21 849.06C761.31 848.63 774.96 843.42 787.78 835.76C803.95 826.09 816.91 812.83 828.48 798.25C836.28 788.43 841.94 777.33 844.78 764.9C846.97 755.34 846.04 745.82 845.23 736.27C845.05 734.14 844.14 733.69 841.84 734.86C838.63 736.48 835.38 737.44 831.73 737.32C821.96 737.01 812.65 734.29 804.03 730.24C795.73 726.35 788.4 720.58 787.57 710.07C787.46 708.64 786.63 707.75 785.31 707.26C784.11 706.81 782.85 706.48 781.73 705.88C773.03 701.17 764.32 696.55 755.24 692.52C747.33 689.02 746.53 679.86 752.78 673.91C753.23 673.48 753.81 673.15 753.82 672.34C753.05 671 751.53 670.77 750.23 670.26C741.74 666.95 734.22 662.17 728.27 655.24C716.32 641.3 712.18 625.34 716.72 607.42C718.33 601.07 721.75 595.7 726.8 591.43C727.61 590.75 728.91 590.14 728.19 588.76C727.56 587.55 726.28 587.68 725.2 587.96C722.93 588.55 720.75 588.19 718.58 587.57C716.34 586.93 715.63 587.46 715.52 590.04C715.2 597.16 708.94 603.87 701.94 604.7C698.34 605.13 695.31 606.35 692.23 608.29C683.64 613.72 677.48 613.92 669.29 607.55C664.44 603.78 663.06 598.44 664.5 592.45C665.15 589.73 666.58 587.45 668.6 585.53C669.4 584.76 670.64 583.88 669.76 582.75C667.53 579.92 666.42 576.61 665.05 573.39C664.78 572.76 663.92 572.19 663.21 571.97C659.2 570.71 655.96 567.93 652.07 566.42C648.13 564.89 645.26 562.2 644.7 557.74C644.44 555.6 643.02 554.78 641.25 554.26C636.71 552.94 633.87 549.92 632.57 545.46C632.06 543.73 631.13 542.79 629.31 542.46C623.58 541.43 619.05 538.21 614.96 534.26C613.35 532.71 611.83 531.1 609.97 529.79C605.31 526.5 603.54 521.84 604.65 516.36C605.77 510.86 609.84 508.09 615.02 506.95C617.5 506.4 620.09 506.3 622.64 506.11C624.76 505.95 626.77 505.55 628.46 504.18C631.2 501.96 630.87 499.37 627.52 498.14C622.66 496.36 618.43 493.59 614.12 490.79C606.87 486.08 599.38 481.68 590.24 481.86C589.14 481.88 588.03 481.53 586.94 481.27C581.03 479.87 575.17 478.22 569.21 477.1C564.72 476.26 560.19 477.41 556.49 479.87C549.35 484.62 541.27 484.33 535.14 478.44C533.99 477.33 532.9 476.16 531.8 475C526.75 469.69 526.29 463.76 530.65 457.71C531.83 456.07 532.48 454.46 532.51 452.44C532.61 446.04 535.92 441.89 541.96 440.12C544.96 439.24 547.43 437.79 549.82 435.78C552.74 433.32 556.06 431.33 559.17 429.08C560.13 428.38 561.65 428.24 561.88 426.7C551.85 418.74 550.34 413.1 555.23 401.34C556.36 398.63 557.05 395.84 557.14 392.97C557.37 385.47 561.13 380.71 568.08 378.33C569.34 377.9 570.41 377.33 571.24 376.3C574.82 371.86 579.33 371.72 584.25 373.49C585.26 373.85 586.17 374.74 587.64 374.07C588.5 365.32 594.57 360.67 601.9 357.1C603.48 356.33 605.11 355.65 606.74 355C610.9 353.35 615.05 351.65 619.26 350.15C622.11 349.14 623.87 347.71 623.77 344.32C623.67 340.86 624.95 337.69 627.42 335.19C628.81 333.78 629.19 332.35 628.74 330.43C627.89 326.75 629.26 323.56 631.09 320.43C634.92 313.89 647.31 308.38 657.1 313.35C658.8 314.21 660.54 315.66 662.25 315.63C664.19 315.59 664.55 312.86 665.92 311.55C668.32 309.26 671.08 307.72 674.35 307.33C677.69 306.93 681.04 306.96 684.35 307.86C685.47 308.17 686.63 309.17 688.08 308.12C687.85 307.06 687.6 305.98 687.4 304.9C685.91 297.04 690.99 290.87 698.95 290.84C704.03 290.82 707.94 293.11 710.61 297.25C713.89 302.35 718.64 304.31 724.41 304.47C729.37 304.61 734.33 304.66 739.21 303.54C743.1 302.65 747.02 300.79 750.85 300.98C756.88 301.28 761.32 298.68 766.07 295.77C770.27 293.2 774.93 291.34 779.48 289.38C782.75 287.97 784.56 285.98 785.84 282.37C788.83 273.91 793.89 266.76 802.48 262.86C810.07 259.42 817.74 256.25 826.13 255.32C827.17 255.2 828.3 254.86 827.85 253.66C826.65 250.48 827.71 246.86 825.9 243.86C821.91 237.26 817.1 231.36 811.1 226.42C808.51 224.29 806.22 224.3 803.21 225.68C793.9 229.94 784.75 234.52 775.61 239.11C773.75 240.04 771.85 240.88 769.8 241.32C764.19 242.54 758.48 243.41 753.27 246.06C752.44 246.48 751.43 246.62 750.49 246.75C744.52 247.56 739.66 244.9 737.69 239.78C735.62 234.41 737.48 229 742.75 225.74C747.4 222.86 752.33 220.46 757.93 220.27C761.63 220.14 764.77 218.85 767.65 216.7C772.31 213.23 777.43 210.68 782.92 208.8C786.39 207.61 789.8 206.2 793.04 204.44C794.95 203.4 796.6 202.12 796.95 199.88C797.46 196.57 798.22 193.27 798.05 189.89C797.26 174.24 791.25 160.81 780.8 149.24C772.37 139.9 762.03 133.28 750.5 128.65C739.14 124.09 727.3 122.95 715.25 125.92C711.37 126.87 708.12 128.63 706.14 132.32C704.84 134.74 702.76 136.5 700.79 138.4C697.71 141.37 695.8 145.08 697.02 149.51C697.93 152.81 697.5 155.96 696.25 158.89C693.67 164.97 688.88 169.6 685.24 175C685.07 175.25 684.76 175.46 684.48 175.57C680.52 176.99 677.44 179.91 673.82 181.86C668.65 184.64 665.99 188.58 665.95 194.42C665.95 195.68 665.77 197.01 665.33 198.18C664.38 200.72 664.87 203.08 665.37 205.66C666.67 212.29 667.07 219.21 665.29 225.63C663.11 233.52 658.31 240.36 653.09 246.63C649.52 250.91 644.79 251.59 640.56 249.37C635.6 246.78 633.04 241.43 634.2 236.13C635.14 231.83 637.06 227.94 639.81 224.57C643.59 219.95 642.64 215.04 641.22 210.01C640.78 208.46 639.8 207.93 638.32 208.8C635.7 210.33 633.09 211.88 630.48 213.44C628.98 214.34 628.76 215.61 629.44 217.15C630.16 218.78 630.49 220.48 630.53 222.27C630.72 230.98 623.44 240.07 614.26 242.51C605.85 244.75 596.1 240.35 591.95 232.43C591.28 231.16 590.6 229.88 590.05 228.55C589.01 226.05 587.25 224.75 584.5 224.84C583.54 224.87 582.58 224.84 581.62 224.76C569.84 223.86 560.81 213.89 561.22 202.26C561.58 192.01 569.97 185.48 579.9 187.84C581.87 188.31 583.49 188.42 585.35 187.34C591.04 184.04 596.7 184.99 601.38 189.06C604.3 191.61 607.24 192.86 610.94 193.64C614.71 194.44 617.6 193.7 620.88 191.91C629.46 187.23 636.47 180.19 645.38 176.03C647.91 174.85 649.53 172.56 650.54 169.93C651.53 167.37 652.66 164.89 655.04 163.29C656.57 162.26 656.56 161.02 655.76 159.57C655.22 158.59 654.76 157.57 654.24 156.58C651.5 151.36 651.65 146.09 654.23 140.93C656.38 136.63 658.96 132.58 661.91 128.78C666.27 123.17 672.06 120.7 679.11 121.1C680.38 121.17 681.65 121.37 682.91 121.56C684.17 121.76 685.11 121.36 685.67 120.2C687.98 115.45 690.25 110.78 689.95 105.19C689.58 98.2 686.77 92.19 683.28 86.41C673.24 69.79 659.71 56.71 642.98 46.86C630.39 39.44 617.12 33.53 603.39 28.64C583.3 21.48 563.02 15.57 541.2 17.41C529.28 18.41 517.27 17.69 505.28 18.25C488.16 19.05 471.19 20.68 454.34 23.55C447.9 24.65 441.28 25.36 435.32 28.31C428.71 31.58 421.92 34.32 414.99 36.84C410.21 38.58 405.41 40.53 401.69 44.27C398.59 47.39 394.98 49.67 390.87 51.19C386.6 52.77 382.96 55.29 379.77 58.54C376.85 61.51 374.1 64.6 371.37 67.74C368.82 70.66 367.8 73.95 368.65 77.51C369.76 82.14 371.1 86.87 373.61 90.89C377.05 96.41 379.43 102.23 380.99 108.48C382.46 114.37 383.34 120.41 385.38 126.16C385.99 127.89 386.43 129.75 387.94 131.23C388.93 129.65 388.53 128.2 388.56 126.82C388.62 123.46 388.49 120.1 388.62 116.75C388.74 113.49 389.36 112.95 392.61 112.58C393.4 112.49 394.21 112.51 395.01 112.48C413.22 111.89 431.43 111.01 449.64 110.8C469.3 110.58 488.94 109.3 508.62 109.6C510.09 109.62 511.55 109.48 513.02 109.42C511.25 108.72 509.52 108.72 507.78 108.72C477.71 108.71 447.65 108.69 417.58 108.67C416.14 108.67 414.7 108.63 413.26 108.63C411.46 108.63 410.19 107.86 409.6 106.12C407.2 99 404.8 91.87 402.43 84.74C401.87 83.05 402.39 82.1 404.28 81.68C408.43 80.75 408.37 80.67 408.59 76.54C408.95 70 409.21 63.44 409.82 56.92C410.21 52.78 410.39 48.63 410.73 44.49C410.99 41.3 411.78 40.65 414.91 40.41C416.34 40.3 417.79 40.33 419.23 40.36C430.42 40.55 441.6 40.83 452.79 41.17C475.64 41.87 498.49 42.36 521.33 43.17C538.58 43.78 555.85 43.99 573.11 44.42C583.98 44.69 594.84 45.03 605.7 45.34C606.34 45.36 606.98 45.36 607.61 45.45C610.45 45.85 610.92 46.41 610.49 49.2C610.17 51.25 609.65 53.27 609.29 55.31C608.12 62.08 607.03 68.87 605.82 75.64C604.89 80.87 604.83 80.87 599.32 80.89C596.44 80.9 593.56 80.89 590.68 80.89C580.11 80.89 580.17 80.84 573.87 72.26C572.45 70.33 572.39 69.01 574.1 67.33C577.64 63.86 581.05 60.27 584.51 56.73C585.13 56.1 586.25 55.71 585.57 54.36C581.05 53.28 577.24 54.14 574.07 57.95C571.22 61.38 567.6 64.14 565.09 67.91C564.6 68.65 563.99 69.59 562.54 68.99C561.74 65.33 562.36 61.51 562.15 57.73C561.99 54.84 561.07 54.02 558.31 54.07C555.63 54.12 554.71 54.92 554.66 57.94C554.56 64.02 554.67 70.1 554.61 76.17C554.57 80.04 554.5 80.03 550.58 81.5C552.45 84.42 551.6 87.68 551.76 90.81C551.94 94.25 552.47 94.75 555.73 94.43C558.59 94.15 559.33 93.64 559.13 90.4C558.88 86.37 559.69 82.89 562.3 79.79C563.71 78.11 564.73 75.47 567.18 75.75C569.27 75.99 570.14 78.4 570.97 80.31C571.02 80.43 570.91 80.61 570.87 80.77C569.93 82.25 568 80.61 566.79 82.32C568.79 85 570.86 87.78 572.95 90.55C576.06 94.66 578.23 95.34 583.73 93.84C582.04 90.3 579.25 87.62 577.01 84.55C575.78 82.86 576.26 81.83 578.36 81.78C582.03 81.69 585.72 81.77 589.39 81.93C592.83 82.08 593.46 82.65 594.03 86.14C594.82 91.03 595.39 95.96 596.19 100.85C596.8 104.59 597.28 105.98 601.61 105.93C605.23 105.89 605.48 106.31 606.01 110.17C606.6 114.44 606.98 118.74 607.44 123.03C607.78 126.21 608.26 129.38 608.37 132.56C608.48 135.76 607.89 136.24 604.78 135.93C601.26 135.57 597.79 135.6 594.28 136.19C590.97 136.75 590.45 136.22 590.17 132.73C589.99 130.5 589.92 128.3 589.13 126.14C583.99 111.92 565.58 111.68 557.79 118.48C553.35 122.36 551.62 127.21 550.9 132.77C550.47 136.07 549.55 136.64 546.1 136.49C543.12 136.36 542.35 135.7 542.27 132.25C542.16 127.94 542.24 123.62 542.47 119.31C542.69 115.24 542.25 114.52 538.72 114.54C535.36 114.55 535.04 115.11 535.18 118.99C535.35 123.62 535.29 128.26 535.34 132.9C535.37 135.27 534.42 136.5 531.86 136.18C530.93 136.06 529.95 136.33 528.99 136.34C527.69 136.35 526.88 135.7 526.72 134.37C526.61 133.42 526.57 132.46 526.47 131.5C525.53 122.17 518.32 115.9 510.92 115.05C505.8 114.46 500.71 114.72 495.6 114.71C493.14 114.71 492.29 116.17 492.3 118.45C492.33 123.25 492.4 128.05 492.26 132.84C492.18 135.81 491.69 136.19 488.79 135.93C486.87 135.76 484.99 135.72 483.06 135.99C479.41 136.49 479.21 136.37 477.69 132.87C475.53 127.88 473.37 122.89 471.38 117.83C470.48 115.54 469.01 114.75 466.65 114.63C463.56 114.48 461.96 116.01 460.87 118.63C458.9 123.35 456.86 128.04 454.79 132.72C454.22 134.01 453.68 135.78 452.01 135.69C448.3 135.5 444.7 136.15 441.05 136.55C439.42 136.73 438.6 135.9 439.41 134.18C439.82 133.31 440.36 132.5 440.68 131.6C443.78 122.95 439.29 115.99 430.16 115.55C425.05 115.3 419.93 115.4 414.81 115.52C411.5 115.6 410.92 116.22 410.81 119.54C410.68 123.53 410.81 127.54 410.75 131.53C410.67 136.04 410.52 136.11 406.12 135.81C402.39 135.56 398.65 135.47 394.92 136.38C397.67 136.3 400.29 136.83 402.91 137.36C406.17 138.01 406.69 138.61 406.37 141.86C406.15 144.09 405.97 146.31 406.04 148.56C406.12 151.26 407.97 151.47 410.02 151.57C412.15 151.67 413.4 150.9 413.44 148.62C413.47 146.7 413.52 144.78 413.6 142.87C413.7 140.48 415.07 139.54 417.35 139.48C419.58 139.42 421.43 139.92 422.66 141.98C423.72 143.76 424.93 145.46 426.04 147.22C429.19 152.18 430.23 152.58 436.53 150.98C435.15 147.85 433.02 145.27 431.18 142.53C428.75 138.91 429.41 137.44 433.82 137.3C437.33 137.19 440.86 137.35 444.37 137.57C447.84 137.79 448.29 138.61 446.86 141.79C445.81 144.12 444.51 146.34 443.51 148.7C442.56 150.96 443.05 151.66 445.35 151.88C448.51 152.19 449.78 151.66 451.19 148.21C452.56 144.85 454.68 143.59 458.19 143.95C460.57 144.19 462.99 144.16 465.38 144.01C468.52 143.81 470.63 144.83 471.43 148.08C471.69 149.15 472.22 150.19 472.82 151.12C473.73 152.5 477.38 153.35 478.95 152.43C481.09 151.17 479.4 149.58 478.93 148.27C478.01 145.72 476.78 143.28 475.8 140.75C475.12 138.99 475.75 137.95 477.77 138.04C480.17 138.15 482.57 138.17 484.96 138.39C487.65 138.64 488.1 139.28 487.95 142.15C487.85 144.06 487.58 145.97 487.59 147.89C487.59 152.25 487.94 152.62 492.13 152.75C495.65 152.86 499.17 152.86 502.68 152.86C510.99 152.86 517.11 149.31 520.6 141.61C520.8 141.17 520.94 140.7 521.2 140.31C522.36 138.61 525.46 138.05 528.23 138.82C530.46 139.44 530.63 141.1 530.63 142.94C530.63 145.5 530.59 148.06 530.63 150.61C530.66 152.51 531.63 153.52 533.61 153.59C535.61 153.66 537.04 153.17 537.35 150.88C537.71 148.18 538.08 145.5 537.93 142.76C537.86 141.5 537.86 140.16 539.31 139.47C542.39 138 546.8 139.55 547.99 142.69C550 147.99 553.8 151.44 558.95 153.41C568.15 156.93 579.96 153.34 584.06 143.55C585.31 140.57 587.13 139.33 590.26 139.55C594.56 139.84 598.88 139.94 603.18 140.24C605.67 140.41 606.39 141.21 605.46 143.18C602.86 148.7 601.43 154.64 599.08 160.25C598.14 162.49 596.68 163.45 594.32 163.43C586.97 163.36 579.63 164.07 572.31 164.22C551.38 164.64 530.44 164.13 509.52 165.33C508.55 165.39 507.5 165.18 506.22 165.98C509.23 166.93 511.72 167.56 514.09 168.48C551.73 183.06 574.55 225.02 563.08 264.32C558.62 279.62 550.43 291.75 536.58 299.88C534.21 301.27 531.8 302.59 529.07 302.9C518.96 304.04 509.32 308.58 498.82 307.06C496.77 306.76 495.29 308.77 495.68 310.86C495.85 311.77 496.42 312.61 496.79 313.49C499.63 320.32 497 327.17 490.31 330.36C488.42 331.26 486.44 331.87 484.39 332.27C483.23 332.5 482.16 332.97 481.9 334.22C481.1 338.14 478.76 341.16 476.29 344.12C475.77 344.75 475.32 345.83 476.22 346.19C479.54 347.52 482.2 351.43 486.64 348.69C488.58 347.5 490.94 347.8 493.19 348.36C501.85 350.54 506.61 357.69 505.3 366.87C504.32 373.74 501.15 378.97 493.97 380.78C491.63 381.37 490.52 382.6 490.18 385.02C489.72 388.32 488.01 391.39 485.27 392.97C477.81 397.27 469.82 399.63 461.67 394.83C459.08 393.3 457.65 393.54 455.42 395.29C449.18 400.19 440.56 399.52 434.88 394.05C431.95 391.23 431.18 391.23 428.13 393.82C421.5 399.45 414.14 402.16 405.51 399.1C400 397.15 396 393.73 395.79 387.39C395.7 384.57 394.02 383.66 391.85 383C391.13 383.95 391.59 384.79 391.42 385.54C390.67 388.89 391.46 391.63 393.84 394.25C395.55 396.14 396.29 398.81 396.29 401.4C396.29 413.32 393.24 422.97 380.88 426.52C380.73 426.56 380.58 426.64 380.43 426.68C378.63 427.18 377.4 428.21 376.58 429.97C374.13 435.23 369.91 437.46 364.15 436.97C362.39 436.82 360.65 436.75 358.99 436.07C357.66 435.52 356.45 435.55 355.79 437.08C354.08 441.03 350.68 442.63 346.79 443.46C345.13 443.81 343.83 444.41 343.09 446.09C341.16 450.45 337.35 452.33 333.04 453.45C329.09 454.47 325.12 454.46 321.18 453.4C318.85 452.77 316.93 452.68 315.44 455.19C314.06 457.52 311.56 458.51 308.96 458.86C303.27 459.61 297.56 460.35 291.84 460.83C287.35 461.2 283.15 460.01 280.12 456.5C278.36 454.46 276.5 453.99 273.91 453.86C265.94 453.46 260.58 449.37 259.72 441.57C258.99 434.89 256.47 429.38 252.97 423.99C252.28 422.92 251.78 421.72 251.25 420.56C248.27 414.11 248.39 408.14 254.11 403.15C255.38 402.04 255.72 400.91 255.05 399.36C253.79 396.47 252.79 393.51 253.78 390.33C252.45 390.21 252.01 390.71 251.56 391.14C244.49 397.76 230.36 394.6 228.22 383.91C227.72 381.42 226.3 379.6 224.19 378.2C219.96 375.4 217.56 371.41 216.59 366.45C216.27 364.83 216.17 362.99 214.39 361.76C213.62 363.52 214.78 364.72 214.96 366.05C216.03 373.64 211.31 379.24 203.64 379.38C200.53 379.44 197.65 378.8 194.91 377.25C191.42 375.27 188.13 373.02 184.94 370.61C181.24 367.82 178.48 364.35 177.58 359.74C176.98 356.69 175.42 354.88 172.35 354.3C171.42 354.13 170.5 353.77 169.65 353.33C157.55 347.1 144.85 342.23 132.44 336.71C120.03 331.19 107.51 325.91 95.0701 320.43C91.2701 318.75 87.8301 318.86 84.1001 320.86C73.8001 326.39 64.9701 333.67 57.6701 342.71C46.6501 356.36 38.7901 371.96 30.9301 387.52C29.4101 390.53 28.5901 393.87 28.8701 397.28C29.4101 403.89 27.9801 409.96 24.5401 415.62C23.2201 417.8 21.9401 420.14 22.1501 422.81C22.7601 430.47 20.7001 437.7 18.8301 444.99C17.8001 449.01 16.8001 453.09 17.6201 457.3C19.1501 465.19 19.4501 473.16 19.2001 481.17C19.0701 485.34 19.1301 489.5 20.2301 493.56C25.3501 512.48 35.5001 527.89 51.9301 538.9C52.8601 539.52 53.9301 540.47 54.9801 540.03C59.3101 538.22 64.2001 539.42 68.4801 537.2C72.7101 535 77.2801 535.03 81.3701 537.45C84.1301 539.08 86.7201 539.24 89.5901 538.52C91.7601 537.98 93.9401 537.48 96.0701 536.82C99.3701 535.8 99.4201 535.51 97.1801 532.81C86.1801 519.53 81.6301 504.46 84.5801 487.3C84.8501 485.73 85.0401 484.14 85.2101 482.55C85.9701 475.44 88.2001 468.85 92.0101 462.77C95.4201 457.32 99.2301 452.15 103.88 447.75C130.77 422.33 162.61 411.59 199.33 416.87C217.13 419.43 232.48 427.53 244.5 441.1C252.05 449.63 257.75 459.19 257.23 471.24C257.15 473.12 257.55 474.62 259.35 475.68C263.38 478.05 264.52 482.02 264.74 486.32C264.86 488.55 264.64 490.79 264.52 493.02C264.44 494.63 265.23 495.36 266.76 495.48C269.48 495.69 271.8 494.87 273.68 492.87C275.65 490.77 277.6 488.66 279.58 486.57C284.15 481.74 289.79 479.62 296.4 479.89C303.88 480.19 308.33 483.79 309.77 491.11C310.14 492.97 310.77 494.36 312.33 495.45C320.84 501.39 318.6 513.37 309.89 518.04C305.84 520.21 301.52 521.19 297.01 521.33C294.14 521.42 291.26 521.15 288.38 521.16C284.51 521.17 281.96 525.25 283.65 528.72C284.36 530.18 285.12 531.63 285.02 533.26C284.85 535.96 285.93 537.64 288.26 539.09C292.41 541.69 294.58 545.82 295.42 550.56C296.68 557.68 296.89 564.9 296.32 572.08C295.67 580.26 293.77 588.21 289.56 595.39C283.59 605.58 275.85 614.27 266.42 621.32C248.73 634.54 228.92 641.39 206.64 641.51C192.01 641.59 177.98 639.47 164.55 633.69C138.61 622.52 122.98 601.14 122.62 572.18C122.55 566.13 122.98 560.16 125.22 553.76L125.37 553.75ZM385.96 373.54C387.1 371.6 386.47 369.52 387.26 367.78C388.92 364.17 387.73 361.46 384.97 358.86C381.91 355.98 380.63 352.27 380.98 347.99C381.6 340.4 379.45 333.95 373.08 329.26C370.5 327.36 367.4 325.42 366.67 322.34C365.62 317.92 362.94 316.53 359.03 315.98C357.79 315.81 356.6 315.21 355.42 314.72C343.57 309.8 334.74 301.05 328.58 290.33C323.58 281.63 321.41 271.53 322.98 261.15C324.56 250.73 329.24 241.77 335.91 233.74C338.68 230.4 341.69 227.33 345.15 224.71C346.44 223.73 347.12 222.72 346.16 221.08C341.14 212.43 342.11 203.36 345.34 194.65C348.36 186.52 352.5 178.76 362.06 176.36C364.71 175.7 365.67 174.2 365.44 171.51C365.01 166.39 367.48 162.98 372.12 161.02C372.71 160.77 373.33 160.56 373.86 160.22C377.01 158.25 377.22 154.75 374.2 152.54C372.22 151.09 370.57 149.41 369.31 147.34C366.4 142.54 363.63 137.61 362.47 132.08C360.76 123.9 358.03 116.08 355.11 108.28C354.11 105.59 353.03 102.82 352.72 100.01C352.13 94.73 349.97 89.85 349.2 84.63C348.7 81.26 346.77 79.3 343.23 78.76C338.18 77.98 333.13 77.07 328.16 75.9C318.16 73.56 308.93 76.85 300.33 80.76C291.95 84.57 284.72 90.58 278.77 97.96C276.2 101.15 275.38 104.04 276.45 108.04C277.92 113.56 276.23 118.5 271.89 122.31C269.94 124.02 268.27 125.82 267.1 128.19C265.33 131.79 262.33 133.55 258.24 133.69C253.47 133.85 249.36 132.73 246.49 128.63C245.05 126.56 243.17 125.88 240.68 126.28C236.9 126.89 233.08 127.27 229.29 127.79C211.73 130.2 201.87 141.58 195.65 156.99C193.81 161.55 193.9 166.29 195.61 171.05C197.89 177.38 200.44 183.58 203.62 189.51C204.44 191.05 205.46 192.52 206.61 193.83C211.56 199.45 212.56 198.2 215.65 193.93C219 189.3 223.63 186.66 229.62 186.97C240.5 187.54 248.11 196.16 247.76 207.6C247.52 215.56 242.37 221.14 234.5 221.96C229.65 222.47 224.29 227.8 223.64 232.77C222.86 238.81 218.73 243.16 212.82 243.85C209.33 244.26 205.78 244.28 202.29 243.82C197.03 243.13 191.82 238.27 190.64 233.09C189.51 228.12 189.61 223.31 192.34 218.72C194.25 215.51 193.95 214.5 190.96 212.35C189.54 211.33 188 210.43 186.4 209.74C180.96 207.39 175.33 205.63 169.5 204.46C162.9 203.14 156.53 203.63 150.11 205.6C138.44 209.19 129.02 216.32 120.72 224.83C109.88 235.95 103.46 249.68 99.3601 264.54C97.6701 270.66 97.3001 276.8 99.2901 282.98C100.42 286.49 101.17 290.1 100.89 293.83C100.67 296.76 101.95 298.75 104.57 299.93C107.92 301.44 111.23 303.07 114.67 304.35C127.57 309.14 140.22 314.49 152.53 320.66C163.12 325.97 173.96 330.65 185.3 334.16C187.63 334.88 189.15 334.62 190.84 332.93C196.11 327.66 202.88 325.39 209.86 323.32C216.65 321.3 228.06 326.08 230.57 334.16C231.34 336.64 232.71 338.78 234.45 340.71C237.49 344.09 239.83 347.88 240.64 352.43C240.98 354.31 241.91 355.56 243.67 356.41C246.87 357.96 248.78 360.56 249.68 364.05C250.34 366.62 251.52 366.94 253.85 365.55C255.81 364.38 257.13 362.52 258.66 360.9C263.64 355.63 269.78 353.63 276.89 354.23C279.47 354.45 281.94 355.15 284.2 356.39C285.95 357.35 286.75 356.9 287.31 355.08C288.6 350.88 291.72 348.38 295.73 347.25C298.6 346.45 300.42 344.84 301.83 342.38C303.44 339.57 306.05 338.02 309.14 337.4C314.55 336.33 319.7 336.77 323.94 340.79C325.86 342.61 328.04 343.85 330.62 344.32C336.64 345.41 341.4 348.2 344.08 353.94C344.96 355.83 346.32 355.99 348 355.01C348.55 354.69 349.15 354.44 349.7 354.12C358.51 349 373.32 354.97 373.53 366.45C373.56 367.97 373.95 369.5 375.63 369.83C379.23 370.55 382.41 372.5 385.96 373.48V373.54ZM834.86 514.1C837.51 516.03 840.17 518.18 841.04 521.89C841.83 525.26 842.06 525.21 845.46 524.27C853.05 522.17 859.57 526.28 861.16 534.06C861.69 536.65 861.55 539.17 860.8 541.64C860.05 544.1 860.62 545.54 863.28 546.25C866.26 547.04 868.91 548.6 870.93 550.98C872.55 552.9 874.74 553.67 876.89 554.76C881.14 556.92 885.34 558.22 890.14 557.07C891.31 556.79 892.67 557.25 893.94 557.42C899.61 558.2 905.06 557.46 910.43 555.46C916.18 553.32 921.62 550.6 926.25 546.59C941.65 533.25 952.89 517.29 956.51 496.8C958.85 483.58 960.99 470.33 963.08 457.07C963.68 453.28 963.84 449.38 962.94 445.61C961.52 439.63 961.17 433.6 961.48 427.51C961.66 423.94 961.07 420.53 959.92 417.15C958.22 412.15 956.66 407.06 956.46 401.75C956.02 390.19 951.51 380.05 945.79 370.31C944.33 367.82 943.16 365.2 941.93 362.6C932.87 343.39 921.58 325.68 906.6 310.46C901.66 305.44 896.37 300.82 891.17 296.08C879.82 285.74 866.84 278.57 851.59 275.82C848.08 275.19 847.92 275.09 846.92 278.68C844.11 288.71 838.35 296.42 829.41 301.77C828.18 302.51 827.03 303.39 825.82 304.16C818.15 309.03 810.41 310.17 802.71 304.32C800.65 302.75 799.25 302.99 797.33 304.67C791.88 309.44 785.74 313.09 778.91 315.68C774.51 317.35 769.93 317.92 765.38 318.69C762.02 319.26 759.33 320.88 756.21 323.49C762.32 323.65 767.59 323.16 772.82 323.89C804.78 328.38 830.7 343.91 850.87 368.56C869.74 391.62 879.46 418.18 877.23 448.48C876.54 457.84 874.48 466.81 870.42 475.27C862.95 490.86 851.43 502.76 836.83 511.82C836.04 512.31 835.02 512.58 834.86 514.1ZM700.57 480.73C701.85 479.82 701.85 478.27 702.31 476.97C704.07 471.88 707.53 468.43 712.74 467.32C722.53 465.24 731.58 466.32 738.18 474.99C739.28 476.43 740.48 476.7 742.24 476.79C745.97 476.99 749.05 475.7 752.14 473.89C758.32 470.26 764.76 469.65 771.41 472.67C773.01 473.4 774.63 474.1 776.3 474.64C782.03 476.48 786.51 479.82 789.38 485.2C790.76 487.79 793.01 489.2 795.84 489.68C799.62 490.32 803.4 490.93 807.19 491.49C812.58 492.29 818.08 492.95 822.57 496.33C824.95 498.13 826.87 497.89 829.05 496.33C835.57 491.67 841.86 486.75 846.95 480.48C858.84 465.83 861.52 448.75 859.34 430.71C855.52 399.14 838.66 375.52 813.2 357.6C799.63 348.04 784.29 342.94 767.82 340.73C755.31 339.05 743.67 341.04 732.47 346.57C730.23 347.67 728.54 349.12 727.58 351.54C725.69 356.28 724.14 361.18 721.59 365.65C721 366.69 720.98 367.78 721.29 368.9C722.05 371.62 721.66 374.3 720.87 376.93C719.98 379.88 719.76 382.88 719.86 385.94C719.93 388.17 719.93 390.43 719.75 392.65C718.99 401.82 711.98 407.35 702.86 406C699.67 405.53 696.69 404.46 693.9 402.77C690.42 400.67 687.65 397.79 684.93 394.87C682.5 392.27 679.73 390.71 676.08 390.87C674.14 390.95 672.22 390.69 670.5 389.72C667.56 388.06 664.57 388 661.25 388.58C652.85 390.05 645.61 385 643.72 376.74C643.44 375.49 643.25 374.23 643.02 372.97C642.15 368.19 635.51 363.26 630.91 364.53C623.05 366.71 615.37 369.47 608.13 373.31C606.22 374.32 605.79 375.56 606.87 377.6C610.68 384.74 612.42 392.55 613.9 400.42C614.26 402.32 614.58 404.29 614.1 406.14C613.11 409.96 614.14 413.42 615.59 416.84C616.78 419.63 618.08 422.38 619.31 425.15C621.25 429.53 623.49 433.8 624.72 438.46C626.81 446.42 623.96 451.94 616.38 454.9C615.49 455.25 614.56 455.51 613.66 455.85C612.78 456.18 611.59 456.32 611.5 457.46C611.39 458.91 612.73 459.25 613.75 459.5C617.82 460.49 621.65 462.06 625.37 463.94C630.77 466.68 630.78 466.65 631.78 460.76C633.4 451.2 641.47 445.94 650.82 448.41C653.63 449.15 656.29 450.31 658.54 452.14C660.39 453.64 662.37 454.32 664.71 454.29C665.98 454.28 667.26 454.46 668.52 454.64C675.29 455.63 680.18 458.94 681.85 465.91C682.42 468.29 683.65 469.22 686.08 469.58C691.96 470.45 696.49 473.46 699.06 479.03C699.37 479.71 699.52 480.59 700.57 480.71V480.73ZM279.08 565.44C279.08 562.72 279.26 559.99 279.04 557.29C278.73 553.51 277.71 552.39 274.03 552.18C267.22 551.79 261.95 548.52 257.18 543.98C254.16 541.1 251.6 537.82 248.88 534.69C246.61 532.08 243.93 531.38 240.69 532.5C238.42 533.28 236.17 534.14 233.86 534.75C226.47 536.69 219.32 536.13 212.43 532.64C209.3 531.05 207.34 528.66 207.33 525.14C207.33 522.42 206.33 520.89 203.88 519.53C197.24 515.83 195.93 509.16 200.13 502.79C202.48 499.22 206.07 497.48 209.87 496.18C217.6 493.52 223.28 488.06 228.27 482.07C230.94 478.87 233.51 475.73 236.74 473.09C240.31 470.17 240.36 469.16 238.52 464.8C232.68 450.93 221.77 442.39 208.35 436.92C198.16 432.76 187.44 431.88 176.38 432.92C157.26 434.72 139.96 440.97 124.6 452.45C114.24 460.19 106.28 469.79 102.76 482.52C98.8801 496.56 101.47 509.44 110.27 521C113.66 525.45 115.84 526.02 121.09 524.32C125.5 522.89 129.8 521.12 134.58 521.3C136.19 521.36 137.1 520.32 137.94 519C142.14 512.37 146.21 510.59 153.59 512.44C155.65 512.95 156.76 512.42 158.14 511C161.22 507.83 165.13 506.55 169.52 507.21C174.61 507.97 178.94 510.24 182.25 514.24C186.59 519.49 188.66 525.67 188.96 532.37C189.25 538.69 185.51 544.29 180.09 546.5C177.78 547.44 175.38 547.45 173 547.29C169.73 547.07 167.21 547.96 165.05 550.63C162.28 554.05 158.47 556.1 154.28 557.52C151.35 558.52 148.36 558.71 145.32 558.88C141.92 559.07 141.21 560.02 141.59 563.47C141.73 564.75 141.84 565.98 141.67 567.27C138.94 587.56 146.7 602.93 163.99 613.42C180.01 623.14 197.55 626.14 216.08 624.11C236.82 621.84 253.7 612.22 267.32 596.81C275.13 587.97 280.48 577.88 279.07 565.45L279.08 565.44ZM478.74 299.87C477.44 298.04 475.43 297.28 473.89 295.99C469.14 292 467.31 285.9 469.37 279.95C471.28 274.41 475.4 271.4 481.13 270.75C487.5 270.03 492.24 272.71 495.29 278.43C496.57 280.83 497.95 283.17 499.15 285.61C500.84 289.04 503.41 290.45 507.29 290.05C515.35 289.21 523.03 287.19 530.02 283.05C536.4 279.27 541 273.87 543.92 267.02C548.46 256.37 549.12 245.23 547.31 234.05C543.95 213.3 532.47 197.99 514.42 187.55C505.55 182.42 495.92 179.41 485.6 179.83C476.29 180.21 467.63 182.54 461.2 190.17C458.74 193.08 455.97 195.76 452.88 198.1C449.85 200.38 449.94 201.26 453.62 202.9C458.64 205.13 461.71 209.02 463.75 213.89C464.81 216.41 465.38 219.07 465.47 221.82C465.53 223.44 465.55 225.11 467.06 226.13C471.63 229.22 473.3 234.02 474.91 238.94C477.11 245.68 475.93 251.53 470.74 256.43C469.54 257.56 468.71 258.59 468.78 260.49C469.07 268.26 465.23 273.1 457.76 275.01C454.76 275.77 451.74 275.7 448.7 275.67C444.06 275.63 439.5 275.66 435.04 277.49C430.61 279.31 426.11 278.12 422.03 276.21C415.4 273.1 413.57 265.76 417.53 259.59C419.11 257.13 420.97 254.93 423.83 253.92C426.15 253.1 427.24 251.55 426.73 249.14C426.24 246.8 424.18 246.87 422.49 247.01C415.82 247.56 410.8 244.5 406.34 240.03C405.66 239.35 404.96 238.7 404.26 238.04C402.01 235.91 399.5 235.28 396.34 235.82C390.52 236.81 384.64 237.33 378.7 237.36C373.07 237.38 367.54 236.69 361.99 236.1C359.96 235.88 358.19 236.03 356.6 237.37C349.25 243.62 343.4 250.89 341.23 260.53C340.47 263.93 339.75 267.36 340.45 270.96C342.77 282.92 350.2 291.15 359.76 297.87C360.15 298.14 360.61 298.31 361.04 298.52C363.9 299.91 366.62 299.74 369.12 297.71C370.86 296.3 372.53 294.81 374.27 293.4C378.22 290.21 382.75 289.01 387.75 289.82C394.05 290.85 397.94 294.98 398.43 300.98C399.07 308.82 396.35 313.45 389.84 315.73C388.61 316.16 387.01 315.97 386.11 317.77C389.84 319 392.02 321.73 394.27 325.03C399.06 320.48 404.74 318.74 410.95 318.29C413.22 318.13 415.15 316.83 417.1 315.73C418.71 314.82 419.31 313.58 419 311.76C417.99 305.8 420.21 301.06 424.85 297.47C426.74 296.01 427.32 294.47 427 292.15C426.39 287.63 427.94 283.81 431.95 281.53C436.35 279.04 441.19 278.16 445.57 281.32C453.83 287.27 463.68 290.98 470.45 299.06C472.67 301.71 475.53 302.02 478.72 299.87H478.74ZM835.74 578.34C835.38 577.83 835.26 577.48 835.02 577.33C823.83 570.56 814.49 561.58 805.72 552.06C799.32 545.11 793.44 537.44 790.24 528.58C788.27 523.13 784.98 521.18 780.23 519.94C779.61 519.78 779.01 519.57 778.41 519.34C772.61 517.16 767.39 519.56 762.2 521.57C758.18 523.13 757.18 527.09 755.81 530.67C753.36 537.09 751.23 543.62 748.23 549.83C747.35 551.65 744.85 553.05 745.62 555.19C746.31 557.13 748.9 557.54 750.58 558.73C755.04 561.87 759.75 564.85 761.73 570.23C762.82 573.18 764.52 574.08 767.46 573.98C771.33 573.84 774.51 575.65 777.35 578.18C782.18 582.49 783.52 587.97 783.24 594.2C782.96 600.39 780.35 605.13 774.67 607.48C769.08 609.79 763.41 609.53 758.36 605.58C757.1 604.6 755.91 603.52 754.63 602.58C750.2 599.34 745.6 599.53 741.22 602.47C737.29 605.11 734.47 608.71 733.16 613.43C731.31 620.1 732.42 626.44 735.07 632.6C742.09 648.94 756.3 657.67 775.07 657.73C790.26 657.78 797.42 650.06 801.75 636.34C802.64 633.51 801.78 631.36 799.28 629.77C797.26 628.49 795.23 627.19 793.31 625.77C785.94 620.29 785.58 610.75 792.63 604.86C794.38 603.4 795.3 601.92 795.34 599.63C795.43 593.98 798.47 590.07 803.12 587.24C807.92 584.33 813.03 583.7 818.3 585.67C821.04 586.69 823.2 586.32 825.19 584.14C826.95 582.21 829.3 581.18 831.76 580.34C833.07 579.89 834.65 579.89 835.73 578.32L835.74 578.34ZM772.93 675.05C774.03 676.95 775.46 676.89 776.58 677.34C782.53 679.71 788.29 682.47 793.74 685.83C799.42 689.34 805.26 689.43 810.81 686C818.59 681.19 826.25 681.46 833.95 685.74C841.59 689.98 846.43 696.49 848.87 704.88C849.9 708.44 850.07 708.41 853.56 707.65C860.5 706.14 866.29 702.59 871.19 697.57C881.92 686.57 888.19 673.62 887.51 658C887.08 648.12 883.31 639.67 874.72 634.03C870.18 631.05 865.5 628.29 860.9 625.41C859.72 624.67 858.54 624.33 857.36 625.28C852.44 629.22 846.78 629.35 840.95 628.46C839.45 628.23 838.11 628.33 836.84 629.18C832.39 632.15 827.6 632.44 822.62 630.89C820.45 630.21 819.63 631.11 819.62 633.17C819.62 633.97 819.67 634.78 819.57 635.57C817.55 651.87 809.43 663.91 794.43 670.93C787.84 674.02 780.73 675.03 772.94 675.06L772.93 675.05ZM363.24 577.01C353.04 576.98 345.77 577.99 338.81 580.55C326.75 584.98 318.62 593.75 313.09 605.03C308.73 613.94 306.6 623.35 308.13 633.36C309.59 642.9 314.37 650.01 323.31 654C326.96 655.63 330.79 656.8 334.69 657.71C338.58 658.63 338.66 658.66 340.52 654.93C342.57 650.82 345.6 647.9 350.15 647.04C352.36 646.62 353.41 645.5 354.16 643.53C355.57 639.81 358.58 637.77 362.21 636.54C364.82 635.66 367.55 635.19 370.24 635.59C373.54 636.09 376.14 635.59 377.88 632.4C378.3 631.64 379.28 630.88 380.13 630.71C384.84 629.77 386.85 627.13 387.11 622.22C387.3 618.75 388.21 611.98 387.81 608.81C387.5 606.38 386.31 604.63 384.5 603.21C382.99 602.03 381.35 601.03 379.81 599.89C374.79 596.16 370.99 591.76 370.11 585.15C369.02 576.96 368.79 576.99 363.24 577.02V577.01ZM635.39 796.83C635.94 804.54 638.19 811.3 644.59 816.14C648.3 818.94 652.17 821.44 656.26 823.65C660.22 825.79 663.89 826.23 667.99 823.74C672.37 821.08 677.1 821.21 681.77 823.4C685.44 825.12 686.56 824.61 687.71 820.69C688.02 819.63 687.99 818.48 688.13 817.38C688.59 813.79 689.78 810.45 692.5 808.02C694.72 806.03 695.19 804.29 693.86 801.45C691.62 796.65 692.8 792.09 696.16 788.08C696.98 787.1 697.9 786.2 698.81 785.32C700.82 783.37 701.52 781.14 700.7 778.36C699.84 775.44 698.88 772.55 697.45 769.88C695.7 766.61 693.05 764.68 688.82 765.59C681.86 767.08 675.49 765.6 670.29 760.38C668.86 758.94 667.18 757.88 665.17 759.09C662.89 760.47 664.62 762.22 665.09 763.74C665.89 766.36 666.36 769.04 666.58 771.73C666.94 776.04 665.38 779.55 661.46 781.77C657.31 784.12 651.45 784.02 648.32 781.57C644.48 778.56 643.91 778.56 640.71 782.35C637.17 786.54 635.66 791.51 635.38 796.84L635.39 796.83ZM653.73 536.28C659.51 534.72 664.9 536.82 670.34 538.58C671.72 539.03 673.12 539.4 674.57 539.09C678.64 538.21 682.52 539.15 686.31 540.44C689.65 541.58 693.03 542.41 696.55 542.76C703.71 543.47 710.85 544.32 717.19 548.19C718.61 549.06 719.62 548.36 720.41 547.19C721.75 545.21 723.12 543.24 724.37 541.21C728.84 533.98 732.42 526.34 734.65 518.11C735.91 513.44 734.27 511.45 729.47 511.92C727.74 512.09 726.03 512.61 724.33 513.05C719.6 514.26 715.05 513.85 711.06 510.99C708.96 509.49 707.33 509.7 705.46 511.07C703.72 512.34 701.7 512.87 699.58 512.75C696.43 512.57 693.74 513.54 690.99 515.07C682.31 519.9 675.16 517.33 671.33 508.26C670.91 507.28 670.81 505.87 669.32 505.98C668.06 506.07 667.46 507.18 667.12 508.26C664.44 516.75 659.26 523.91 654.86 531.49C654.11 532.79 652.84 534.04 653.73 536.3V536.28ZM478.58 592.31C476.94 588.5 476.1 584.9 477.43 581.27C478.3 578.91 477.67 577.68 475.34 576.97C471.7 575.86 469.52 573.16 468.03 569.83C467.11 567.79 466.2 565.74 465.48 563.63C464.6 561.04 463.05 559.61 460.19 559.78C459.08 559.85 457.94 559.79 456.84 559.62C451.04 558.69 446.16 556.29 443.43 550.75C440.84 545.51 440.68 545.39 435.09 546.92C434.78 547 434.47 547.06 434.16 547.14C429.9 548.2 429.76 548.35 429.06 552.78C428.38 557.04 427.72 561.3 427.01 565.55C426.39 569.28 426.39 569.24 429.96 570.51C436.14 572.71 440.61 576.37 440.7 583.57C440.72 585.39 441.55 586.57 443.16 587.31C445.99 588.6 448.12 590.77 450.24 592.95C451.7 594.44 453.31 595.7 455.07 596.85C457.26 598.28 458.88 598.39 460.88 596.31C464.02 593.04 468.15 591.86 472.67 591.93C474.4 591.96 476.05 592.84 478.57 592.3L478.58 592.31ZM446.7 94.31C444.82 90.41 441.94 87.98 439.91 84.94C438.42 82.71 438.89 81.81 441.63 81.76C444.66 81.7 447.7 81.86 450.74 81.97C452.84 82.05 453.96 83.19 454.01 85.3C454.05 87.22 453.98 89.14 454.06 91.06C454.2 94.25 454.71 94.68 457.77 94.45C460.69 94.23 461.24 93.67 461.46 90.6C461.72 87.07 460.43 83.18 463.96 80.42C464.25 80.19 464.28 79.52 464.28 79.05C464.32 71.69 464.34 64.34 464.34 56.98C464.34 55.79 463.83 54.83 462.65 54.33C459.72 53.08 457.14 54.58 456.91 57.73C456.83 58.84 456.9 59.97 456.9 61.09C456.9 66.21 456.97 71.33 456.87 76.44C456.79 80.35 456.31 80.72 452.34 80.89C446.66 81.1367 442 79.0133 438.36 74.52C437.86 73.9 437.28 73.34 436.79 72.71C434.59 69.89 434.61 69.4 437.16 66.63C438.02 65.69 438.95 64.8 439.85 63.89C442.82 60.87 445.8 57.85 448.98 54.61C442.7 53.54 440.53 53.74 438.55 55.87C434.97 59.73 431.5 63.7 427.99 67.63C427.38 68.31 427 69.34 425.61 69.13C424.99 68.67 424.96 67.86 424.96 67.08C424.94 64.04 425.02 61 424.94 57.97C424.85 54.7 423.87 53.89 420.44 54.03C417.59 54.14 417.34 54.54 417.39 58.04C417.47 63.96 417.52 69.87 417.48 75.79C417.45 80.33 417.38 80.32 412.28 81.4C414.68 82.72 414.65 84.77 414.64 86.83C414.64 88.59 414.64 90.35 414.69 92.11C414.73 93.61 415.43 94.39 417.03 94.53C420.99 94.87 422.55 93.66 421.93 89.09C421.14 83.31 424.81 80.02 427.86 76.28C428.84 75.07 430.12 75.18 431.12 76.44C431.81 77.31 432.47 78.23 433.02 79.2C433.71 80.42 433.54 81.36 431.91 81.55C431.17 81.63 430.29 81.32 429.71 82.64C431.39 84.9 433.43 87.16 434.91 89.75C437.57 94.39 441.52 95.17 446.73 94.33L446.7 94.31ZM467.85 81.57C470.98 81.96 471.76 84.25 472.97 86.2C479.26 96.3 494.31 98.49 503.05 90.56C506.77 87.18 509.21 82.77 511.1 78.3C514.11 71.19 511.61 62.57 505.96 57.82C499.59 52.46 490.19 51.64 482.61 55.78C475.72 59.55 472.22 66.98 473.28 75.22C473.52 77.06 475.26 79.04 473.9 80.65C472.59 82.2 470.23 80.26 467.85 81.57ZM441.23 608.88C440.33 610.38 440.59 611.52 440.62 612.62C440.84 621.61 437.52 628.48 428.94 632.2C427.54 632.81 426.44 633.63 426.19 635.24C425.77 637.93 424.16 639.77 422.19 641.54C419.49 643.97 420.12 647.73 423.36 649.43C425.07 650.33 426.96 650.65 428.91 650.73C443.6 651.31 454.64 638.82 452.53 624.17C451.5 617.04 448.63 611.49 441.24 608.88H441.23ZM295.58 808.57C295.48 814.91 296.56 816.14 302.79 816.75C303.42 816.81 304.06 816.86 304.7 816.88C309.69 817.08 310.42 816.79 312.32 812.21C314.57 806.8 318.64 804.06 324.23 803.03C326.5 802.61 328.66 803.03 330.88 803.19C334.1 803.43 335.01 802.4 334.24 799.29C333.59 796.65 332.77 794.08 333.06 791.3C333.57 786.39 333.51 786.62 328.34 785.99C325.5 785.64 323.56 786.26 321.56 788.24C319.6 790.18 316.94 791.01 314.11 791C312.04 790.99 309.96 791 307.89 791.03C306.6 791.04 305.15 791.03 304.3 792.05C300.21 796.92 295.72 801.61 295.59 808.57H295.58ZM515.67 81.87C520.28 81.87 524.89 81.84 529.5 81.89C530.92 81.91 532.38 82 533.76 82.32C535.07 82.62 536.05 83.55 536.14 84.99C536.25 86.69 535.17 87.64 533.7 88.11C532.8 88.4 531.83 88.48 530.88 88.54C527.77 88.72 524.91 87.96 522.15 86.5C519.57 85.14 517.45 85.85 516.32 88.39C515.09 91.15 517.7 91.51 519.18 92.38C523.62 94.98 528.48 95.65 533.52 95.04C538.84 94.4 542.42 91.16 543.51 86.17C543.93 84.25 543.42 81.99 546.11 81.02C547.12 80.65 546.9 79.01 546.62 77.93C545.8 74.68 544.16 72 540.85 70.8C538.3 69.88 535.69 69.14 533.11 68.32C531.74 67.89 530.35 67.52 529.01 67.01C527.74 66.52 526.89 65.56 526.83 64.13C526.76 62.52 527.59 61.4 528.99 60.7C530.46 59.96 532.03 59.79 533.65 60.09C535.55 60.44 537.31 61.17 539.08 61.92C541.59 62.99 543.03 62.3 544.31 59.68C545.43 57.4 543.89 56.39 542.28 55.6C536.55 52.8 530.75 52.12 524.79 55.06C521.07 56.9 519.41 59.95 519.29 63.89C519.16 68.06 520.76 71.29 524.74 73.17C527.07 74.27 529.51 74.95 531.97 75.66C533.5 76.1 535.05 76.54 536.49 77.18C537.81 77.77 539.37 78.71 538.93 80.31C538.41 82.21 536.56 81.33 535.22 81.27C528.71 80.97 522.21 80.4 515.68 81.87H515.67ZM464.9 166.57C463.86 166.42 463.39 166.3 462.93 166.3C448.39 166.31 433.85 166.33 419.3 166.37C418.19 166.37 417.06 166.47 415.98 166.7C414.98 166.91 414.33 167.57 414.26 168.71C414.13 171.11 415.94 174.09 418.33 175.07C420.88 176.11 423.75 177.14 424.89 179.62C426.6 183.35 429.24 184.78 433.06 184.75C433.37 184.75 433.73 184.85 433.97 185.02C437.73 187.73 440.53 185.54 443.18 183.12C444.59 181.84 445.88 180.39 447.03 178.87C450.5 174.26 455.07 171.18 460.27 168.87C461.68 168.24 463.37 168.19 464.9 166.57ZM376.67 213.19C376.67 213.32 376.67 213.45 376.67 213.57C380.01 213.57 383.35 213.52 386.69 213.58C390.16 213.64 391.59 211.93 390.46 208.48C389.21 204.65 389.1 200.97 390.95 197.37C392.04 195.26 390.78 194.47 389.21 193.78C388.28 193.38 387.34 193.59 386.42 193.92C381.23 195.78 376.22 195.61 371.18 193.13C368.2 191.67 366.51 192.35 364.75 195.17C362.25 199.17 360.9 203.56 360.93 208.29C360.95 212.19 361.87 213.09 365.69 213.15C369.35 213.21 373.01 213.16 376.67 213.16V213.19ZM694.9 316.24C694.33 316.85 694.49 317.31 694.6 317.77C697.41 329.35 691.79 336.76 679.85 337.12C677.39 337.19 675.08 337.61 673.04 339.01C670.43 340.8 670.32 342.8 672.8 344.72C677.98 348.73 683.42 352.32 689.45 354.96C690.82 355.56 691.85 355.72 692.7 354.29C695.2 350.04 698.37 346.16 699.59 341.23C700.89 335.97 702.2 330.71 703.61 325.48C704.1 323.68 703.66 322.35 702.18 321.32C699.74 319.61 697.29 317.92 694.89 316.25L694.9 316.24ZM563.72 454.86C572.98 455.27 580.89 457.19 588.85 458.82C592.55 459.58 592.56 459.51 593.25 455.99C593.49 454.74 593.8 453.49 593.98 452.23C594.35 449.63 597.35 447.79 596.88 445.38C596.39 442.86 593.93 440.96 592.96 438.35C591.75 435.11 591.07 434.94 588.1 437.14C583.73 440.38 579.04 443.13 574.56 446.19C571.06 448.58 567.46 450.92 563.73 454.86H563.72ZM832.71 716.93C832.46 715.2 832.05 713.47 831.98 711.74C831.79 707.02 829.29 703.69 825.76 700.97C823.23 699.02 821.83 698.84 819.34 700.83C815.94 703.55 812.25 704.78 807.89 704.77C804.32 704.77 803.43 706.78 805.53 709.75C807.71 712.82 810.68 715.12 814.38 715.84C817.7 716.48 820.8 717.65 823.96 718.7C825.62 719.25 827.26 719.91 828.97 720.27C831.65 720.83 832.79 719.73 832.72 716.94L832.71 716.93ZM827.39 271.99C826.92 272.08 826.12 272.18 825.36 272.4C820.6 273.75 815.96 275.44 811.46 277.49C808.65 278.77 806.71 281.19 804.8 283.54C804.18 284.31 803.72 285.48 804.77 286.04C807.86 287.66 811.05 289.1 814.26 290.5C814.71 290.7 815.57 290.41 816.04 290.07C821.52 285.99 827.34 282.21 829.8 275.3C830.69 272.82 830.17 271.97 827.38 272.01L827.39 271.99ZM322.6 430.31C324.24 425.66 326.56 422.97 330.13 421.51C331.06 421.13 331.9 420.44 331.83 419.41C331.56 415.76 332.87 412.44 334.17 409.08C332.12 408.59 330.64 409.25 329.14 409.66C327.8 410.03 326.88 410.75 327.01 412.35C327.35 416.59 325.27 419.7 322.07 422.08C320.13 423.53 319.84 424.95 321.07 426.91C321.48 427.57 321.72 428.33 322.61 430.3L322.6 430.31ZM677.82 138.89C675.23 139.82 674.11 141.34 673.08 142.87C669.62 148.02 670.28 150.98 675.5 154.2C676.18 154.62 676.84 155.19 677.59 154.51C678.31 153.85 677.93 153.03 677.62 152.32C675.79 148.17 676.14 144 677.82 138.89ZM322.22 370.28C324.78 370.85 326.56 372.16 328.6 370.49C330.83 368.67 330.95 366.22 328.82 362.94C328.37 362.25 327.86 361.64 326.96 361.73C326.05 361.82 325.58 362.51 325.5 363.33C325.26 365.77 323.8 367.67 322.22 370.27V370.28ZM410.57 620.58C413.43 618.03 416.46 617.13 419.62 616.61C421.78 616.26 423.07 615.1 423.46 612.94C423.61 612.12 423.58 611.3 422.83 610.78C421.92 610.15 420.94 610.23 420.27 611.1C418.21 613.75 415.4 615.13 412.3 616.12C410.6 616.67 409.61 617.75 410.57 620.57V620.58ZM593.75 107.34C589.45 106.72 559.55 107.86 556.16 108.74C569.33 108.63 581.6 109.11 593.75 107.34ZM403.79 683.89C405.32 681.13 405.1 678.91 404.95 676.76C404.8 674.73 403.72 674.41 402.05 675.48C400.64 676.39 399.16 677.2 397.22 678.34C400.1 679.51 401.99 681.12 403.79 683.89ZM572.67 405.45C577.62 404.69 578.38 403.71 577.24 399.54C576.99 398.63 576.75 397.71 576.44 396.82C576.23 396.21 575.79 395.68 575.09 395.73C574.34 395.78 574.1 396.45 574 397.08C573.54 399.87 573.11 402.67 572.67 405.45ZM406.46 356.61C405.38 356.66 404.63 357.17 404.78 358.36C404.94 359.62 405.2 361.1 406.68 361.35C408.07 361.58 408.53 360.4 408.61 359.19C408.71 357.69 408.08 356.76 406.46 356.61ZM489.63 612.45C491.42 611.92 492.64 611.62 493.82 611.19C494.68 610.87 494.97 610.11 494.68 609.26C494.3 608.14 493.32 607.89 492.37 608.23C490.75 608.8 489.92 610.08 489.63 612.45ZM376.74 403.6C375.72 403.68 374.91 404.01 374.79 405.19C374.64 406.63 375.93 408.51 376.97 408.28C378.28 407.98 378.45 406.77 378.62 405.72C378.85 404.35 378.01 403.74 376.74 403.61V403.6ZM419.45 345.74C420.82 344.01 421.9 342.3 422.51 340.06C417.28 341.11 416.99 341.68 419.45 345.74Z" fill="#EDF2D4"/>
<path d="M571.06 121.07C577.8 121.14 583.09 126.7 582.62 133.12C582.46 135.26 581.66 136.3 579.31 136.05C573.74 135.45 568.17 135.34 562.61 136.24C560.33 136.61 559.47 135.41 559.27 133.28C558.63 126.68 564.09 121 571.07 121.08L571.06 121.07Z" fill="#EDF2D4"/>
<path d="M499.92 128.54C499.9 121.52 501 120.54 507.95 121.42C514.15 122.21 518.19 126 518.82 131.64C519.21 135.13 518.21 136.27 514.62 135.92C511.41 135.61 508.34 136.66 505.14 136.55C500.36 136.38 500.04 136.19 499.92 131.39C499.9 130.44 499.92 129.48 499.92 128.53V128.54Z" fill="#EDF2D4"/>
<path d="M424.64 132.58C418.51 132.78 418.23 132.5 418.35 126.36C418.44 122.05 418.97 121.46 423.33 121.3C425.39 121.22 427.47 121.13 429.49 121.69C432.61 122.57 434.37 124.7 434.22 127.42C434.07 130.26 432.23 132.11 428.92 132.54C427.52 132.72 426.07 132.57 424.64 132.57V132.58Z" fill="#EDF2D4"/>
<path d="M565.97 139.5C568.68 139.5 571.4 139.45 574.11 139.52C575.2 139.55 576.49 139.63 576.87 140.94C577.22 142.15 576.44 143.16 575.58 143.85C569.71 148.56 563.52 149.5 557.52 143.92C556.58 143.05 555.58 141.97 556 140.61C556.47 139.07 558.04 139.35 559.28 139.32C561.51 139.26 563.75 139.3 565.98 139.3C565.98 139.36 565.98 139.43 565.98 139.49L565.97 139.5Z" fill="#EDF2D4"/>
<path d="M504.46 138.6C506.69 138.6 508.94 138.42 511.14 138.65C513 138.85 513.47 140.2 512.41 141.75C511.49 143.1 510.15 143.96 508.68 144.64C505.7 146.03 502.54 146.25 499.33 146.17C495.97 146.08 495.28 145.42 495.28 142.35C495.28 139.27 496.04 138.45 499.21 138.34C500.96 138.27 502.72 138.33 504.47 138.33C504.47 138.42 504.47 138.51 504.47 138.59L504.46 138.6Z" fill="#EDF2D4"/>
<path d="M465.74 136.61C465.26 136.61 464.79 136.63 464.31 136.61C461.55 136.5 461.03 135.94 461.9 133.51C462.81 130.97 463.88 128.47 465.06 126.05C465.86 124.41 466.94 124.44 467.74 126.13C468.77 128.28 469.66 130.51 470.4 132.77C471.39 135.77 470.96 136.28 467.64 136.53C467.01 136.58 466.37 136.53 465.73 136.53V136.62L465.74 136.61Z" fill="#EDF2D4"/>
<path d="M492.15 80.91C491.03 80.91 489.91 80.91 488.79 80.91C483.63 80.87 482.1 79.58 481.08 74.42C480.15 69.7 482.42 64.34 486.37 61.92C490.63 59.32 496.5 59.72 500.31 62.89C504.15 66.08 505.64 71.72 503.87 76.38C502.54 79.87 501.28 80.77 497.42 80.89C495.66 80.94 493.9 80.89 492.14 80.89L492.15 80.91Z" fill="#EDF2D4"/>
<path d="M489.72 81.9801C492.26 81.9801 494.82 81.83 497.35 82.03C499.33 82.18 499.71 83.4201 498.44 84.9401C494.65 89.5001 485.1 89.6001 481.2 85.1101C480.58 84.3901 479.91 83.6001 480.47 82.5701C480.91 81.7701 481.79 81.78 482.57 81.77C484.95 81.74 487.34 81.77 489.72 81.77V82.0001V81.9801Z" fill="#EDF2D4"/>
</g>
<defs>
<clipPath id="clip0_64_2">
<rect width="981.11" height="949.61" fill="white"/>
</clipPath>
</defs>
</svg>
