<?xml version="1.0" encoding="UTF-8"?>
<svg id="Layer_1" data-name="Layer 1" xmlns="http://www.w3.org/2000/svg" viewBox="0 0 540.35 259.26">
  <defs>
    <style>
      .cls-1 {
        fill: #4c4c4c;
      }
    </style>
  </defs>
  <path class="cls-1" d="m452.84,193.22c-.89-3.13-3.16-4.91-5.13-6.88-35.94-35.94-71.91-71.85-107.83-107.8-5.3-5.31-4.9-3.84.19-8.95,12.81-12.86,25.73-25.61,38.46-38.56,2.36-2.4,3.69-2.78,6.28-.18,49.65,49.8,99.43,99.48,149.11,149.24,8.46,8.47,8.6,18.94.24,27.5-14.09,14.42-28.3,28.72-42.71,42.83-6.02,5.9-13.54,8.84-22.15,8.84-68.16-.03-136.33-.02-204.49,0-12.69,0-23.2-4.87-32.08-13.79-23.88-23.96-47.91-47.78-71.72-71.81-7.73-7.81-16.77-11.47-27.72-11.44-42.83.12-85.66,0-128.49.14-3.57.01-4.82-.6-4.81-4.54C.15,106.66.14,55.5.04,4.34.03.98,1.04.19,4.23.19c54.66.1,109.34-.7,163.99.38,34.88.69,64.65,15.3,89.32,40.06,17.53,17.59,35.05,35.18,52.72,52.63,2.54,2.51,3.03,3.84.18,6.62-13.47,13.15-26.76,26.5-39.92,39.97-2.7,2.76-4.08,2.52-6.67-.11-17.67-17.92-35.5-35.66-53.3-53.45-13.88-13.87-30.67-20.76-50.27-20.79-28.83-.05-57.66-.05-86.5-.07-8.21,0-8.51.3-8.49,8.34.01,5.5-.02,11,.02,16.5.05,6.42.5,6.86,6.75,6.86,28.17,0,56.33.15,84.5-.06,14-.1,25.46,4.91,35.25,14.8,23.92,24.15,48.13,48.01,72.04,72.17,6.91,6.98,14.98,10.04,24.62,10.03,52-.05,103.99-.02,155.99-.01,2.79,0,5.57-.04,8.38-.86Z"/>
  <path class="cls-1" d="m417.3,38.29c-10.61.04-19.11-8.35-19.13-18.88-.01-10.28,8.45-19.06,18.43-19.1,11.22-.05,19.42,7.87,19.51,18.87.09,10.62-8.23,19.07-18.82,19.12Zm-16.42-19.04c.01,9.55,7.27,16.94,16.56,16.87,8.97-.06,16.67-8.13,16.46-17.25-.21-9.01-7.83-16.44-16.78-16.35-9.04.09-16.25,7.52-16.24,16.73Z"/>
  <path class="cls-1" d="m410.13,19.15c0-.33,0-.67,0-1-.05-8.96,2.19-10.75,10.97-8.66,3.14.75,5.72,3.06,4.46,5.99-1.65,3.83-.03,7.01.19,10.47.07,1.17,1.15,2.9-1.15,2.98-1.52.05-2.32-1.04-2.41-2.61-.12-1.96.08-4.09-2.34-5.01-3.73-1.43-5.79,0-6.04,4.39-.09,1.61-.06,3.2-2.21,3.05-2.05-.14-1.43-1.89-1.47-3.09-.07-2.16-.02-4.32-.02-6.49h.02Zm6.99-6.9c-1.61-.17-3.31.04-3.38,2.95-.07,2.96,1.71,3.03,3.85,3.02,2.3,0,4.54-.17,4.45-3.19-.08-2.8-2.35-2.68-4.92-2.79Z"/>
</svg>