<?xml version="1.0" encoding="UTF-8"?>
<svg id="Layer_1" data-name="Layer 1" xmlns="http://www.w3.org/2000/svg" viewBox="0 0 276.72 276.85">
  <defs>
    <style>
      .cls-1 {
        fill: #4c4c4c;
      }
    </style>
  </defs>
  <path class="cls-1" d="m0,138.42C-.59,62.42,62.41-.08,138.48,0c75.8.08,138.33,62.48,138.24,138.61-.09,75.86-62.56,138.43-138.78,138.24C62.18,276.66-.59,214.3,0,138.42Zm144.16,1.56c0,15.31,0,30.61,0,45.92,0,3.28.94,4.24,4.18,4.25,26.82,0,53.63,0,80.45,0,3.07,0,6.1-.48,9-1.43,15.69-5.12,23.45-21.75,19-36.1-4.91-15.81-21.41-24.49-37.37-19.29-2.27.74-2.32.76-2.66-1.67-.02-.17-.04-.34-.06-.51-1.52-11.48-6.52-21.27-14.66-29.41-7.82-7.83-17.25-12.67-28.25-14.43-9.07-1.45-17.88-.53-26.49,2.57-2.93,1.05-3.15,1.46-3.15,4.55,0,15.19,0,30.38,0,45.58Zm-2.02,19.26c-.25-9.45-.53-18.36-.71-27.28-.21-10.64-.32-21.29-.5-31.93-.02-1.26-.13-2.53-.28-3.78-.19-1.7-1.38-2.69-3.04-2.65-1.59.04-2.61,1.02-2.72,2.75-.14,2.18-.27,4.37-.29,6.55-.08,9.55-.57,19.1-.6,28.64-.04,12.48-.93,24.96-.23,37.45.34,6.03.6,12.06,1.1,18.08.15,1.85,1.41,3.07,2.93,3.02,1.52-.05,2.72-1.3,2.86-3.12.73-9.4,1.3-18.81,1.48-27.71Zm-18.38,1.28c-.22,3.32.22,8.54.53,13.76.26,4.42.02,8.86.59,13.26.19,1.43.89,2.38,2.34,2.58,1.53.21,2.53-.56,3.05-1.97.16-.43.28-.89.28-1.34.06-9.09,1.2-18.13,1.07-27.22-.09-6.84-.43-13.68-.56-20.52-.21-11.67-.33-23.35-.5-35.02-.01-.8-.07-1.61-.24-2.4-.33-1.58-1.44-2.4-2.98-2.24-1.55.16-2.37,1.06-2.47,2.6-.1,1.49-.24,2.98-.25,4.48-.04,17.37-.47,34.73-.87,54.02Zm-10-2c-.17,5.7.23,11.38.5,17.07.18,3.85.41,7.69.67,11.53.13,1.97,1.14,3.05,2.63,3.01,1.46-.04,2.33-1.01,2.45-2.95.56-8.89,1.53-17.76,1.36-26.68-.2-10.4-.48-20.81-.77-31.21-.16-5.8-.39-11.6-.61-17.4-.06-1.61-.98-2.65-2.34-2.67-1.51-.03-2.33.82-2.6,2.24-.1.5-.13,1.03-.15,1.54-.09,3.91-.15,7.81-.28,11.72-.39,11.26-.58,22.53-.85,33.79Zm-2.37,3.17c-.28-9.82-.51-18.26-.75-26.71-.24-8.16-.48-16.32-.73-24.48-.06-1.94-.89-3.01-2.33-3.05-1.5-.04-2.32.97-2.39,2.94-.41,10.4-.72,20.8-.74,31.21,0,.58,0,1.15-.04,1.72-.85,12.24-.42,24.47.21,36.69.13,2.47.36,4.93.58,7.39.15,1.68,1.1,2.76,2.36,2.65,1.51-.14,2.21-1.12,2.31-2.55.65-9.05,1.24-18.11,1.52-25.82Zm-10-1.65c-.25-6.15-.55-12.29-.73-18.44-.31-10.64-.55-21.27-.82-31.91-.01-.52.01-1.06-.14-1.54-.32-1.07-.98-1.85-2.22-1.81-1.23.04-1.85.8-2.01,1.97-.09.63-.19,1.26-.2,1.89-.23,16.28-.88,32.54-1.41,48.81-.24,7.2.81,14.35,1.07,21.53.09,2.47.29,4.93.48,7.4.1,1.24.77,2.1,2.05,2.15,1.38.05,2.05-.89,2.3-2.14.1-.5.07-1.03.1-1.55.09-1.72.18-3.45.26-5.17.32-7.06,1.36-14.08,1.27-21.18Zm-9.91.83c-.19-2.37-.37-4.72-.46-7.07-.34-9.54-.54-19.08-.85-28.62-.16-4.88-.42-9.76-.62-14.64-.05-1.22-.5-2.25-1.83-2.3-1.33-.05-1.79.92-1.95,2.16-.51,4.01-.31,8.04-.49,12.06-.52,12.29-.79,24.59-1.14,36.89-.18,6.16.53,12.29.8,18.43.14,3.38.51,6.76.8,10.13.11,1.22.68,2.19,2.02,2.11,1.33-.08,1.72-1.13,1.81-2.33.14-2.01.37-4.01.51-6.01.48-6.94.94-13.87,1.4-20.81Zm-10.15-.06c-.38-9.6-.76-19.2-1.15-28.8-.23-5.69-.45-11.38-.69-17.07-.05-1.19-.4-2.28-1.81-2.28-1.41,0-1.73,1.1-1.8,2.29-.1,1.84-.26,3.67-.29,5.51-.21,13.81-1.2,27.6-1.31,41.4-.07,8.77,1.03,17.56,1.63,26.33.07,1.07.57,1.94,1.79,1.94,1.21,0,1.69-.89,1.77-1.95.23-2.75.45-5.5.6-8.26.35-6.37,1.39-12.7,1.26-19.1Zm-16.58.48c-.05,6.07.85,11.72,1.11,17.4.15,3.22.45,6.42.69,9.63.07.92.57,1.57,1.47,1.66,1.01.11,1.37-.66,1.53-1.52.08-.45.21-.9.23-1.36.59-10.83,2.49-21.57,1.55-32.5-.67-7.79-.79-15.62-1.2-23.44-.13-2.58-.37-5.16-.58-7.74-.08-.94-.45-1.8-1.53-1.71-1,.08-1.4.88-1.47,1.85-.08,1.15-.26,2.29-.27,3.44-.15,11.57-1.11,23.1-1.52,34.29Zm-2.79,1.56c-.03-.65-.05-1.4-.12-2.14-.64-6.87-1.28-13.74-1.94-20.61-.11-1.15.15-2.84-1.55-2.75-1.57.08-1.39,1.73-1.44,2.91-.16,4.08-.64,8.14-.98,12.21-.32,3.78-.66,7.57-.69,11.35-.03,2.98.37,5.96.61,8.94.39,4.93.97,9.84,1.12,14.79.03.97.18,2.15,1.5,2.13,1.34-.01,1.33-1.16,1.41-2.16.16-2.06.32-4.13.52-6.19.6-6.12,1.23-12.24,1.57-18.49Zm-9.64-.87c-.69-7.69-1.45-16.22-2.24-24.74-.07-.75-.31-1.63-1.23-1.62-.99,0-1.03.96-1.1,1.68-.28,2.86-.51,5.72-.75,8.58-.54,6.35-1.42,12.7-1.14,19.08.26,5.91.92,11.8,1.42,17.69.15,1.83.36,3.66.55,5.49.06.55.25,1.03.86,1.15.61.11,1.01-.23,1.19-.77.16-.48.23-1,.28-1.51.34-3.54.72-7.09.98-10.64.33-4.53,1.16-9.01,1.2-14.4Zm-16.14,1c.69,7.61,1.37,15.33,2.12,23.04.08.82-.16,2.23,1.05,2.22,1.2,0,.96-1.41,1.05-2.23.53-4.56,1.07-9.13,1.41-13.7.3-4.16,1.45-8.27.75-12.5-.33-1.98-.46-3.99-.66-5.99-.52-5.14-1.01-10.28-1.56-15.42-.07-.68.04-1.75-.96-1.78-1.05-.03-.92,1.05-1,1.72-.28,2.39-.49,4.8-.7,7.2-.5,5.78-.99,11.55-1.49,17.44Zm-2.9.31c-.03-.7-.03-.99-.06-1.28-.81-6.68-1.63-13.36-2.45-20.04-.06-.52-.16-1.16-.85-1.06-.73.1-.68.83-.74,1.39-.68,6.06-1.33,12.12-2.06,18.17-.2,1.67-.2,3.3.01,4.97.73,5.88,1.37,11.77,2.05,17.65.06.55-.03,1.32.73,1.37.92.06.81-.78.89-1.38.19-1.6.36-3.2.56-4.8.65-5.13,1.31-10.27,1.92-14.99Zm-14.67-.43c.56,4.22,1.12,8.49,1.68,12.76.05.41.15.85.65.9.6.06.76-.44.84-.9.33-1.81.51-3.65.98-5.43,1.77-6.76.18-13.34-.94-19.94-.08-.47-.23-.94-.82-.92-.49.02-.64.42-.7.84-.56,4.21-1.12,8.43-1.69,12.69Z"/>
</svg>