<?xml version="1.0" encoding="UTF-8"?>
<svg id="Layer_1" data-name="Layer 1" xmlns="http://www.w3.org/2000/svg" viewBox="0 0 227.5 133.5">
  <defs>
    <style>
      .cls-1 {
        fill: #4c4c4d;
      }
    </style>
  </defs>
  <path class="cls-1" d="m223.8,26.1L218.4.1h-73.2l-2.6,26-1.9,58.4h-34.9V.2h-.4v-.2L1.5.2h0v30.8h20.9v84.4h7.4V30.9h22.8v84.4h7.1l-.5-72h1.5l12.8,25.2h4.6l12.7-25.2h1.6l-.3,72.1h55.5v-18.3l.6-14h29.2l.5,14v18.3h40.5l5.4-19.1v-24.3l-3.1-10.9,3.1-13v-22h0Zm-74.6,31.9l1.1-27.1h25.2l1,27.1h-27.3Zm67.2,32.5h-30.2v-20.1h30.3v20.1h-.1Zm0-43.3h-30.2v-19.7h30.3v19.7h-.1Z"/>
  <g>
    <path class="cls-1" d="m0,124v-2.1h9.2v2.1h-3.4v9.2h-2.5v-9.2H0Z"/>
    <path class="cls-1" d="m16.6,121.9c.5,0,1,.1,1.4.2.4.2.8.4,1,.7s.5.6.7,1,.2.8.2,1.2c0,.7-.1,1.2-.4,1.7s-.7.9-1.4,1.1h0c.3.1.6.2.8.4s.4.4.5.6c.1.2.2.5.3.8s.1.6.1.9v.6c0,.2,0,.5.1.7s.1.5.1.7.1.4.3.6h-2.5c-.1-.4-.2-.8-.2-1.3s-.1-1-.1-1.4c-.1-.6-.3-1-.5-1.3-.3-.3-.7-.4-1.3-.4h-2.5v4.4h-2.5v-11.3l5.9.1h0Zm-.9,5.2c.6,0,1-.1,1.3-.4s.4-.7.4-1.2-.1-.9-.4-1.2c-.3-.2-.7-.4-1.3-.4h-2.7v3.2h2.7Z"/>
    <path class="cls-1" d="m27.8,121.9l4.2,11.3h-2.6l-.8-2.5h-4.2l-.9,2.5h-2.5l4.3-11.3h2.5Zm.2,7l-1.4-4.1h0l-1.5,4.1h2.9Z"/>
    <path class="cls-1" d="m35.6,121.9l4.7,7.6h0v-7.6h2.3v11.3h-2.4l-4.7-7.6h0v7.6h-2.3v-11.3c-.1,0,2.4,0,2.4,0Z"/>
    <path class="cls-1" d="m46.9,130.4c.1.3.3.5.5.6.2.2.5.3.8.4.3.1.6.1.9.1.2,0,.5,0,.7-.1s.5-.1.7-.2.4-.2.6-.4.2-.4.2-.7-.1-.6-.3-.7-.4-.4-.8-.5-.7-.2-1.1-.3-.8-.2-1.2-.3c-.4-.1-.8-.2-1.2-.4-.4-.1-.8-.4-1.1-.6s-.6-.5-.8-.9-.3-.8-.3-1.3c0-.6.1-1.1.4-1.5s.6-.8,1-1.1.8-.5,1.4-.6,1-.2,1.5-.2c.6,0,1.2.1,1.7.2.5.1,1,.4,1.4.6.4.3.8.7,1,1.1.2.5.4,1,.4,1.7h-2.4c0-.3-.1-.6-.2-.8s-.3-.4-.5-.5-.4-.2-.7-.3-.5-.1-.8-.1c-.2,0-.4,0-.6.1s-.4.1-.5.2c-.2.1-.3.2-.4.4s-.2.4-.2.6,0,.4.1.5.2.3.5.4c.2.1.6.2,1,.4.4.1,1,.3,1.7.4.2,0,.5.1.9.2.4.1.7.3,1.1.5s.7.6,1,1,.4.9.4,1.6c0,.5-.1,1-.3,1.4s-.5.8-.9,1.1-.9.6-1.5.8-1.3.3-2,.3c-.6,0-1.2-.1-1.8-.2s-1.1-.4-1.6-.7c-.4-.3-.8-.7-1.1-1.2-.3-.5-.4-1.1-.4-1.8h2.4c.1.3.2.6.4.8h0Z"/>
    <path class="cls-1" d="m57.8,121.9l4.7,7.6h0v-7.6h2.3v11.3h-2.5l-4.7-7.6h0v7.6h-2.3v-11.3h2.5Z"/>
    <path class="cls-1" d="m72.8,121.9l4.2,11.3h-2.6l-.8-2.5h-4.2l-.9,2.5h-2.5l4.3-11.3c-.1,0,2.5,0,2.5,0Zm.1,7l-1.4-4.1h0l-1.5,4.1h2.9Z"/>
    <path class="cls-1" d="m75.9,124v-2.1h9.2v2.1h-3.4v9.2h-2.5v-9.2h-3.3Z"/>
    <path class="cls-1" d="m88.9,121.9v11.3h-2.5v-11.3h2.5Z"/>
    <path class="cls-1" d="m91,125.3c.2-.7.6-1.4,1.1-1.9s1.1-1,1.8-1.3,1.5-.5,2.3-.5,1.6.1,2.3.5c.7.3,1.3.7,1.7,1.3.5.5.8,1.2,1.1,1.9s.4,1.5.4,2.4-.1,1.6-.4,2.3-.6,1.3-1.1,1.9-1.1.9-1.7,1.2-1.5.4-2.3.4-1.6-.1-2.3-.4-1.3-.7-1.8-1.2-.8-1.1-1.1-1.9c-.2-.7-.4-1.5-.4-2.3s.1-1.7.4-2.4Zm2.3,3.7c.1.4.3.9.5,1.2s.6.6.9.9c.4.2.9.3,1.4.3s1-.1,1.4-.3.7-.5.9-.9.4-.8.5-1.2.2-.9.2-1.4-.1-1-.2-1.4c-.1-.5-.3-.9-.5-1.2s-.6-.6-.9-.9-.9-.3-1.4-.3-1,.1-1.4.3-.7.5-.9.9-.4.8-.5,1.2-.2.9-.2,1.4,0,1,.2,1.4Z"/>
    <path class="cls-1" d="m105.9,121.9l4.7,7.6h0v-7.6h2.3v11.3h-2.5l-4.7-7.6h0v7.6h-2.3v-11.3h2.5Z"/>
    <path class="cls-1" d="m120.8,121.9l4.2,11.3h-2.6l-.9-2.5h-4.2l-.9,2.5h-2.5l4.3-11.3h2.6Zm.2,7l-1.4-4.1h0l-1.5,4.1h2.9Z"/>
    <path class="cls-1" d="m128.6,121.9v9.2h5.5v2.1h-8v-11.3h2.5Z"/>
    <path class="cls-1" d="m143.4,121.9l2.6,7.8h0l2.5-7.8h3.5v11.3h-2.3v-8h0l-2.8,8h-1.9l-2.8-7.9h0v7.9h-2.3v-11.3h3.5Z"/>
    <path class="cls-1" d="m162.6,132.4c-.9.7-2,1.1-3.5,1.1s-2.7-.4-3.6-1.1-1.3-1.9-1.3-3.4v-7h2.5v7c0,.3,0,.6.1.9s.2.6.3.8c.2.2.4.4.7.6s.7.2,1.2.2c.9,0,1.5-.2,1.8-.6.3-.4.5-1,.5-1.9v-7h2.5v7c.1,1.5-.4,2.6-1.2,3.4h0Z"/>
    <path class="cls-1" d="m167.9,130.4c.1.3.3.5.5.6.2.2.5.3.8.4.3.1.6.1.9.1.2,0,.5,0,.7-.1s.5-.1.7-.2c.2-.1.4-.2.6-.4.1-.2.2-.4.2-.7s-.1-.6-.3-.7c-.2-.2-.4-.4-.8-.5-.3-.1-.7-.2-1.1-.3-.4-.1-.8-.2-1.2-.3s-.8-.2-1.2-.4c-.4-.1-.8-.4-1.1-.6-.3-.2-.6-.5-.8-.9s-.3-.8-.3-1.3c0-.6.1-1.1.4-1.5s.6-.8,1-1.1.9-.5,1.4-.6,1-.2,1.5-.2c.6,0,1.2.1,1.7.2.5.1,1,.4,1.4.6.4.3.8.7,1,1.1s.4,1,.4,1.7h-2.4c0-.3-.1-.6-.2-.8-.1-.2-.3-.4-.5-.5s-.4-.2-.7-.3-.5-.1-.9-.1c-.2,0-.4,0-.6.1s-.4.1-.5.2c-.2.1-.3.2-.4.4-.1.2-.2.4-.2.6s0,.4.1.5.2.3.5.4c.2.1.6.2,1,.4.4.1,1,.3,1.7.4.2,0,.5.1.9.2.4.1.8.3,1.1.5.4.2.7.6,1,1s.4.9.4,1.6c0,.5-.1,1-.3,1.4s-.5.8-.9,1.1-.9.6-1.5.8-1.3.3-2,.3c-.6,0-1.2-.1-1.8-.2s-1.1-.4-1.6-.7-.8-.7-1.1-1.2-.4-1.1-.4-1.8h2.4c.3.3.4.6.5.8h0Z"/>
    <path class="cls-1" d="m178.9,121.9v11.3h-2.5v-11.3h2.5Z"/>
    <path class="cls-1" d="m188.4,125c-.1-.2-.3-.4-.6-.6s-.5-.3-.8-.4c-.3-.1-.6-.1-.9-.1-.6,0-1,.1-1.4.3s-.7.5-.9.9-.4.8-.5,1.2-.2.9-.2,1.4.1.9.2,1.4c.1.4.3.9.5,1.2s.6.6.9.9c.4.2.9.3,1.4.3.8,0,1.4-.2,1.8-.7.4-.5.7-1.1.8-1.8h2.4c-.1.7-.2,1.3-.5,1.9-.3.6-.6,1.1-1,1.4s-.9.7-1.5.9-1.2.3-1.9.3c-.9,0-1.6-.1-2.3-.4s-1.3-.7-1.8-1.2-.8-1.1-1.1-1.9-.4-1.5-.4-2.3.1-1.6.4-2.4c.2-.7.6-1.4,1.1-1.9s1.1-1,1.8-1.3,1.5-.5,2.3-.5c.6,0,1.2.1,1.8.3s1.1.4,1.5.8c.4.3.8.8,1.1,1.3s.5,1.1.5,1.7h-2.4c-.1-.2-.2-.5-.3-.7h0Z"/>
    <path class="cls-1" d="m199.7,121.9v9.2h5.5v2.1h-8v-11.3h2.5Z"/>
    <path class="cls-1" d="m212.7,121.9l4.2,11.3h-2.6l-.9-2.5h-4.2l-.9,2.5h-2.5l4.3-11.3h2.6Zm.1,7l-1.4-4.1h0l-1.5,4.1h2.9Z"/>
    <path class="cls-1" d="m223.3,121.9c.5,0,1,.1,1.5.1s.8.2,1.1.5.6.5.7.9.3.8.3,1.3c0,.6-.1,1-.4,1.4s-.6.7-1.1.9c.7.2,1.2.6,1.6,1.1s.5,1.1.5,1.8c0,.6-.1,1.1-.3,1.5s-.5.8-.9,1c-.4.3-.8.5-1.3.6s-1,.2-1.5.2h-5.5v-11.3h5.3Zm-.3,4.6c.4,0,.8-.1,1.1-.3s.4-.6.4-1c0-.3,0-.5-.1-.6-.1-.2-.2-.3-.4-.4s-.3-.2-.5-.2-.4-.1-.6-.1h-2.3v2.6h2.4Zm.1,4.8c.2,0,.5,0,.7-.1s.4-.1.6-.2c.2-.1.3-.3.4-.4s.1-.4.1-.7c0-.6-.2-1-.5-1.2s-.8-.4-1.3-.4h-2.7v3.1h2.7v-.1Z"/>
  </g>
</svg>