<?xml version="1.0" encoding="utf-8"?>
<!-- Generator: Adobe Illustrator 27.6.1, SVG Export Plug-In . SVG Version: 6.00 Build 0)  -->
<svg version="1.1" id="Layer_1" xmlns="http://www.w3.org/2000/svg" xmlns:xlink="http://www.w3.org/1999/xlink" x="0px" y="0px"
	 viewBox="0 0 300 200" style="enable-background:new 0 0 300 200;" xml:space="preserve">
<style type="text/css">
	.st0{fill:#4C4C4D;}
</style>
<path class="st0" d="M257.6,59.4l-5.4-26H179l-2.6,26l-1.9,58.4h-34.9V33.5h-0.4v-0.2L35.3,33.5l0,0v30.8h20.9v84.4h7.4V64.2h21.1
	h1.7v84.4h7.1L93,76.6h1.5l12.8,25.2h4.6l12.7-25.2h1.6l-0.3,72.1h55.5v-18.3l0.6-14h29.2l0.5,14v18.3h40.5l5.4-19.1v-24.3
	l-3.1-10.9l3.1-13L257.6,59.4L257.6,59.4z M183,91.3l1.1-27.1h25.2l1,27.1H183z M250.2,123.8H220v-20.1h30.3V123.8z M250.2,80.5H220
	V60.8h30.3V80.5z"/>
<g>
	<path class="st0" d="M33.8,157.3v-2.1H43v2.1h-3.4v9.2h-2.5v-9.2H33.8z"/>
	<path class="st0" d="M50.4,155.2c0.5,0,1,0.1,1.4,0.2c0.4,0.2,0.8,0.4,1,0.7s0.5,0.6,0.7,1c0.2,0.4,0.2,0.8,0.2,1.2
		c0,0.7-0.1,1.2-0.4,1.7s-0.7,0.9-1.4,1.1v0c0.3,0.1,0.6,0.2,0.8,0.4c0.2,0.2,0.4,0.4,0.5,0.6c0.1,0.2,0.2,0.5,0.3,0.8
		c0.1,0.3,0.1,0.6,0.1,0.9c0,0.2,0,0.4,0,0.6s0,0.5,0.1,0.7s0.1,0.5,0.1,0.7s0.1,0.4,0.3,0.6h-2.5c-0.1-0.4-0.2-0.8-0.2-1.3
		s-0.1-1-0.1-1.4c-0.1-0.6-0.3-1-0.5-1.3c-0.3-0.3-0.7-0.4-1.3-0.4h-2.5v4.4h-2.5v-11.3L50.4,155.2L50.4,155.2z M49.5,160.4
		c0.6,0,1-0.1,1.3-0.4s0.4-0.7,0.4-1.2s-0.1-0.9-0.4-1.2c-0.3-0.2-0.7-0.4-1.3-0.4h-2.7v3.2H49.5z"/>
	<path class="st0" d="M61.6,155.2l4.2,11.3h-2.6l-0.8-2.5h-4.2l-0.9,2.5h-2.5l4.3-11.3C59.1,155.2,61.6,155.2,61.6,155.2z
		 M61.8,162.2l-1.4-4.1h0l-1.5,4.1C58.9,162.2,61.8,162.2,61.8,162.2z"/>
	<path class="st0" d="M69.4,155.2l4.7,7.6h0v-7.6h2.3v11.3H74l-4.7-7.6h0v7.6h-2.3v-11.3C66.9,155.2,69.4,155.2,69.4,155.2z"/>
	<path class="st0" d="M80.7,163.7c0.1,0.3,0.3,0.5,0.5,0.6c0.2,0.2,0.5,0.3,0.8,0.4c0.3,0.1,0.6,0.1,0.9,0.1c0.2,0,0.5,0,0.7-0.1
		s0.5-0.1,0.7-0.2s0.4-0.2,0.6-0.4c0.2-0.2,0.2-0.4,0.2-0.7c0-0.3-0.1-0.6-0.3-0.7s-0.4-0.4-0.8-0.5s-0.7-0.2-1.1-0.3
		s-0.8-0.2-1.2-0.3c-0.4-0.1-0.8-0.2-1.2-0.4c-0.4-0.1-0.8-0.4-1.1-0.6s-0.6-0.5-0.8-0.9s-0.3-0.8-0.3-1.3c0-0.6,0.1-1.1,0.4-1.5
		s0.6-0.8,1-1.1c0.4-0.3,0.8-0.5,1.4-0.6s1-0.2,1.5-0.2c0.6,0,1.2,0.1,1.7,0.2c0.5,0.1,1,0.4,1.4,0.6c0.4,0.3,0.8,0.7,1,1.1
		c0.2,0.5,0.4,1,0.4,1.7h-2.4c0-0.3-0.1-0.6-0.2-0.8s-0.3-0.4-0.5-0.5c-0.2-0.1-0.4-0.2-0.7-0.3s-0.5-0.1-0.8-0.1
		c-0.2,0-0.4,0-0.6,0.1s-0.4,0.1-0.5,0.2c-0.2,0.1-0.3,0.2-0.4,0.4c-0.1,0.2-0.2,0.4-0.2,0.6c0,0.2,0,0.4,0.1,0.5
		c0.1,0.1,0.2,0.3,0.5,0.4c0.2,0.1,0.6,0.2,1,0.4c0.4,0.1,1,0.3,1.7,0.4c0.2,0,0.5,0.1,0.9,0.2c0.4,0.1,0.7,0.3,1.1,0.5s0.7,0.6,1,1
		s0.4,0.9,0.4,1.6c0,0.5-0.1,1-0.3,1.4s-0.5,0.8-0.9,1.1c-0.4,0.3-0.9,0.6-1.5,0.8c-0.6,0.2-1.3,0.3-2,0.3c-0.6,0-1.2-0.1-1.8-0.2
		s-1.1-0.4-1.6-0.7c-0.4-0.3-0.8-0.7-1.1-1.2c-0.3-0.5-0.4-1.1-0.4-1.8h2.4C80.4,163.2,80.5,163.5,80.7,163.7L80.7,163.7z"/>
	<path class="st0" d="M91.6,155.2l4.7,7.6h0v-7.6h2.3v11.3h-2.5l-4.7-7.6h0v7.6h-2.3v-11.3C89.1,155.2,91.6,155.2,91.6,155.2z"/>
	<path class="st0" d="M106.6,155.2l4.2,11.3h-2.6l-0.8-2.5h-4.2l-0.9,2.5h-2.5l4.3-11.3C104,155.2,106.6,155.2,106.6,155.2z
		 M106.7,162.2l-1.4-4.1h0l-1.5,4.1H106.7z"/>
	<path class="st0" d="M109.7,157.3v-2.1h9.2v2.1h-3.4v9.2h-2.5v-9.2H109.7z"/>
	<path class="st0" d="M122.7,155.2v11.3h-2.5v-11.3H122.7z"/>
	<path class="st0" d="M124.8,158.6c0.2-0.7,0.6-1.4,1.1-1.9c0.5-0.5,1.1-1,1.8-1.3c0.7-0.3,1.5-0.5,2.3-0.5s1.6,0.1,2.3,0.5
		c0.7,0.3,1.3,0.7,1.7,1.3c0.5,0.5,0.8,1.2,1.1,1.9s0.4,1.5,0.4,2.4s-0.1,1.6-0.4,2.3s-0.6,1.3-1.1,1.9s-1.1,0.9-1.7,1.2
		s-1.5,0.4-2.3,0.4s-1.6-0.1-2.3-0.4s-1.3-0.7-1.8-1.2c-0.5-0.5-0.8-1.1-1.1-1.9c-0.2-0.7-0.4-1.5-0.4-2.3S124.5,159.3,124.8,158.6z
		 M127.1,162.3c0.1,0.4,0.3,0.9,0.5,1.2s0.6,0.6,0.9,0.9c0.4,0.2,0.9,0.3,1.4,0.3s1-0.1,1.4-0.3s0.7-0.5,0.9-0.9
		c0.2-0.4,0.4-0.8,0.5-1.2c0.1-0.4,0.2-0.9,0.2-1.4s-0.1-1-0.2-1.4c-0.1-0.5-0.3-0.9-0.5-1.2s-0.6-0.6-0.9-0.9s-0.9-0.3-1.4-0.3
		s-1,0.1-1.4,0.3c-0.4,0.2-0.7,0.5-0.9,0.9s-0.4,0.8-0.5,1.2s-0.2,0.9-0.2,1.4S126.9,161.9,127.1,162.3z"/>
	<path class="st0" d="M139.7,155.2l4.7,7.6h0v-7.6h2.3v11.3h-2.5l-4.7-7.6h0v7.6h-2.3v-11.3H139.7L139.7,155.2z"/>
	<path class="st0" d="M154.6,155.2l4.2,11.3h-2.6l-0.9-2.5h-4.2l-0.9,2.5h-2.5l4.3-11.3H154.6L154.6,155.2z M154.8,162.2l-1.4-4.1h0
		l-1.5,4.1H154.8z"/>
	<path class="st0" d="M162.4,155.2v9.2h5.5v2.1h-8v-11.3L162.4,155.2L162.4,155.2z"/>
	<path class="st0" d="M177.2,155.2l2.6,7.8h0l2.5-7.8h3.5v11.3h-2.3v-8h0l-2.8,8h-1.9l-2.8-7.9h0v7.9h-2.3v-11.3H177.2L177.2,155.2z
		"/>
	<path class="st0" d="M196.4,165.7c-0.9,0.7-2,1.1-3.5,1.1s-2.7-0.4-3.6-1.1s-1.3-1.9-1.3-3.4v-7h2.5v7c0,0.3,0,0.6,0.1,0.9
		s0.2,0.6,0.3,0.8c0.2,0.2,0.4,0.4,0.7,0.6s0.7,0.2,1.2,0.2c0.9,0,1.5-0.2,1.8-0.6c0.3-0.4,0.5-1,0.5-1.9v-7h2.5v7
		C197.7,163.8,197.2,164.9,196.4,165.7L196.4,165.7z"/>
	<path class="st0" d="M201.7,163.7c0.1,0.3,0.3,0.5,0.5,0.6c0.2,0.2,0.5,0.3,0.8,0.4c0.3,0.1,0.6,0.1,0.9,0.1c0.2,0,0.5,0,0.7-0.1
		s0.5-0.1,0.7-0.2c0.2-0.1,0.4-0.2,0.6-0.4c0.1-0.2,0.2-0.4,0.2-0.7c0-0.3-0.1-0.6-0.3-0.7c-0.2-0.2-0.4-0.4-0.8-0.5
		c-0.3-0.1-0.7-0.2-1.1-0.3c-0.4-0.1-0.8-0.2-1.2-0.3c-0.4-0.1-0.8-0.2-1.2-0.4c-0.4-0.1-0.8-0.4-1.1-0.6c-0.3-0.2-0.6-0.5-0.8-0.9
		c-0.2-0.4-0.3-0.8-0.3-1.3c0-0.6,0.1-1.1,0.4-1.5s0.6-0.8,1-1.1s0.9-0.5,1.4-0.6s1-0.2,1.5-0.2c0.6,0,1.2,0.1,1.7,0.2
		c0.5,0.1,1,0.4,1.4,0.6c0.4,0.3,0.8,0.7,1,1.1s0.4,1,0.4,1.7h-2.4c0-0.3-0.1-0.6-0.2-0.8c-0.1-0.2-0.3-0.4-0.5-0.5
		s-0.4-0.2-0.7-0.3c-0.3-0.1-0.5-0.1-0.9-0.1c-0.2,0-0.4,0-0.6,0.1s-0.4,0.1-0.5,0.2c-0.2,0.1-0.3,0.2-0.4,0.4
		c-0.1,0.2-0.2,0.4-0.2,0.6c0,0.2,0,0.4,0.1,0.5c0.1,0.1,0.2,0.3,0.5,0.4c0.2,0.1,0.6,0.2,1,0.4c0.4,0.1,1,0.3,1.7,0.4
		c0.2,0,0.5,0.1,0.9,0.2c0.4,0.1,0.8,0.3,1.1,0.5c0.4,0.2,0.7,0.6,1,1s0.4,0.9,0.4,1.6c0,0.5-0.1,1-0.3,1.4s-0.5,0.8-0.9,1.1
		c-0.4,0.3-0.9,0.6-1.5,0.8c-0.6,0.2-1.3,0.3-2,0.3c-0.6,0-1.2-0.1-1.8-0.2s-1.1-0.4-1.6-0.7s-0.8-0.7-1.1-1.2
		c-0.3-0.5-0.4-1.1-0.4-1.8h2.4C201.5,163.2,201.6,163.5,201.7,163.7L201.7,163.7z"/>
	<path class="st0" d="M212.7,155.2v11.3h-2.5v-11.3H212.7z"/>
	<path class="st0" d="M222.2,158.3c-0.1-0.2-0.3-0.4-0.6-0.6s-0.5-0.3-0.8-0.4c-0.3-0.1-0.6-0.1-0.9-0.1c-0.6,0-1,0.1-1.4,0.3
		s-0.7,0.5-0.9,0.9s-0.4,0.8-0.5,1.2s-0.2,0.9-0.2,1.4s0.1,0.9,0.2,1.4c0.1,0.4,0.3,0.9,0.5,1.2s0.6,0.6,0.9,0.9
		c0.4,0.2,0.9,0.3,1.4,0.3c0.8,0,1.4-0.2,1.8-0.7c0.4-0.5,0.7-1.1,0.8-1.8h2.4c-0.1,0.7-0.2,1.3-0.5,1.9c-0.3,0.6-0.6,1.1-1,1.4
		s-0.9,0.7-1.5,0.9c-0.6,0.2-1.2,0.3-1.9,0.3c-0.9,0-1.6-0.1-2.3-0.4s-1.3-0.7-1.8-1.2s-0.8-1.1-1.1-1.9s-0.4-1.5-0.4-2.3
		s0.1-1.6,0.4-2.4c0.2-0.7,0.6-1.4,1.1-1.9s1.1-1,1.8-1.3c0.7-0.3,1.5-0.5,2.3-0.5c0.6,0,1.2,0.1,1.8,0.3c0.6,0.2,1.1,0.4,1.5,0.8
		c0.4,0.3,0.8,0.8,1.1,1.3s0.5,1.1,0.5,1.7h-2.4C222.4,158.8,222.3,158.5,222.2,158.3L222.2,158.3z"/>
	<path class="st0" d="M233.5,155.2v9.2h5.5v2.1h-8v-11.3L233.5,155.2L233.5,155.2z"/>
	<path class="st0" d="M246.5,155.2l4.2,11.3h-2.6l-0.9-2.5h-4.2l-0.9,2.5h-2.5l4.3-11.3H246.5L246.5,155.2z M246.6,162.2l-1.4-4.1h0
		l-1.5,4.1H246.6z"/>
	<path class="st0" d="M257.1,155.2c0.5,0,1,0.1,1.5,0.1s0.8,0.2,1.1,0.5s0.6,0.5,0.7,0.9s0.3,0.8,0.3,1.3c0,0.6-0.1,1-0.4,1.4
		s-0.6,0.7-1.1,0.9c0.7,0.2,1.2,0.6,1.6,1.1s0.5,1.1,0.5,1.8c0,0.6-0.1,1.1-0.3,1.5s-0.5,0.8-0.9,1c-0.4,0.3-0.8,0.5-1.3,0.6
		c-0.5,0.1-1,0.2-1.5,0.2h-5.5v-11.3H257.1L257.1,155.2z M256.8,159.8c0.4,0,0.8-0.1,1.1-0.3s0.4-0.6,0.4-1c0-0.3,0-0.5-0.1-0.6
		c-0.1-0.2-0.2-0.3-0.4-0.4s-0.3-0.2-0.5-0.2s-0.4-0.1-0.6-0.1h-2.3v2.6L256.8,159.8L256.8,159.8z M256.9,164.6c0.2,0,0.5,0,0.7-0.1
		c0.2-0.1,0.4-0.1,0.6-0.2c0.2-0.1,0.3-0.3,0.4-0.4s0.1-0.4,0.1-0.7c0-0.6-0.2-1-0.5-1.2s-0.8-0.4-1.3-0.4h-2.7v3.1H256.9z"/>
</g>
</svg>
