<svg width="39" height="120" viewBox="0 0 39 120" fill="none" xmlns="http://www.w3.org/2000/svg">
<path d="M32.8253 119.69V98H38.067V119.69H32.8253Z" fill="#4C4C4D"/>
<path d="M25 119.69V98H30.2417V119.69H25Z" fill="#4C4C4D"/>
<path d="M17.5062 83.9162L18.1389 80.2109C18.5004 80.1908 18.7715 80.1707 18.9522 80.1506C20.4986 80.0502 21.6534 80 22.4166 80C24.6659 80 26.2424 80.3012 27.1461 80.9037C27.7085 81.2652 28.1202 81.7673 28.3812 82.41C28.6624 83.0526 28.803 83.8861 28.803 84.9103V95.6046H24.2843V94.4598H24.224C24.0634 94.7611 23.6818 95.0925 23.0793 95.454C22.4969 95.7954 21.7538 95.9661 20.8501 95.9661C19.4844 95.9661 18.3296 95.474 17.3857 94.49C16.4619 93.5059 16 92.1704 16 90.4834C16 89.0575 16.482 87.8224 17.446 86.7781C18.41 85.7136 19.7254 85.1814 21.3923 85.1814C21.8542 85.1814 22.286 85.2216 22.6877 85.3019C23.1094 85.3823 23.4408 85.4827 23.6818 85.6032C23.6818 84.7999 23.491 84.2576 23.1094 83.9765C22.7479 83.6953 21.9948 83.5547 20.8501 83.5547C20.2877 83.5547 19.8258 83.5748 19.4643 83.615C19.1028 83.6551 18.651 83.7254 18.1087 83.8258C17.7673 83.866 17.5665 83.8961 17.5062 83.9162ZM22.5973 88.5554C22.1555 88.5554 21.7739 88.7161 21.4526 89.0374C21.1513 89.3386 21.0007 89.7102 21.0007 90.152C21.0007 90.5938 21.1513 90.9754 21.4526 91.2968C21.7739 91.598 22.1555 91.7486 22.5973 91.7486C23.0391 91.7486 23.4107 91.598 23.7119 91.2968C24.0332 90.9754 24.1939 90.5938 24.1939 90.152C24.1939 89.7102 24.0332 89.3386 23.7119 89.0374C23.4107 88.7161 23.0391 88.5554 22.5973 88.5554Z" fill="#4C4C4D"/>
<path d="M19 76.6898V55H24.2417V62.5312C24.7839 61.9488 25.3664 61.5069 25.9889 61.2057C26.6115 60.8844 27.3044 60.7237 28.0675 60.7237C28.6499 60.7237 29.2022 60.804 29.7244 60.9647C30.2666 61.1254 30.7486 61.3864 31.1704 61.7479C31.6122 62.1094 31.9536 62.5814 32.1946 63.1638C32.4557 63.7261 32.5862 64.4089 32.5862 65.2123V76.6898H27.3445V68.1344C27.3445 67.4917 27.2341 66.9695 27.0132 66.5679C26.8123 66.1662 26.3906 65.9654 25.7479 65.9654C25.1655 65.9654 24.7639 66.1763 24.5429 66.598C24.3421 66.9997 24.2417 67.5118 24.2417 68.1344V76.6898H19Z" fill="#4C4C4D"/>
<path d="M27.5488 44.6818L23 37H29.2057L30.7119 39.892L31.9772 37H38.1828L33.7545 44.6818L38.4841 52.6046H32.2784L30.8324 49.2306L29.3563 52.6046H23.1506L27.5488 44.6818Z" fill="#4C4C4D"/>
<path d="M21.5862 32V47.6046H16.3445V46.1586C15.8023 46.741 15.2199 47.1929 14.5973 47.5142C13.9747 47.8155 13.2819 47.9661 12.5187 47.9661C11.9363 47.9661 11.374 47.8857 10.8317 47.7251C10.3096 47.5644 9.82756 47.3033 9.38574 46.9418C8.96399 46.5803 8.62258 46.1084 8.3615 45.526C8.1205 44.9436 8 44.2607 8 43.4775V32H13.2417V40.5554C13.2417 41.1981 13.3522 41.7202 13.5731 42.1219C13.794 42.5236 14.2157 42.7244 14.8383 42.7244C15.4207 42.7244 15.8123 42.5236 16.0132 42.1219C16.2341 41.7001 16.3445 41.178 16.3445 40.5554V32H21.5862Z" fill="#4C4C4D"/>
<path d="M15.5062 18.9162L16.1389 15.2109C16.5003 15.1908 16.7715 15.1707 16.9522 15.1506C18.4986 15.0502 19.6534 15 20.4166 15C22.6659 15 24.2424 15.3012 25.1461 15.9037C25.7085 16.2652 26.1202 16.7673 26.3812 17.41C26.6624 18.0526 26.803 18.8861 26.803 19.9103V30.6046H22.2843V29.4598H22.224C22.0634 29.7611 21.6818 30.0925 21.0793 30.454C20.4969 30.7954 19.7538 30.9661 18.8501 30.9661C17.4844 30.9661 16.3296 30.474 15.3857 29.49C14.4619 28.5059 14 27.1704 14 25.4834C14 24.0575 14.482 22.8224 15.446 21.7781C16.41 20.7136 17.7254 20.1814 19.3923 20.1814C19.8542 20.1814 20.286 20.2216 20.6877 20.3019C21.1094 20.3823 21.4408 20.4827 21.6818 20.6032C21.6818 19.7999 21.491 19.2576 21.1094 18.9765C20.7479 18.6953 19.9948 18.5547 18.8501 18.5547C18.2877 18.5547 17.8258 18.5748 17.4643 18.615C17.1028 18.6551 16.651 18.7254 16.1087 18.8258C15.7673 18.866 15.5665 18.8961 15.5062 18.9162ZM20.5973 23.5554C20.1555 23.5554 19.7739 23.7161 19.4526 24.0374C19.1513 24.3386 19.0007 24.7102 19.0007 25.152C19.0007 25.5938 19.1513 25.9754 19.4526 26.2968C19.7739 26.598 20.1555 26.7486 20.5973 26.7486C21.0391 26.7486 21.4107 26.598 21.7119 26.2968C22.0332 25.9754 22.1939 25.5938 22.1939 25.152C22.1939 24.7102 22.0332 24.3386 21.7119 24.0374C21.4107 23.7161 21.0391 23.5554 20.5973 23.5554Z" fill="#4C4C4D"/>
<path d="M5.45257 21.6898L0 0H5.90444L9.18803 12.8934H9.24827L12.562 0H18.4664L12.803 21.6898H5.45257Z" fill="#4C4C4D"/>
</svg>
