<?xml version="1.0" encoding="UTF-8"?>
<svg id="Layer_1" data-name="Layer 1" xmlns="http://www.w3.org/2000/svg" viewBox="0 0 293.28 73.98">
  <defs>
    <style>
      .cls-1 {
        fill: #4c4c4c;
      }
    </style>
  </defs>
  <path class="cls-1" d="m101.86,58.78c0-1.4-.04-2.8.01-4.2.03-.92-.27-1.32-1.23-1.27-1.2.06-2.4,0-3.6.02-.78.02-1.2-.24-1.19-1.09.03-2.12.02-4.24,0-6.36,0-.78.37-1.06,1.11-1.05,1.28.02,2.56-.02,3.84,0,.77.02,1.07-.3,1.06-1.06-.03-1.96.02-3.92-.02-5.88-.02-.93.33-1.28,1.27-1.26,2.56.04,5.12.04,7.67,0,.91-.01,1.3.29,1.28,1.24-.05,1.8.05,3.6-.04,5.4-.06,1.18.27,1.65,1.53,1.58,1.95-.1,3.92,0,5.87-.04.92-.02,1.29.31,1.27,1.25-.05,2.04-.04,4.08,0,6.12.01.83-.33,1.14-1.14,1.13-2.08-.02-4.16.04-6.24-.02-1.02-.03-1.32.36-1.29,1.33.06,1.76,0,3.52.02,5.28.04,3.94,2.46,5.75,6.27,4.69.23-.06.46-.14.69-.22q1.75-.63,2.3,1.1c.5,1.56.98,3.13,1.5,4.68.22.66.16,1.12-.52,1.48-4.03,2.15-8.22,3.09-12.7,1.65-4.7-1.51-7.62-5.47-7.73-10.44-.03-1.36,0-2.72,0-4.08Z"/>
  <path class="cls-1" d="m16.36,60.95c1.34-4.86,3.09-9.58,4.57-14.39.41-1.35,1.03-1.82,2.45-1.76,2.75.12,5.52.06,8.27.02,1.03-.01,1.25.33.88,1.29-3.33,8.69-6.65,17.39-9.95,26.1-.28.74-.66,1.08-1.48,1.07-3.24-.03-6.48-.03-9.71,0-.75,0-1.17-.25-1.43-.96C6.7,63.55,3.43,54.79.14,46.04c-.35-.92-.07-1.22.87-1.22,2.96.03,5.92.04,8.87-.01.97-.02,1.43.34,1.71,1.26,1.54,4.95,3.57,9.76,4.76,14.88Z"/>
  <path class="cls-1" d="m65,73.74c-4.31.07-8.43-.68-12.21-2.89-2.51-1.47-2.52-1.48-.69-3.62,1.04-1.22,2.15-2.37,3.15-3.62.52-.65.96-.62,1.63-.27,2.7,1.4,5.57,2.18,8.64,2.1.24,0,.49.02.72-.04.87-.19,1.85-.39,1.94-1.47.08-1.06-.92-1.19-1.66-1.41-2.54-.74-5.2-.88-7.76-1.47-.82-.19-1.63-.39-2.42-.66-2.75-.92-4.86-2.51-5.27-5.6-.43-3.22.57-5.92,3.17-7.95,1.82-1.42,3.93-2.2,6.18-2.4,4.88-.45,9.68-.2,14.1,2.27.8.45,1.54,1,2.32,1.49.81.52.94,1.02.22,1.8-1.34,1.43-2.62,2.92-3.85,4.44-.55.68-1.02.68-1.73.31-2.8-1.48-5.77-2.32-8.98-2.2-.24,0-.48,0-.72.03-.83.07-1.67.22-1.77,1.25-.1,1.01.77,1.28,1.49,1.43,2.62.55,5.25,1,7.88,1.52,1.22.24,2.4.62,3.53,1.14,5.34,2.47,6.23,9.38,1.69,13.17-2.05,1.71-4.47,2.42-7.07,2.63-.83.07-1.68.01-2.52.01Z"/>
  <path class="cls-1" d="m62.65,16.22c5.88.05,10.2,1.91,14.18,4.66,3.31,2.29,6.12,5.13,8.69,8.21,1.02,1.23,1.03,1.23,1.76-.26,3.41-6.96,7.87-13.17,13.53-18.48C105.92,5.55,111.63,1.74,118.58.12c1.62-.38,2.77.17,3.04,1.45.29,1.35-.39,2.28-2.03,2.69-6.91,1.72-12.43,5.72-17.32,10.69-5.71,5.8-10.05,12.51-13.02,20.09-.39,1-.92,1.8-2.08,1.89-1.1.08-1.73-.62-2.29-1.46-3.23-4.79-7.08-8.97-12.02-12.06-2.72-1.7-5.68-2.79-8.9-2.9-3.65-.12-6.89,1.14-9.86,3.21-4.28,2.99-7.39,7.03-10.21,11.34-.13.2-.25.41-.38.61-.81,1.15-2.07,1.47-3.11.78-1.01-.66-1.25-1.88-.51-3.07,2.07-3.34,4.41-6.47,7.18-9.27,3.05-3.08,6.45-5.61,10.63-6.95,1.91-.62,3.87-.98,4.96-.94Z"/>
  <path class="cls-1" d="m46.79,59.14c0,4.23-.03,8.47.02,12.7.01,1.09-.32,1.47-1.43,1.45-2.79-.06-5.59-.05-8.39,0-.98.02-1.35-.32-1.35-1.31.02-8.63.02-17.26,0-25.88,0-.92.33-1.28,1.27-1.27,2.84.04,5.67.05,8.51,0,1.04-.02,1.4.33,1.39,1.38-.05,4.31-.02,8.63-.02,12.94Z"/>
  <path class="cls-1" d="m81.66,58.92c0-4.23.03-8.47-.02-12.7-.01-1.03.31-1.42,1.37-1.4,2.83.05,5.67.04,8.51,0,.92-.01,1.29.32,1.29,1.25-.02,8.67-.02,17.34,0,26,0,.85-.31,1.21-1.2,1.2-2.92-.04-5.83-.04-8.75,0-.98.01-1.21-.42-1.2-1.3.03-4.35.01-8.71.01-13.06Z"/>
  <path class="cls-1" d="m138.37,70.39c-.17.5-.27.75-.34,1.01-.36,1.24-1.04,1.72-2.26,1.58-1.2-.13-1.68-.64-1.69-2.03-.04-4.76-.04-9.51-.05-14.27,0-1.32-.03-2.64.01-3.96.06-1.69.68-2.18,2.59-2.16,1.74.02,2.23.49,2.25,2.2.01,1.6-.01,3.2-.03,4.8,0,.23-.12.51.11.67.28.19.41-.12.59-.26,4.25-3.34,9.53-1.36,10.58,3.99.49,2.52.36,5.01-.69,7.4-1.67,3.77-5.64,4.65-8.99,3.2-.89-.39-1.46-1.17-2.06-2.16Zm7.23-5.61c-.04-.56-.03-1.12-.13-1.67-.25-1.43-1.14-2.31-2.5-2.53-1.62-.26-3.15.29-3.72,1.53-.89,1.94-.89,3.94.11,5.87.59,1.13,1.58,1.61,2.86,1.57,1.29-.04,2.18-.65,2.77-1.75.51-.94.6-1.97.6-3.02Z"/>
  <path class="cls-1" d="m221.12,65.57c-1.28,0-2.56-.01-3.83,0-1.29.02-1.54.39-1.13,1.63.82,2.5,4.43,3.3,6.49,1.44.38-.35.72-.76,1.13-1.06.71-.5,1.49-.62,2.23-.07.72.55.87,1.29.58,2.15-.31.95-.89,1.72-1.73,2.23-3.03,1.83-6.24,2.03-9.37.47-3.31-1.65-4.77-6.11-3.65-10.27.94-3.5,3.71-5.49,7.6-5.52,1.25-.01,2.47.12,3.65.54,2.74.97,4.39,3.58,4.11,6.47-.14,1.47-.67,1.97-2.13,2.01-.12,0-.24,0-.36,0-1.2,0-2.4,0-3.6,0v-.02Zm-1.61-2.52c.72,0,1.44.03,2.16,0,.48-.03,1.13.24,1.34-.45.2-.64-.13-1.16-.59-1.6-1.36-1.3-4.31-1.25-5.62.12-.19.2-.38.43-.47.68-.27.73-.2,1.28.78,1.26.8-.01,1.6,0,2.4,0Z"/>
  <path class="cls-1" d="m173.87,70.36c-1.26,2.44-3.21,3.19-5.65,2.94-2.77-.28-4.47-1.98-4.65-5.01-.18-3.11-.2-6.22-.2-9.34,0-1.62.69-2.15,2.49-2.14,1.73.01,2.29.5,2.29,2.17,0,2.03-.09,4.07-.15,6.1-.03.81.1,1.6.33,2.36.29.98.9,1.71,1.99,1.82,1.18.13,2.13-.28,2.71-1.35.41-.75.6-1.56.6-2.42,0-2.2,0-4.39,0-6.59.01-1.49.64-2.03,2.31-2.04,1.8-.01,2.37.47,2.37,2.04,0,3.84,0,7.67-.01,11.51,0,1.74-.42,2.36-1.7,2.54-1.32.19-2.05-.39-2.5-1.97-.04-.14-.1-.28-.23-.64Z"/>
  <path class="cls-1" d="m250.06,60.78c.05.86-.28,1.49-1.12,1.77-1.06.35-1.94.14-2.65-.8-1.13-1.49-2.54-1.97-4.17-1.53-.74.2-1.37.52-1.39,1.41-.03.82.53,1.19,1.21,1.45,1.24.48,2.56.62,3.84.9.82.18,1.63.4,2.4.75,2.65,1.2,3.27,4.44,1.28,6.57-.47.5-1.01.92-1.65,1.18-2.94,1.18-5.91,1.26-8.86.08-1.32-.53-2.3-1.45-2.69-2.87-.21-.77-.21-1.57.52-2.06.72-.48,1.54-.38,2.25.1.36.25.66.57.97.88,1.45,1.46,3.25,1.34,5.06,1.06.51-.08.96-.44.98-1.06.02-.58-.41-.84-.86-1.03-1.12-.45-2.33-.52-3.5-.79-.78-.18-1.56-.34-2.31-.61-1.76-.64-2.88-1.86-3.04-3.78-.16-1.8.48-3.3,1.95-4.39,2.51-1.87,7.57-1.94,10.13-.13,1,.71,1.61,1.65,1.66,2.9Z"/>
  <path class="cls-1" d="m202.96,56.56c1.65.03,3.14.25,4.52.96,1.04.53,1.82,1.31,2.13,2.47.25.93.26,1.85-.72,2.43-.91.55-2.1.36-2.8-.52-.63-.8-1.26-1.54-2.34-1.73-.81-.15-1.59-.12-2.36.18-.55.21-.98.55-1.01,1.2-.03.69.32,1.14.92,1.41.96.43,1.98.61,3,.8,1.14.22,2.25.51,3.35.9,3.63,1.28,3,5.69.89,7.18-1.88,1.32-3.99,1.54-6.17,1.51-1.69-.03-3.34-.32-4.77-1.34-.87-.62-1.55-1.39-1.76-2.48-.14-.75-.07-1.49.61-1.93.65-.42,1.38-.36,2.05.04.34.2.66.46.92.76,1.4,1.6,3.23,1.56,5.09,1.34.59-.07,1.08-.42,1.16-1.05.09-.7-.46-1-1.01-1.14-1.12-.29-2.26-.48-3.39-.75-.81-.19-1.64-.37-2.42-.67-1.65-.64-2.73-1.83-2.89-3.64-.17-1.83.45-3.38,1.98-4.49,1.53-1.1,3.28-1.39,4.99-1.43Z"/>
  <path class="cls-1" d="m186.96,56.56c1.81.01,3.15.2,4.41.76,1.1.48,1.97,1.23,2.41,2.38.49,1.28.23,2.26-.67,2.74-1.04.55-2.14.27-2.95-.76-1.14-1.45-2.61-1.91-4.33-1.4-.64.19-1.1.53-1.19,1.19-.1.73.34,1.22.96,1.5.95.44,1.98.61,3,.79,1.07.19,2.11.44,3.12.82,1.52.58,2.63,1.54,2.79,3.27.16,1.69-.48,3.05-1.84,4.05-1.77,1.3-3.85,1.47-5.94,1.45-1.6-.02-3.18-.27-4.59-1.16-.8-.51-1.48-1.11-1.83-2-.36-.93-.56-1.97.43-2.59.9-.56,1.9-.34,2.59.49,1.3,1.54,2.97,1.91,4.86,1.72.31-.03.64-.09.93-.2.48-.19.79-.53.78-1.09,0-.53-.36-.78-.79-.94-1.17-.43-2.42-.51-3.62-.79-.78-.18-1.56-.36-2.3-.64-1.55-.59-2.67-1.6-2.88-3.36-.24-1.96.25-3.65,1.96-4.83,1.54-1.07,3.28-1.39,4.68-1.4Z"/>
  <path class="cls-1" d="m287.36,60.63c3.19,0,5.64,2.04,5.89,4.82.31,3.4-1.63,6-4.89,6.6-1.77.33-3.5-.05-5.23-.33-2.3-.38-4.36.09-6.19,1.55-.4.32-.8.77-1.37.4-.53-.35-.44-.9-.27-1.41,1.57-4.85,4.43-8.64,9.04-10.98.98-.5,2.03-.71,3.02-.64Z"/>
  <path class="cls-1" d="m261.51,60.64c1.25-.1,2.45.25,3.54.86,4.26,2.37,7.01,5.97,8.51,10.57.18.56.43,1.23-.24,1.63-.62.37-1.03-.18-1.46-.52-1.74-1.34-3.7-1.81-5.87-1.49-1.77.27-3.53.69-5.35.38-2.62-.45-4.73-2.5-4.98-4.84-.31-2.91,1.02-5.22,3.57-6.26.73-.29,1.47-.35,2.27-.32Z"/>
  <path class="cls-1" d="m229.02,61.08c0-2.83-.01-5.67,0-8.5,0-1.52.6-2.02,2.3-2.02,1.63,0,2.17.47,2.17,1.99,0,5.27,0,10.54-.04,15.81,0,.86.04,1.51,1.18,1.43.72-.05,1.06.51,1.16,1.15.13.87-.17,1.58-.95,2.03-2.54,1.46-5.75-.32-5.81-3.26-.06-2.87-.01-5.75-.01-8.62h0Z"/>
  <path class="cls-1" d="m265.25,56.82c-.02-2.41.93-4.09,2.83-5.14,1.89-1.05,3.83-1.05,5.67.16.51.33.86.34,1.39.02,2.37-1.42,5.07-1.11,6.92.72,1.8,1.78,2.15,4.62.85,6.97-.73,1.32-1.84,2.31-2.97,3.26-1.86,1.57-3.36,3.4-4.45,5.58-.23.46-.44,1.01-1.08.98-.56-.03-.76-.52-.98-.95-1.06-2.1-2.47-3.9-4.27-5.42-.82-.7-1.6-1.45-2.31-2.26-1.03-1.17-1.72-2.5-1.61-3.92Zm2.03.06c-.08.69.27,1.4.74,2.06.65.92,1.46,1.7,2.31,2.42,1.42,1.19,2.69,2.51,3.63,4.12.43.74.67.58,1.03-.04.93-1.61,2.22-2.92,3.63-4.12.91-.78,1.79-1.6,2.44-2.62,1.1-1.73.67-3.92-.99-5.11-1.65-1.18-3.7-.88-4.96.85-.59.81-.84.64-1.34-.04-1.02-1.39-2.47-1.81-4.02-1.27-1.53.53-2.48,1.9-2.47,3.75Z"/>
  <path class="cls-1" d="m151.82,68.48c.15-3.27.2-6.54.17-9.81-.01-1.06.44-1.65,1.5-1.77,1.24-.14,1.93.31,2.23,1.44.09.33,0,.82.45.88.33.04.46-.39.64-.64.8-1.07,1.89-1.57,3.18-1.68,1.3-.11,2.08.48,2.21,1.63.18,1.54-.4,2.43-1.73,2.64-3.15.51-3.82,1.29-3.83,4.48,0,1.72.03,3.43-.02,5.15-.06,1.71-.67,2.24-2.41,2.22-1.73-.02-2.33-.58-2.38-2.27-.02-.76,0-1.52,0-2.27Z"/>
  <path class="cls-1" d="m128.98,68.27c1.88.06,2.57.76,2.52,2.55-.04,1.54-1.03,2.43-2.67,2.41-1.62-.03-2.7-1.08-2.68-2.61.03-1.55,1.06-2.41,2.82-2.35Z"/>
</svg>