<svg width="93" height="33" viewBox="0 0 93 33" fill="none" xmlns="http://www.w3.org/2000/svg">
<path d="M6.05822 4.55556V8.00069H7.32566C7.56976 8.00069 7.79507 7.9912 8.00162 7.97222C8.20816 7.93426 8.41471 7.86782 8.62126 7.77292C8.84658 7.65903 9.02496 7.4787 9.15639 7.23194C9.30661 6.98518 9.38172 6.6625 9.38172 6.26389C9.38172 5.86528 9.30661 5.55208 9.15639 5.3243C9.00618 5.07755 8.81842 4.89722 8.5931 4.78333C8.38655 4.66944 8.18 4.60301 7.97346 4.58403C7.78569 4.56505 7.56976 4.55556 7.32566 4.55556H6.05822ZM0.763138 20.5V0H8.81841C10.7337 0 12.1889 0.540972 13.184 1.62292C14.1792 2.70486 14.6768 4.06204 14.6768 5.69444C14.6768 6.39676 14.5923 7.00417 14.4233 7.51667C14.2543 8.02917 14.029 8.45625 13.7473 8.79792C13.4845 9.1206 13.231 9.36736 12.9869 9.53819C12.7428 9.70903 12.4611 9.87986 12.1419 10.0507C12.1231 10.0697 12.095 10.0887 12.0574 10.1076C12.0762 10.1266 12.1231 10.1551 12.1983 10.1931C12.4799 10.3639 12.7428 10.5442 12.9869 10.734C13.231 10.9049 13.4939 11.1706 13.7755 11.5312C14.0759 11.8919 14.32 12.3475 14.5078 12.8979C14.6956 13.4484 14.7895 14.0748 14.7895 14.7771C14.7895 15.3465 14.6768 15.9539 14.4515 16.5993C14.2449 17.2447 13.8976 17.8711 13.4094 18.4785C12.9212 19.0669 12.2546 19.5509 11.4096 19.9306C10.5834 20.3102 9.57887 20.5 8.39593 20.5H0.763138ZM6.05822 12.2715V15.9444H7.41015C8.14245 15.9444 8.64942 15.7451 8.93108 15.3465C9.23151 14.9479 9.38172 14.5113 9.38172 14.0368C9.38172 13.3725 9.16579 12.9169 8.73392 12.6701C8.30205 12.4044 7.80446 12.2715 7.24115 12.2715H6.05822Z" fill="#4C4C4D"/>
<path d="M18.0263 14.0263V0H23.2412V1.40805H23.3012C23.6208 0.86649 24.0304 0.496426 24.53 0.297855C25.0295 0.0992852 25.7388 0 26.6579 0V4.71154C25.2992 4.71154 24.3901 4.91011 23.9305 5.30725C23.471 5.7044 23.2412 6.34524 23.2412 7.22978V14.0263H18.0263Z" fill="#4C4C4D"/>
<path d="M39.6053 7.55263V22.3159H35.0263V20.9479C34.5526 21.4989 34.0438 21.9264 33.5 22.2304C32.9561 22.5154 32.3509 22.6579 31.6842 22.6579C31.1754 22.6579 30.6842 22.5819 30.2105 22.4299C29.7544 22.2779 29.3333 22.0309 28.9474 21.6889C28.5789 21.3469 28.2807 20.9004 28.0526 20.3493C27.8421 19.7983 27.7368 19.1523 27.7368 18.4113V7.55263H32.3158V15.6468C32.3158 16.2548 32.4123 16.7488 32.6052 17.1288C32.7982 17.5088 33.1667 17.6988 33.7105 17.6988C34.2193 17.6988 34.5614 17.5088 34.7368 17.1288C34.9298 16.7298 35.0263 16.2358 35.0263 15.6468V7.55263H39.6053Z" fill="#4C4C4D"/>
<path d="M43.1054 27.7182V23.2312C43.281 23.3241 43.4956 23.4077 43.7491 23.482C44.0222 23.5563 44.3148 23.5935 44.6269 23.5935C44.9975 23.5935 45.3096 23.5285 45.5632 23.3984C45.8363 23.2498 45.9729 23.0175 45.9729 22.7017C45.9729 22.4973 45.8948 22.3022 45.7388 22.1164C45.5827 21.9306 45.3291 21.6798 44.978 21.3639C44.3148 20.7694 43.7882 20.1841 43.398 19.6082C43.0274 19.0136 42.8421 18.2519 42.8421 17.3229C42.8421 15.8365 43.3102 14.7403 44.2465 14.0343C45.1829 13.3097 46.4605 12.9474 48.0796 12.9474C49.3085 12.9474 50.2935 12.9845 51.0348 13.0588V17.6294C50.5081 17.295 49.9327 17.1278 49.3085 17.1278C48.9964 17.1278 48.7233 17.2207 48.4892 17.4065C48.2746 17.5737 48.1673 17.8059 48.1673 18.1032C48.1673 18.2704 48.2454 18.4562 48.4014 18.6606C48.5575 18.8464 48.811 19.0972 49.1622 19.4131C49.8644 20.0819 50.4203 20.7322 50.83 21.3639C51.2591 21.9957 51.4737 22.776 51.4737 23.705C51.4737 25.117 51.0055 26.1947 50.0692 26.9378C49.1524 27.681 47.7577 28.0526 45.8851 28.0526C45.5535 28.0526 45.1829 28.034 44.7732 27.9969C44.3636 27.9597 43.8077 27.8668 43.1054 27.7182Z" fill="#4C4C4D"/>
<path d="M52.783 22.3235V17.8365C52.9366 17.9294 53.1244 18.013 53.3463 18.0873C53.5852 18.1616 53.8413 18.1988 54.1143 18.1988C54.4386 18.1988 54.7117 18.1337 54.9336 18.0037C55.1726 17.855 55.292 17.6228 55.292 17.3069C55.292 17.1026 55.2238 16.9075 55.0872 16.7217C54.9507 16.5359 54.7288 16.2851 54.4216 15.9692C53.8413 15.3747 53.3804 14.7894 53.0391 14.2134C52.7148 13.6189 52.5526 12.8571 52.5526 11.9281C52.5526 10.4418 52.9622 9.34556 53.7815 8.63954C54.6008 7.91493 55.7187 7.55263 57.1354 7.55263C58.2107 7.55263 59.0726 7.58979 59.7212 7.66411V12.2347C59.2604 11.9003 58.7569 11.7331 58.2107 11.7331C57.9376 11.7331 57.6986 11.8259 57.4938 12.0117C57.3061 12.179 57.2122 12.4112 57.2122 12.7085C57.2122 12.8757 57.2805 13.0615 57.417 13.2659C57.5536 13.4517 57.7754 13.7025 58.0827 14.0183C58.6971 14.6872 59.1836 15.3375 59.542 15.9692C59.9175 16.6009 60.1052 17.3813 60.1052 18.3103C60.1052 19.7223 59.6956 20.7999 58.8763 21.5431C58.0741 22.2863 56.8538 22.6579 55.2152 22.6579C54.9251 22.6579 54.6008 22.6393 54.2424 22.6022C53.8839 22.565 53.3975 22.4721 52.783 22.3235Z" fill="#4C4C4D"/>
<path d="M75.1136 23.6891L75.4754 28.4269H75.4452C74.5809 28.9099 73.6362 29.328 72.6111 29.681C71.586 30.034 70.3599 30.2105 68.9328 30.2105C68.2092 30.2105 67.4052 30.0898 66.5208 29.8482C65.6565 29.6067 64.8123 29.1979 63.9882 28.622C63.1641 28.046 62.4907 27.2656 61.9681 26.2809C61.4455 25.2776 61.1842 24.0792 61.1842 22.6858C61.1842 21.4409 61.4254 20.3447 61.9078 19.3972C62.4103 18.431 63.0636 17.6321 63.8676 17.0004C64.6917 16.3501 65.5761 15.8763 66.5208 15.579C67.4856 15.2632 68.4303 15.1053 69.3549 15.1053C70.5609 15.1053 71.576 15.2725 72.4001 15.6069C73.2443 15.9413 73.9176 16.378 74.4201 16.9168C74.9427 17.437 75.3347 17.9572 75.596 18.4775C75.8573 18.9977 76.0884 19.5737 76.2895 20.2054L68.4202 25.3612C68.5609 25.4541 68.8122 25.547 69.174 25.6399C69.5358 25.7142 69.8876 25.7514 70.2293 25.7514C71.0735 25.7514 71.9579 25.547 72.8825 25.1383C73.8272 24.7109 74.5709 24.2279 75.1136 23.6891ZM66.3097 22.7415L70.5609 19.7873C70.4202 19.6201 70.169 19.4993 69.8072 19.425C69.4654 19.3321 69.1438 19.2857 68.8423 19.2857C68.0986 19.2857 67.4655 19.5272 66.9429 20.0103C66.4404 20.4748 66.1891 21.1251 66.1891 21.9611C66.1891 22.1098 66.2293 22.342 66.3097 22.6579V22.7415Z" fill="#4C4C4D"/>
<path d="M76.2895 28.0526V7.55263H81.6842V28.0526H76.2895Z" fill="#4C4C4D"/>
<path d="M83.0594 32.034V27.547C83.2569 27.6399 83.4983 27.7235 83.7836 27.7978C84.0908 27.8721 84.42 27.9093 84.7711 27.9093C85.188 27.9093 85.5391 27.8443 85.8244 27.7142C86.1316 27.5656 86.2853 27.3333 86.2853 27.0175C86.2853 26.8131 86.1975 26.618 86.0219 26.4322C85.8464 26.2464 85.5611 25.9956 85.1661 25.6797C84.42 25.0852 83.8275 24.4999 83.3886 23.924C82.9716 23.3294 82.7631 22.5676 82.7631 21.6387C82.7631 20.1523 83.2898 19.0561 84.3432 18.3501C85.3965 17.6255 86.8339 17.2632 88.6553 17.2632C90.0378 17.2632 91.146 17.3003 91.9799 17.3746V21.9452C91.3874 21.6108 90.74 21.4436 90.0378 21.4436C89.6867 21.4436 89.3795 21.5365 89.1161 21.7223C88.8747 21.8895 88.754 22.1217 88.754 22.419C88.754 22.5862 88.8418 22.772 89.0174 22.9764C89.1929 23.1622 89.4782 23.413 89.8732 23.7289C90.6632 24.3977 91.2887 25.048 91.7495 25.6797C92.2323 26.3114 92.4737 27.0918 92.4737 28.0208C92.4737 29.4328 91.947 30.5105 90.8936 31.2536C89.8622 31.9968 88.2932 32.3684 86.1865 32.3684C85.8135 32.3684 85.3965 32.3498 84.9357 32.3127C84.4748 32.2755 83.8494 32.1826 83.0594 32.034Z" fill="#4C4C4D"/>
</svg>
