<svg width="69" height="127" viewBox="0 0 69 127" fill="none" xmlns="http://www.w3.org/2000/svg">
<path d="M27.2687 118.603V107.553H37.5789L35.8389 112.408H31.5798V114.054C32.2204 114.129 32.8091 114.24 33.3458 114.389C33.8825 114.538 34.4279 114.817 34.9819 115.226C35.5359 115.617 35.9948 116.203 36.3583 116.984C36.7219 117.765 36.9037 118.77 36.9037 119.998C36.9037 121.225 36.7133 122.295 36.3324 123.207C35.9688 124.1 35.484 124.825 34.878 125.383C34.2721 125.923 33.6055 126.323 32.8783 126.583C32.1512 126.843 31.4153 126.974 30.6709 126.974C29.7013 126.974 28.8097 126.76 27.9959 126.332C27.1995 125.885 26.4377 125.253 25.7105 124.434L28.0479 120.751C28.1171 120.788 28.2383 120.881 28.4114 121.03C28.775 121.365 29.13 121.635 29.4762 121.839C29.8225 122.025 30.2293 122.118 30.6968 122.118C31.1296 122.118 31.5192 121.997 31.8655 121.756C32.2118 121.495 32.3849 121.077 32.3849 120.5C32.3849 119.756 32.0646 119.179 31.424 118.77C30.7834 118.361 30.0476 118.156 29.2165 118.156C28.9222 118.156 28.6105 118.203 28.2816 118.296C27.9526 118.37 27.6496 118.463 27.3726 118.575L27.2687 118.603Z" fill="#4C4C4D"/>
<path d="M34.1991 94.01L32.2244 97.6375C30.8305 97.098 29.756 96.4283 29.001 95.6284C28.2459 94.8099 27.8684 93.7403 27.8684 92.4195C27.8684 90.522 28.5073 88.978 29.7851 87.7874C31.0628 86.5783 32.7471 85.9737 34.838 85.9737C35.806 85.9737 36.6966 86.1225 37.5097 86.4202C38.3422 86.7178 39.0488 87.1364 39.6296 87.6758C40.2104 88.1967 40.6557 88.8013 40.9654 89.4896C41.2946 90.1593 41.4591 90.8755 41.4591 91.6382C41.4591 92.7357 41.2655 93.7124 40.8783 94.5681C40.4911 95.4238 39.7845 96.5957 38.7584 98.0839L37.0741 100.539H41.8947V105.395H28.1298L34.4895 96.5771C35.1671 95.647 35.6705 94.8471 35.9996 94.1774C36.3481 93.5077 36.5223 92.9217 36.5223 92.4195C36.5223 91.8428 36.3384 91.3684 35.9706 90.9964C35.6027 90.6243 35.1381 90.4383 34.5767 90.4383C34.1507 90.4383 33.7442 90.5685 33.357 90.829C32.9891 91.0894 32.8052 91.5452 32.8052 92.1962C32.8052 92.6241 32.931 93.0055 33.1827 93.3403C33.4538 93.6751 33.7926 93.8984 34.1991 94.01Z" fill="#4C4C4D"/>
<path d="M44.0526 83.1532C44.4645 83.1532 44.7958 82.9617 45.0465 82.5788C45.2972 82.1776 45.4763 81.7035 45.5837 81.1564C45.7091 80.5911 45.7807 80.0896 45.7986 79.6519C45.8345 79.1961 45.8524 78.7766 45.8524 78.3937C45.8524 78.029 45.8345 77.6278 45.7986 77.1901C45.7807 76.7342 45.718 76.2327 45.6106 75.6857C45.5032 75.1386 45.3151 74.6736 45.0465 74.2906C44.7958 73.8895 44.4645 73.6889 44.0526 73.6889C43.6407 73.6889 43.3095 73.8803 43.0587 74.2633C42.808 74.6462 42.62 75.1204 42.4946 75.6857C42.3872 76.2327 42.3156 76.7342 42.2797 77.1901C42.2618 77.6278 42.2529 78.029 42.2529 78.3937C42.2529 78.7766 42.2618 79.1961 42.2797 79.6519C42.3156 80.0896 42.3872 80.5911 42.4946 81.1564C42.62 81.7035 42.808 82.1776 43.0587 82.5788C43.3095 82.9617 43.6407 83.1532 44.0526 83.1532ZM37.5789 78.421C37.5789 76.8163 37.7491 75.403 38.0893 74.1812C38.4296 72.9594 38.8952 71.9474 39.4861 71.145C40.095 70.3244 40.7844 69.7135 41.5545 69.3123C42.3424 68.9111 43.1751 68.7105 44.0526 68.7105C44.9301 68.7105 45.7539 68.9111 46.5239 69.3123C47.3118 69.7135 48.0013 70.3244 48.5923 71.145C49.2011 71.9474 49.6757 72.9594 50.0159 74.1812C50.3562 75.403 50.5263 76.8163 50.5263 78.421C50.5263 80.0075 50.3562 81.4208 50.0159 82.6608C49.6757 83.8826 49.2011 84.9038 48.5923 85.7244C48.0013 86.5268 47.3118 87.1286 46.5239 87.5298C45.7539 87.931 44.9301 88.1316 44.0526 88.1316C43.1751 88.1316 42.3424 87.931 41.5545 87.5298C40.7844 87.1286 40.095 86.5268 39.4861 85.7244C38.8952 84.9038 38.4296 83.8826 38.0893 82.6608C37.7491 81.4208 37.5789 80.0075 37.5789 78.421Z" fill="#4C4C4D"/>
<path d="M28.3174 71.3521L26.4946 74.9796C25.2079 74.4401 24.2161 73.7704 23.5191 72.9705C22.8222 72.152 22.4737 71.0824 22.4737 69.7616C22.4737 67.8641 23.0634 66.3201 24.2429 65.1295C25.4224 63.9204 26.9771 63.3158 28.9072 63.3158C29.8007 63.3158 30.6227 63.4646 31.3733 63.7623C32.1418 64.0599 32.794 64.4785 33.3302 65.0179C33.8663 65.5388 34.2773 66.1434 34.5632 66.8317C34.867 67.5014 35.019 68.2176 35.019 68.9803C35.019 70.0778 34.8402 71.0545 34.4828 71.9102C34.1254 72.7659 33.4731 73.9378 32.526 75.426L30.9712 77.8816H35.421V82.7368H22.7149L28.5855 73.9192C29.211 72.9891 29.6756 72.1892 29.9794 71.5195C30.3011 70.8498 30.4619 70.2638 30.4619 69.7616C30.4619 69.1849 30.2921 68.7105 29.9526 68.3385C29.613 67.9664 29.1842 67.7804 28.6659 67.7804C28.2727 67.7804 27.8975 67.9106 27.54 68.1711C27.2005 68.4315 27.0307 68.8873 27.0307 69.5383C27.0307 69.9662 27.1469 70.3476 27.3792 70.6824C27.6294 71.0172 27.9421 71.2405 28.3174 71.3521Z" fill="#4C4C4D"/>
<path d="M61.3195 34.5386V32.7161L66.5526 29.8684V34.5386H68.4774V38.8101H66.5526V42.8537C66.5526 43.3284 66.6328 43.6986 66.7932 43.9643C66.9737 44.2111 67.4048 44.3345 68.0865 44.3345C68.3672 44.3345 68.6178 44.2966 68.8383 44.2206H68.8684L68.0865 49.2895C66.703 49.2895 65.6403 49.2705 64.8985 49.2325C64.1767 49.1756 63.5351 49.0332 62.9737 48.8054C62.4323 48.5775 62.0213 48.2073 61.7406 47.6948C61.4599 47.1822 61.3195 46.4703 61.3195 45.559V38.8101H60.2368V34.5386H61.3195Z" fill="#4C4C4D"/>
<path d="M42.9737 59V39.9128H48.1218V41.4153H48.181C48.5163 40.933 49.0095 40.5064 49.6604 40.1354C50.331 39.7644 51.1693 39.5789 52.1753 39.5789C53.1024 39.5789 53.99 39.7552 54.8381 40.1076C55.6863 40.4415 56.4359 40.933 57.0868 41.5823C57.7377 42.2315 58.2407 42.992 58.5957 43.8638C58.9705 44.7171 59.1579 45.6445 59.1579 46.6462C59.1579 49.1133 58.4675 51.0702 57.0868 52.517C55.7258 53.9453 53.9111 54.6595 51.6427 54.6595C50.7946 54.6595 50.0647 54.5389 49.4533 54.2978C48.8615 54.0381 48.4177 53.7691 48.1218 53.4909V59H42.9737ZM54.0097 47.1192C54.0097 46.3587 53.7237 45.7187 53.1517 45.1994C52.5994 44.68 51.9189 44.4203 51.1102 44.4203C50.3014 44.4203 49.6209 44.68 49.0686 45.1994C48.5164 45.7187 48.2402 46.3587 48.2402 47.1192C48.2402 47.8797 48.5164 48.5197 49.0686 49.0391C49.6209 49.5584 50.3014 49.8181 51.1102 49.8181C51.9189 49.8181 52.5994 49.5584 53.1517 49.0391C53.7237 48.5197 54.0097 47.8797 54.0097 47.1192Z" fill="#4C4C4D"/>
<path d="M40.7189 46.0049L41.0807 50.7427H41.0505C40.1862 51.2257 39.2415 51.6438 38.2164 51.9968C37.1913 52.3498 35.9652 52.5263 34.5381 52.5263C33.8145 52.5263 33.0105 52.4055 32.1261 52.164C31.2618 51.9225 30.4176 51.5137 29.5934 50.9378C28.7693 50.3618 28.096 49.5814 27.5734 48.5967C27.0508 47.5934 26.7895 46.395 26.7895 45.0016C26.7895 43.7567 27.0307 42.6605 27.5131 41.713C28.0156 40.7468 28.6688 39.9479 29.4728 39.3162C30.2969 38.6659 31.1814 38.1921 32.1261 37.8948C33.0909 37.579 34.0356 37.4211 34.9602 37.4211C36.1662 37.4211 37.1813 37.5883 38.0054 37.9227C38.8496 38.2571 39.5229 38.6938 40.0254 39.2326C40.548 39.7528 40.94 40.273 41.2013 40.7933C41.4626 41.3135 41.6937 41.8895 41.8947 42.5212L34.0255 47.677C34.1662 47.7699 34.4175 47.8628 34.7793 47.9557C35.1411 48.03 35.4928 48.0672 35.8345 48.0672C36.6787 48.0672 37.5632 47.8628 38.4878 47.4541C39.4325 47.0267 40.1762 46.5437 40.7189 46.0049ZM31.915 45.0573L36.1662 42.1031C36.0255 41.9359 35.7742 41.8151 35.4124 41.7408C35.0707 41.6479 34.7491 41.6015 34.4476 41.6015C33.7039 41.6015 33.0708 41.843 32.5482 42.3261C32.0457 42.7906 31.7944 43.4409 31.7944 44.2769C31.7944 44.4256 31.8346 44.6578 31.915 44.9737V45.0573Z" fill="#4C4C4D"/>
<path d="M25.271 29.1691V34.3212C24.9779 34.1043 24.5593 33.9325 24.015 33.806C23.4708 33.6795 23.0312 33.6162 22.6963 33.6162C22.0265 33.6162 21.4927 33.7427 21.095 33.9958C20.6973 34.2489 20.4985 34.6466 20.4985 35.1889C20.4985 35.6228 20.645 35.9934 20.938 36.3007C21.252 36.608 21.7334 36.9786 22.3823 37.4125C22.9056 37.7559 23.3347 38.0723 23.6697 38.3615C24.0046 38.6327 24.329 38.9671 24.643 39.3649C24.957 39.7445 25.2082 40.2145 25.3965 40.7749C25.6059 41.3172 25.7105 41.95 25.7105 42.6731C25.7105 44.0289 25.4803 45.1497 25.0198 46.0355C24.5593 46.9032 23.9208 47.5721 23.1045 48.0421C22.3091 48.5121 21.409 48.8375 20.4043 49.0183C19.3995 49.1991 18.2797 49.2895 17.0447 49.2895C16.5423 49.2895 15.9039 49.2533 15.1294 49.181C14.6898 49.1268 14.3863 49.0996 14.2189 49.0996L14.0619 43.7035C14.7317 43.8662 15.2759 43.9837 15.6946 44.056C16.1342 44.1102 16.5214 44.1373 16.8563 44.1373C17.4005 44.1373 17.8401 44.0108 18.175 43.7577C18.5099 43.4866 18.6774 43.116 18.6774 42.6459C18.6774 42.2302 18.5413 41.8686 18.2692 41.5613C17.9971 41.2359 17.5575 40.8291 16.9505 40.341C16.4481 39.9433 16.04 39.5999 15.726 39.3106C15.412 39.0214 15.1085 38.6779 14.8154 38.2802C14.5224 37.8644 14.2817 37.3854 14.0933 36.843C13.9258 36.2826 13.8421 35.6589 13.8421 34.972C13.8421 34.5562 13.9049 34.041 14.0305 33.4264C14.177 32.8117 14.4805 32.1429 14.941 31.4198C15.4015 30.6966 16.1237 30.082 17.1075 29.5758C18.0913 29.0516 19.3786 28.7895 20.9694 28.7895C21.6183 28.7895 22.3509 28.8256 23.1673 28.8979C23.9836 28.9702 24.6849 29.0606 25.271 29.1691Z" fill="#4C4C4D"/>
<path d="M38.6579 14.5512V9.36841H50.5263V11.9883L43.6117 28.7895H38.6579L44.5663 14.5512H38.6579Z" fill="#4C4C4D"/>
<path d="M20.3158 14.7631V9.36841H31.1053V14.7631H20.3158Z" fill="#4C4C4D"/>
<path d="M2.59461 11.7867V0.736832H13.8421L11.9439 5.5921H7.29759V7.23842C7.99643 7.31283 8.6386 7.42445 9.22412 7.57327C9.80963 7.72209 10.4046 8.00112 11.009 8.41038C11.6134 8.80103 12.1139 9.38701 12.5105 10.1683C12.9072 10.9496 13.1055 11.9542 13.1055 13.1819C13.1055 14.4097 12.8977 15.4793 12.4822 16.3909C12.0856 17.2838 11.5567 18.0093 10.8957 18.5674C10.2346 19.1068 9.50743 19.5068 8.71415 19.7672C7.92088 20.0277 7.11816 20.1579 6.306 20.1579C5.2483 20.1579 4.2756 19.944 3.38788 19.5161C2.51906 19.0696 1.68801 18.4372 0.894737 17.6186L3.44455 13.9353C3.5201 13.9725 3.65231 14.0656 3.84118 14.2144C4.23782 14.5492 4.62501 14.819 5.00276 15.0236C5.38051 15.2096 5.82437 15.3026 6.33433 15.3026C6.80652 15.3026 7.23149 15.1817 7.60923 14.9399C7.98698 14.6794 8.17586 14.2609 8.17586 13.6842C8.17586 12.9401 7.82644 12.3634 7.12761 11.9542C6.42877 11.5449 5.62605 11.3403 4.71945 11.3403C4.39837 11.3403 4.05839 11.3868 3.69953 11.4798C3.34067 11.5542 3.01014 11.6472 2.70794 11.7588L2.59461 11.7867Z" fill="#4C4C4D"/>
</svg>
