<svg width="974" height="942" viewBox="0 0 974 942" fill="none" xmlns="http://www.w3.org/2000/svg">
<path d="M972.55 445.97C971.3 438.6 970.84 432.07 971.12 426.02C971.37 420.66 970.53 414.93 968.53 408.51C966.89 403.24 965.81 397.74 965.33 392.18C964.73 385.29 963.34 379.48 961.09 374.43C952.27 354.64 944.51 340.1 935.93 327.26C934.9 325.72 933.88 324.16 932.9 322.64C929.02 316.66 925.35 311.01 920.58 306.2C919 304.6 917.43 303 915.85 301.4C908.77 294.18 901.44 286.71 893.56 280.25C882.92 271.53 869.77 262.23 852.8 259.33C839.98 257.14 836.92 249.39 836.64 243.21C836.62 243.15 836.6 243.09 836.59 243.03C836.53 242.84 836.48 242.65 836.43 242.46C833.05 228.81 824.65 218.04 810.76 209.54L810.14 209.16C805.68 206.46 804.94 204.67 805.97 199.12C808.72 184.38 806.82 169.94 800.33 156.2C794.67 144.23 786.53 134.16 776.12 126.28C759.26 113.51 742.27 107.3 724.19 107.3C719.55 107.3 714.78 107.73 710.01 108.56C708.69 108.79 707.72 108.9 706.85 108.9C700.45 108.9 699.95 103.01 699.77 100.79C699.28 94.98 697.63 89.11 694.87 83.35C685.53 63.87 673.17 49.26 657.08 38.69C630.74 21.39 600.81 8.93999 568.12 1.68999C562.94 0.539995 557.26 0.00999451 550.25 0.00999451C547.92 0.00999451 545.44 0.0699945 542.44 0.189994C539.14 0.319994 535.74 0.579995 532.46 0.819995C527.51 1.18999 522.4 1.57999 517.29 1.57999C513.1 1.57999 509.34 1.31999 505.79 0.789995C505.23 0.709995 504.62 0.669995 503.92 0.669995C502.81 0.669995 501.66 0.769995 500.57 0.879995C497.96 1.14999 495.34 1.41999 492.73 1.67999C481.25 2.84999 469.38 4.05999 457.74 5.43999C445.97 6.83999 433.51 8.82999 422.2 13.91C414.59 17.33 406.46 20.93 398.06 24.03C395.22 25.08 392.95 26.43 391.33 28.04C388.18 31.17 384.44 33.71 379.56 36.03C370.27 40.45 362.68 46.92 356.99 55.28C356.49 56.01 355.98 56.7 355.48 57.36C354.93 58.1 354.4 58.79 353.96 59.48C352.02 62.48 349.57 63.11 347.86 63.11C347.04 63.11 346.18 62.96 345.31 62.67C337.26 59.99 328.65 59.38 320.32 58.78C318.89 58.68 317.46 58.63 316.08 58.63C310.15 58.63 304.65 59.53 299.27 61.4C292.42 63.77 285.74 67.21 279.41 71.62C272.75 76.26 267.58 81.1 263.6 86.42C259.35 92.1 257.69 97.43 258.37 103.2C258.71 106.08 258.14 108.38 256.67 110.03C255.46 111.39 253.73 112.14 251.79 112.14C250.5 112.14 249.12 111.81 247.67 111.16C244.5 109.74 241.14 109.05 237.38 109.05C236.91 109.05 236.42 109.06 235.93 109.08C232.04 109.26 228.22 109.78 224.18 110.33C223.13 110.47 222.08 110.62 221.03 110.75C216.91 111.29 212.86 112.56 208.63 114.66C199.01 119.43 191.02 126.46 184.89 135.56C175.92 148.87 174.47 162.06 180.45 175.87C181.16 177.5 181.97 179.4 182.72 181.35C182.74 181.4 182.79 181.48 182.83 181.56C183.33 182.5 184.84 185.35 182.54 188.38L181.63 189.59L180.15 189.89C179.7 189.98 179.24 190.03 178.77 190.03C177.5 190.03 176.41 189.69 175.61 189.44C175.33 189.35 175.06 189.27 174.87 189.23C169.73 188.1 163.65 186.95 157.57 186.95C156.11 186.95 154.67 187.02 153.29 187.15C138.61 188.53 125.12 194.85 112.04 206.5C98.5499 218.51 88.8499 234.63 82.3899 255.77C80.4299 262.19 78.8299 269.08 80.3799 275.94C81.9499 282.88 82.8899 288.61 83.3199 293.97L83.3599 294.41C83.8199 300.1 82.8399 301.73 77.5299 304.1C61.9799 311.03 49.7599 320.75 40.1799 333.79C32.0699 344.84 24.6599 357.22 16.1799 373.94C13.4999 379.22 12.0499 385.35 11.8799 392.15C11.7499 396.99 10.7199 401.06 8.70995 404.6C5.66995 409.95 4.29995 416.02 4.11995 424.89V425.41C4.06995 427.88 4.01995 430.68 2.78995 433.49C-0.790054 441.69 -0.170054 450.43 0.479946 459.68L0.599946 461.42C0.769946 463.86 1.00995 466.37 1.23995 468.79C1.74995 474.12 2.27995 479.63 2.11995 485.22C2.04995 487.63 2.21995 489.58 2.63995 491.33C7.95995 513.56 18.8599 530.48 35.9499 543.05L36.7099 543.61C42.0899 547.55 43.8699 549.75 39.7299 555.79C39.3699 556.31 38.9599 556.91 38.4999 557.62C29.7499 571.07 26.2299 582.38 27.0899 594.31C27.4799 599.84 26.4799 605.06 25.5099 610.11C23.8699 618.64 24.5099 626.38 27.4599 633.77C32.7599 647.03 36.6699 657.3 40.1399 667.07C41.9999 672.31 44.2199 677.26 46.7299 681.78C50.0699 687.8 54.8599 695.37 62.2599 700.51C70.9799 706.57 80.7699 710.87 90.0499 714.75C91.6299 715.41 93.3699 715.75 95.2199 715.75C97.2799 715.75 99.4699 715.34 101.73 714.54L101.83 714.5C103.51 713.9 104.73 713.46 106.09 713.46C109.31 713.46 110.86 715.73 112.49 718.13C114.33 720.83 115.92 722.98 118.23 724C121.37 725.39 122.87 728.19 122.35 731.71C122.24 732.43 122.04 733.78 122.21 734.58C123.13 738.91 122.79 742.9 122.28 747.28C121.17 756.93 122.66 765.44 126.83 773.28C131.25 781.6 137.67 788.54 146.45 794.5L148.39 795.82C154.78 800.14 161.39 804.61 167.28 810.05C177.79 819.75 189.23 825.79 202.25 828.52C206.14 829.34 209.87 830.96 213.33 833.34C219.85 837.84 227.45 840.84 236.55 842.52C243.92 843.88 249.85 844.51 255.19 844.51C261.46 844.51 267.09 843.64 272.41 841.85C273.36 841.53 274.24 841.38 275.02 841.25C275.4 841.19 275.76 841.13 276.05 841.06C276.76 840.89 277.42 840.81 278.07 840.81C281.26 840.81 283.64 842.8 284.41 846.14C284.97 848.54 286.34 850.8 287.79 853.19C288.13 853.75 288.47 854.31 288.8 854.88C297.2 869.18 306.69 878.27 318.66 883.48C324.45 886 330.02 889.76 335.23 894.66C338.35 897.59 341.96 899.62 345.97 900.7C354.3 902.94 362.82 906.65 372.79 912.36C382.92 918.17 392.61 920.99 402.42 920.99C403.51 920.99 404.63 920.96 405.73 920.89C406.68 920.83 407.64 920.8 408.6 920.8C416.71 920.8 424.85 922.89 432.82 927C437.25 929.29 441.42 930.4 445.56 930.4C446 930.4 446.44 930.39 446.87 930.36C447.43 930.33 448 930.31 448.57 930.31C453.03 930.31 457.62 931.28 462.6 933.26C465.31 934.34 467.59 934.92 469.77 935.09C477.64 935.69 485.22 937.17 492.3 939.48C497.25 941.09 502.34 941.91 507.42 941.91C510.36 941.91 513.38 941.64 516.38 941.1C531.37 938.42 546.27 934.25 560.69 930.22C562.83 929.62 564.95 928.79 567.19 927.9L568.42 927.41C572.46 925.83 574.94 923.96 576.45 921.35C577.92 918.81 580.17 917.52 583.14 917.52C583.3 917.52 583.46 917.52 583.62 917.53C584.33 917.56 585.04 917.58 585.73 917.58C593.45 917.58 600.01 915.68 605.77 911.76C606.75 911.09 608.28 910.21 610.25 910.21C611.23 910.21 612.22 910.43 613.19 910.86C617.85 912.95 622.95 913.96 628.79 913.96C631.78 913.96 635.03 913.7 638.72 913.16C657.95 910.36 672.06 904.36 683.12 894.29C696.39 882.21 702.37 871.08 702.51 858.19C702.58 852.19 706.48 851.72 707.67 851.72C708.97 851.72 710.15 852.19 711.03 852.6C715.96 854.88 721.44 855.92 727.09 856.86C731.27 857.56 736.79 858.35 742.39 858.35C744.46 858.35 746.49 858.24 748.41 858.02C758.82 856.85 768.76 854.06 777.96 849.74C786.53 845.72 796.37 840.85 804.71 833.98C812.47 827.59 819.74 820.58 826.3 813.15C838.32 799.54 846.11 787.27 850.81 774.54C856.91 758.03 857.6 741.28 852.88 724.76L852.76 724.33C851.1 718.55 852.35 716.36 858.33 714.57C865.19 712.51 871.45 708.38 878.03 701.56C886.77 692.5 892.68 681.98 895.59 670.27C898.38 659.05 897.84 648.08 894.02 638.57C890.06 628.69 882.59 620.63 872.43 615.27C871.82 614.95 871.21 614.64 870.6 614.32C868.12 613.04 865.55 611.72 863.17 609.95C860.41 607.89 857.65 606.9 854.72 606.9C852.09 606.9 849.33 607.69 846.28 609.3C844.52 610.23 842.37 611.19 839.8 611.19C838.41 611.19 837.02 610.9 835.66 610.33C835.23 610.15 834.59 610.02 833.84 609.86C833.35 609.76 832.83 609.65 832.29 609.51L828.01 608.45L829.48 604.29C830.27 602.04 832.39 596.07 839.62 596.07C840.28 596.07 840.98 596.12 841.71 596.22C842.16 596.28 842.6 596.31 843.02 596.31C845.13 596.31 847.81 595.65 849.88 590.47C851.57 586.22 854.61 585.33 856.86 585.33C857.42 585.33 858 585.38 858.63 585.49C859.12 585.57 859.6 585.62 860.06 585.62C861.57 585.62 863.87 585.23 866.47 581.9C867.44 580.65 867.57 578.95 867.65 576.51C867.89 569.17 872.38 567.91 875.03 567.82C877.1 567.75 879.18 567.48 881.39 567.2C884.1 566.86 886.91 566.5 889.82 566.5C891.44 566.5 892.94 566.61 894.4 566.84C894.96 566.93 895.56 566.97 896.23 566.97C896.81 566.97 897.45 566.94 898.22 566.87C906.38 566.17 914.23 563.53 922.24 558.8C931.93 553.08 940.44 545.34 948.24 535.14C955.2 526.04 959.6 518.07 962.08 510.05C964.38 502.59 966.11 494.83 967.36 486.33C967.72 483.88 968.04 481.36 968.34 478.93C969.22 471.88 970.14 464.6 972.27 457.46C973.23 454.24 973.32 450.58 972.54 445.95L972.55 445.97ZM287.11 804.63C287.23 801.21 288.25 797.96 290.12 794.98C290.69 794.07 291.29 793.2 291.86 792.36C292.46 791.49 293.02 790.66 293.54 789.82C294.61 788.09 297.87 782.84 304.49 782.84C305.67 782.84 306.93 783.01 308.22 783.34C308.77 783.48 309.32 783.55 309.86 783.55C311.69 783.55 313.44 782.75 314.92 781.24C317.99 778.12 321.54 777.76 323.95 777.76C324.77 777.76 325.56 777.8 326.32 777.85C326.8 777.88 327.27 777.9 327.75 777.92C330.93 778.01 333.27 780.47 333.33 783.77C333.35 784.82 333.33 785.88 333.33 786.1V786.29L333.31 786.52C333 789.45 333.46 791.52 334 793.93C334.07 794.23 334.13 794.54 334.2 794.84C334.5 796.23 335.12 799.12 333.32 801.36C332.21 802.74 330.52 803.44 328.32 803.44C327.8 803.44 327.22 803.4 326.54 803.33C326.08 803.28 325.63 803.22 325.17 803.16C324.29 803.04 323.46 802.94 322.74 802.94C322.63 802.94 322.53 802.94 322.42 802.94C317.22 803.21 314.06 805.17 312.15 809.31C310.07 813.82 308.04 817.27 302.48 817.27C301.14 817.27 299.67 817.08 297.87 816.79C297.64 816.75 297.42 816.71 297.19 816.66C297.09 816.64 297 816.62 296.9 816.6C289.59 815.37 286.84 812.01 287.11 804.63ZM478.59 587.7L481.18 594.5L474.05 593.05C473.45 592.93 472.96 592.83 472.56 592.76C471.78 592.61 471.22 592.5 470.61 592.34C469.49 592.04 468.39 591.89 467.35 591.89C464.6 591.89 462.04 592.93 459.53 595.08C457.83 596.53 456.08 598.03 453.56 598.03C451.48 598.03 449.8 596.97 448.17 595.95C446.84 595.11 445.68 594.12 444.63 593.18C444.06 592.67 443.59 592.15 443.17 591.69C442.78 591.26 442.33 590.77 442.07 590.6C436.08 586.81 432.67 582 431.35 575.45C430.75 572.46 426.87 571.11 425.23 570.67C418.35 568.81 417.75 565.84 419.03 559.87C419.92 555.68 420.57 551.35 421.2 546.92C422.05 540.99 426.08 539.87 428.41 539.73C428.88 539.7 429.6 539.39 430.36 539.06C430.64 538.94 430.92 538.82 431.2 538.7C432.38 538.21 433.58 537.96 434.78 537.96C438.26 537.96 441.15 540.04 442.33 543.39C444.32 549.06 448.39 551.68 455.94 552.13C461 552.44 464.19 554.93 465.69 559.75C466.23 561.48 466.94 563.17 467.8 564.77C469.27 567.49 470.72 568.9 472.65 569.5C473.49 569.76 476.04 570.54 477.22 573C477.72 574.04 478.13 575.72 477.27 577.87C476.21 580.53 476.85 583.17 478.59 587.72V587.7ZM481.18 607.29C481.66 604.99 482.97 603.1 485.2 601.53C486.21 600.81 487.39 600.44 488.6 600.44C490.07 600.44 491.53 601.01 492.72 602.05C494.4 603.52 495.08 605.73 494.49 607.8C494.23 608.71 493.08 611.69 488.94 611.81C488.85 611.83 488.67 611.88 488.53 611.92C487.93 612.08 487.1 612.31 486.09 612.31C485.17 612.31 484.29 612.12 483.46 611.75L480.53 610.44L481.18 607.29ZM432.17 604.75L430.42 596.45L437.93 600.38C443.39 603.23 448.89 606.6 450.93 613.55C453.83 623.45 452.64 632.44 447.39 640.27C444.81 644.12 441.17 646.96 436.55 648.72C433.35 649.94 429.93 650.53 426.09 650.53C424.47 650.53 422.8 650.43 420.98 650.21C415.34 649.55 413.51 645.93 412.93 643.83C411.34 638.11 414.07 635.08 416.63 633.55C417.14 633.24 417.42 632.92 417.49 632.79C418.79 627.15 422.91 624.68 426.36 623.16C428.35 622.28 429.73 620.56 430.86 617.58C432.67 612.8 433.06 608.96 432.17 604.76V604.75ZM421.2 604.3C422.21 605.21 425.22 608.59 421.65 613.81C419.95 616.3 417.18 616.6 416.27 616.7C414.14 616.93 412.28 617.5 410.57 618.45C410.07 618.73 409.59 618.92 409.24 619.06C409.14 619.1 409.05 619.14 408.96 619.18L407.93 619.62L406.82 619.47C405.3 619.26 404.01 618.51 403.2 617.36C402.34 616.14 402.08 614.65 402.44 612.93C403.25 609.01 406.83 608.23 408.01 607.98C410.08 607.53 411.43 606.83 412.4 605.72L412.57 605.53C413.33 604.64 414.9 602.79 417.47 602.79C418.41 602.79 419.82 603.05 421.2 604.31V604.3ZM405.03 671.68C405.28 673.4 405.2 675.08 405.1 676.34V676.46C405 677.69 404.71 681.45 400.9 682.63C400.39 682.79 399.86 682.87 399.35 682.87C396.93 682.87 395.54 681.25 394.95 680.56C394.9 680.5 394.86 680.45 394.81 680.4C394.02 679.73 393.23 679.06 392.32 678.29L390.93 677.11L386.47 673.32L391.63 670.54L392.08 670.3C393.77 669.39 394.99 668.74 395.95 667.95C397.14 666.97 398.42 666.47 399.74 666.47C402.01 666.47 404.53 668.08 405.05 671.69L405.03 671.68ZM387.96 616.75C386.58 619.22 385.97 620.67 386.26 622.21C386.65 624.3 385.99 625.8 385.37 626.68C384.72 627.6 383.46 628.79 381.12 629.16C378.41 629.6 376.71 630.59 375.59 632.39C374.16 634.69 371.81 635.86 368.61 635.86H368.35L367.35 635.84C366.52 635.83 365.68 635.81 364.85 635.81C364.1 635.81 363.44 635.82 362.84 635.85C358.11 636.06 355.27 637.75 353.63 641.36C352.28 644.33 350.14 646.11 347.07 646.81C343.84 647.55 341.57 649.49 339.95 652.94C338.95 655.07 337.43 658.28 333.41 658.28C332.26 658.28 331.09 658.01 329.78 657.69C326.74 656.93 323.56 655.94 319.79 654.56C307.23 649.98 300.23 640.14 299.55 626.1C298.85 611.72 303.84 598.27 314.37 586.12C323.12 576.02 334.97 570.59 350.59 569.52C351.15 569.48 351.75 569.46 352.46 569.46C352.93 569.46 353.41 569.46 353.92 569.48C354.36 569.48 354.81 569.5 355.28 569.5C355.72 569.45 356.18 569.4 356.66 569.34C358.07 569.17 359.67 568.98 361.34 568.96H361.51C364.82 568.96 368.92 570.25 369.68 576.39C369.75 576.96 369.75 577.48 369.75 577.83C369.76 584.04 372.5 588.87 378.36 593.02C378.89 593.4 379.43 593.76 379.97 594.12C380.75 594.65 381.56 595.19 382.36 595.78C383.73 596.79 387.89 599.85 388.05 605.57C388.06 605.99 388.23 606.58 388.5 607.11C390.04 610.21 389.87 613.36 387.98 616.74L387.96 616.75ZM321.74 671.3C322.88 671.3 324.03 671.44 325.27 671.74C326.41 672.01 327.53 672.31 328.61 672.6C331.29 673.32 333.81 674 336.34 674.19C339.86 674.46 342.28 676.74 342.82 680.31C342.84 680.44 342.86 680.56 342.88 680.69C343.08 681.93 343.43 684 342.27 686.12C340.23 689.85 340.02 693.28 345.62 697.93C347.28 699.31 348.54 700.89 349.36 702.65C351.22 706.59 354.32 708.45 359.42 708.67C360.04 708.7 360.59 708.77 361.08 708.84C361.25 708.86 361.42 708.89 361.59 708.91L363.42 709.13L364.91 707.89C367.46 705.77 370.55 704.73 374.36 704.73C375.84 704.73 377.26 704.87 378.63 705.01H378.71C381.23 705.27 385.43 706.76 385.36 713.94L385.3 719.38L380.12 717.7C379.13 717.38 378.18 717.04 377.26 716.71C374.4 715.69 371.93 714.81 369.48 714.81C369 714.81 368.52 714.84 368.06 714.91L365.98 715.22L366.1 715.62L363.31 717.17C362.38 717.69 361.45 718.21 360.52 718.74C358.43 719.92 356.28 721.13 354.09 722.27C349.68 724.57 346.4 728.32 344.04 731.33C341.99 733.94 339.56 737.02 337.05 740.02C335.57 741.79 333.55 744.2 330.17 744.2C328.44 744.2 326.83 743.57 325.05 742.81C317.96 739.77 312.44 735.24 308.63 729.35C301.65 718.56 298.61 706.52 299.6 693.55C300.08 687.22 303.77 682.67 306.51 679.8C308.89 677.3 311.88 675.08 315.91 672.82C317.7 671.82 319.67 671.31 321.76 671.31L321.74 671.3ZM694.2 797.39C695.65 800.55 694.97 803.55 692.27 805.84C689.49 808.2 688.16 811.03 688.21 814.49C688.24 816.76 687.39 818.59 686.56 820.09L686.51 820.18C685.3 822.36 683.93 824.83 680.75 824.83C679.21 824.83 677.93 824.19 676.3 823.37C674.39 822.42 672.53 821.93 670.77 821.93C669.01 821.93 667.2 822.43 665.45 823.47C662.98 824.93 660.56 825.64 658.05 825.64C655.54 825.64 653.24 824.98 650.69 823.62C644.88 820.5 640.34 817.51 636.41 814.2C630.51 809.22 627.61 802.35 627.54 793.18C627.5 786.15 629.61 780.19 633.81 775.46C635.56 773.49 637.57 771.67 640.45 771.67C642.83 771.67 644.74 772.94 646.45 774.31C647.8 775.39 649.11 775.9 650.55 775.9C651.79 775.9 653.21 775.51 654.77 774.75C657.57 773.38 658.63 771.4 658.33 768.12C658.06 765.19 657.51 762.59 656.67 760.18C655.34 756.37 656.13 753.51 659.04 751.67C660.28 750.89 661.59 750.49 662.92 750.49C664.84 750.49 666.65 751.31 668.28 752.92C668.48 753.12 668.69 753.32 668.89 753.52C670.13 754.75 671.19 755.82 672.39 756.4C675.01 757.67 677.44 758.29 679.83 758.29C680.69 758.29 681.58 758.21 682.46 758.05C684.22 757.73 685.61 757.58 686.84 757.58C693.17 757.58 695.69 761.76 697.73 766.04C698.51 767.67 699.23 769.46 699.88 771.35C702.29 778.38 699.36 782.78 696.48 785.24C692.57 788.58 691.86 792.32 694.19 797.39H694.2ZM833.25 788.69C825.72 800.13 816.3 810.84 804.47 821.41C793.82 830.92 781.99 838.32 769.32 843.38C759.82 847.18 750.18 849.1 740.66 849.1C733.88 849.1 727 848.12 720.22 846.19C717.01 845.28 712.61 843.36 711.38 837.23C710.68 833.74 708.68 831.85 704.71 830.9C697.78 829.24 697.16 826.35 697.44 820.6V820.47C697.72 815.06 700.06 811.68 705.04 809.5C707.5 808.42 709.18 806.72 709.88 804.57C710.59 802.41 710.23 799.93 708.87 797.57C706.7 793.81 706.55 790.49 708.35 786.45C711.24 780 711 772.97 707.62 764.35C705.1 757.93 702.08 753.9 697.83 751.27C694.58 749.26 691.76 748.33 688.97 748.33C688.06 748.33 687.13 748.43 686.2 748.64C684.88 748.93 683.67 749.08 682.49 749.08C678.89 749.08 675.67 747.68 672.92 744.92C670.49 742.48 667.46 741.3 663.64 741.3C662.6 741.3 661.5 741.39 660.36 741.57C659.65 741.68 659.01 741.74 658.4 741.74C653.46 741.74 651.55 737.99 650.73 736.39C647.75 730.53 643.98 724.59 638.51 717.12C637.33 715.52 635.63 714.07 634.12 712.86C632.58 711.63 631.21 711.04 629.93 711.04C628.84 711.04 627.65 711.45 626.28 712.29C623.67 713.89 622.47 716.91 623.22 719.97C623.86 722.56 624.88 724.99 626.24 727.2C626.95 728.35 627.63 729.51 628.28 730.64C629.98 733.57 631.59 736.33 633.68 738.66C635.27 740.43 636.2 742.59 636.38 744.92C636.74 749.44 637.97 752.08 640.52 753.77L643.7 755.88L641.75 759.16C641.68 759.28 641.63 759.38 641.59 759.47C641.31 760.04 640.46 761.76 638.34 762.14C627.18 764.12 619.24 776.62 618.28 787.07C617.77 792.69 617.85 797.23 618.55 801.35C619.99 809.84 624.36 816.89 631.56 822.29C636.41 825.93 641.94 829.35 648.95 833.05C652.04 834.68 655.3 835.51 658.64 835.51C660.58 835.51 662.61 835.23 664.66 834.69C665.73 834.4 666.7 834.27 667.63 834.27C670.23 834.27 672.47 835.37 674.5 837.63C678.21 841.78 681.67 843.79 685.72 844.14C687.61 844.31 690.94 845.29 692.04 849.99C694.13 858.91 692.64 866.94 687.48 874.54C676.17 891.2 659.68 901.03 638.45 903.78C635.57 904.15 631.77 904.58 627.85 904.58C627.35 904.58 626.85 904.58 626.35 904.56C622.5 904.45 619.15 903.33 616.11 901.12C613.79 899.44 611.5 898.58 609.32 898.58C606.44 898.58 603.66 900.06 601.03 902.97C597.94 906.41 593.79 908.15 588.69 908.15C587.76 908.15 586.78 908.09 585.78 907.97C585.11 907.89 584.45 907.8 583.79 907.71C582.19 907.49 580.68 907.28 579.25 907.28C578.96 907.28 578.68 907.28 578.41 907.31C573.38 907.63 571.78 909.97 571.01 911.7C568.65 917.01 564.6 920.11 558.62 921.17C552.8 922.2 547.21 923.88 541.28 925.66C536.28 927.16 531.11 928.71 525.83 929.83C520.36 930.98 514.16 932.28 507.89 932.28C504.91 932.28 502.15 932 499.47 931.41C489.08 929.15 479.71 927.18 470.18 925.96C467.92 925.67 465.86 924.85 464.05 924.13C463.53 923.92 463 923.71 462.48 923.52C457.88 921.83 453.76 921.01 449.87 921.01C449.44 921.01 449 921.02 448.56 921.04C448.1 921.06 447.64 921.07 447.19 921.07C442.87 921.07 438.75 920.12 434.6 918.18C427.19 914.71 420.75 912.69 414.33 911.83C412.27 911.55 409.85 911.27 407.5 911.27C406.08 911.27 404.8 911.37 403.6 911.58C402.16 911.83 400.7 911.95 399.26 911.95C394.76 911.95 390.22 910.76 385.39 908.3C380.57 905.85 375.82 903.26 371.29 900.58C366.27 897.62 361.43 895.54 356.48 894.23C348.3 892.06 342.28 888.8 337.56 883.97C334.73 881.08 330.92 878.68 325.57 876.43C314.74 871.87 305.81 863.85 297.47 851.21C294.79 847.16 291.53 840.88 294.09 833.25C294.63 831.62 296.29 826.68 302.22 826.68C302.38 826.68 302.53 826.68 302.7 826.69C302.81 826.69 302.92 826.69 303.04 826.69C304.3 826.69 305.68 826.4 307.15 826.08C307.56 825.99 307.96 825.91 308.37 825.83C313.19 824.87 316.76 822.13 319.29 817.47C320.96 814.4 323.35 812.91 326.6 812.91C327.08 812.91 327.59 812.94 328.17 813C328.8 813.07 329.43 813.1 330.04 813.1C336.23 813.1 340.99 809.49 343.11 803.2C344.57 798.85 344.78 795.57 343.78 792.56C342.58 788.95 342.92 785.63 344.8 782.43C346.51 779.53 345.93 775.85 345.32 771.95C344.66 767.74 345.62 764.24 348.33 760.92C352.09 756.33 355.88 751.29 360.25 745.06C361.7 742.99 363.69 740.17 367.29 740.17C369.06 740.17 370.68 740.85 372.61 741.73C374.35 742.53 376.03 742.91 377.75 742.91C379.86 742.91 382 742.32 384.26 741.11C388.69 738.74 392.19 735.34 394.96 730.72C397.11 727.13 396.63 723.04 396.09 718.29C395.47 712.9 394.54 708.56 393.16 704.62C392.87 703.78 391.97 701.22 393.4 698.81C394.33 697.25 395.89 696.27 398.06 695.91C398.25 695.88 398.49 695.81 398.79 695.71C399.53 695.45 400.27 695.21 401.02 694.97C404.72 693.77 407.91 692.74 409.59 689.93C414.13 682.34 415.57 676.18 414.27 669.98C414.24 669.82 414.17 669.59 414.1 669.34C414 668.99 413.88 668.6 413.78 668.14C413.42 666.48 412.88 663.98 414.53 661.94C415.55 660.68 417.04 660.04 418.99 660.05C419.49 660.05 420.05 660.09 420.79 660.17C422.15 660.32 423.52 660.39 424.86 660.39C432.76 660.39 440.49 657.83 448.49 652.56C454.03 648.91 457.8 643.47 460.02 635.91C460.35 634.79 460.61 633.6 460.88 632.35C461.07 631.47 461.27 630.57 461.49 629.65C461.49 629.53 461.49 629.33 461.49 629.17C461.39 625.87 462.63 623.74 465.15 622.84C465.86 622.59 466.58 622.46 467.29 622.46C470.39 622.46 472.22 624.71 473.2 625.92C473.35 626.11 473.5 626.29 473.65 626.46C474.44 627.33 475.16 628.22 475.86 629.08C476.93 630.4 477.94 631.64 479.06 632.66C481.1 634.51 483.18 635.45 485.24 635.45C487.08 635.45 488.97 634.7 490.85 633.21C493.05 631.47 495.29 630.66 497.91 630.66C498.39 630.66 498.88 630.69 499.4 630.74C500.09 630.81 500.76 630.85 501.39 630.85C506.39 630.85 509.19 628.6 510.76 623.33C512.93 616.07 511.81 610.54 507.24 605.94C506.4 605.1 505.44 604.1 504.61 602.95C503.31 601.14 502.16 598.11 504.1 593.92C505.16 591.63 507.23 590.31 509.76 590.31C510.36 590.31 510.9 590.38 511.33 590.43C511.49 590.45 511.65 590.47 511.81 590.48C512.29 590.52 512.78 590.54 513.24 590.54C517.23 590.54 520.59 589.13 523.5 586.24C525.71 584.04 526.92 581.36 526.9 578.69C526.89 576.07 525.74 573.57 523.59 571.47C521 568.95 519.92 566.21 520.07 562.59C520.27 557.84 518.32 554.58 513.95 552.32C510.41 550.49 507.65 549.36 504.84 549.36C503.94 549.36 503.07 549.48 502.18 549.73C501.35 549.96 500.54 550.08 499.76 550.08C498.06 550.08 494.9 549.49 492.85 545.51C492.66 545.14 492.48 544.76 492.29 544.38L492.17 544.13C489.75 539.14 487.37 538.13 484.31 538.13C483.25 538.13 482.02 538.27 480.65 538.55C480.41 538.6 480.17 538.66 479.93 538.73C479.41 538.87 478.77 539.04 478.05 539.14C477.75 539.18 477.44 539.2 477.15 539.2C475.61 539.2 474.21 538.63 473.21 537.6C472.49 536.86 471.64 535.54 471.7 533.47C471.72 532.84 471.79 532.29 471.85 531.79C471.9 531.4 471.95 531.04 471.94 530.82C471.85 527.07 470.29 524.99 466.73 523.87C464.57 523.2 462.59 522.87 460.68 522.87C459.95 522.87 459.23 522.92 458.52 523.02C456.52 523.29 454.47 523.48 452.43 523.57C452.06 523.59 451.69 523.6 451.33 523.6C444.02 523.6 438.88 520.1 436.46 513.49C435.28 510.27 432.57 508.36 428.58 506.32C427.86 505.95 427.14 505.77 426.39 505.77C425.29 505.77 424.04 506.14 422.58 506.89C421.23 507.58 419.59 508.3 417.58 508.3C416.54 508.3 415.49 508.11 414.44 507.73C412.86 507.16 411.27 506.87 409.72 506.87C405.11 506.87 401.05 509.42 398.58 513.86C397.23 516.3 396.53 518.69 396.44 521.19C396.29 525.65 395.09 529.68 392.79 533.53C391.07 536.41 390.63 539.38 391.56 541.92C392.47 544.4 394.65 546.33 397.72 547.38C399.94 548.14 402.99 549.18 404.1 552.02C405.18 554.8 403.79 557.36 402.45 559.84C401.59 561.43 400.52 562.8 399.58 563.96C395.93 568.5 393.73 571.24 389.36 571.24C387.28 571.24 385.18 570.6 381.72 569.54L381.67 569.52C379.84 568.96 378.37 567.95 377.3 566.53C373.64 561.63 368.51 559.44 360.68 559.44C360.38 559.44 360.09 559.44 359.79 559.44C356.93 559.5 354.08 559.78 351.06 560.08C349.14 560.27 347.16 560.47 345.17 560.6C327.3 561.81 312.92 570.62 301.22 587.56C291.9 601.04 288.45 616.18 290.96 632.57C292.48 642.51 297.43 650.91 305.65 657.53C307.43 658.96 309.44 660.58 309.3 663.3C309.16 665.95 307.04 667.32 305.77 668.13C293.74 675.87 288.76 687.05 290.09 703.33C291.07 715.37 294.95 726.47 301.61 736.34C307.41 744.93 316.31 749.52 325.06 753.21C325.3 753.31 325.66 753.41 326.05 753.52L326.42 753.62C331.94 755.18 332.15 758.92 331.77 761C330.76 766.64 326.7 767.69 325 767.88C324.71 767.91 324.4 767.93 324.09 767.93C323.33 767.93 322.63 767.83 322.07 767.75C321.73 767.7 321.39 767.65 321.19 767.65H320.53C316.06 767.65 313.47 768.12 311.73 770.72C310.81 772.1 309.07 773.73 306 773.73C305.25 773.73 304.56 773.64 303.97 773.55C303.4 773.46 302.82 773.42 302.24 773.42C299.12 773.42 296 774.7 293.36 775.96C292.56 776.34 292.34 776.54 292.31 776.58C285.75 784.23 279.55 791.47 278.05 801.24C277.28 806.27 277.87 811.31 279.86 816.64C280.97 819.6 280.97 822.39 279.88 825.4C279.01 827.8 277.32 831.09 272.68 831.96C270.87 832.3 269.05 832.85 267.12 833.43C266.48 833.62 265.84 833.82 265.2 834C261.57 835.06 257.89 835.57 253.95 835.57C251.19 835.57 248.38 835.32 245.37 834.8C235.82 833.15 225.76 830.81 216.85 824.86C212.73 822.11 207.79 820.08 200.85 818.28C190.61 815.63 182.97 811.63 176.81 805.69C171.78 800.85 166.1 796.92 160.09 792.75C158.56 791.69 157.04 790.63 155.52 789.56C148.1 784.31 142.94 779.59 138.79 774.27C132.68 766.45 130.35 757.54 131.87 747.78C132.29 745.05 132.64 741.85 131.96 738.79C130.98 734.4 132.65 730.74 136.54 728.76C138.29 727.87 139.76 726.41 140.97 725.09C142.9 722.99 143.64 720.4 142.98 717.97C142.33 715.55 140.39 713.69 137.67 712.85C136.34 712.44 135.03 712.24 133.77 712.24C131.97 712.24 130.2 712.67 128.51 713.52C127.25 714.15 126.08 714.46 124.93 714.46C123.37 714.46 121.13 713.88 119.34 711.15C118.98 710.6 118.54 710.03 118.08 709.43L117.81 709.08C114.82 705.18 111.05 703.11 106.91 703.11C104.85 703.11 102.68 703.61 100.47 704.59C98.6599 705.39 96.9199 705.78 95.1399 705.78C93.6399 705.78 92.1499 705.5 90.5899 704.94C72.0399 698.25 59.4799 687.22 52.1799 671.22C49.3099 664.93 46.0499 657.79 43.9499 650.09C42.9199 646.3 41.6199 642.72 40.0999 639.47C34.8199 628.15 33.4099 616.46 35.8999 604.7C36.5599 601.56 36.7399 598.27 36.4399 594.91C35.7099 586.98 37.4799 579.31 41.8399 571.45C42.5599 570.15 43.3299 568.76 44.0099 567.39C45.9199 563.53 49.0599 557.16 56.7799 556.04C59.3099 554.34 61.8999 553.48 64.5199 553.48C66.8499 553.48 69.2099 554.16 71.5399 555.51C71.9899 555.77 72.4399 555.89 72.9599 555.89C73.9399 555.89 75.1899 555.47 76.7899 554.61L77.0199 554.49C78.3199 553.79 80.0899 552.83 82.3799 552.83C82.8999 552.83 83.4199 552.88 83.9299 552.98C84.7899 553.14 85.6599 553.22 86.5799 553.22C89.6599 553.22 92.8599 552.28 95.6199 551.4C99.7799 550.07 104.04 549.29 108.16 548.54C112.04 547.83 116.06 547.09 119.99 545.9L126.64 543.88L125.04 550.65C121.61 565.2 122.36 579.42 127.22 591.79C132.07 604.13 140.92 614.38 152.82 621.41C166.13 629.28 180.9 633.35 197.98 633.87C199.08 633.9 200.18 633.92 201.27 633.92C218.13 633.92 234.01 629.86 248.47 621.87C263.5 613.56 274.45 602.97 281.94 589.51C287.01 580.41 289.07 570.24 288.25 558.42C288.16 557.19 288.13 555.97 288.09 554.79C288.05 553.41 288.01 552.11 287.9 550.83C287.36 544.6 285.43 540.73 281.63 538.27C278.76 536.41 277.3 533.83 277.3 530.61C277.3 529.61 276.8 528.44 276.22 527.08L276.05 526.69C274.75 523.63 275 520.25 276.73 517.64C278.41 515.1 281.3 513.59 284.46 513.59C284.77 513.59 285.09 513.6 285.41 513.63C286.75 513.75 288.09 513.81 289.39 513.81C292.47 513.81 295.51 513.46 298.42 512.78C302.16 511.91 304.83 510.51 306.84 508.38C308.84 506.25 309.86 503.75 309.7 501.33C309.55 499.04 308.38 496.93 306.31 495.23C303.31 492.77 301.76 490.04 301.28 486.36C300.8 482.63 296.55 479.71 291.6 479.71C291.19 479.71 290.78 479.73 290.38 479.77C285.34 480.28 281.46 482.09 278.53 485.31C278.15 485.73 277.76 486.15 277.38 486.57C276.24 487.81 275.16 488.98 274.13 490.2C273.05 491.48 271.52 493.09 269.3 494.24C267.13 495.37 265.26 495.91 263.56 495.91C261.86 495.91 256.35 495.23 256.34 486.47C256.34 485.94 256.34 485.42 256.34 484.89C256.35 483.38 256.37 481.96 256.24 480.61C255.93 477.31 254.61 476.14 253.65 475.55C250.44 473.59 249.05 470.8 249.42 467.05C249.86 462.45 248.22 457.98 246.55 454.22C239.53 438.4 227.02 427.37 208.31 420.51C198.93 417.07 189.02 415.32 178.84 415.32C169.68 415.32 159.95 416.73 149.93 419.52C132.04 424.49 116.6 433.17 104.04 445.3C95.9499 453.12 90.6999 460.59 87.4999 468.82C86.1399 472.32 85.6399 476.1 85.1199 480.1L84.9999 481L84.9199 481.63C84.0699 488.05 83.2699 494.11 84.3199 500.27C86.2099 511.31 90.3699 520.12 97.0399 527.2C97.5599 527.75 97.8999 528.32 98.1199 528.69C98.1599 528.77 98.2099 528.84 98.2599 528.92L100.29 532.01L97.3799 534.28C93.7399 537.12 88.5799 538.81 83.5899 538.81C80.7499 538.81 78.0799 538.26 75.8599 537.21C73.9899 536.33 72.1599 535.88 70.4499 535.88C68.8999 535.88 67.3999 536.25 65.9899 536.98C62.9799 538.54 59.9599 538.78 57.2899 539C55.3299 539.16 53.6299 539.29 52.1999 539.9C51.5699 540.17 50.8999 540.3 50.2099 540.3C48.3299 540.3 46.9199 539.3 46.0699 538.71C45.9799 538.65 45.8899 538.58 45.8099 538.53C28.5099 526.84 17.1599 510.34 12.0599 489.49C11.1399 485.74 11.2799 482.1 11.4099 478.58C11.4299 478.03 11.4499 477.49 11.4699 476.94C11.6499 470.8 11.2099 464.49 10.1199 457.63C9.12995 451.39 9.36995 445.7 10.8499 440.25L10.9599 439.86C12.9499 432.53 14.8399 425.61 14.4599 418.41C14.2699 414.85 15.7699 412.02 17.3099 409.43C20.3199 404.38 21.5599 399.15 21.1199 393.42C20.8099 389.43 21.5899 385.48 23.3499 381.99C31.3199 366.23 39.5699 349.94 51.1099 335.7C57.8599 327.36 66.5399 320.22 77.6199 313.87C80.2799 312.34 83.0299 311.57 85.7999 311.57C88.0399 311.57 90.35 312.08 92.66 313.09C97.57 315.24 102.59 317.39 107.44 319.47C111.54 321.23 115.78 323.05 119.95 324.86C125.48 327.26 131 329.68 136.53 332.1C144.49 335.58 152.72 339.18 160.83 342.68C162.26 343.29 163.57 344 164.84 344.69C167.03 345.87 169.1 346.99 171.25 347.32C174.32 347.79 176.51 350.22 177.12 353.81C177.89 358.36 180.53 361.84 186.23 365.81C189.18 367.86 192.38 369.94 195.8 371.27C196.99 371.73 198.19 371.96 199.38 371.96C203.82 371.96 207.18 368.74 207.2 364.46C207.2 363.72 206.85 362.81 206.4 361.64C206.03 360.67 205.6 359.57 205.29 358.3L203.83 352.38L209.84 353.4C212.3 353.82 215.38 355.27 216.06 359.81C216.88 365.26 219.35 369.25 223.63 372C226.02 373.54 227.61 376.06 228.11 379.1C228.91 383.99 234.01 386.91 238.47 386.91C240.23 386.91 242.75 386.48 244.71 384.42C245.67 383.41 246.78 383.12 247.45 382.94C247.57 382.91 247.71 382.88 247.86 382.82L252.43 381.22L253.14 386.01C253.24 386.67 253.33 387.32 253.41 387.96C253.76 390.52 254.09 392.93 254.87 395.06C255.79 397.56 255.02 399.98 252.59 402.26C248.98 405.65 248.43 409.44 250.75 414.93C251.62 416.99 252.73 418.99 254.06 420.88C257.29 425.47 259.05 430.34 259.43 435.77C259.88 442.14 263.32 445.4 269.95 445.75C272.27 445.87 275.69 446.4 278.62 449.58C280.94 452.09 283.48 453.26 286.64 453.26C287.6 453.26 288.62 453.15 289.69 452.93C292.05 452.44 294.34 452.35 296.55 452.26C298.65 452.17 300.63 452.09 302.48 451.68C305.44 451.02 307.26 450.37 308.39 448.84C310.11 446.53 312.35 445.41 315.23 445.41C315.64 445.41 316.06 445.43 316.52 445.47C319.41 445.74 322.42 445.77 325.26 445.77H326.44H326.68C330.85 445.77 333.52 444.22 335.09 440.89C337.08 436.68 340.83 435.94 342.43 435.62C346.1 434.9 347.19 433.5 347.82 432.09C348.96 429.56 351.08 428.11 353.64 428.11C354.52 428.11 355.46 428.29 356.41 428.64C357.41 429.01 358.19 429.24 358.87 429.35C359.66 429.48 360.42 429.54 361.13 429.54C364.63 429.54 367.06 428.02 368.78 424.76C370.46 421.56 372.84 419.65 376.49 418.57C382.07 416.91 385.39 413.56 386.93 408.03C389.21 399.86 388.64 394.9 384.89 390.32C382.56 387.47 383.05 384.42 383.34 382.6C383.47 381.76 383.59 381.04 383.44 380.64L380.81 373.7L381.03 373.75C379.44 373.19 378.02 372.58 376.64 371.99C374.57 371.1 372.79 370.34 370.98 369.97C366.49 369.06 365.86 364.98 365.62 363.45V363.37C365.17 360.52 364.39 358.57 363.09 357.03C360.71 354.21 356.95 352.53 353.03 352.53C351.4 352.53 349.84 352.83 348.4 353.41C347.59 353.74 346.75 354.16 345.9 354.65C344.57 355.43 343.3 355.8 342.05 355.8C340.9 355.8 338.05 355.42 336.37 351.88C334.34 347.61 330.87 345.22 325.43 344.34C321.5 343.71 318.81 341.54 317.12 339.97C315.1 338.09 312.83 337.21 309.98 337.21C308.15 337.21 306.04 337.56 303.35 338.31C302.54 338.54 301.78 339.25 301.09 340.44C299.05 343.95 296.16 346.24 292.26 347.43C288.16 348.68 287.49 351.14 287.27 351.95C286.03 356.45 282.83 356.94 281.52 356.94C280.1 356.94 278.84 356.44 277.8 355.95C275.23 354.75 272.67 354.14 270.18 354.14C267.24 354.14 264.23 354.99 261.24 356.68C259.28 357.78 257.62 359.55 255.87 361.42L255.72 361.58C255.55 361.76 255.38 361.95 255.21 362.14C254.42 363.01 253.52 364 252.3 364.83C250.93 365.75 249.45 366.24 248.02 366.24C245.33 366.24 243.03 364.55 242.01 361.82C240.75 358.45 239.1 356.55 236.49 355.48C235.09 354.9 232.69 353.35 232.36 349.39C232.06 345.74 230.08 342.78 227.2 339.47C225.35 337.34 223.52 334.95 222.65 331.83C221.3 326.99 215.33 323.04 209.34 323.04C208.12 323.04 206.94 323.2 205.83 323.53C199.43 325.4 193.33 327.48 188.99 332.42C187.21 334.44 185.2 334.87 183.82 334.87C182.62 334.87 181.58 334.57 180.67 334.3L180.58 334.27C167.61 330.5 155.63 324.92 146.65 320.48C133.16 313.82 121.98 308.97 111.45 305.22C107.25 303.72 102.93 301.8 98.2299 299.35C93.9499 297.11 92.0799 293.69 92.6699 289.18C93.0499 286.25 92.0699 283.1 91.0299 279.78L90.9799 279.61C89.2799 274.19 89.1299 268.7 90.5299 262.85C96.1299 239.27 108.08 220.69 126.05 207.63C136.94 199.72 146.75 196.03 156.9 196.03C158.2 196.03 159.53 196.09 160.83 196.22C170.63 197.15 179.59 199.85 187.47 204.24C194.18 207.99 194.08 211.6 191.47 217.36C189.27 222.21 189.46 227.63 191.96 231.52C194.05 234.77 197.54 236.55 201.78 236.55C201.95 236.55 202.12 236.55 202.29 236.55C202.84 236.53 203.39 236.53 203.94 236.52C205.09 236.51 206.17 236.5 207.13 236.36C212.34 235.63 215.2 232.71 215.64 227.68C215.85 225.22 216.53 222.11 219.96 219.9C220.31 219.67 220.68 219.31 220.97 218.91C223.62 215.3 227.15 214.61 229.58 214.41C235.34 213.93 239.57 209.51 239.86 203.66C240.27 195.55 234.35 188.27 226.38 187.07C225.72 186.97 225.08 186.92 224.46 186.92C220.8 186.92 217.66 188.66 214.61 192.4C212.22 195.32 209.99 197.73 206.75 197.73C203.33 197.73 201.03 194.99 198.79 191.93C193.51 184.72 189.76 176.24 186.62 164.41C185.53 160.3 186 155.93 188.09 150.63C192.03 140.64 198.4 132.53 207.03 126.52C211.78 123.21 217.13 121.13 222.93 120.34C226.95 119.79 230.93 119.22 234.74 118.66C235.55 118.54 236.3 118.48 237.03 118.48C240.7 118.48 243.73 120.01 246.05 123.02C247.6 125.03 250.05 126.19 252.77 126.19C255.35 126.19 258.59 125.04 259.95 121.79C261.02 119.23 262.89 117.57 264.21 116.55C268.09 113.53 269.52 109.77 268.47 105.38C266.7 97.99 270.2 93.1 272.99 90.07C278.07 84.53 285.07 77.65 294.18 73.54C300.34 70.75 308.58 67.56 317.61 67.56C320.08 67.56 322.54 67.8 324.93 68.27C327.64 68.8 330.44 69.28 333.14 69.74C335.07 70.07 337.07 70.41 339.04 70.77C345.04 71.87 347.93 74.74 349.36 81.02C349.66 82.36 349.96 83.71 350.26 85.05C352.37 94.52 354.36 103.47 358.14 111.98C359.71 115.52 360.45 119.23 361.11 122.5C362.56 129.76 364.64 135.24 367.66 139.77C369.22 142.12 370.68 144.18 372.66 145.73C374.99 147.55 376.25 150.13 376.11 152.81C375.96 155.57 374.37 158.09 371.73 159.73C371.07 160.14 370.44 160.39 369.94 160.59C369.79 160.65 369.65 160.7 369.51 160.77C366.2 162.26 364.83 164.45 365.06 167.88C365.48 174.14 361.5 175.83 359.1 176.29C352.39 177.56 349.03 182.53 345.8 190.13C341.75 199.65 341.58 207.42 345.27 214.59C348.06 220.02 344.14 223.41 342.66 224.68C336.05 230.39 331.14 236.41 327.66 243.11C322.81 252.43 321.55 262.04 323.79 272.5C325.72 281.5 329.9 289.05 336.55 295.58C342.13 301.06 349.1 306.93 358.45 308.96C363.17 309.99 364.94 312.99 365.58 315.33C366.35 318.1 368.41 320.06 371.5 322.32C378.33 327.34 381.57 334.63 381.14 343.99C380.96 348.03 381.81 350.59 384.01 352.54C387.42 355.56 388.53 359.38 387.31 363.9C387.01 365 386.9 366.31 386.76 367.84C386.68 368.68 386.61 369.55 386.49 370.51L385.96 374.85L388.04 375.31C392.31 376.26 394.7 378.52 395.56 382.42C397.1 389.4 400.03 391.76 407.63 392.13C408.01 392.15 408.39 392.16 408.77 392.16C413.94 392.16 418.07 390.38 421.77 386.56C423.23 385.06 425.04 383.52 427.48 383.52C430.52 383.52 432.41 385.91 433.22 386.93C435.1 389.31 438.44 390.79 441.94 390.79C444.92 390.79 447.63 389.73 449.37 387.88C450.88 386.28 452.58 385.48 454.44 385.48C456.3 385.48 457.78 386.28 458.91 386.97C461.64 388.65 464.4 389.46 467.35 389.46C470.86 389.46 474.65 388.3 478.95 385.92C480.47 385.08 481.61 383.18 482.43 380.13C483.43 376.42 485.61 374.11 488.91 373.28C491.82 372.54 494 370.95 495.4 368.54C497.28 365.3 497.73 360.45 496.55 356.18C495.2 351.32 491.41 348.31 486.64 348.31C485.42 348.31 484.18 348.51 482.93 348.91C481.98 349.21 480.93 349.37 479.81 349.37C475.92 349.37 471.72 347.48 469.61 344.78C468.4 343.24 467.45 340.72 469.75 337.43C471.36 335.13 473.14 332.35 474.07 329.26C475 326.15 477.45 324.23 480.78 323.99H480.84C481.2 323.96 481.54 323.93 481.76 323.89C484.8 323.31 487.21 321.74 488.54 319.46C489.87 317.18 490.06 314.32 489.08 311.39C489.03 311.23 488.91 310.98 488.79 310.72C488.48 310.06 488.1 309.24 487.9 308.21C487.43 305.8 487.97 303.44 489.38 301.73C490.67 300.17 492.6 299.27 494.69 299.27C495.24 299.27 495.8 299.33 496.36 299.45C497.38 299.67 498.42 299.78 499.55 299.78C502.26 299.78 505.04 299.16 507.98 298.49C508.59 298.35 509.2 298.21 509.82 298.08C510.63 297.91 511.44 297.71 512.29 297.5C514.52 296.95 516.82 296.39 519.29 296.21C527.81 295.58 534.39 290.67 539.69 285.94C545.23 281.01 549.57 274.66 552.58 267.05C556.75 256.55 558.59 247.3 558.2 238.78C557.58 224.92 554.1 212.64 547.85 202.27C534.2 179.62 514.26 166.5 488.59 163.27C486.29 162.98 483.98 162.83 481.72 162.83C471.35 162.83 461.3 165.88 451.86 171.89C449.71 173.26 447.9 174.96 446.35 177.09C444.23 179.99 441.6 182.54 438.54 184.66C436.86 185.82 435.24 186.39 433.59 186.39C432.38 186.39 431.2 186.08 430.07 185.48C429.91 185.42 429.77 185.36 429.63 185.29C429.01 184.99 428.01 184.92 426.94 184.85C425.63 184.76 424.14 184.66 422.61 184.12C419.67 183.09 418.48 180.59 417.7 178.93C417.42 178.33 417.06 177.59 416.82 177.37C416.18 176.8 415.22 176.38 414.1 175.89C412.59 175.23 410.87 174.48 409.35 173.06C407.38 171.23 406.83 168.87 406.43 167.15C406.22 166.27 406.01 165.35 405.71 165.02C405.54 164.83 405.37 164.63 405.21 164.43C405.08 164.27 404.91 164.07 404.82 163.97C401.5 161.82 400.12 158.75 400.7 154.84C400.94 153.27 400.33 151.52 399.04 150.04C397.44 148.2 395.99 146.27 394.59 144.4C391.47 140.23 388.53 136.29 384.23 133.89C379.92 131.48 378.54 126.91 377.53 123.58L377.5 123.5C375.98 118.48 374.79 113.49 373.6 108.4C371.92 101.18 369.35 94.74 365.77 88.72C363.16 84.34 361.32 79.04 360.3 72.96C359.62 68.9 361.07 64.73 364.41 61.24C368.81 56.63 372.84 52.59 376.75 48.88C379.02 46.73 381.89 45.03 385.54 43.7C389 42.43 391.79 40.67 394.06 38.31C397.54 34.69 401.85 32.62 405.98 30.91C408.38 29.92 410.82 28.96 413.18 28.02C419.07 25.69 425.16 23.28 430.84 20.38C435.27 18.11 439.95 17.41 444.48 16.73C445.62 16.56 446.7 16.4 447.78 16.21C462.56 13.64 477.95 11.88 494.84 10.84C504.37 10.25 513.98 10.23 523.28 10.21C525.85 10.21 528.43 10.2 531 10.18C532.91 10.17 534.84 9.93999 536.89 9.69999C538.98 9.45999 541.14 9.19999 543.38 9.16999C543.89 9.16999 544.39 9.15999 544.9 9.15999C555.14 9.15999 565.68 10.62 576.24 13.5C598.5 19.57 617.47 26.9 634.24 35.92C647.66 43.14 657.58 50.28 665.49 58.39C673.38 66.49 679.88 75.15 684.8 84.12C687.98 89.92 689.77 95.86 690.11 101.76C690.46 107.86 687.88 112.91 685.59 117.36C685.37 117.8 685.14 118.23 684.92 118.67C684.33 119.84 682.85 121.79 679.56 121.79C679.18 121.79 678.82 121.77 678.5 121.74C678.09 121.71 677.68 121.67 677.27 121.63C675.8 121.5 674.41 121.38 673.07 121.37H672.97C667.91 121.37 664.01 123.33 661.04 127.35C659.13 129.94 657.18 132.9 654.91 136.65C651.79 141.82 651.62 146.97 654.38 152.41C655.42 154.45 658.17 159.88 652.11 163.73C651.46 164.15 650.91 165.78 650.7 166.4C649.11 171.14 645.85 174.69 641.01 176.96C637.37 178.66 633.88 180.96 630.33 183.99C627.04 186.79 623.4 188.79 619.87 190.72C618.36 191.55 616.93 192.33 615.53 193.17C614.59 193.74 613.13 194.41 611.55 194.41C611.12 194.41 610.69 194.36 610.28 194.26C609.29 194.02 608.21 193.86 607.07 193.7C603.58 193.19 599.23 192.56 595.56 188.94C593.38 186.79 590.95 185.7 588.33 185.7C586.71 185.7 584.98 186.11 583.19 186.92C581.65 187.62 579.78 188.33 577.62 188.33C576.54 188.33 575.44 188.15 574.37 187.8C573.51 187.52 572.62 187.37 571.73 187.37C569.23 187.37 566.66 188.52 564.68 190.52C562.58 192.64 561.39 195.45 561.41 198.23C561.5 208.52 567.2 215.35 576.65 216.5C584.51 217.46 588.95 220.59 592 227.3C594.22 232.18 599.65 235.46 605.52 235.46C608.72 235.46 613.45 234.47 617.77 229.74C622.6 224.46 623.73 219.82 621.46 214.71C619.92 211.25 621.18 207.84 624.68 206.02L625.35 205.68C627.83 204.4 630.17 203.19 632.1 201.55C633.3 200.53 634.58 200.01 635.91 200.02C636.88 200.02 640.13 200.38 641.19 204.96C642.69 211.47 643.34 218.38 637.9 224.79C636.17 226.83 635.23 229.67 634.23 232.69L634 233.39C633.03 236.3 635.76 240.38 638.07 241.71C639.03 242.26 640.11 242.55 641.19 242.55C643.05 242.55 644.76 241.71 646 240.19C657.65 225.98 660.98 214.42 657.12 201.54C656.38 199.06 656.36 196.68 657.07 194.46C657.52 193.05 657.65 191.43 657.78 189.71C657.83 189.07 657.88 188.43 657.94 187.78C658.49 182.34 661.8 177.67 666.79 175.29C668.46 174.5 670.05 173.39 671.73 172.22C673.8 170.78 675.94 169.29 678.5 168.17C680.74 166.33 687.95 155.29 688.74 152.81C689.26 150.74 689.33 148.79 688.96 147.02C688.05 142.68 688.39 136.38 695.17 130.97C696.42 129.97 697.23 129.04 697.62 128.11C700.58 121.27 706.53 119.15 710.74 118.15C715.32 117.07 719.48 116.54 723.46 116.54C725.1 116.54 726.74 116.63 728.31 116.82C756.92 120.15 778.27 134.92 791.76 160.71C796.58 169.92 798.5 180.23 797.62 192.21C797.12 199.05 793.9 203.55 788.06 205.58C786.68 206.06 785.31 206.63 783.87 207.24C782.51 207.81 781.09 208.4 779.63 208.93C773.93 210.97 769.31 213.4 765.51 216.34C762 219.05 758.06 220.45 753.47 220.61C748.83 220.77 744.26 222.61 739.51 226.24C737 228.16 736.33 231.47 737.71 235.12C738.67 237.64 741.34 239.4 744.2 239.4C744.27 239.4 744.34 239.4 744.42 239.4C745.66 239.36 746.52 239.23 746.97 239C751.77 236.63 756.77 235.48 761.6 234.37C762.8 234.09 764 233.82 765.2 233.52C766.79 233.13 768.55 232.43 770.57 231.4C779.17 227.01 788.02 222.83 796.58 218.78L797.44 218.38C799.33 217.49 801.07 217.06 802.78 217.06C805.15 217.06 807.36 217.88 809.54 219.57C814.94 223.76 819.7 229.24 824.51 236.79C826.26 239.54 826.63 242.44 826.96 245C827.1 246.13 827.24 247.19 827.48 248.13C828.03 250.24 827.43 251.77 826.83 252.68C825.42 254.84 823.01 255.23 821.72 255.43L821.45 255.47C816.37 256.34 811.55 258.1 806.44 259.96C805.57 260.28 804.69 260.6 803.82 260.91C794.31 264.32 788.17 271.16 785.03 281.82C783.92 285.59 781.27 287.24 779.08 288.25C777.73 288.88 776.35 289.48 775.02 290.07C771.81 291.49 768.79 292.83 765.91 294.44L765.1 294.89C759.38 298.1 753.46 301.43 745.6 301.44C743.33 301.44 740.86 302.13 738.24 302.86C735.96 303.49 733.61 304.15 731.09 304.45C728.32 304.78 725.99 304.94 723.76 304.94C720.77 304.94 718.05 304.65 715.43 304.06C709.83 302.8 705.83 300.1 703.22 295.8C701.83 293.52 700.04 292.05 697.76 291.3C696.71 290.96 695.66 290.78 694.66 290.78C692.51 290.78 690.59 291.58 689.25 293.04C687.79 294.63 687.11 296.9 687.33 299.44C687.41 300.34 687.61 301.33 687.85 302.49C687.98 303.14 688.12 303.82 688.26 304.55L688.74 307.17L691.67 308.73C693.79 309.86 695.67 311.07 697.49 312.24C698.24 312.72 698.99 313.21 699.74 313.68C702.94 315.67 704.33 319.24 703.3 322.77C702.64 325.03 702.09 327.32 701.5 329.73C699.65 337.39 697.74 345.31 692.18 352.2C691.2 353.42 689.55 355.45 686.57 355.45C685.41 355.45 684.26 355.14 682.81 354.45C676.31 351.35 670.6 347.36 666.35 344.23C665.49 343.6 662.89 341.68 662.77 338.57C662.65 335.48 665.05 333.38 665.84 332.7C668.21 330.64 671.2 329.63 674.98 329.63H675.2H675.57C675.92 329.63 676.26 329.63 676.61 329.63C678.14 329.63 679.37 329.55 680.45 329.17C685.27 327.45 688.07 322.07 686.96 316.66C686.84 316.05 686.61 315.37 686.37 314.64C686.23 314.23 686.1 313.82 685.97 313.41L684.79 309.54L683.24 309.1C682.51 308.89 681.82 308.68 681.16 308.49C679.9 308.11 678.81 307.78 677.76 307.56C676.17 307.23 674.68 307.06 673.33 307.06C668.99 307.06 665.83 308.77 663.39 312.45C661.98 314.58 660.18 315.66 658.04 315.66C656.47 315.66 655.15 315.04 654.17 314.5C650.52 312.48 647.58 311.58 644.64 311.58C644.3 311.58 643.96 311.59 643.61 311.62C638.05 312.03 633.68 314.44 630.26 318.99C628.92 320.77 628.43 322.99 628.8 325.6C629.34 329.41 628.3 332.5 625.62 335.06C624.33 336.3 623.78 337.98 623.96 340.2C624.34 344.88 622.08 348.11 617.24 349.8C611.08 351.94 604.52 354.37 598.21 357.56C591.98 360.72 588.85 364.16 587.74 369.08C586.66 373.87 583.05 374.24 581.97 374.24C580.89 374.24 579.85 373.98 578.67 373.44C577.29 372.81 576.04 372.49 574.93 372.49C573.82 372.49 572.07 372.77 570.04 375.19C568.46 377.08 566.39 377.84 564.89 378.4L564.67 378.48C559.54 380.39 557.08 383.89 556.93 389.47C556.83 393.33 556.04 396.73 554.52 399.88C552.33 404.41 550.77 413.44 558.8 418.52C559.71 419.1 560.23 419.83 560.57 420.32C560.64 420.42 560.72 420.54 560.82 420.66L562.95 423.3L560.7 425.83C559.19 427.53 557.44 428.58 555.91 429.5C555.19 429.93 554.51 430.34 553.96 430.76C553.18 431.35 552.4 431.88 551.65 432.4C550.47 433.21 549.36 433.97 548.43 434.81C545.77 437.19 542.75 438.92 539.18 440.08C534.08 441.74 533.01 443.2 532.79 448.72C532.65 452.21 531.18 454.54 529.92 456.17C526.86 460.14 527.14 464.58 530.68 468.37L531.22 468.95C532.63 470.47 533.97 471.9 535.41 473.09C537.32 474.68 539.7 475.52 542.27 475.52C544.84 475.52 547.56 474.59 549.65 472.9C552.8 470.35 556.57 469.11 561.16 469.11C562.88 469.11 564.7 469.28 566.91 469.64C569.9 470.13 572.77 470.92 575.55 471.69C579.22 472.71 582.68 473.66 586.16 473.88C597.38 474.58 606.6 479.81 614.88 485.36C617.59 487.17 620.84 489.19 624.5 490.38L624.82 490.48C626.21 490.92 629.91 492.08 630.36 496.31C630.83 500.75 627.41 503.01 626.13 503.86C623.52 505.58 620.51 506.46 617.18 506.46C616.95 506.46 616.72 506.46 616.49 506.45C616.2 506.44 615.92 506.43 615.63 506.43C613.49 506.43 611.65 506.73 610.02 507.35C607.01 508.48 604.88 510.93 604.32 513.9C603.78 516.78 604.79 519.62 607.09 521.68C608.01 522.5 608.92 523.33 609.84 524.16C611.95 526.07 614.12 528.05 616.3 529.91C619.2 532.39 622.32 534.04 625.56 534.79C629.99 535.82 631.78 538.8 632.5 541.13C633.28 543.65 635.04 545.38 637.89 546.43C640.17 547.27 643.32 548.9 644.42 553.45C645.03 555.96 646.53 557.66 649 558.64C651.02 559.44 652.79 560.48 654.51 561.49C656.45 562.63 658.27 563.7 660.16 564.22C663.99 565.27 665.09 568.77 665.51 570.09C666.19 572.26 666.9 573.96 668.12 575.21C669.78 576.91 670.09 578.61 670.05 579.73C669.96 582.29 668.12 583.94 667.42 584.56C665.49 586.28 664.46 588.38 664.18 591.18C663.85 594.52 664.88 597.71 667.1 600.16C669.47 602.78 672.94 604.28 676.62 604.28C678.18 604.28 679.75 604.02 681.3 603.49C684.03 602.57 686.67 601.37 689.47 600.09C693.19 598.39 697.04 596.64 701.29 595.5C704.51 594.63 706.54 591.67 707.3 586.69C707.74 583.86 708.33 579.98 713.75 579.98C714.27 579.98 714.85 580.01 715.52 580.04H715.61C716.42 580.08 717.24 580.09 718.11 580.1C719.53 580.11 721 580.13 722.53 580.28C726.2 580.64 727.39 582.95 727.74 583.93C728.08 584.9 728.59 587.44 725.96 589.99L725.41 590.53C723.63 592.25 721.95 593.88 720.69 595.74C715.59 603.27 713.92 612.27 715.58 623.28C718.43 642.24 729.04 655.23 748.01 663.01C748.19 663.09 748.39 663.15 748.58 663.21C749.62 663.56 751.19 664.08 752.46 665.57L752.95 666.14L753.2 666.85C753.62 668.04 754.21 671.05 750.8 673.45C748.9 674.78 748.68 677 748.72 678.2C748.8 681 750.37 683.81 752.61 685.19C753.89 685.98 755.4 686.85 756.83 687.28C763.23 689.21 768.83 692.51 774.48 696C776.89 697.49 778.89 698.66 781 699.11C784.49 699.85 786.62 702.13 787.32 705.9C788.87 714.24 794.16 719.84 804.48 724.06C810.11 726.37 816.05 727.73 822.33 729.17L822.75 729.27C824.35 729.64 825.9 729.82 827.38 729.82C829.93 729.82 832.32 729.28 834.67 728.18C836.15 727.49 837.74 726.85 839.37 726.85C844.67 726.85 845.27 732.49 845.47 734.34C847.7 755.08 843.71 772.88 833.26 788.76L833.25 788.69ZM197.82 507.02C198.16 509 199.44 510.78 201.53 512.15C205.19 514.56 207.08 517.57 207.48 521.6C207.61 522.96 208.14 524.52 211.03 525.72C214.86 527.31 218.6 528.11 222.15 528.11C225.24 528.11 228.33 527.5 231.32 526.29C232.1 525.98 232.8 525.68 233.43 525.41C235.77 524.41 237.61 523.63 239.71 523.63C243.91 523.63 246.76 526.78 250.64 531.58C254.15 535.92 257.17 538.84 260.44 541.04C263.65 543.2 266.79 544.36 270.06 544.59C276.34 545.04 277.81 547.12 278.8 552.76C281.34 567.19 278.36 579.99 269.97 590.78C252.49 613.25 229.62 624.65 202.01 624.66H201.67C185.12 624.66 170.21 620.66 157.35 612.78C146.15 605.91 138.68 596.73 135.15 585.5C132.68 577.62 132.07 571.01 133.23 564.68C133.41 563.7 133.41 562.53 133.41 561.3C133.41 560.57 133.41 559.81 133.44 559.02C133.66 554.07 135.7 551.67 140.49 550.74C141.91 550.46 143.29 550.41 144.56 550.4C150.03 550.35 154.66 548.09 158.7 543.5C160.92 540.98 163.47 539.75 166.51 539.75C166.59 539.75 166.67 539.75 166.74 539.75C167.5 539.77 168.27 539.78 169.04 539.78C169.86 539.78 170.57 539.76 171.22 539.73C175.32 539.5 179.24 536.37 180.14 532.62C182 524.84 177.84 512.52 169.88 508.87C167.34 507.7 165.17 507.14 163.25 507.14C160.79 507.14 158.72 508.09 156.74 510.13C155.06 511.85 153.06 512.72 150.79 512.72C150.17 512.72 149.53 512.66 148.84 512.53C146.85 512.15 145.37 511.98 144.18 511.98C141.67 511.98 140.25 512.51 137.18 517.6C135.55 520.3 133.36 521.67 130.66 521.67C130.46 521.67 130.25 521.67 130.04 521.65C129.68 521.62 129.31 521.61 128.94 521.61C125.65 521.61 122.38 522.73 118.91 523.91C118.49 524.05 118.07 524.19 117.66 524.34C115.4 525.1 113.8 525.43 112.31 525.43C108.14 525.43 105.6 522.77 103.36 520.05C90.6199 504.56 89.3799 482.32 100.27 464.71C106.23 455.08 114.77 446.95 126.39 439.85C138.75 432.29 152.67 427.58 168.94 425.43C172.82 424.92 176.62 424.66 180.25 424.66C187.73 424.66 194.88 425.76 201.5 427.94C218.84 433.64 231.04 443.89 237.77 458.42C241 465.4 240.37 468.11 234.39 472.91C231.98 474.84 229.99 477.25 227.87 479.8L227.16 480.65C221.8 487.08 215.59 493.42 206.52 496.25C203.39 497.23 201.25 498.57 199.8 500.49C198.14 502.68 197.45 504.95 197.81 507.06L197.82 507.02ZM332.13 413.6C332.38 417.18 330.61 420.1 327.4 421.39C324.4 422.6 322.93 424.83 322.49 428.84L322.04 432.98L317.92 432.36C316.26 432.11 314.39 430.95 313.97 428.45C312.89 425.47 310.39 417.68 318.19 412.23C318.34 411.93 318.5 411.22 318.66 410.13C319.61 403.73 320.95 402.32 327.14 401.24L327.28 401.21C327.58 401.15 328.07 401.06 328.69 401.06C329.98 401.06 331.21 401.46 332.46 402.29L335.61 404.38L333.69 407.64C332.49 409.69 331.99 411.58 332.13 413.59V413.6ZM328.02 368.72C326.38 370.57 324.43 371.51 322.22 371.51C320.01 371.51 318.26 370.62 316.48 369.77L316.42 369.74L312.27 367.73L314.84 363.9C316.26 361.79 317.21 360.14 317.58 358.4C318.32 354.94 320.85 353.72 322.79 353.72C323.55 353.72 324.32 353.89 325.07 354.22C327.24 355.18 328.87 357.47 329.54 360.5C330.25 363.76 329.68 366.83 328.02 368.72ZM416.77 266.16C417.97 268.02 419.98 269.34 422.41 269.85C423.9 270.17 425.3 270.33 426.56 270.33C427.92 270.33 429.18 270.14 430.31 269.77C434.49 268.4 438.64 267.74 443.02 267.74C444.32 267.74 445.65 267.8 446.99 267.92C447.4 267.96 447.83 267.98 448.25 267.98C450.77 267.98 453.42 267.33 456.1 266.06C459.13 264.63 460.6 262.3 460.6 258.94C460.6 255.04 461.87 251.86 464.72 248.65C467.73 245.25 468.55 241.56 467.23 237.36L467.1 236.95C465.58 232.09 464.26 227.89 460.46 225.47C457.22 223.41 457.04 220.05 456.95 218.25V218.06C456.5 210.07 453.49 205.23 447.18 202.39C443.73 200.83 442.85 198.63 442.73 197.07C442.61 195.52 443.09 193.26 446.12 191.25C449.69 188.89 452.54 185.66 455.57 182.25L455.73 182.08C462.71 174.21 472.22 172.73 478.76 172.3C480.09 172.21 481.43 172.17 482.74 172.17C498.05 172.17 512 177.89 525.37 189.65C537.56 200.37 545.03 214.28 547.56 230.98C549.45 243.47 547.86 255.27 542.83 266.07C537.73 277.01 528.4 284.39 515.08 288C512.37 288.73 509.64 289.17 507 289.6C505.77 289.8 504.62 289.98 503.45 290.2C502.69 290.34 501.94 290.41 501.21 290.41C497.47 290.41 494.33 288.5 492.39 285.02C490.84 282.26 489.28 279.41 487.75 276.55C485.74 272.8 482.34 270.47 478.87 270.47C478.51 270.47 478.14 270.5 477.78 270.55C473.13 271.21 470.33 273.42 468.97 277.49C467.65 281.41 469.15 286.35 472.53 289.23C472.77 289.44 473.14 289.68 473.54 289.94C474.88 290.82 476.71 292.02 477.95 294.46L479.7 297.93L476.29 299.78C474.36 300.82 472.47 301.35 470.65 301.35C467.75 301.35 465.13 300.06 462.87 297.51C459.04 293.18 454.05 289.51 447.16 285.95C445.09 284.88 442.99 283.49 440.54 281.59C438.98 280.37 437.24 279.81 435.06 279.81C434.44 279.81 433.78 279.86 433.09 279.95C428.73 280.53 426.4 283.36 426.86 287.53C427.29 291.49 426.08 294.45 423.04 296.84C419.58 299.56 418.23 302.88 418.91 306.99C419.36 309.72 418.91 313.46 414.27 315.76C411.75 317 409.23 318.15 406.16 318.47C401.08 319 397.62 320.21 394.94 322.4C393.93 323.23 392.34 324.33 390.28 324.33C388.22 324.33 386.49 323.26 385.33 321.4C384.32 319.77 382.57 318.65 380.55 317.36L380.23 317.15L377.62 315.48L378.58 312.54C379.4 310.03 381.26 308.63 384.12 308.38C384.17 308.38 384.22 308.38 384.27 308.37C388.35 307.08 390.65 303.78 390.6 299.31C390.55 294.55 388.26 291.28 384.16 290.1C383.02 289.77 381.89 289.61 380.8 289.61C378.01 289.61 375.26 290.67 372.39 292.85C371.69 293.38 371 294.05 370.26 294.76C369.88 295.12 369.5 295.49 369.11 295.84C366.6 298.14 363.73 299.3 360.59 299.3C358.81 299.3 356.96 298.91 355.1 298.15C342.81 293.13 331.26 274.75 332.2 261.74C332.85 252.72 336.66 244.39 343.83 236.27C344.42 235.6 345.03 235.01 345.61 234.45C346.07 234 346.51 233.58 346.89 233.16C350.71 228.93 355.13 228.44 358.12 228.44C358.68 228.44 359.26 228.46 359.9 228.5C365.46 228.84 371.21 229.19 376.88 229.19C382.55 229.19 387.81 228.81 392.45 228.02C393.26 227.88 394.05 227.81 394.79 227.81C397.48 227.81 399.89 228.71 401.95 230.49C403.09 231.48 404.25 232.48 405.37 233.6C409.41 237.68 413.16 239.5 417.54 239.5C417.72 239.5 417.89 239.5 418.07 239.5C418.32 239.5 418.57 239.49 418.82 239.49C424.66 239.49 425.93 243.54 426.2 245.28C426.49 247.12 426.55 251.65 420.93 253.96C418.19 255.09 416.51 257.21 415.81 260.45C415.36 262.51 415.7 264.5 416.8 266.2L416.77 266.16ZM424.26 333.99L422.21 338.09L421.63 339.26C421.24 340.05 420.9 340.74 420.54 341.41C420.5 341.49 420.46 341.59 420.42 341.68C419.33 344.2 417.62 345.51 415.33 345.58H415.27H415.17C413.92 345.58 410.9 345.11 409.91 340.8C409.12 337.36 410.02 334.89 412.57 333.44L412.63 333.41C413.54 332.89 415.07 332.03 417.16 332.03C418.06 332.03 418.99 332.19 419.92 332.51L424.26 333.99ZM390.38 204.1C390.94 206.82 390.54 209.07 389.19 210.79C387.07 213.48 383.58 213.61 382.44 213.65C381.58 213.68 380.66 213.69 379.56 213.69C378.81 213.69 378.06 213.69 377.31 213.68C376.64 213.68 375.97 213.67 375.31 213.67C374.66 213.73 374 213.75 373.3 213.75C371.55 213.75 369.88 213.58 368.26 213.42C366.77 213.27 365.36 213.13 364.01 213.13C363.1 213.13 362.3 213.19 361.56 213.33C361.06 213.42 360.55 213.47 360.07 213.47C356.44 213.47 353.67 210.92 353.19 207.13C352.29 200.04 354.09 193.48 358.53 187.62C360.02 185.65 362.21 184.57 364.69 184.57C366.3 184.57 367.94 185.03 369.44 185.91C371.41 187.06 373.37 187.62 375.43 187.62C377.08 187.62 378.79 187.27 380.66 186.55C381.67 186.16 382.7 185.97 383.74 185.97C384.78 185.97 385.78 186.16 386.77 186.53C388.69 187.25 390 188.4 390.67 189.95C391.11 190.97 391.46 192.61 390.62 194.68C389.6 197.18 389.54 199.9 390.4 204.09L390.38 204.1ZM677.59 147.41C678.88 149.82 678.2 152.71 675.99 154.27C675.1 154.9 674.07 155.23 673.01 155.23C671.82 155.23 670.67 154.83 669.57 154.03L669.31 153.84C668.33 153.12 667.31 152.38 666.31 151.53C662.18 148.03 661.55 145.17 663.83 140.21C665.24 137.14 666.98 133.91 671.31 131.11L679.54 125.78L677.39 135.35C676.19 140.69 675.86 144.19 677.58 147.41H677.59ZM832.57 263.78L830.73 269.26C829.24 273.7 827.46 278.32 823.56 281.87C821.8 283.47 819.96 284.96 818.19 286.41C817.36 287.08 816.54 287.75 815.72 288.43C813.99 289.87 812.16 290.6 810.28 290.6C808.67 290.6 807.1 290.07 805.63 289.02C804.16 287.97 802.52 287.16 800.75 286.6C797.86 285.69 796.79 283.91 796.39 282.58C795.99 281.22 795.93 279.09 797.95 276.62C798.14 276.39 798.33 276.15 798.52 275.91C799.67 274.46 801.1 272.65 803.19 271.55C810.38 267.75 817.6 264.32 826.8 263.98L832.58 263.77L832.57 263.78ZM730.11 472.73C729.86 472.38 729.63 472.04 729.45 471.85C726.26 468.43 720.81 466.31 715.21 466.31C712.03 466.31 709.13 467 706.82 468.3C704.67 469.51 703.18 471.27 702.13 473.82C702.08 473.94 702 474.3 701.95 474.57C701.67 475.89 701.14 478.33 698.68 479.88L697.69 480.5H696.52C692.91 480.48 691.56 477.69 691.12 476.77C691.08 476.69 691.05 476.61 691.01 476.54C688.76 472.38 685.4 470.08 680.75 469.51C678.2 469.2 674.68 468.19 673.59 463.02C672.53 457.95 668.97 454.93 663.84 454.73C658.78 454.53 654.6 453.23 650.31 450.51C647.36 448.64 644.63 447.69 642.19 447.69C640.25 447.69 638.41 448.27 636.58 449.46C633.71 451.32 632.12 453.85 631.71 457.19C631.68 457.44 631.66 457.74 631.64 458.06C631.6 458.76 631.55 459.55 631.36 460.42C630.65 463.66 628.3 465.76 625.37 465.76C624.24 465.76 623.09 465.44 621.97 464.82C617.84 462.52 613.33 460.72 608.2 459.29C604.35 458.22 603.68 455.48 603.56 454.35C603.37 452.44 603.95 449.87 607.77 448.47L607.97 448.4C608.83 448.07 609.76 447.74 610.77 447.5C612.78 447.03 614.6 445.65 615.76 443.72C617.13 441.43 617.46 438.58 616.69 435.7C615.81 432.41 614.36 429.26 612.82 425.92L612.49 425.2C610.89 421.72 609.19 417.98 607.54 414.21C605.74 410.1 605.21 406.14 605.92 402.1C606.31 399.88 605.79 397.37 605.24 394.72L605.11 394.09C603.7 387.17 601.87 381.33 599.52 376.24C597.05 370.87 598.07 367.92 603.31 365.36C610.44 361.87 617.6 359.13 624.57 357.2C625.78 356.86 627.03 356.7 628.29 356.7C635.63 356.7 642.16 362.47 643.15 369.83C644.07 376.66 646.64 379.56 652.99 380.9C653.68 381.05 654.25 381.12 654.76 381.12C655.27 381.12 655.65 381.05 656.03 380.92C657.53 380.39 659.04 380.12 660.54 380.12C662.9 380.12 665.2 380.76 667.57 382.06C669.05 382.88 670.59 383.29 672.13 383.29C672.23 383.29 672.32 383.29 672.42 383.29C672.59 383.29 672.76 383.29 672.93 383.29C677.12 383.29 680.71 384.97 683.91 388.44L684.18 388.73C685.66 390.34 687.06 391.86 688.59 393.07C693.26 396.79 696.97 398.45 700.61 398.45C701.97 398.45 703.32 398.23 704.73 397.76C708.32 396.58 710.36 394.44 711.13 391.02C711.64 388.75 712.1 386.32 712.02 383.97C711.87 379.81 711.9 374.89 713.25 369.92C713.29 369.76 713.4 369.37 713.43 369.16C712.15 362.02 715.07 356.37 717.65 351.37C718.78 349.18 719.85 347.12 720.53 345.03C721.65 341.62 724.73 340.07 726.77 339.05L727.23 338.82C735.71 334.51 745.07 332.32 755.04 332.32C757.65 332.32 760.35 332.47 763.06 332.77C778.97 334.5 794.49 339.91 809.18 348.84C812.89 351.09 816.19 353.82 819.25 356.42C825.59 361.79 831.79 367.96 837.7 374.75C845.73 383.99 851.53 395.4 855.94 410.65C858.97 421.11 860.27 430.06 860.04 438.81C859.48 459.61 851.34 476.51 835.84 489.02C833.19 491.16 830.33 493.36 827.35 495.57C825.48 496.95 823.57 497.65 821.65 497.65C820 497.65 818.42 497.15 816.95 496.15C811.81 492.67 805.64 491.88 799.1 491.04C798.06 490.91 797.05 490.74 796.07 490.59C795 490.42 793.98 490.26 792.98 490.13C787.4 489.46 783.29 486.71 780.76 481.95C779.14 478.91 776.55 476.75 772.84 475.35C770.06 474.31 767.28 473.16 764.69 472.07C762.71 471.24 760.79 470.84 758.8 470.84C756.03 470.84 753.19 471.63 750.13 473.26C749.14 473.79 748.29 474.28 747.54 474.78C745.12 476.36 742.58 476.47 740.72 476.55C739.98 476.58 739.27 476.61 738.73 476.73C738.12 476.86 737.52 476.92 736.95 476.92C733.06 476.92 731.15 474.19 730.12 472.73H730.11ZM734.75 513.87L734.72 514.01L734.68 514.15C734.63 514.35 734.56 514.61 734.48 514.91C734.24 515.87 733.9 517.19 733.47 518.53C730.72 527.12 726.42 535.55 719.95 545.05C719.35 545.92 717.54 548.58 714.23 548.58C712.96 548.58 711.69 548.19 710.34 547.38C704.97 544.17 698.72 543.38 692.77 542.86C692.37 542.82 691.97 542.8 691.57 542.78C690.07 542.69 688.38 542.59 686.66 542.01C681.95 540.44 676.37 538.84 670.71 538.84C669.98 538.84 669.24 538.87 668.53 538.92C668.35 538.93 668.17 538.94 667.99 538.94C666.49 538.94 665.19 538.51 664.14 538.16L663.76 538.03C660.47 536.97 656.92 535.99 653.23 535.99C652.98 535.99 652.73 535.99 652.48 536C652.28 536 652.08 536.01 651.9 536.01C649.21 536.01 647.31 535.13 646.26 533.39C644.63 530.7 646.14 527.78 646.71 526.68C647.85 524.49 649.13 522.42 650.37 520.42C650.66 519.95 650.95 519.49 651.24 519.02C654.38 513.91 656.84 509.54 658.62 504.85C658.67 504.71 658.75 504.42 658.82 504.16C659.2 502.72 660.36 498.35 665.18 498.33C668.21 498.33 670.24 500.15 671.25 503.73C671.31 503.93 671.39 504.24 671.44 504.34C672.28 506.24 673.46 507.49 675.4 508.49C676.84 509.24 678.19 509.6 679.53 509.6C681.16 509.6 682.81 509.06 684.58 507.95C687.62 506.05 690.44 505.16 693.46 505.16C693.86 505.16 694.27 505.18 694.68 505.21C694.85 505.22 695.02 505.23 695.19 505.23C696.66 505.23 698.17 504.7 699.82 503.61C701.39 502.58 702.88 502.07 704.4 502.07C705.91 502.07 707.37 502.57 708.74 503.55C710.82 505.05 713.03 505.78 715.49 505.78C717.18 505.78 719.05 505.43 721.03 504.74C722.56 504.21 724.24 503.71 726.11 503.71C727.98 503.71 729.76 504.23 731.36 505.24C734.34 507.13 735.48 510.02 734.74 513.84L734.75 513.87ZM564.61 441.57L568.15 439.17C572.95 435.91 577.92 432.54 582.73 429.14C583.64 428.5 585.04 427.65 586.78 427.65C590.21 427.65 591.69 430.71 592.18 431.71C592.39 432.15 592.61 432.59 592.83 433.02C595.12 437.59 598.23 443.82 593.43 450.67C593.42 450.84 593.4 451.06 593.39 451.23C593.37 451.59 593.35 452.01 593.29 452.44C592.97 455.06 592.43 459.45 587.55 459.45C586.51 459.45 585.41 459.22 584.02 458.93C582.89 458.69 581.76 458.46 580.63 458.23C577.73 457.63 574.73 457.01 571.78 456.35C568.38 455.59 564.78 455.49 560.22 455.37L559.11 455.34L550.18 455.09L556.31 448.6C559.47 445.25 562.17 443.25 564.62 441.59L564.61 441.57ZM564.27 406.78L564.75 401.02L564.94 398.68C565.1 396.67 565.27 394.59 565.47 392.54C565.75 389.61 567.68 387.54 570.39 387.26C570.58 387.24 570.77 387.23 570.95 387.23C572.59 387.23 574.8 387.92 576.03 391.2L576.07 391.31C576.4 392.16 576.61 392.99 576.79 393.72L576.86 394.01C578.75 401.34 576.21 403.39 569.81 405.2L564.25 406.78H564.27ZM796.79 699.85C797.8 697.84 799.65 696.69 801.88 696.69C802.66 696.69 803.36 696.83 803.86 696.93C804 696.96 804.19 697 804.29 697.01H804.31H804.34H804.52C807.12 697.01 809.4 696.22 811.7 694.53C813.67 693.08 815.84 691.74 818.41 691.74C821.35 691.74 823.61 693.48 825.5 695.11C828.9 698.05 830.84 701.34 831.44 705.15C831.53 705.72 831.62 706.28 831.71 706.85C831.97 708.49 832.24 710.19 832.45 711.91C832.7 713.98 832.76 716.61 831.04 718.56C830.27 719.42 828.87 720.45 826.54 720.45C825.7 720.45 824.77 720.31 823.69 720.04C818.64 718.74 813.16 717.08 806.93 714.97C803.7 713.88 800.8 711.77 798.55 708.87C797.41 707.4 794.73 703.94 796.79 699.84V699.85ZM829.98 622.15C831.15 621.43 832.99 620.48 835.37 620.48C836.21 620.48 837.06 620.59 837.97 620.83C839.28 621.17 840.6 621.35 841.87 621.35C844.78 621.35 847.63 620.45 850.33 618.68C851.99 617.59 853.6 617.06 855.24 617.06C857.02 617.06 858.71 617.69 860.26 618.94C862.53 620.77 865.1 622.25 867.82 623.82C868.92 624.45 870.05 625.11 871.17 625.79C883.35 633.21 888.98 645.13 887.46 660.28C886.02 674.64 879.72 687.19 868.74 697.58C863.09 702.92 856.9 706.28 849.82 707.84C848.52 708.13 847.6 708.31 846.66 708.31C842.19 708.31 841.24 704.22 840.79 702.26C839.24 695.53 835.55 690.34 829.54 686.39C825.69 683.86 822.04 682.64 818.39 682.64C815.16 682.64 811.92 683.6 808.5 685.57C805.15 687.5 801.64 688.47 798.07 688.47C794.31 688.47 790.66 687.38 787.24 685.24C783.03 682.6 778.54 680.54 773.79 678.36C773.02 678.01 772.26 677.66 771.5 677.3C771.43 677.28 771.36 677.26 771.29 677.24C770.33 676.96 767.39 676.12 766.51 672.52L765.41 668.02L770.02 667.59C780.74 666.58 791.81 664.47 800.14 655.89C807.89 647.9 811.72 638.11 811.52 626.78L811.48 624.43L813.51 623.25C814.49 622.68 815.53 622.4 816.61 622.4C818.07 622.4 819.2 622.94 819.88 623.26C819.98 623.31 820.08 623.36 820.19 623.4C821.42 623.85 822.65 624.08 823.85 624.08C825.88 624.08 827.9 623.45 830.02 622.15H829.98ZM834.89 577.11C833.34 579.12 831.24 579.6 829.99 579.89C829.72 579.95 829.43 580.02 829.29 580.07C826.98 580.89 825.13 581.63 823.99 582.95C822.03 585.22 819.66 586.37 816.96 586.37C815.61 586.37 814.2 586.08 812.67 585.48C811.3 584.94 809.83 584.67 808.29 584.67C804.54 584.67 800.76 586.28 798.17 588.98C796.64 590.57 794.86 593.26 795.02 597.04C795.18 600.69 792.91 602.57 791.55 603.69L791.47 603.75C788.83 605.94 787.41 608.66 787.48 611.4C787.55 614.18 789.14 616.87 791.95 618.96C792.84 619.62 793.79 620.24 794.8 620.9C795.66 621.46 796.55 622.03 797.43 622.66C801.72 625.71 803.39 628.19 801.34 634.06C794.4 653.87 784.12 657.93 770.81 657.93C770.42 657.93 770.02 657.93 769.62 657.92C758.89 657.7 749.16 654.58 741.46 648.88C733.83 643.22 728.33 635.15 725.58 625.53C723.34 617.72 723.85 610.45 727.1 603.94C729.5 599.14 733.01 595.74 737.55 593.85C739.75 592.93 741.92 592.47 744.01 592.47C747.4 592.47 750.54 593.66 753.34 596.01C754.76 597.2 756.09 598.32 757.47 599.2C759.45 600.47 761.71 601.14 763.98 601.14C768.63 601.14 773.89 598.21 775.14 591.67C776 587.18 774.64 582.11 771.59 578.42C769.15 575.47 765.95 573.85 762.57 573.85C762.24 573.85 761.9 573.87 761.56 573.9C761.21 573.93 760.89 573.95 760.58 573.95C757.52 573.95 755.28 572.29 754.41 569.39C752.68 563.56 747.64 560.38 742.3 557.02L742.13 556.91C739.93 555.52 738.19 554.43 737.63 552.18C737.05 549.86 738.12 548.12 739.46 545.9L739.52 545.8C742.08 541.6 743.76 536.94 745.53 532.02C745.85 531.13 746.17 530.23 746.5 529.34L746.9 528.24C747.88 525.55 748.9 522.76 750.27 520.04C751.67 517.26 753.81 515.29 756.99 513.82C761.04 511.95 765.19 511.01 769.32 511.01C774 511.01 778.79 512.23 783.54 514.63C785.95 515.85 787.59 517.69 788.54 520.27C791.76 528.94 797.11 537.3 804.91 545.84C814.8 556.67 823.85 564.47 833.38 570.41C834.7 571.23 835.15 572.49 835.33 572.96L835.35 573L836.4 575.16L834.89 577.12V577.11ZM961.77 460.97C960.54 467.5 959.5 474.21 958.5 480.7C957.97 484.13 957.42 487.67 956.85 491.16C953.29 512.9 942.39 531.03 923.54 546.59C918.12 551.06 911.49 554.34 903.26 556.63C900.26 557.46 897.87 557.84 895.52 557.84C894.33 557.84 893.15 557.74 892.01 557.53C891.02 557.35 889.88 557.17 888.83 557.17C888.41 557.17 888.03 557.2 887.7 557.26C886.33 557.51 884.94 557.63 883.55 557.63C878.2 557.63 873.37 555.76 869.35 553.93C867.9 553.27 866.05 552.28 864.48 550.46C862.4 548.03 860.12 546.57 857.49 546C855.16 545.49 853.53 544.38 852.64 542.69C851.76 541 851.77 539.01 852.7 536.78C853.21 535.54 853.23 534.01 853.1 531.94C852.78 527.08 849.57 523.81 845.11 523.81C844.12 523.81 843.09 523.97 842.05 524.29C841.99 524.31 841.81 524.39 841.68 524.45C840.96 524.78 839.75 525.33 838.17 525.33C837.6 525.33 837.02 525.26 836.45 525.12L833.88 524.48L833.46 521.87C832.72 517.27 831.44 515.01 828.89 513.82L826.14 512.53L826.64 509.54C827.22 506.06 829.82 504.9 830.93 504.41C831.04 504.36 831.16 504.31 831.27 504.25C852.41 490.78 864.52 473.47 868.27 451.35C871.3 433.44 868.86 415.3 860.79 395.89C849.76 369.35 831.02 349.4 803.49 334.9C790.72 328.17 776.27 324.26 760.54 323.26C760.36 323.25 760.18 323.24 760 323.24C759.08 323.24 758.08 323.37 756.92 323.52C755.44 323.71 753.76 323.92 751.81 323.92C751.65 323.92 751.5 323.92 751.34 323.92L739.73 323.71L749 316.72C752.84 313.82 757.07 310.95 762.74 310.46C772.85 309.59 782.16 305.36 790.42 297.89C791.61 296.81 793.49 295.38 796.05 295.38C798.09 295.38 799.77 296.31 801.01 297.12C804.1 299.14 807.22 300.17 810.29 300.17C813.55 300.17 816.86 299.01 820.13 296.73C823.06 294.69 825.98 292.52 828.81 290.3C833.23 286.83 836.27 282.01 838.67 274.69C839.76 271.37 840.88 267.93 845.34 267.93C846.3 267.93 847.26 268.1 848.59 268.33L849.15 268.43C864.37 271.07 877.98 278.34 891.99 291.31C893.49 292.7 895.04 294.1 896.54 295.45C898.66 297.37 900.86 299.35 902.99 301.37C915.56 313.3 926.61 328.37 936.79 347.46C941.59 356.47 946.59 366.48 952.08 378.06C954.78 383.75 955.56 389.73 955.94 394.3C956.4 399.83 957.31 404.59 958.72 408.86C960.69 414.8 962.65 421.76 961.06 429.28C960.73 430.85 961.22 432.87 961.8 434.97C964.34 444.18 963.29 452.91 961.77 460.97Z" fill="#EDF2D4"/>
</svg>
