<?xml version="1.0" encoding="utf-8"?>
<!-- Generator: Adobe Illustrator 27.6.1, SVG Export Plug-In . SVG Version: 6.00 Build 0)  -->
<svg version="1.1" id="Layer_1" xmlns="http://www.w3.org/2000/svg" xmlns:xlink="http://www.w3.org/1999/xlink" x="0px" y="0px"
	 viewBox="0 0 800 800" style="enable-background:new 0 0 800 800;" xml:space="preserve">
<style type="text/css">
	.st0{fill:#4C4C4D;}
</style>
<path class="st0" d="M323.3,511.5V288.5l196,111.5L323.3,511.5z M759.2,218.4c-8.9-32.5-33.9-57.7-65.6-66.6l-0.7-0.1
	c-79.8-10.2-172.1-16-265.8-16c-9.5,0-19,0.1-28.5,0.2l1.4,0c-8-0.1-17.5-0.2-27-0.2c-93.7,0-186.1,5.8-276.8,17l10.8-1.1
	c-32.4,9.1-57.4,34.2-66.1,66.1l-0.2,0.7c-10,52.7-15.7,113.4-15.7,175.4c0,2.2,0,4.4,0,6.6v-0.4c0,1.8,0,4.1,0,6.2
	c0,62,5.7,122.6,16.7,181.5l-1-6.1c8.8,32.5,33.9,57.7,65.6,66.6l0.7,0.2c79.8,10.1,172.1,16,265.9,16c9.5,0,19-0.1,28.5-0.2l-1.5,0
	c8.1,0.1,17.5,0.2,27.1,0.2c93.7,0,186.1-5.8,276.7-17l-10.8,1.1c32.5-9,57.5-34.2,66.2-66.1l0.1-0.7c10-52.7,15.7-113.4,15.7-175.4
	c0-2.2,0-4.4,0-6.6v0.3c0-1.9,0-4,0-6.2c0-62-5.7-122.6-16.7-181.5L759.2,218.4L759.2,218.4z"/>
</svg>
